<svg width="70" height="70" viewBox="0 0 70 70" fill="none" xmlns="http://www.w3.org/2000/svg">
<g clip-path="url(#clip0_7147_82958)">
<rect x="45.0116" y="50.3545" width="10.1639" height="12.0805" rx="2.90396" fill="#212121"/>
<rect x="7.26013" y="50.3545" width="10.1639" height="12.0805" rx="2.90396" fill="#212121"/>
<path d="M7.26013 42.63C7.26013 40.2243 9.21035 38.2741 11.6161 38.2741H50.8195C53.2252 38.2741 55.1754 40.2243 55.1754 42.63V52.3537C55.1754 53.7515 54.0423 54.8847 52.6445 54.8847H9.79111C8.39329 54.8847 7.26013 53.7515 7.26013 52.3537V42.63Z" fill="#1E88E5"/>
<path d="M42.6465 39.7842H19.789C18.7059 39.7842 18.0041 40.9273 18.4943 41.8932L20.0858 45.0295C20.3333 45.5172 20.8338 45.8244 21.3806 45.8244H41.0549C41.6017 45.8244 42.1022 45.5172 42.3497 45.0295L43.9412 41.8932C44.4314 40.9273 43.7296 39.7842 42.6465 39.7842Z" fill="#1976D2"/>
<rect x="10.1641" y="33.744" width="7.2599" height="4.53017" rx="2.26509" fill="#424242"/>
<rect x="45.0116" y="33.744" width="7.2599" height="4.53017" rx="2.26509" fill="#424242"/>
<path d="M18.5146 26.4071C18.8613 25.3772 19.8266 24.6835 20.9133 24.6835H41.5222C42.6089 24.6835 43.5743 25.3772 43.921 26.4071L47.9155 38.2741H14.52L18.5146 26.4071Z" fill="#1E88E5"/>
<path d="M20.6477 27.969C20.9781 26.9127 21.9565 26.1937 23.0632 26.1937H39.3723C40.479 26.1937 41.4574 26.9127 41.7878 27.969L44.4217 36.3886C44.7142 37.3237 44.0157 38.2741 43.036 38.2741H19.3995C18.4198 38.2741 17.7213 37.3237 18.0138 36.3886L20.6477 27.969Z" fill="#E3F2FD"/>
<path d="M20.403 28.0186C20.7171 26.9374 21.7076 26.1937 22.8335 26.1937H30.8901C32.016 26.1937 33.0065 26.9374 33.3206 28.0186L35.7602 36.4171C36.0301 37.346 35.3332 38.2741 34.3659 38.2741H19.3577C18.3904 38.2741 17.6935 37.346 17.9634 36.4171L20.403 28.0186Z" fill="#BBDEFB"/>
<path d="M21.1923 51.3522L22.5326 48.2159C22.761 47.6813 23.2864 47.3345 23.8677 47.3345H40.0198C40.6012 47.3345 41.1265 47.6813 41.355 48.2159L42.6953 51.3522C43.1046 52.3101 42.4018 53.3748 41.3601 53.3748H22.5275C21.4857 53.3748 20.7829 52.3101 21.1923 51.3522Z" fill="#1976D2"/>
<path d="M25.1717 51.5481L26.0094 48.4118C26.1791 47.7765 26.7546 47.3345 27.4122 47.3345H36.4753C37.1329 47.3345 37.7084 47.7765 37.8781 48.4118L38.7157 51.5481C38.962 52.47 38.2672 53.3748 37.3129 53.3748H26.5745C25.6203 53.3748 24.9255 52.47 25.1717 51.5481Z" fill="#1565C0"/>
<path d="M10.9621 43.2863C10.58 42.3324 11.2824 41.2943 12.31 41.2943H14.6265C15.22 41.2943 15.7537 41.6554 15.9744 42.2063L16.6259 43.8325C17.008 44.7864 16.3056 45.8245 15.2781 45.8245H12.9615C12.3681 45.8245 11.8344 45.4634 11.6137 44.9125L10.9621 43.2863Z" fill="white"/>
<path d="M46.4612 42.2063C46.6819 41.6554 47.2156 41.2943 47.809 41.2943H50.1256C51.1532 41.2943 51.8556 42.3324 51.4734 43.2863L50.8219 44.9125C50.6012 45.4634 50.0675 45.8245 49.4741 45.8245H47.1575C46.1299 45.8245 45.4275 44.7864 45.8097 43.8325L46.4612 42.2063Z" fill="white"/>
</g>
<rect x="26" y="8" width="36" height="36" rx="18" fill="#16A75C"/>
<path d="M50.6823 19.1825C50.9992 18.8807 51.421 18.7139 51.8586 18.7172C52.2962 18.7205 52.7154 18.8937 53.0278 19.2002C53.3401 19.5067 53.5212 19.9226 53.5328 20.36C53.5443 20.7975 53.3855 21.2224 53.0898 21.545L44.1123 32.7724C43.9579 32.9387 43.7716 33.0721 43.5645 33.1648C43.3574 33.2574 43.1337 33.3073 42.9069 33.3115C42.68 33.3157 42.4547 33.2741 42.2442 33.1892C42.0338 33.1043 41.8427 32.9779 41.6823 32.8174L35.7288 26.8639C35.563 26.7095 35.43 26.5232 35.3378 26.3162C35.2456 26.1092 35.196 25.8857 35.192 25.6591C35.188 25.4325 35.2297 25.2075 35.3145 24.9974C35.3994 24.7872 35.5257 24.5964 35.686 24.4361C35.8462 24.2759 36.0371 24.1495 36.2472 24.0647C36.4573 23.9798 36.6824 23.9381 36.909 23.9421C37.1356 23.9461 37.359 23.9957 37.566 24.0879C37.773 24.1802 37.9593 24.3132 38.1138 24.4789L42.8253 29.1882L50.6395 19.232C50.6536 19.2146 50.6686 19.1981 50.6845 19.1825H50.6823Z" fill="white"/>
<defs>
<clipPath id="clip0_7147_82958">
<rect width="55.1752" height="55.1752" fill="white" transform="translate(7.25989 7.25978)"/>
</clipPath>
</defs>
</svg>
