<svg width="71" height="70" viewBox="0 0 71 70" fill="none" xmlns="http://www.w3.org/2000/svg">
<g clip-path="url(#clip0_7147_82960)">
<rect x="45.7065" y="50.3545" width="10.1639" height="12.0805" rx="2.90396" fill="#212121"/>
<rect x="7.95514" y="50.3545" width="10.1639" height="12.0805" rx="2.90396" fill="#212121"/>
<path d="M7.95514 42.63C7.95514 40.2243 9.90536 38.2741 12.3111 38.2741H51.5145C53.9202 38.2741 55.8704 40.2243 55.8704 42.63V52.3537C55.8704 53.7515 54.7373 54.8847 53.3395 54.8847H10.4861C9.0883 54.8847 7.95514 53.7515 7.95514 52.3537V42.63Z" fill="#1E88E5"/>
<path d="M43.3415 39.7842H20.4841C19.4009 39.7842 18.6991 40.9273 19.1893 41.8932L20.7809 45.0295C21.0283 45.5172 21.5288 45.8244 22.0756 45.8244H41.7499C42.2967 45.8244 42.7972 45.5172 43.0447 45.0295L44.6363 41.8932C45.1264 40.9273 44.4246 39.7842 43.3415 39.7842Z" fill="#1976D2"/>
<rect x="10.8591" y="33.744" width="7.2599" height="4.53017" rx="2.26509" fill="#424242"/>
<rect x="45.7065" y="33.744" width="7.2599" height="4.53017" rx="2.26509" fill="#424242"/>
<path d="M19.2096 26.4071C19.5563 25.3772 20.5217 24.6835 21.6083 24.6835H42.2173C43.3039 24.6835 44.2693 25.3772 44.616 26.4071L48.6105 38.2741H15.215L19.2096 26.4071Z" fill="#1E88E5"/>
<path d="M21.3427 27.969C21.6731 26.9127 22.6515 26.1937 23.7582 26.1937H40.0673C41.174 26.1937 42.1524 26.9127 42.4828 27.969L45.1167 36.3886C45.4092 37.3237 44.7107 38.2741 43.731 38.2741H20.0945C19.1148 38.2741 18.4163 37.3237 18.7088 36.3886L21.3427 27.969Z" fill="#E3F2FD"/>
<path d="M21.098 28.0186C21.4121 26.9374 22.4026 26.1937 23.5285 26.1937H31.5851C32.711 26.1937 33.7015 26.9374 34.0156 28.0186L36.4553 36.4171C36.7251 37.346 36.0282 38.2741 35.0609 38.2741H20.0527C19.0854 38.2741 18.3886 37.346 18.6584 36.4171L21.098 28.0186Z" fill="#BBDEFB"/>
<path d="M21.8873 51.3522L23.2276 48.2159C23.456 47.6813 23.9814 47.3345 24.5627 47.3345H40.7148C41.2962 47.3345 41.8215 47.6813 42.05 48.2159L43.3903 51.3522C43.7996 52.3101 43.0969 53.3748 42.0551 53.3748H23.2225C22.1807 53.3748 21.4779 52.3101 21.8873 51.3522Z" fill="#1976D2"/>
<path d="M25.8667 51.5481L26.7044 48.4118C26.8741 47.7765 27.4496 47.3345 28.1072 47.3345H37.1703C37.8279 47.3345 38.4034 47.7765 38.5731 48.4118L39.4107 51.5481C39.657 52.47 38.9622 53.3748 38.0079 53.3748H27.2695C26.3153 53.3748 25.6205 52.47 25.8667 51.5481Z" fill="#1565C0"/>
<path d="M11.6571 43.2863C11.275 42.3324 11.9774 41.2943 13.005 41.2943H15.3215C15.915 41.2943 16.4487 41.6554 16.6694 42.2063L17.3209 43.8325C17.7031 44.7864 17.0006 45.8245 15.9731 45.8245H13.6565C13.0631 45.8245 12.5294 45.4634 12.3087 44.9125L11.6571 43.2863Z" fill="white"/>
<path d="M47.1561 42.2063C47.3768 41.6554 47.9105 41.2943 48.504 41.2943H50.8205C51.8481 41.2943 52.5505 42.3324 52.1684 43.2863L51.5168 44.9125C51.2961 45.4634 50.7624 45.8245 50.169 45.8245H47.8524C46.8249 45.8245 46.1225 44.7864 46.5046 43.8325L47.1561 42.2063Z" fill="white"/>
</g>
<g clip-path="url(#clip1_7147_82960)">
<circle cx="44.695" cy="26" r="18" fill="#EF5350"/>
<g clip-path="url(#clip2_7147_82960)">
<g clip-path="url(#clip3_7147_82960)">
<path fill-rule="evenodd" clip-rule="evenodd" d="M38.1079 19.7201C38.596 19.2319 39.4666 19.311 40.0524 19.8968L50.659 30.5034C51.2448 31.0892 51.324 31.9598 50.8358 32.448C50.3476 32.9361 49.477 32.857 48.8913 32.2712L38.2847 21.6646C37.6989 21.0788 37.6197 20.2082 38.1079 19.7201Z" fill="white"/>
<path fill-rule="evenodd" clip-rule="evenodd" d="M50.8358 19.7201C51.324 20.2082 51.2448 21.0788 50.659 21.6646L40.0524 32.2712C39.4666 32.857 38.596 32.9361 38.1079 32.448C37.6197 31.9598 37.6989 31.0892 38.2847 30.5034L48.8913 19.8968C49.477 19.311 50.3477 19.2319 50.8358 19.7201Z" fill="white"/>
</g>
</g>
</g>
<defs>
<clipPath id="clip0_7147_82960">
<rect width="55.1752" height="55.1752" fill="white" transform="translate(7.9549 7.25978)"/>
</clipPath>
<clipPath id="clip1_7147_82960">
<rect width="36" height="36" fill="white" transform="translate(26.695 8)"/>
</clipPath>
<clipPath id="clip2_7147_82960">
<rect width="24" height="24" fill="white" transform="translate(32.295 14.4)"/>
</clipPath>
<clipPath id="clip3_7147_82960">
<rect width="19.799" height="19.799" fill="white" transform="translate(30.295 26.4) rotate(-45)"/>
</clipPath>
</defs>
</svg>
