<svg width="65" height="65" viewBox="0 0 65 65" fill="none" xmlns="http://www.w3.org/2000/svg">
<g opacity="0.25">
<rect x="64.9473" width="2.91371" height="2.91371" rx="1.45686" transform="rotate(90 64.9473 0)" fill="#E3F2FD"/>
<rect x="29.9827" width="2.91371" height="2.91371" rx="1.45686" transform="rotate(90 29.9827 0)" fill="#90CAF9"/>
<rect x="47.4653" width="2.91371" height="2.91371" rx="1.45686" transform="rotate(90 47.4653 0)" fill="#BBDEFB"/>
<rect x="12.5005" width="2.91371" height="2.91371" rx="1.45686" transform="rotate(90 12.5005 0)" fill="#64B5F6"/>
<rect x="56.2063" width="2.91371" height="2.91371" rx="1.45686" transform="rotate(90 56.2063 0)" fill="#E3F2FD"/>
<rect x="21.2417" width="2.91371" height="2.91371" rx="1.45686" transform="rotate(90 21.2417 0)" fill="#90CAF9"/>
<rect x="38.7239" width="2.91371" height="2.91371" rx="1.45686" transform="rotate(90 38.7239 0)" fill="#BBDEFB"/>
<rect x="3.75928" width="2.91371" height="2.91371" rx="1.45686" transform="rotate(90 3.75928 0)" fill="#64B5F6"/>
<rect x="64.9473" y="26.2234" width="2.91371" height="2.91371" rx="1.45686" transform="rotate(90 64.9473 26.2234)" fill="#BBDEFB"/>
<rect x="29.9827" y="26.2234" width="2.91371" height="2.91371" rx="1.45686" transform="rotate(90 29.9827 26.2234)" fill="#90CAF9"/>
<rect x="47.4653" y="26.2234" width="2.91371" height="2.91371" rx="1.45686" transform="rotate(90 47.4653 26.2234)" fill="#BBDEFB"/>
<rect x="12.5005" y="26.2234" width="2.91371" height="2.91371" rx="1.45686" transform="rotate(90 12.5005 26.2234)" fill="#64B5F6"/>
<rect x="56.2063" y="26.2234" width="2.91371" height="2.91371" rx="1.45686" transform="rotate(90 56.2063 26.2234)" fill="#BBDEFB"/>
<rect x="21.2417" y="26.2234" width="2.91371" height="2.91371" rx="1.45686" transform="rotate(90 21.2417 26.2234)" fill="#90CAF9"/>
<rect x="38.7239" y="26.2234" width="2.91371" height="2.91371" rx="1.45686" transform="rotate(90 38.7239 26.2234)" fill="#BBDEFB"/>
<rect x="3.75928" y="26.2234" width="2.91371" height="2.91371" rx="1.45686" transform="rotate(90 3.75928 26.2234)" fill="#64B5F6"/>
<rect x="64.9473" y="8.74115" width="2.91371" height="2.91371" rx="1.45686" transform="rotate(90 64.9473 8.74115)" fill="#E3F2FD"/>
<rect x="29.9827" y="8.74115" width="2.91371" height="2.91371" rx="1.45686" transform="rotate(90 29.9827 8.74115)" fill="#90CAF9"/>
<rect x="47.4653" y="8.74115" width="2.91371" height="2.91371" rx="1.45686" transform="rotate(90 47.4653 8.74115)" fill="#BBDEFB"/>
<rect x="12.5005" y="8.74115" width="2.91371" height="2.91371" rx="1.45686" transform="rotate(90 12.5005 8.74115)" fill="#64B5F6"/>
<rect x="56.2063" y="8.74115" width="2.91371" height="2.91371" rx="1.45686" transform="rotate(90 56.2063 8.74115)" fill="#E3F2FD"/>
<rect x="21.2417" y="8.74115" width="2.91371" height="2.91371" rx="1.45686" transform="rotate(90 21.2417 8.74115)" fill="#90CAF9"/>
<rect x="38.7239" y="8.74115" width="2.91371" height="2.91371" rx="1.45686" transform="rotate(90 38.7239 8.74115)" fill="#BBDEFB"/>
<rect x="3.75928" y="8.74115" width="2.91371" height="2.91371" rx="1.45686" transform="rotate(90 3.75928 8.74115)" fill="#64B5F6"/>
<rect x="64.9473" y="34.9647" width="2.91371" height="2.91371" rx="1.45686" transform="rotate(90 64.9473 34.9647)" fill="#90CAF9"/>
<rect x="29.9827" y="34.9647" width="2.91371" height="2.91371" rx="1.45686" transform="rotate(90 29.9827 34.9647)" fill="#90CAF9"/>
<rect x="47.4651" y="34.9647" width="2.91371" height="2.91371" rx="1.45686" transform="rotate(90 47.4651 34.9647)" fill="#90CAF9"/>
<rect x="12.5005" y="34.9647" width="2.91371" height="2.91371" rx="1.45686" transform="rotate(90 12.5005 34.9647)" fill="#64B5F6"/>
<rect x="56.2061" y="34.9647" width="2.91371" height="2.91371" rx="1.45686" transform="rotate(90 56.2061 34.9647)" fill="#90CAF9"/>
<rect x="21.2417" y="34.9647" width="2.91371" height="2.91371" rx="1.45686" transform="rotate(90 21.2417 34.9647)" fill="#90CAF9"/>
<rect x="38.7239" y="34.9647" width="2.91371" height="2.91371" rx="1.45686" transform="rotate(90 38.7239 34.9647)" fill="#90CAF9"/>
<rect x="3.75928" y="34.9647" width="2.91371" height="2.91371" rx="1.45686" transform="rotate(90 3.75928 34.9647)" fill="#64B5F6"/>
<rect x="64.9473" y="52.4471" width="2.91371" height="2.91371" rx="1.45686" transform="rotate(90 64.9473 52.4471)" fill="#64B5F6"/>
<rect x="29.9827" y="52.4471" width="2.91371" height="2.91371" rx="1.45686" transform="rotate(90 29.9827 52.4471)" fill="#64B5F6"/>
<rect x="47.4651" y="52.4471" width="2.91371" height="2.91371" rx="1.45686" transform="rotate(90 47.4651 52.4471)" fill="#64B5F6"/>
<rect x="12.5005" y="52.4471" width="2.91371" height="2.91371" rx="1.45686" transform="rotate(90 12.5005 52.4471)" fill="#64B5F6"/>
<rect x="56.2061" y="52.4471" width="2.91371" height="2.91371" rx="1.45686" transform="rotate(90 56.2061 52.4471)" fill="#64B5F6"/>
<rect x="21.2417" y="52.4471" width="2.91371" height="2.91371" rx="1.45686" transform="rotate(90 21.2417 52.4471)" fill="#64B5F6"/>
<rect x="38.7239" y="52.4471" width="2.91371" height="2.91371" rx="1.45686" transform="rotate(90 38.7239 52.4471)" fill="#64B5F6"/>
<rect x="3.75928" y="52.4471" width="2.91371" height="2.91371" rx="1.45686" transform="rotate(90 3.75928 52.4471)" fill="#64B5F6"/>
<rect x="64.9473" y="17.4822" width="2.91371" height="2.91371" rx="1.45686" transform="rotate(90 64.9473 17.4822)" fill="#BBDEFB"/>
<rect x="29.9827" y="17.4822" width="2.91371" height="2.91371" rx="1.45686" transform="rotate(90 29.9827 17.4822)" fill="#90CAF9"/>
<rect x="47.4651" y="17.4822" width="2.91371" height="2.91371" rx="1.45686" transform="rotate(90 47.4651 17.4822)" fill="#BBDEFB"/>
<rect x="12.5005" y="17.4822" width="2.91371" height="2.91371" rx="1.45686" transform="rotate(90 12.5005 17.4822)" fill="#64B5F6"/>
<rect x="56.2063" y="17.4822" width="2.91371" height="2.91371" rx="1.45686" transform="rotate(90 56.2063 17.4822)" fill="#BBDEFB"/>
<rect x="21.2417" y="17.4822" width="2.91371" height="2.91371" rx="1.45686" transform="rotate(90 21.2417 17.4822)" fill="#90CAF9"/>
<rect x="38.7239" y="17.4822" width="2.91371" height="2.91371" rx="1.45686" transform="rotate(90 38.7239 17.4822)" fill="#BBDEFB"/>
<rect x="3.75928" y="17.4822" width="2.91371" height="2.91371" rx="1.45686" transform="rotate(90 3.75928 17.4822)" fill="#64B5F6"/>
<rect x="64.9473" y="43.7059" width="2.91371" height="2.91371" rx="1.45686" transform="rotate(90 64.9473 43.7059)" fill="#90CAF9"/>
<rect x="29.9827" y="43.7059" width="2.91371" height="2.91371" rx="1.45686" transform="rotate(90 29.9827 43.7059)" fill="#90CAF9"/>
<rect x="47.4651" y="43.7059" width="2.91371" height="2.91371" rx="1.45686" transform="rotate(90 47.4651 43.7059)" fill="#90CAF9"/>
<rect x="12.5005" y="43.7059" width="2.91371" height="2.91371" rx="1.45686" transform="rotate(90 12.5005 43.7059)" fill="#64B5F6"/>
<rect x="56.2061" y="43.7059" width="2.91371" height="2.91371" rx="1.45686" transform="rotate(90 56.2061 43.7059)" fill="#90CAF9"/>
<rect x="21.2415" y="43.7059" width="2.91371" height="2.91371" rx="1.45686" transform="rotate(90 21.2415 43.7059)" fill="#90CAF9"/>
<rect x="38.7239" y="43.7059" width="2.91371" height="2.91371" rx="1.45686" transform="rotate(90 38.7239 43.7059)" fill="#90CAF9"/>
<rect x="3.75928" y="43.7059" width="2.91371" height="2.91371" rx="1.45686" transform="rotate(90 3.75928 43.7059)" fill="#64B5F6"/>
<rect x="64.9473" y="61.1883" width="2.91371" height="2.91371" rx="1.45686" transform="rotate(90 64.9473 61.1883)" fill="#64B5F6"/>
<rect x="29.9827" y="61.1883" width="2.91371" height="2.91371" rx="1.45686" transform="rotate(90 29.9827 61.1883)" fill="#64B5F6"/>
<rect x="47.4651" y="61.1883" width="2.91371" height="2.91371" rx="1.45686" transform="rotate(90 47.4651 61.1883)" fill="#64B5F6"/>
<rect x="12.5005" y="61.1883" width="2.91371" height="2.91371" rx="1.45686" transform="rotate(90 12.5005 61.1883)" fill="#64B5F6"/>
<rect x="56.2061" y="61.1883" width="2.91371" height="2.91371" rx="1.45686" transform="rotate(90 56.2061 61.1883)" fill="#64B5F6"/>
<rect x="21.2417" y="61.1883" width="2.91371" height="2.91371" rx="1.45686" transform="rotate(90 21.2417 61.1883)" fill="#64B5F6"/>
<rect x="38.7239" y="61.1883" width="2.91371" height="2.91371" rx="1.45686" transform="rotate(90 38.7239 61.1883)" fill="#64B5F6"/>
<rect x="3.75928" y="61.1883" width="2.91371" height="2.91371" rx="1.45686" transform="rotate(90 3.75928 61.1883)" fill="#64B5F6"/>
</g>
</svg>
