<svg width="40" height="40" viewBox="0 0 40 40" fill="none" xmlns="http://www.w3.org/2000/svg">
    <rect width="40" height="40" rx="20" fill="#EEEEEE" />
    <g clip-path="url(#clip0_6885_2376)">
        <path
            d="M10.9628 13C10.9628 11.8954 11.8582 11 12.9628 11H22.4628C23.5673 11 24.4628 11.8954 24.4628 13V27.5C24.4628 28.3284 23.7912 29 22.9628 29H12.4628C11.6343 29 10.9628 28.3284 10.9628 27.5V13Z"
            fill="#1E88E5" />
        <rect x="13" y="13.25" width="6.44318" height="0.84375" rx="0.421875" fill="white" />
        <rect x="13" y="14.9375" width="7.875" height="0.84375" rx="0.421875" fill="#90CAF9" />
        <rect x="13" y="17.4688" width="4.29545" height="0.84375" rx="0.421875" fill="white" />
        <rect x="13" y="19.1562" width="7.875" height="0.84375" rx="0.421875" fill="#90CAF9" />
        <path
            d="M13 25.375C13 25.1679 13.1679 25 13.375 25H26.625C26.8321 25 27 25.1679 27 25.375V26.75C27 27.9926 25.9926 29 24.75 29H15C13.8954 29 13 28.1046 13 27V25.375Z"
            fill="#42A5F5" />
        <path d="M13 25H16V27.5C16 28.3284 15.3284 29 14.5 29C13.6716 29 13 28.3284 13 27.5V25Z" fill="#1E88E5" />
        <path
            d="M25.991 14.7046C26.5043 14.0544 27.4475 13.9433 28.0978 14.4566L28.3921 14.689C29.0424 15.2023 29.1534 16.1455 28.6401 16.7958L24.561 21.9632C24.4167 22.146 24.2319 22.2926 24.0211 22.3916L22.2837 23.2072C21.7243 23.4698 21.1051 22.9811 21.2307 22.3759L21.6206 20.4967C21.6679 20.2687 21.7676 20.0548 21.9119 19.872L25.991 14.7046Z"
            fill="#FFB900" />
    </g>
    <defs>
        <clipPath id="clip0_6885_2376">
            <rect width="18" height="18" fill="white" transform="translate(11 11)" />
        </clipPath>
    </defs>
</svg>