<svg width="24" height="24" viewBox="0 0 24 24" fill="none" xmlns="http://www.w3.org/2000/svg">
<g clip-path="url(#clip0_6459_71794)">
<circle cx="12" cy="8" r="5" fill="#2196F3"/>
<path fill-rule="evenodd" clip-rule="evenodd" d="M12 7.00049C11.0878 8.21466 9.6356 9 8 9C7.68704 9 7.38079 8.97125 7.08376 8.91624C7.02875 8.61921 7 8.31296 7 8C7 5.55154 8.75992 3.51413 11.0838 3.08376C11.0941 3.08184 11.1045 3.07995 11.1149 3.07809C11.4022 3.02678 11.698 3 12 3C12.313 3 12.6192 3.02875 12.9162 3.08376C15.2401 3.51413 17 5.55154 17 8C17 8.31296 16.9712 8.61921 16.9162 8.91624C16.6192 8.97125 16.313 9 16 9C14.3644 9 12.9122 8.21466 12 7.00049Z" fill="#1976D2"/>
<path d="M4 21C4 17.6863 6.68629 15 10 15H14C17.3137 15 20 17.6863 20 21H4Z" fill="#1E88E5"/>
<path d="M18.0281 11.9719C18.5804 11.4196 19.4758 11.4196 20.0281 11.9719C20.5803 12.5242 20.5803 13.4196 20.0281 13.9719L15.8869 18.1131C15.6161 18.3839 15.2733 18.5712 14.8991 18.6529L13.675 18.9201C13.3191 18.9977 13.0022 18.6809 13.0799 18.3249L13.3471 17.1009C13.4287 16.7267 13.6161 16.3839 13.8869 16.1131L18.0281 11.9719Z" fill="#FFB900"/>
<line x1="17.3536" y1="12.6464" x2="19.3536" y2="14.6464" stroke="white"/>
</g>
<defs>
<clipPath id="clip0_6459_71794">
<rect width="18" height="18" fill="white" transform="translate(3 3)"/>
</clipPath>
</defs>
</svg>
