<svg width="24" height="24" viewBox="0 0 24 24" fill="none" xmlns="http://www.w3.org/2000/svg">
<path d="M18 5H7H6V10H18V5Z" fill="#FFA600"/>
<path d="M20 10H5.33333H4V17H20V10Z" fill="#2196F3"/>
<path d="M19.8948 9.44039L18.6636 5.7459C18.485 5.20813 18.1415 4.74032 17.6818 4.40895C17.2221 4.07758 16.6697 3.89949 16.1031 3.89999H7.8969C7.33025 3.89949 6.77785 4.07758 6.3182 4.40895C5.85854 4.74032 5.515 5.20813 5.3364 5.7459L4.1052 9.44039C3.77815 9.57762 3.49885 9.80828 3.30226 10.1035C3.10567 10.3987 3.00053 10.7453 3 11.1V15.6C3 16.2777 3.3807 16.8618 3.9351 17.1687C3.9234 17.2281 3.9 17.2821 3.9 17.3442V19.2C3.9 19.4387 3.99482 19.6676 4.1636 19.8364C4.33239 20.0052 4.56131 20.1 4.8 20.1H5.7C5.93869 20.1 6.16761 20.0052 6.3364 19.8364C6.50518 19.6676 6.6 19.4387 6.6 19.2V17.4H17.4V19.2C17.4 19.4387 17.4948 19.6676 17.6636 19.8364C17.8324 20.0052 18.0613 20.1 18.3 20.1H19.2C19.4387 20.1 19.6676 20.0052 19.8364 19.8364C20.0052 19.6676 20.1 19.4387 20.1 19.2V17.3442C20.1 17.2821 20.0766 17.2272 20.0649 17.1687C20.347 17.0149 20.5825 16.7882 20.747 16.5123C20.9115 16.2363 20.9989 15.9212 21 15.6V11.1C21 10.3539 20.5428 9.71309 19.8948 9.44039ZM4.8 15.6V11.1H19.2L19.2018 15.6H4.8ZM7.8969 5.69999H16.1022C16.4901 5.69999 16.8339 5.94659 16.9563 6.31559L17.9517 9.29999H6.0483L7.0428 6.31559C7.10251 6.13631 7.21714 5.98037 7.37044 5.86988C7.52374 5.75938 7.70793 5.69995 7.8969 5.69999Z" fill="#1976D2"/>
<path d="M7.95001 14.7C8.69559 14.7 9.30001 14.0956 9.30001 13.35C9.30001 12.6044 8.69559 12 7.95001 12C7.20442 12 6.60001 12.6044 6.60001 13.35C6.60001 14.0956 7.20442 14.7 7.95001 14.7Z" fill="white"/>
<path d="M16.05 14.7C16.7956 14.7 17.4 14.0956 17.4 13.35C17.4 12.6044 16.7956 12 16.05 12C15.3044 12 14.7 12.6044 14.7 13.35C14.7 14.0956 15.3044 14.7 16.05 14.7Z" fill="white"/>
</svg>
