<svg width="16" height="16" viewBox="0 0 16 16" fill="none" xmlns="http://www.w3.org/2000/svg">
    <path
        d="M8.42401 2.66663C9.72604 2.66663 10.9748 3.18386 11.8954 4.10454C12.8161 5.02522 13.3333 6.27392 13.3333 7.57596M8.66667 5.33329C9.19711 5.33329 9.70581 5.54401 10.0809 5.91908C10.456 6.29415 10.6667 6.80286 10.6667 7.33329M4.66667 3.99996L3.01001 4.41396C2.41667 4.56263 1.98734 5.09996 2.10867 5.69929C2.81534 9.17463 6.82534 13.1846 10.3007 13.8906C10.9007 14.0126 11.4373 13.584 11.586 12.9906L11.9993 11.3333L9.66601 9.99996L8.66601 11C7.33267 10.3333 5.66601 8.66663 4.99934 7.33329L6.00001 6.33329L4.66667 3.99996Z"
        stroke="#757575" stroke-width="1.33333" stroke-linecap="round" stroke-linejoin="round" />
</svg>