<svg width="24" height="24" viewBox="0 0 24 24" fill="none" xmlns="http://www.w3.org/2000/svg">
    <path
        d="M5.58333 19C4.31528 19 3.23453 18.5475 2.34108 17.6424C1.44703 16.7368 1 15.6417 1 14.3571C1 13.0726 1.44703 11.9775 2.34108 11.0719C3.23453 10.1668 4.31528 9.71429 5.58333 9.71429H16.2167L14.3833 7.85714H12C11.7403 7.85714 11.5227 7.76831 11.3473 7.59064C11.1713 7.41236 11.0833 7.19167 11.0833 6.92857C11.0833 6.66548 11.1713 6.44479 11.3473 6.2665C11.5227 6.08883 11.7403 6 12 6H14.7271C14.8493 6 14.9679 6.02321 15.0828 6.06964C15.197 6.11607 15.3 6.18571 15.3917 6.27857L18.8292 9.76071C20.0208 9.85357 21.0139 10.3411 21.8083 11.2232C22.6028 12.1054 23 13.15 23 14.3571C23 15.6417 22.5533 16.7368 21.6598 17.6424C20.7658 18.5475 19.6847 19 18.4167 19C17.1486 19 16.0679 18.5475 15.1744 17.6424C14.2804 16.7368 13.8333 15.6417 13.8333 14.3571C13.8333 14.0786 13.8523 13.8037 13.8902 13.5326C13.9287 13.262 14.0014 12.9952 14.1083 12.7321L12.1146 14.7518C11.9465 14.922 11.7519 15.0536 11.5307 15.1464C11.3088 15.2393 11.0757 15.2857 10.8313 15.2857H10.075C9.86111 16.369 9.33403 17.2589 8.49375 17.9554C7.65347 18.6518 6.68333 19 5.58333 19ZM18.4167 17.1429C19.1806 17.1429 19.8299 16.872 20.3646 16.3304C20.8993 15.7887 21.1667 15.131 21.1667 14.3571C21.1667 13.5833 20.8993 12.9256 20.3646 12.3839C19.8299 11.8423 19.1806 11.5714 18.4167 11.5714C17.6528 11.5714 17.0035 11.8423 16.4688 12.3839C15.934 12.9256 15.6667 13.5833 15.6667 14.3571C15.6667 15.131 15.934 15.7887 16.4688 16.3304C17.0035 16.872 17.6528 17.1429 18.4167 17.1429ZM5.58333 17.1429C6.16389 17.1429 6.68731 16.9726 7.15358 16.6321C7.61925 16.2917 7.95139 15.8429 8.15 15.2857H6.5C6.24028 15.2857 6.02242 15.1966 5.84642 15.0183C5.67103 14.8406 5.58333 14.6202 5.58333 14.3571C5.58333 14.094 5.67103 13.8734 5.84642 13.6951C6.02242 13.5174 6.24028 13.4286 6.5 13.4286H8.15C7.95139 12.8714 7.61925 12.4226 7.15358 12.0821C6.68731 11.7417 6.16389 11.5714 5.58333 11.5714C4.81944 11.5714 4.17014 11.8423 3.63542 12.3839C3.10069 12.9256 2.83333 13.5833 2.83333 14.3571C2.83333 15.131 3.10069 15.7887 3.63542 16.3304C4.17014 16.872 4.81944 17.1429 5.58333 17.1429ZM10.1208 13.4286H10.8083L12.6417 11.5714H9.20417C9.43333 11.8345 9.62431 12.1208 9.77708 12.4304C9.92986 12.7399 10.0444 13.0726 10.1208 13.4286ZM10.1208 11.5714H9.20417H12.6417H10.8083H10.1208Z"
        fill="#616161" />
    <path
        d="M18.5 16C19.3284 16 20 15.3284 20 14.5C20 13.6716 19.3284 13 18.5 13C17.6716 13 17 13.6716 17 14.5C17 15.3284 17.6716 16 18.5 16Z"
        fill="#1976D2" />
    <path
        d="M5.5 16C6.32843 16 7 15.3284 7 14.5C7 13.6716 6.32843 13 5.5 13C4.67157 13 4 13.6716 4 14.5C4 15.3284 4.67157 16 5.5 16Z"
        fill="#1976D2" />
</svg>