<svg width="80" height="80" viewBox="0 0 80 80" fill="none" xmlns="http://www.w3.org/2000/svg">
    <mask id="mask0_14344_325939" style="mask-type:alpha" maskUnits="userSpaceOnUse" x="0" y="0" width="80" height="80">
        <rect width="80" height="80" fill="#1E88E5" />
    </mask>
    <g mask="url(#mask0_14344_325939)">
        <path
            d="M32.6667 72.4998C25.0556 70.7775 18.8194 66.8886 13.9583 60.8331C9.09722 54.7775 6.66666 47.8331 6.66666 39.9997C6.66666 32.1664 9.09722 25.222 13.9583 19.1664C18.8194 13.1109 25.0556 9.22197 32.6667 7.49975C33.7222 7.22197 34.6528 7.41641 35.4583 8.08308C36.2639 8.74975 36.6667 9.63864 36.6667 10.7497C36.6667 11.5275 36.4444 12.222 36 12.8331C35.5556 13.4442 34.9444 13.8331 34.1667 13.9997C28.0556 15.3886 23.0556 18.4997 19.1667 23.3331C15.2778 28.1664 13.3333 33.722 13.3333 39.9997C13.3333 46.2775 15.2778 51.8331 19.1667 56.6664C23.0556 61.4998 28.0556 64.6109 34.1667 65.9998C34.9444 66.1664 35.5556 66.5553 36 67.1664C36.4444 67.7775 36.6667 68.472 36.6667 69.2498C36.6667 70.3609 36.2639 71.2498 35.4583 71.9164C34.6528 72.5831 33.7222 72.7775 32.6667 72.4998ZM47.3333 72.4998C46.2778 72.7775 45.3472 72.5831 44.5417 71.9164C43.7361 71.2498 43.3333 70.3609 43.3333 69.2498C43.3333 68.472 43.5556 67.7775 44 67.1664C44.4444 66.5553 45.0556 66.1664 45.8333 65.9998C47.3333 65.6664 48.7917 65.2081 50.2083 64.6248C51.625 64.0414 52.9722 63.3331 54.25 62.4998C54.8611 62.0553 55.5417 61.8886 56.2917 61.9998C57.0417 62.1109 57.6944 62.4442 58.25 62.9998C59.0278 63.7775 59.3611 64.6803 59.25 65.7081C59.1389 66.7359 58.6389 67.5553 57.75 68.1664C56.1389 69.1664 54.4583 70.0275 52.7083 70.7498C50.9583 71.472 49.1667 72.0553 47.3333 72.4998ZM63 58.3331C62.4444 57.7775 62.1111 57.1248 62 56.3748C61.8889 55.6248 62.0556 54.9442 62.5 54.3331C63.3333 53.0553 64.0417 51.6942 64.625 50.2498C65.2083 48.8053 65.6667 47.3331 66 45.8331C66.1667 45.0553 66.5556 44.4581 67.1667 44.0414C67.7778 43.6248 68.4722 43.4164 69.25 43.4164C70.3611 43.4164 71.25 43.8192 71.9167 44.6248C72.5833 45.4303 72.7778 46.3609 72.5 47.4164C72.0556 49.2498 71.4722 51.0414 70.75 52.7914C70.0278 54.5414 69.1667 56.222 68.1667 57.8331C67.5556 58.722 66.7361 59.222 65.7083 59.3331C64.6806 59.4442 63.7778 59.1109 63 58.3331ZM69.25 36.6664C68.4722 36.6664 67.7778 36.4442 67.1667 35.9997C66.5556 35.5553 66.1667 34.9442 66 34.1664C65.6667 32.6664 65.2083 31.2081 64.625 29.7914C64.0417 28.3747 63.3333 27.0275 62.5 25.7497C62.0556 25.0831 61.8889 24.3747 62 23.6247C62.1111 22.8747 62.4444 22.222 63 21.6664C63.7778 20.8886 64.6806 20.5553 65.7083 20.6664C66.7361 20.7775 67.5556 21.3053 68.1667 22.2497C69.1667 23.8609 70.0278 25.5414 70.75 27.2914C71.4722 29.0414 72.0556 30.8331 72.5 32.6664C72.7778 33.722 72.5833 34.6525 71.9167 35.4581C71.25 36.2636 70.3611 36.6664 69.25 36.6664ZM54.25 17.4997C52.9722 16.6664 51.625 15.9581 50.2083 15.3747C48.7917 14.7914 47.3333 14.3331 45.8333 13.9997C45.0556 13.8331 44.4444 13.4442 44 12.8331C43.5556 12.222 43.3333 11.5275 43.3333 10.7497C43.3333 9.63864 43.7361 8.74975 44.5417 8.08308C45.3472 7.41641 46.2778 7.22197 47.3333 7.49975C49.1667 7.94419 50.9583 8.52752 52.7083 9.24975C54.4583 9.97197 56.1389 10.8331 57.75 11.8331C58.6944 12.4442 59.2222 13.2636 59.3333 14.2914C59.4444 15.3192 59.1111 16.222 58.3333 16.9997C57.7778 17.5553 57.125 17.8886 56.375 17.9997C55.625 18.1109 54.9167 17.9442 54.25 17.4997ZM43.25 43.7497L49.4167 37.5831C50.0833 36.9164 50.8889 36.5831 51.8333 36.5831C52.7778 36.5831 53.5833 36.9164 54.25 37.5831C54.9167 38.2498 55.2361 39.0553 55.2083 39.9997C55.1806 40.9442 54.8333 41.7498 54.1667 42.4164L42.25 54.3331C41.6389 54.9442 40.8611 55.2498 39.9167 55.2498C38.9722 55.2498 38.1944 54.9442 37.5833 54.3331L25.5 42.1664C24.8333 41.4998 24.5139 40.7081 24.5417 39.7914C24.5694 38.8747 24.9167 38.0831 25.5833 37.4164C26.25 36.7498 27.0417 36.4164 27.9583 36.4164C28.875 36.4164 29.6667 36.7498 30.3333 37.4164L36.5833 43.7497V26.6664C36.5833 25.722 36.9028 24.9303 37.5417 24.2914C38.1806 23.6525 38.9722 23.3331 39.9167 23.3331C40.8611 23.3331 41.6528 23.6525 42.2917 24.2914C42.9306 24.9303 43.25 25.722 43.25 26.6664V43.7497Z"
            fill="#1E88E5" />
    </g>
</svg>