<svg width="16" height="17" viewBox="0 0 16 17" fill="none" xmlns="http://www.w3.org/2000/svg">
<mask id="mask0_7147_99589" style="mask-type:alpha" maskUnits="userSpaceOnUse" x="0" y="0" width="16" height="17">
<rect y="0.5" width="16" height="16" fill="#D9D9D9"/>
</mask>
<g mask="url(#mask0_7147_99589)">
<path d="M7.33333 13.8334C7.14444 13.8334 6.98611 13.7695 6.85833 13.6417C6.73055 13.5139 6.66667 13.3556 6.66667 13.1667V9.16669L2.8 4.23335C2.63333 4.01113 2.60833 3.7778 2.725 3.53335C2.84166 3.28891 3.04444 3.16669 3.33333 3.16669H12.6667C12.9556 3.16669 13.1583 3.28891 13.275 3.53335C13.3917 3.7778 13.3667 4.01113 13.2 4.23335L9.33333 9.16669V13.1667C9.33333 13.3556 9.26944 13.5139 9.14167 13.6417C9.01389 13.7695 8.85555 13.8334 8.66667 13.8334H7.33333ZM8 8.70002L11.3 4.50002H4.7L8 8.70002Z" fill="#1565C0"/>
</g>
</svg>
