<svg width="19" height="19" viewBox="0 0 19 19" fill="none" xmlns="http://www.w3.org/2000/svg">
<path d="M8.53515 8.53507H6.01329M16.1007 16.1006L12.8684 12.8626L16.1007 16.1006ZM14.6597 8.53507C14.6597 10.1594 14.0144 11.7172 12.8658 12.8658C11.7173 14.0143 10.1595 14.6596 8.53515 14.6596C6.91083 14.6596 5.35304 14.0143 4.20447 12.8658C3.0559 11.7172 2.41064 10.1594 2.41064 8.53507C2.41064 6.91075 3.0559 5.35296 4.20447 4.20439C5.35304 3.05583 6.91083 2.41057 8.53515 2.41057C10.1595 2.41057 11.7173 3.05583 12.8658 4.20439C14.0144 5.35296 14.6597 6.91075 14.6597 8.53507V8.53507ZM8.53515 6.01322V8.53507V6.01322ZM8.53515 8.53507V11.0569V8.53507ZM8.53515 8.53507H11.057H8.53515Z" stroke="white" stroke-width="1.08079" stroke-linecap="round" stroke-linejoin="round"/>
</svg>
