<svg width="328" height="116" viewBox="0 0 328 116" fill="none" xmlns="http://www.w3.org/2000/svg">
    <g clip-path="url(#clip0_4500_76513)">
        <g clip-path="url(#clip1_4500_76513)">
            <path
                d="M204.902 47.7828C204.886 47.8984 131.923 47.8984 131.923 47.8984C131.758 47.3226 131.67 46.7273 131.659 46.1279C131.659 46.0586 131.659 45.9892 131.659 45.9199C131.687 44.8299 131.983 43.7643 132.518 42.8194C133.054 41.8745 133.813 41.08 134.727 40.5077C135.641 39.9353 136.68 39.6032 137.752 39.5413C138.824 39.4794 139.894 39.6896 140.866 40.1531C141.703 37.8917 143.201 35.9447 145.159 34.5736C147.118 33.2025 149.442 32.473 151.821 32.4831C154.199 32.4931 156.517 33.2423 158.464 34.6299C160.411 36.0176 161.894 37.9772 162.712 40.2455C164.69 38.7755 167.395 37.8671 170.381 37.8671C174.664 37.8671 178.362 39.7301 180.166 42.439C180.728 41.8851 181.409 41.4726 182.156 41.2346C182.902 40.9966 183.693 40.9397 184.466 41.0685C185.238 41.1973 185.97 41.5081 186.602 41.9762C187.235 42.4442 187.751 43.0563 188.108 43.7634C189.389 42.9336 191.171 42.4159 193.156 42.4159C196.341 42.4159 198.999 43.7495 199.871 45.557C200.175 45.2688 200.534 45.0483 200.927 44.9094C201.319 44.7706 201.736 44.7165 202.15 44.7506C202.565 44.7848 202.967 44.9065 203.333 45.1078C203.698 45.3091 204.018 45.5857 204.272 45.9199C204.682 46.4513 204.904 47.1075 204.902 47.7828Z"
                fill="#E3F2FD" />
            <path
                d="M254.366 34.7829C254.37 35.3128 254.464 35.8382 254.643 36.3368H307.364C307.533 35.8357 307.624 35.3116 307.634 34.7829C307.634 34.6117 307.634 34.4473 307.609 34.2851C307.519 33.3428 307.167 32.4444 306.593 31.6906C306.02 30.9368 305.247 30.3575 304.362 30.0177C303.478 29.6779 302.515 29.591 301.584 29.7668C300.652 29.9425 299.788 30.374 299.089 31.0128C298.786 28.425 297.605 26.0186 295.744 24.193C293.882 22.3674 291.451 21.2325 288.855 20.9766C286.258 20.7207 283.652 21.3593 281.469 22.7862C279.286 24.2132 277.657 26.3428 276.854 28.8215C276.045 27.4533 274.845 26.3578 273.408 25.6755C271.972 24.9933 270.363 24.7555 268.79 24.9928C267.217 25.23 265.751 25.9314 264.58 27.0069C263.409 28.0825 262.587 29.483 262.219 31.0286C261.371 30.3325 260.308 29.9499 259.21 29.9453C258.011 29.9446 256.855 30.388 255.965 31.1897C255.074 31.9913 254.513 33.0943 254.391 34.2851C254.375 34.4473 254.366 34.6117 254.366 34.7829Z"
                fill="#E3F2FD" />
            <path
                d="M58.4146 53.3791C58.4185 53.8102 58.4953 54.2376 58.6417 54.6426H100.993C101.132 54.2357 101.208 53.8095 101.22 53.3791C101.22 53.2443 101.213 53.1095 101.199 52.9755C101.127 52.2095 100.844 51.4792 100.384 50.8664C99.9229 50.2537 99.3024 49.7827 98.5916 49.5064C97.8807 49.2302 97.1077 49.1595 96.3593 49.3024C95.6109 49.4452 94.9168 49.796 94.3548 50.3153C94.1102 48.2127 93.1614 46.2578 91.6658 44.7749C90.1701 43.292 88.2176 42.3702 86.1321 42.1624C84.0466 41.9547 81.9534 42.4734 80.1999 43.6327C78.4463 44.7919 77.1378 46.5219 76.4914 48.5357C75.8416 47.424 74.8778 46.5339 73.7236 45.9796C72.5695 45.4253 71.2776 45.2321 70.014 45.4249C68.7504 45.6176 67.5726 46.1875 66.6319 47.0613C65.6912 47.9352 65.0305 49.0731 64.7346 50.329C64.0533 49.7628 63.1992 49.4517 62.3169 49.4484C61.8059 49.4481 61.2998 49.5496 60.8276 49.747C60.3554 49.9444 59.9263 50.2339 59.565 50.599C59.2036 50.9641 58.917 51.3975 58.7216 51.8745C58.5261 52.3515 58.4257 52.8628 58.426 53.3791H58.4146Z"
                fill="#E3F2FD" />
            <path
                d="M320 70.1189H316.25V75.4117L311.6 73.5801L307.644 75.1393V61.3583H295.322V73.4053H293.286V70.6795L290.097 68.764H288.583V67.695H287.614V66.7372H286.728V64.0001H278.031V70.9996H270.543V81.7234H261.292V79.3222H257.595V81.7234H255.091V77.3318H248.237V84.4878H243.804V54.8944H233.302V81.7961H226.631V76.6441H222.609V63.8276H209.969V81.7961H203.789V74.699L194.964 82.0548V87.3498H187.806V73.4144H176.857V66.0291H168.94V73.6936H164.684V56.288H153.599V72.8561H142.966V80.1029H137.788V85.121H129.624V72.9991H119.615V76.1947H114.923V51.3947H106.146V58.9139L101.471 62.0074V71.8439H93.7607V76.1947H80.6963V62.2162H70.41V67.8403H60.2213V60.2552H53.478V46.9349H40.8449V76.1947H33.979V60.1372H20.2133V82.6131H8V111.487H320V70.1189Z"
                fill="#E3F2FD" />
            <path d="M279.098 109.56H296.22V76.4248L279.098 67.1677V109.56Z" fill="#E3F2FD" />
            <path d="M294.317 77.7658H281V79.6927H294.317V77.7658Z" fill="white" />
            <path d="M294.317 81.6196H281V82.5831H294.317V81.6196Z" fill="white" />
            <path d="M294.317 84.51H281V86.4369H294.317V84.51Z" fill="#E3F2FD" />
            <path d="M294.317 87.4005H281V89.3274H294.317V87.4005Z" fill="white" />
            <path d="M294.317 91.2543H281V93.1812H294.317V91.2543Z" fill="white" />
            <path d="M294.317 94.1447H281V96.0716H294.317V94.1447Z" fill="#E3F2FD" />
            <path d="M294.317 97.9985H281V99.9255H294.317V97.9985Z" fill="white" />
            <path d="M294.317 100.889H281V102.816H294.317V100.889Z" fill="#E3F2FD" />
            <path d="M279.098 67.1677H271.488V109.56H279.098V67.1677Z" fill="#BBDEFB" />
            <path d="M237.244 110.524V40.4194L231.769 29.4055V22.8484H217.988V29.4055L212.512 40.4194V110.524H237.244Z"
                fill="#BBDEFB" />
            <path d="M229.634 110.524V40.581L224.159 29.5926H210.377L204.902 40.581V110.524H229.634Z" fill="#E3F2FD" />
            <path d="M223.927 22.8484H210.61V29.3949L216.429 31.5196L223.927 29.3949V22.8484Z" fill="#E3F2FD" />
            <path d="M209.659 44.0446H207.756V47.8984H209.659V44.0446Z" fill="white" />
            <path d="M214.415 44.0446H211.561V47.8984H214.415V44.0446Z" fill="#E3F2FD" />
            <path d="M218.22 44.0446H216.317V47.8984H218.22V44.0446Z" fill="#E3F2FD" />
            <path d="M222.976 44.0446H220.122V47.8984H222.976V44.0446Z" fill="white" />
            <path d="M227.732 44.0446H224.878V47.8984H227.732V44.0446Z" fill="#E3F2FD" />
            <path d="M209.659 49.8253H207.756V53.6792H209.659V49.8253Z" fill="#E3F2FD" />
            <path d="M214.415 49.8253H211.561V53.6792H214.415V49.8253Z" fill="white" />
            <path d="M218.22 49.8253H216.317V53.6792H218.22V49.8253Z" fill="#E3F2FD" />
            <path d="M222.976 49.8253H220.122V53.6792H222.976V49.8253Z" fill="#E3F2FD" />
            <path d="M227.732 49.8253H224.878V53.6792H227.732V49.8253Z" fill="#E3F2FD" />
            <path d="M209.659 55.6061H207.756V59.46H209.659V55.6061Z" fill="white" />
            <path d="M214.415 55.6061H211.561V59.46H214.415V55.6061Z" fill="#E3F2FD" />
            <path d="M218.22 55.6061H216.317V59.46H218.22V55.6061Z" fill="white" />
            <path d="M222.976 55.6061H220.122V59.46H222.976V55.6061Z" fill="white" />
            <path d="M227.732 55.6061H224.878V59.46H227.732V55.6061Z" fill="#E3F2FD" />
            <path d="M209.659 62.3503H207.756V65.2407H209.659V62.3503Z" fill="#E3F2FD" />
            <path d="M214.415 62.3503H211.561V65.2407H214.415V62.3503Z" fill="#E3F2FD" />
            <path d="M218.22 62.3503H216.317V65.2407H218.22V62.3503Z" fill="white" />
            <path d="M222.976 62.3503H220.122V65.2407H222.976V62.3503Z" fill="#E3F2FD" />
            <path d="M227.732 62.3503H224.878V65.2407H227.732V62.3503Z" fill="#E3F2FD" />
            <path d="M209.659 68.1312H207.756V71.985H209.659V68.1312Z" fill="#E3F2FD" />
            <path d="M214.415 68.1312H211.561V71.985H214.415V68.1312Z" fill="#E3F2FD" />
            <path d="M218.22 68.1312H216.317V71.985H218.22V68.1312Z" fill="white" />
            <path d="M222.976 68.1312H220.122V71.985H222.976V68.1312Z" fill="#E3F2FD" />
            <path d="M227.732 68.1312H224.878V71.985H227.732V68.1312Z" fill="#E3F2FD" />
            <path d="M209.659 73.9119H207.756V77.7658H209.659V73.9119Z" fill="#E3F2FD" />
            <path d="M214.415 73.9119H211.561V77.7658H214.415V73.9119Z" fill="white" />
            <path d="M218.22 73.9119H216.317V77.7658H218.22V73.9119Z" fill="#E3F2FD" />
            <path d="M222.976 73.9119H220.122V77.7658H222.976V73.9119Z" fill="#E3F2FD" />
            <path d="M227.732 73.9119H224.878V77.7658H227.732V73.9119Z" fill="white" />
            <path d="M209.659 79.6927H207.756V83.5465H209.659V79.6927Z" fill="white" />
            <path d="M214.415 79.6927H211.561V83.5465H214.415V79.6927Z" fill="#E3F2FD" />
            <path d="M218.22 79.6927H216.317V83.5465H218.22V79.6927Z" fill="#E3F2FD" />
            <path d="M222.976 79.6927H220.122V83.5465H222.976V79.6927Z" fill="#E3F2FD" />
            <path d="M227.732 79.6927H224.878V83.5465H227.732V79.6927Z" fill="white" />
            <path d="M209.659 86.437H207.756V89.3273H209.659V86.437Z" fill="#E3F2FD" />
            <path d="M214.415 86.437H211.561V89.3273H214.415V86.437Z" fill="#E3F2FD" />
            <path d="M218.22 86.437H216.317V89.3273H218.22V86.437Z" fill="white" />
            <path d="M222.976 86.437H220.122V89.3273H222.976V86.437Z" fill="white" />
            <path d="M227.732 86.437H224.878V89.3273H227.732V86.437Z" fill="#E3F2FD" />
            <path d="M209.659 92.2178H207.756V95.1082H209.659V92.2178Z" fill="#E3F2FD" />
            <path d="M214.415 92.2178H211.561V95.1082H214.415V92.2178Z" fill="white" />
            <path d="M218.22 92.2178H216.317V95.1082H218.22V92.2178Z" fill="#E3F2FD" />
            <path d="M222.976 92.2178H220.122V95.1082H222.976V92.2178Z" fill="#E3F2FD" />
            <path d="M227.732 92.2178H224.878V95.1082H227.732V92.2178Z" fill="#E3F2FD" />
            <path d="M209.659 97.9985H207.756V101.852H209.659V97.9985Z" fill="#E3F2FD" />
            <path d="M214.415 97.9985H211.561V101.852H214.415V97.9985Z" fill="#E3F2FD" />
            <path d="M218.22 97.9985H216.317V101.852H218.22V97.9985Z" fill="white" />
            <path d="M222.976 97.9985H220.122V101.852H222.976V97.9985Z" fill="white" />
            <path d="M227.732 97.9985H224.878V101.852H227.732V97.9985Z" fill="white" />
            <path d="M253.415 110.524H274.341V46.661L253.415 35.3734V110.524Z" fill="#E3F2FD" />
            <path d="M271.488 70.0581H255.317V71.985H271.488V70.0581Z" fill="white" />
            <path d="M271.488 73.9119H255.317V75.8389H271.488V73.9119Z" fill="#E3F2FD" />
            <path d="M271.488 77.7658H255.317V79.6927H271.488V77.7658Z" fill="white" />
            <path d="M271.488 81.6196H255.317V83.5466H271.488V81.6196Z" fill="white" />
            <path d="M271.488 86.437H255.317V88.3639H271.488V86.437Z" fill="white" />
            <path d="M271.488 90.2908H255.317V92.2178H271.488V90.2908Z" fill="#E3F2FD" />
            <path d="M271.488 49.8253H255.317V51.7522H271.488V49.8253Z" fill="white" />
            <path d="M271.488 53.6792H255.317V55.6061H271.488V53.6792Z" fill="white" />
            <path d="M271.488 57.5331H255.317V59.46H271.488V57.5331Z" fill="white" />
            <path d="M271.488 61.3869H255.317V63.3138H271.488V61.3869Z" fill="#E3F2FD" />
            <path d="M271.488 66.2042H255.317V68.1312H271.488V66.2042Z" fill="#E3F2FD" />
            <path d="M271.488 94.1447H255.317V96.0716H271.488V94.1447Z" fill="white" />
            <path d="M271.488 97.9985H255.317V99.9255H271.488V97.9985Z" fill="white" />
            <path d="M253.415 35.3734H244.854V110.524H253.415V35.3734Z" fill="#BBDEFB" />
            <path d="M178.268 110.524H199.195V69.8566L178.268 58.4965V110.524Z" fill="#E3F2FD" />
            <path d="M196.341 71.985H180.171V73.9119H196.341V71.985Z" fill="white" />
            <path d="M196.341 75.8389H180.171V77.7658H196.341V75.8389Z" fill="white" />
            <path d="M196.341 79.6927H180.171V81.6196H196.341V79.6927Z" fill="#E3F2FD" />
            <path d="M196.341 84.51H180.171V86.4369H196.341V84.51Z" fill="white" />
            <path d="M196.341 88.3639H180.171V90.2908H196.341V88.3639Z" fill="white" />
            <path d="M196.341 92.2178H180.171V94.1447H196.341V92.2178Z" fill="#E3F2FD" />
            <path d="M196.341 96.0717H180.171V97.9986H196.341V96.0717Z" fill="white" />
            <path d="M196.341 99.9255H180.171V101.852H196.341V99.9255Z" fill="#E3F2FD" />
            <path d="M178.268 58.4965H169.707V110.524H178.268V58.4965Z" fill="#BBDEFB" />
            <path d="M150.683 110.524H122.146V30.2456L150.683 14.1772V110.524Z" fill="#E3F2FD" />
            <path d="M129.756 53.6792H125V58.4965H129.756V53.6792Z" fill="white" />
            <path d="M135.463 53.6792H131.659V58.4965H135.463V53.6792Z" fill="#E3F2FD" />
            <path d="M141.171 53.6792H137.366V58.4965H141.171V53.6792Z" fill="#E3F2FD" />
            <path d="M147.829 53.6792H143.073V58.4965H147.829V53.6792Z" fill="#E3F2FD" />
            <path d="M129.756 60.4235H125V65.2408H129.756V60.4235Z" fill="#E3F2FD" />
            <path d="M135.463 60.4235H131.659V65.2408H135.463V60.4235Z" fill="#E3F2FD" />
            <path d="M141.171 60.4235H137.366V65.2408H141.171V60.4235Z" fill="white" />
            <path d="M147.829 60.4235H143.073V65.2408H147.829V60.4235Z" fill="#E3F2FD" />
            <path d="M129.756 67.1677H125V71.985H129.756V67.1677Z" fill="#E3F2FD" />
            <path d="M135.463 67.1677H131.659V71.985H135.463V67.1677Z" fill="white" />
            <path d="M141.171 67.1677H137.366V71.985H141.171V67.1677Z" fill="#E3F2FD" />
            <path d="M147.829 67.1677H143.073V71.985H147.829V67.1677Z" fill="#E3F2FD" />
            <path d="M129.756 73.9119H125V78.7292H129.756V73.9119Z" fill="#E3F2FD" />
            <path d="M135.463 73.9119H131.659V78.7292H135.463V73.9119Z" fill="#E3F2FD" />
            <path d="M141.171 73.9119H137.366V78.7292H141.171V73.9119Z" fill="white" />
            <path d="M147.829 73.9119H143.073V78.7292H147.829V73.9119Z" fill="white" />
            <path d="M129.756 80.6562H125V85.4735H129.756V80.6562Z" fill="#E3F2FD" />
            <path d="M135.463 80.6562H131.659V85.4735H135.463V80.6562Z" fill="#E3F2FD" />
            <path d="M141.171 80.6562H137.366V85.4735H141.171V80.6562Z" fill="#E3F2FD" />
            <path d="M147.829 80.6562H143.073V85.4735H147.829V80.6562Z" fill="#E3F2FD" />
            <path d="M129.756 87.4005H125V92.2178H129.756V87.4005Z" fill="#E3F2FD" />
            <path d="M135.463 87.4005H131.659V92.2178H135.463V87.4005Z" fill="#E3F2FD" />
            <path d="M141.171 87.4005H137.366V92.2178H141.171V87.4005Z" fill="white" />
            <path d="M147.829 87.4005H143.073V92.2178H147.829V87.4005Z" fill="#E3F2FD" />
            <path d="M129.756 94.1447H125V98.962H129.756V94.1447Z" fill="#E3F2FD" />
            <path d="M135.463 94.1447H131.659V98.962H135.463V94.1447Z" fill="white" />
            <path d="M141.171 94.1447H137.366V98.962H141.171V94.1447Z" fill="#E3F2FD" />
            <path d="M147.829 94.1447H143.073V98.962H147.829V94.1447Z" fill="#E3F2FD" />
            <path d="M129.756 100.889H125V105.706H129.756V100.889Z" fill="#E3F2FD" />
            <path d="M135.463 100.889H131.659V105.706H135.463V100.889Z" fill="#E3F2FD" />
            <path d="M141.171 100.889H137.366V105.706H141.171V100.889Z" fill="#E3F2FD" />
            <path d="M147.829 100.889H143.073V105.706H147.829V100.889Z" fill="white" />
            <path d="M129.756 33.4464H125V38.2637H129.756V33.4464Z" fill="white" />
            <path d="M135.463 33.4464H131.659V38.2637H135.463V33.4464Z" fill="#E3F2FD" />
            <path d="M141.171 33.4464H137.366V38.2637H141.171V33.4464Z" fill="#E3F2FD" />
            <path d="M147.829 33.4464H143.073V38.2637H147.829V33.4464Z" fill="white" />
            <path d="M129.756 40.1907H125V45.0081H129.756V40.1907Z" fill="#E3F2FD" />
            <path d="M135.463 40.1907H131.659V45.0081H135.463V40.1907Z" fill="#E3F2FD" />
            <path d="M141.171 40.1907H137.366V45.0081H141.171V40.1907Z" fill="white" />
            <path d="M147.829 40.1907H143.073V45.0081H147.829V40.1907Z" fill="#E3F2FD" />
            <path d="M129.756 46.9349H125V51.7523H129.756V46.9349Z" fill="#E3F2FD" />
            <path d="M135.463 46.9349H131.659V51.7523H135.463V46.9349Z" fill="#E3F2FD" />
            <path d="M141.171 46.9349H137.366V51.7523H141.171V46.9349Z" fill="white" />
            <path d="M147.829 46.9349H143.073V51.7523H147.829V46.9349Z" fill="#E3F2FD" />
            <path d="M161.146 14.1772H150.683V110.524H161.146V14.1772Z" fill="#BBDEFB" />
            <path d="M300.317 104.743H287V106.67H300.317V104.743Z" fill="white" />
            <path d="M215.659 103.779H213.756V107.633H215.659V103.779Z" fill="white" />
            <path d="M220.415 103.779H217.561V107.633H220.415V103.779Z" fill="white" />
            <path d="M224.22 103.779H222.317V107.633H224.22V103.779Z" fill="#E3F2FD" />
            <path d="M228.976 103.779H226.122V107.633H228.976V103.779Z" fill="#E3F2FD" />
            <path d="M233.732 103.779H230.878V107.633H233.732V103.779Z" fill="#E3F2FD" />
            <path d="M277.488 101.852H261.317V104.743H277.488V101.852Z" fill="white" />
            <path d="M202.341 104.743H186.171V106.67H202.341V104.743Z" fill="white" />
        </g>
        <path
            d="M177.511 106.701C177.468 105.571 177.097 104.479 176.444 103.562C175.792 102.645 174.887 101.943 173.842 101.543C172.798 101.144 171.66 101.066 170.572 101.318C169.484 101.57 168.493 102.141 167.723 102.96C167.063 102.502 166.313 102.191 165.525 102.047C164.737 101.903 163.928 101.929 163.151 102.123C162.373 102.318 161.645 102.677 161.014 103.176C160.383 103.676 159.864 104.305 159.49 105.022C159.051 104.579 158.515 104.248 157.926 104.055C157.336 103.862 156.71 103.814 156.098 103.913C155.486 104.012 154.907 104.256 154.406 104.626C153.905 104.995 153.498 105.48 153.218 106.039C152.755 105.547 152.161 105.203 151.508 105.049C150.855 104.895 150.172 104.937 149.542 105.171C149.087 104.107 148.317 103.212 147.34 102.608C146.362 102.005 145.224 101.722 144.082 101.799C142.939 101.877 141.848 102.31 140.959 103.04C140.069 103.77 139.424 104.761 139.112 105.876C138.638 105.022 137.943 104.316 137.101 103.832C136.26 103.348 135.304 103.106 134.337 103.131C133.369 103.156 132.427 103.447 131.611 103.974C130.795 104.5 130.136 105.242 129.705 106.119C129.424 105.67 129.043 105.294 128.592 105.021C128.141 104.748 127.633 104.587 127.109 104.549C126.586 104.511 126.06 104.598 125.576 104.803C125.091 105.008 124.661 105.326 124.32 105.73C123.812 104.782 123.068 103.984 122.162 103.417C121.256 102.85 120.219 102.533 119.154 102.497C118.09 102.461 117.034 102.708 116.093 103.213C115.152 103.717 114.357 104.463 113.788 105.375C113.355 104.388 112.656 103.544 111.772 102.94C110.888 102.336 109.853 101.996 108.787 101.96C107.722 101.923 106.667 102.191 105.744 102.732C104.821 103.274 104.067 104.067 103.569 105.022C103.13 104.579 102.594 104.248 102.004 104.055C101.415 103.862 100.789 103.814 100.177 103.913C99.5652 104.012 98.9854 104.256 98.4848 104.626C97.9841 104.995 97.577 105.48 97.2965 106.039C96.8337 105.546 96.2386 105.202 95.5847 105.047C94.9308 104.893 94.2465 104.936 93.6164 105.171C93.161 104.107 92.3917 103.212 91.4141 102.608C90.4364 102.005 89.2984 101.722 88.1559 101.799C87.0134 101.877 85.9226 102.31 85.0329 103.04C84.1432 103.77 83.4984 104.761 83.1867 105.876C82.7122 105.022 82.0168 104.316 81.1753 103.832C80.3339 103.348 79.3782 103.106 78.4109 103.131C77.4436 103.156 76.5014 103.447 75.6853 103.974C74.8693 104.5 74.2104 105.242 73.7794 106.119C73.4982 105.67 73.1168 105.294 72.666 105.021C72.2152 104.748 71.7074 104.587 71.1836 104.549C70.6598 104.511 70.1345 104.598 69.65 104.803C69.1654 105.008 68.7352 105.326 68.3938 105.73C67.8849 104.785 67.1415 103.991 66.237 103.427C65.3324 102.862 64.2981 102.547 63.2361 102.511C62.1742 102.475 61.1214 102.72 60.1817 103.222C59.2421 103.725 58.4481 104.467 57.8782 105.375C57.4454 104.388 56.747 103.544 55.8629 102.94C54.9788 102.336 53.9446 101.996 52.8787 101.959C51.8128 101.922 50.7582 102.19 49.8355 102.732C48.9128 103.273 48.1593 104.067 47.6611 105.022C47.2222 104.579 46.6861 104.248 46.0966 104.055C45.5071 103.862 44.8809 103.814 44.2692 103.913C43.6575 104.012 43.0777 104.256 42.5771 104.626C42.0765 104.995 41.6693 105.48 41.3888 106.039C40.926 105.547 40.3314 105.203 39.6779 105.049C39.0245 104.894 38.3409 104.937 37.711 105.171C37.2555 104.107 36.4863 103.212 35.5086 102.608C34.531 102.005 33.3929 101.722 32.2505 101.799C31.108 101.877 30.0172 102.31 29.1275 103.04C28.2378 103.77 27.593 104.761 27.2813 105.876C26.8065 105.023 26.1112 104.317 25.27 103.833C24.4288 103.35 23.4735 103.108 22.5067 103.133C21.5398 103.158 20.5979 103.449 19.7821 103.975C18.9663 104.501 18.3075 105.242 17.8763 106.119C17.5948 105.67 17.2132 105.294 16.7622 105.021C16.3112 104.748 15.8033 104.587 15.2793 104.549C14.7553 104.511 14.2298 104.598 13.7451 104.803C13.2604 105.008 12.83 105.326 12.4884 105.73C11.8433 104.512 10.8144 103.549 9.5656 102.993C8.31684 102.437 6.92017 102.32 5.59828 102.661C4.2764 103.003 3.10542 103.782 2.27205 104.876C1.43868 105.97 0.990914 107.315 1.00014 108.696V115.455H177.533V106.701H177.511Z"
            fill="#70CD94" />
        <path
            d="M328 105.457V115.453H175.402V108.691C175.398 107.314 175.849 105.974 176.682 104.885C177.516 103.796 178.684 103.02 180.003 102.68C181.321 102.341 182.714 102.456 183.96 103.009C185.206 103.562 186.234 104.52 186.882 105.732C187.199 105.361 187.59 105.064 188.03 104.859C188.471 104.654 188.949 104.547 189.433 104.546C189.999 104.544 190.555 104.687 191.052 104.962C191.548 105.237 191.967 105.635 192.269 106.119C192.702 105.243 193.362 104.503 194.179 103.978C194.996 103.454 195.938 103.164 196.905 103.14C197.872 103.117 198.827 103.36 199.668 103.845C200.508 104.329 201.203 105.036 201.677 105.89C201.988 104.774 202.632 103.783 203.522 103.053C204.411 102.322 205.502 101.888 206.644 101.811C207.787 101.733 208.925 102.015 209.903 102.618C210.881 103.221 211.651 104.116 212.106 105.18C212.479 105.045 212.871 104.973 213.267 104.967C213.737 104.965 214.202 105.06 214.635 105.247C215.067 105.434 215.458 105.708 215.782 106.053C216.061 105.492 216.467 105.006 216.968 104.635C217.468 104.264 218.049 104.018 218.661 103.918C219.273 103.818 219.901 103.867 220.491 104.06C221.081 104.253 221.618 104.585 222.057 105.029C222.554 104.073 223.308 103.278 224.231 102.735C225.154 102.192 226.209 101.924 227.276 101.96C228.343 101.997 229.378 102.337 230.262 102.942C231.147 103.546 231.846 104.391 232.278 105.379C232.848 104.468 233.643 103.724 234.584 103.22C235.526 102.716 236.581 102.47 237.645 102.507C238.709 102.543 239.746 102.861 240.651 103.429C241.557 103.996 242.3 104.793 242.807 105.741C243.15 105.338 243.58 105.022 244.064 104.818C244.549 104.613 245.074 104.526 245.597 104.564C246.121 104.601 246.628 104.763 247.079 105.034C247.531 105.306 247.913 105.68 248.195 106.128C248.628 105.252 249.288 104.512 250.104 103.987C250.921 103.462 251.863 103.173 252.83 103.149C253.797 103.126 254.751 103.369 255.592 103.854C256.432 104.338 257.127 105.045 257.6 105.899C257.911 104.783 258.555 103.791 259.445 103.06C260.334 102.329 261.426 101.894 262.569 101.817C263.712 101.739 264.851 102.021 265.829 102.625C266.807 103.229 267.577 104.125 268.032 105.189C268.404 105.053 268.795 104.981 269.19 104.976C269.248 104.974 269.306 104.979 269.362 104.99C270.251 105.026 271.091 105.41 271.706 106.062C271.985 105.501 272.391 105.015 272.892 104.644C273.393 104.273 273.973 104.027 274.586 103.927C275.198 103.827 275.826 103.876 276.416 104.069C277.006 104.262 277.543 104.594 277.982 105.038C278.226 104.571 278.53 104.138 278.887 103.753C279.531 103.068 280.332 102.554 281.219 102.257C282.106 101.96 283.052 101.889 283.973 102.051C284.893 102.213 285.76 102.602 286.497 103.184C287.233 103.766 287.816 104.523 288.195 105.388C288.765 104.477 289.56 103.733 290.501 103.229C291.442 102.725 292.498 102.479 293.562 102.516C294.626 102.553 295.662 102.87 296.568 103.438C297.473 104.005 298.217 104.802 298.724 105.75C299.038 105.378 299.427 105.08 299.865 104.875C300.304 104.67 300.781 104.564 301.264 104.564C301.831 104.563 302.389 104.707 302.887 104.982C303.384 105.257 303.806 105.654 304.112 106.137C304.545 105.262 305.205 104.522 306.022 103.997C306.838 103.472 307.781 103.182 308.748 103.159C309.714 103.135 310.67 103.379 311.51 103.863C312.351 104.348 313.045 105.055 313.519 105.908C313.83 104.792 314.475 103.801 315.364 103.071C316.254 102.341 317.344 101.907 318.487 101.829C319.629 101.751 320.768 102.033 321.745 102.637C322.723 103.24 323.493 104.135 323.949 105.198C324.579 104.964 325.263 104.922 325.916 105.077C326.569 105.232 327.163 105.578 327.624 106.071C327.731 105.855 327.857 105.65 328 105.457Z"
            fill="#70CD94" />
        <path d="M280.41 93.1088L281.878 87.8502H283.409L281.811 93.8929L280.41 93.1088Z" fill="#0D47A1" />
        <path d="M286.827 88.9857H267.58V85.9684H286.827V88.9857Z" fill="#001B3D" />
        <path d="M284.32 85.0681L282.85 90.6322H288.012V85.0681H284.32Z" fill="#0D47A1" />
        <path
            d="M254.286 100.752H258.566C261.956 100.752 264.703 103.541 264.703 106.981V109.504C264.703 112.944 261.956 115.733 258.566 115.733H254.286C250.897 115.733 248.149 112.944 248.149 109.504V106.981C248.149 103.541 250.897 100.752 254.286 100.752Z"
            fill="#1F2121" />
        <path
            d="M211.768 100.752H207.484C205.86 100.752 204.301 101.407 203.153 102.573C202.004 103.74 201.358 105.321 201.358 106.971V109.493C201.358 111.142 202.004 112.724 203.153 113.89C204.301 115.056 205.86 115.711 207.484 115.711H211.768C213.392 115.711 214.95 115.056 216.099 113.89C217.248 112.724 217.894 111.142 217.894 109.493V106.971C217.894 105.321 217.248 103.74 216.099 102.573C214.95 101.407 213.392 100.752 211.768 100.752Z"
            fill="#1F2121" />
        <path
            d="M239.237 111.486H255.469V105.435C255.469 103.251 254.614 101.156 253.093 99.6115C251.573 98.0667 249.51 97.1982 247.358 97.1967C245.206 97.1967 243.141 98.0647 241.619 99.6096C240.097 101.155 239.242 103.25 239.242 105.435V111.486H239.237Z"
            fill="#001B3D" />
        <path
            d="M247.374 100.752H243.086C241.461 100.752 239.903 101.407 238.754 102.573C237.605 103.74 236.96 105.321 236.96 106.971V109.493C236.96 111.142 237.605 112.724 238.754 113.89C239.903 115.056 241.461 115.711 243.086 115.711H247.374V100.752Z"
            fill="#1F2121" />
        <path
            d="M241.237 106.981V109.504C241.237 111.153 241.883 112.735 243.032 113.901C244.18 115.067 245.739 115.722 247.363 115.722C248.988 115.722 250.546 115.067 251.695 113.901C252.844 112.735 253.49 111.153 253.49 109.504V106.981C253.49 105.332 252.844 103.75 251.695 102.584C250.546 101.418 248.988 100.763 247.363 100.763C245.739 100.763 244.18 101.418 243.032 102.584C241.883 103.75 241.237 105.332 241.237 106.981Z"
            fill="#424242" />
        <path
            d="M244.716 107.695V108.777C244.716 109.494 244.996 110.181 245.496 110.688C245.995 111.195 246.673 111.48 247.379 111.48C248.086 111.48 248.763 111.195 249.263 110.688C249.762 110.181 250.043 109.494 250.043 108.777V107.695C250.043 106.978 249.762 106.29 249.263 105.783C248.763 105.276 248.086 104.991 247.379 104.991C246.673 104.991 245.995 105.276 245.496 105.783C244.996 106.29 244.716 106.978 244.716 107.695Z"
            fill="white" />
        <path
            d="M276.625 97.1967C275.56 97.1967 274.504 97.4098 273.52 97.8238C272.535 98.2378 271.64 98.8446 270.887 99.6096C270.133 100.375 269.535 101.283 269.127 102.282C268.719 103.282 268.509 104.353 268.509 105.435V111.486H284.741V105.435C284.741 104.353 284.531 103.282 284.123 102.282C283.716 101.283 283.118 100.375 282.364 99.6096C281.61 98.8446 280.716 98.2378 279.731 97.8238C278.746 97.4098 277.691 97.1967 276.625 97.1967Z"
            fill="#001B3D" />
        <path
            d="M276.628 100.752H272.345C270.72 100.752 269.162 101.407 268.013 102.573C266.864 103.74 266.219 105.321 266.219 106.971V109.493C266.219 111.142 266.864 112.724 268.013 113.89C269.162 115.056 270.72 115.711 272.345 115.711H276.628V100.752Z"
            fill="#1F2121" />
        <path
            d="M270.491 106.981C270.491 103.541 273.238 100.752 276.627 100.752C280.015 100.752 282.762 103.541 282.762 106.981V109.504C282.762 112.944 280.015 115.733 276.627 115.733C273.238 115.733 270.491 112.944 270.491 109.504V106.981Z"
            fill="#424242" />
        <path
            d="M273.97 107.695V108.777C273.97 109.494 274.25 110.181 274.75 110.688C275.249 111.195 275.927 111.48 276.633 111.48C277.34 111.48 278.017 111.195 278.517 110.688C279.016 110.181 279.297 109.494 279.297 108.777V107.695C279.297 106.978 279.016 106.29 278.517 105.783C278.017 105.276 277.34 104.991 276.633 104.991C275.927 104.991 275.249 105.276 274.75 105.783C274.25 106.29 273.97 106.978 273.97 107.695Z"
            fill="white" />
        <path
            d="M233.31 95.9531L253.953 90.7188H225.773L205.13 95.9531C200.09 97.2319 196.497 102.401 196.497 108.376V111.953H224.678V108.376C224.678 102.401 228.271 97.2319 233.31 95.9531Z"
            fill="#1565C0" />
        <path d="M253.953 90.7187L257.613 79.001H237.218L225.762 90.7187H253.953Z" fill="#0D47A1" />
        <path
            d="M281.06 92.4951C278.62 79.1578 257.621 79.001 257.621 79.001L253.961 90.7188L233.318 95.9531C228.279 97.2319 224.686 102.401 224.686 108.376V111.953H238.824C239.172 111.953 239.505 111.813 239.751 111.564C239.996 111.314 240.134 110.976 240.134 110.623V106.411C240.134 102.461 243.123 99.065 247.009 98.8784C247.986 98.8301 248.963 98.9837 249.88 99.33C250.797 99.6763 251.635 100.208 252.343 100.893C253.051 101.578 253.615 102.402 254 103.314C254.386 104.227 254.584 105.21 254.584 106.203V110.634C254.584 110.809 254.618 110.981 254.683 111.143C254.749 111.304 254.845 111.451 254.966 111.574C255.088 111.698 255.232 111.796 255.391 111.863C255.55 111.93 255.72 111.964 255.892 111.964H268.091C268.263 111.964 268.434 111.93 268.592 111.863C268.751 111.796 268.895 111.698 269.017 111.574C269.138 111.451 269.235 111.304 269.3 111.143C269.366 110.981 269.399 110.809 269.399 110.634V106.411C269.399 102.461 272.39 99.065 276.276 98.8784C277.252 98.832 278.228 98.987 279.143 99.3341C280.058 99.6813 280.895 100.213 281.601 100.898C282.308 101.583 282.871 102.406 283.256 103.318C283.64 104.229 283.838 105.211 283.838 106.203V110.634C283.838 110.809 283.871 110.981 283.937 111.143C284.003 111.304 284.099 111.451 284.22 111.574C284.342 111.698 284.486 111.796 284.645 111.863C284.804 111.93 284.974 111.964 285.146 111.964H288.92C291.635 93.9713 281.06 92.4951 281.06 92.4951Z"
            fill="#0D47A1" />
        <path d="M223.77 95.6232H213.027V93.2332H223.77V95.6232Z" fill="#022B55" />
        <path d="M213.027 93.2331L222.456 91.0486H231.885L223.77 93.2331H213.027Z" fill="#0D47A1" />
        <path d="M231.885 91.0486V94.4282L223.77 95.6232V93.2331L231.885 91.0486Z" fill="#0D47A1" />
        <path d="M229.102 89.4994L237.681 80.4367H255.469L252.637 89.4994H229.102Z" fill="#90CAF9" />
        <path
            d="M277.797 89.4994H268.187L267.465 82.0805C268.563 82.4418 269.636 82.8753 270.678 83.3783C272.041 84.0346 273.327 84.8435 274.513 85.7899C276.961 87.7582 277.797 89.4994 277.797 89.4994Z"
            fill="#90CAF9" />
        <path
            d="M265.819 81.5912V89.4994H256.428L257.346 85.79L258.678 80.4367C261.089 80.5898 263.481 80.9764 265.819 81.5912Z"
            fill="#90CAF9" />
        <path d="M237.681 80.4367H255.469L253.796 85.79H232.613L237.681 80.4367Z" fill="#BBDEFB" />
        <path d="M265.819 81.5912V85.79H257.346L258.678 80.4367C261.089 80.5898 263.481 80.9764 265.819 81.5912Z"
            fill="#BBDEFB" />
        <path
            d="M274.516 85.7899H267.828L267.468 82.0805L270.68 83.3783C272.043 84.0346 273.33 84.8435 274.516 85.7899Z"
            fill="#BBDEFB" />
        <path
            d="M223.538 103.242C223.538 105.373 222.278 107.1 220.72 107.1C219.162 107.1 217.904 105.373 217.904 103.242C217.904 101.112 219.164 99.384 220.72 99.384C222.275 99.384 223.538 101.112 223.538 103.242Z"
            fill="#EF5350" />
        <path
            d="M199.302 106.865C197.746 106.865 196.484 105.138 196.484 103.007C196.484 100.876 197.746 99.1488 199.302 99.1488C200.858 99.1488 202.12 100.876 202.12 103.007C202.12 105.138 200.858 106.865 199.302 106.865Z"
            fill="#EF5350" />
        <path
            d="M199.718 109.896H196.473V108.141H199.704C199.934 108.141 200.154 108.234 200.316 108.399C200.479 108.563 200.57 108.787 200.57 109.02C200.569 109.25 200.48 109.471 200.32 109.635C200.161 109.799 199.944 109.892 199.718 109.896Z"
            fill="#FFE483" />
        <path
            d="M222.6 109.896H217.374C217.276 109.896 217.178 109.877 217.087 109.839C216.996 109.801 216.914 109.745 216.844 109.674C216.775 109.604 216.72 109.52 216.682 109.427C216.645 109.335 216.626 109.236 216.626 109.136C216.626 108.935 216.705 108.741 216.845 108.599C216.985 108.456 217.176 108.376 217.374 108.376H222.6C222.799 108.376 222.989 108.456 223.129 108.599C223.27 108.741 223.349 108.935 223.349 109.136C223.349 109.338 223.27 109.531 223.129 109.673C222.989 109.816 222.799 109.896 222.6 109.896Z"
            fill="#FFE483" />
        <path
            d="M256.428 89.4994V107.73C256.428 107.902 256.495 108.066 256.614 108.187C256.733 108.308 256.895 108.376 257.064 108.376H260.316C260.599 108.377 260.879 108.32 261.14 108.21C261.401 108.1 261.638 107.939 261.837 107.736L264.687 104.845C265.412 104.11 265.819 103.112 265.819 102.071V89.4994H256.428Z"
            fill="#1A4373" />
        <path
            d="M264.44 93.8928H261.672C261.527 93.8928 261.387 93.8342 261.284 93.7297C261.181 93.6253 261.123 93.4836 261.123 93.3359C261.123 93.1882 261.181 93.0465 261.284 92.9421C261.387 92.8376 261.527 92.7789 261.672 92.7789H264.44C264.585 92.7789 264.725 92.8376 264.827 92.9421C264.93 93.0465 264.988 93.1882 264.988 93.3359C264.988 93.4836 264.93 93.6253 264.827 93.7297C264.725 93.8342 264.585 93.8928 264.44 93.8928Z"
            fill="#022B55" />
        <path
            d="M214.953 103.242H205.226C205.06 103.241 204.902 103.174 204.785 103.055C204.668 102.936 204.603 102.775 204.603 102.607C204.603 102.439 204.668 102.278 204.785 102.159C204.902 102.041 205.06 101.974 205.226 101.974H214.953C215.118 101.974 215.277 102.041 215.394 102.159C215.511 102.278 215.576 102.439 215.576 102.607C215.576 102.775 215.511 102.936 215.394 103.055C215.277 103.174 215.119 103.241 214.953 103.242Z"
            fill="#022B55" />
        <path
            d="M214.953 105.632H205.226C205.06 105.632 204.902 105.566 204.785 105.447C204.668 105.328 204.603 105.167 204.603 105C204.603 104.832 204.668 104.67 204.785 104.551C204.902 104.432 205.06 104.365 205.226 104.364H214.953C215.119 104.365 215.277 104.432 215.394 104.551C215.511 104.67 215.576 104.832 215.576 105C215.576 105.167 215.511 105.328 215.394 105.447C215.277 105.566 215.118 105.632 214.953 105.632Z"
            fill="#022B55" />
        <path
            d="M288.413 109.415L287.65 111.196C287.505 111.533 287.267 111.82 286.964 112.021C286.661 112.222 286.307 112.329 285.945 112.329H282.747C282.324 112.331 281.918 112.164 281.616 111.864H275.651C275.42 111.863 275.193 111.807 274.988 111.7C274.782 111.594 274.605 111.439 274.47 111.25L273.68 110.136L288.413 109.415Z"
            fill="#424242" />
        <path opacity="0.4"
            d="M288.413 109.415L287.65 111.196C287.505 111.533 287.267 111.82 286.964 112.021C286.661 112.222 286.307 112.329 285.945 112.329H282.747C282.324 112.331 281.918 112.164 281.616 111.864H275.651C275.42 111.863 275.193 111.807 274.988 111.7C274.782 111.594 274.605 111.439 274.47 111.25L273.68 110.136L288.413 109.415Z"
            fill="black" />
        <path
            d="M277.906 88.592C277.906 88.592 277.892 88.6339 276.94 88.7293C275.988 88.8246 274.699 89.3409 274.463 89.9316"
            stroke="#212121" stroke-width="0.084718" stroke-linecap="round" stroke-linejoin="round" />
        <path
            d="M269.888 88.5921C269.888 88.5921 270.368 88.527 270.482 88.9432C270.597 89.3595 270.661 89.6409 271.086 89.8525"
            stroke="#212121" stroke-width="0.084718" stroke-linecap="round" stroke-linejoin="round" />
        <path
            d="M298.999 107.836H298.629V107.264H299.366C299.358 107.383 299.32 107.498 299.256 107.599C299.192 107.699 299.103 107.78 298.999 107.836Z"
            fill="#424242" />
        <path
            d="M293.321 115.431C290.609 115.431 288.411 112.743 288.411 109.427C288.411 106.11 290.609 103.422 293.321 103.422C296.032 103.422 298.23 106.11 298.23 109.427C298.23 112.743 296.032 115.431 293.321 115.431Z"
            fill="#424242" />
        <path opacity="0.4"
            d="M293.321 115.431C290.609 115.431 288.411 112.743 288.411 109.427C288.411 106.11 290.609 103.422 293.321 103.422C296.032 103.422 298.23 106.11 298.23 109.427C298.23 112.743 296.032 115.431 293.321 115.431Z"
            fill="black" />
        <path
            d="M294.142 113.213C292.433 113.213 291.047 111.518 291.047 109.427C291.047 107.336 292.433 105.641 294.142 105.641C295.851 105.641 297.237 107.336 297.237 109.427C297.237 111.518 295.851 113.213 294.142 113.213Z"
            fill="black" />
        <path
            d="M294.856 107.801C295.567 107.801 296.145 108.499 296.145 109.378C296.145 110.257 295.567 110.955 294.856 110.955C294.144 110.955 293.566 110.257 293.566 109.378C293.566 108.499 294.142 107.801 294.856 107.801Z"
            fill="#64B5F6" />
        <path
            d="M294.856 107.801C295.567 107.801 296.145 108.499 296.145 109.378C296.145 110.257 295.567 110.955 294.856 110.955C294.144 110.955 293.566 110.257 293.566 109.378C293.566 108.499 294.142 107.801 294.856 107.801Z"
            fill="#F44336" />
        <path
            d="M298.522 106.352C298.522 106.352 299.077 107.569 298.522 108.531C296.865 109.349 295.053 109.79 293.211 109.824C290.315 109.824 294.082 106.069 298.522 106.352Z"
            fill="#424242" />
        <path opacity="0.2"
            d="M298.522 106.352C298.522 106.352 299.077 107.569 298.522 108.531C296.865 109.349 295.053 109.79 293.211 109.824C290.315 109.824 294.082 106.069 298.522 106.352Z"
            fill="white" />
        <path
            d="M296.51 98.7408C296.51 98.7408 296.984 98.8896 296.984 99.971C296.984 100.627 296.328 101.287 296.328 101.287C296.328 101.287 295.271 98.7059 296.51 98.7408Z"
            fill="#212121" />
        <path opacity="0.7"
            d="M296.51 98.7408C296.51 98.7408 296.984 98.8896 296.984 99.971C296.984 100.627 296.328 101.287 296.328 101.287C296.328 101.287 295.271 98.7059 296.51 98.7408Z"
            fill="white" />
        <path
            d="M294.383 98.4454H296.728C296.728 98.4454 297.092 99.0757 296.145 99.8129C295.197 100.55 294.383 98.4454 294.383 98.4454Z"
            fill="#212121" />
        <path
            d="M296.838 99.6896C296.838 99.9012 296.773 100.071 296.691 100.071C296.608 100.071 296.546 99.9012 296.546 99.6896C296.546 99.4779 296.611 99.3058 296.691 99.3058C296.771 99.3058 296.838 99.4779 296.838 99.6896Z"
            fill="white" />
        <path
            d="M283.545 102.357C283.545 103.208 280.189 109.273 279.852 109.515C279.514 109.757 275.135 109.487 275.135 109.487L275.461 110.745H287.5L292.499 100.904L289.193 96.0687L283.167 96.2362C283.167 96.2362 283.545 101.504 283.545 102.357Z"
            fill="#1E88E5" />
        <path
            d="M283.545 102.357C283.545 103.208 280.189 109.273 279.852 109.515C279.514 109.757 275.135 109.487 275.135 109.487L275.461 110.745H287.5L292.499 100.904L289.193 96.0687L283.167 96.2362C283.167 96.2362 283.545 101.504 283.545 102.357Z"
            fill="#F44336" />
        <path
            d="M265.974 100.359C265.974 100.359 269.888 103.401 271.762 109.662C271.868 110.019 272.084 110.333 272.379 110.557C272.674 110.78 273.032 110.902 273.4 110.903H279.191L272.469 99.8198L268.925 98.3245L265.974 100.359Z"
            fill="#EF5350" />
        <path opacity="0.51"
            d="M265.561 100.069C265.561 100.069 269.893 103.427 271.804 109.729C271.911 110.085 272.127 110.397 272.421 110.619C272.716 110.841 273.072 110.962 273.439 110.964H279.244L272.522 99.878L268.977 98.3757L265.561 100.069Z"
            fill="black" />
        <path
            d="M299.249 105.764C299.235 105.881 299.178 105.989 299.091 106.066C299.003 106.144 298.89 106.186 298.774 106.185H297.923C297.845 106.185 297.768 106.201 297.697 106.233C297.626 106.265 297.562 106.312 297.51 106.371L294.963 109.217C294.887 109.303 294.798 109.376 294.699 109.434C293.008 110.397 291.101 110.903 289.161 110.903H277.262C276.946 110.899 276.643 110.776 276.412 110.557C276.181 110.339 276.039 110.041 276.013 109.722C275.724 106.234 273.653 103.676 271.912 102.104C271.354 101.602 270.763 101.14 270.143 100.722C269.709 100.433 269.2 100.282 268.681 100.287H265.942C265.596 100.287 265.353 99.8408 265.458 99.5082C265.917 98.1129 266.745 96.6268 267.58 95.3455C268.328 94.201 269.14 93.1007 270.012 92.0502H273.843C274.037 92.0537 274.227 92.1051 274.396 92.1999C274.566 92.2948 274.71 92.4302 274.816 92.5944C275.012 92.8784 275.095 93.2278 275.045 93.5711C274.809 95.1687 274.791 96.7917 274.993 98.3943C275.541 103.131 277.619 107.436 278.705 109.399C278.894 109.75 279.17 110.044 279.507 110.252C279.844 110.46 280.228 110.575 280.622 110.585H283.605C285.78 109.952 287.464 103.778 287.464 102.164C287.464 100.459 285.752 96.3269 285.752 96.3269H294.275V98.3757C294.431 98.3943 294.355 98.4152 294.404 98.4408C297.67 99.7687 298.811 103.164 299.221 105.143C299.26 105.347 299.27 105.557 299.249 105.764Z"
            fill="#EF5350" />
        <path
            d="M272.086 90.7642H273.18C273.468 90.7632 273.747 90.6631 273.972 90.4804L276.22 88.6339C276.309 88.5618 276.42 88.5224 276.534 88.5223H280.85C280.928 88.5155 281.001 88.4791 281.054 88.4203C281.108 88.3616 281.137 88.2847 281.137 88.2049C281.137 88.1251 281.108 88.0482 281.054 87.9894C281.001 87.9306 280.928 87.8943 280.85 87.8875H276.53C276.272 87.8878 276.023 87.9781 275.823 88.1433L273.573 89.9874C273.46 90.0797 273.32 90.1298 273.176 90.1293H272.086C271.934 90.1291 271.788 90.0736 271.673 89.9728C271.558 89.872 271.483 89.7327 271.462 89.5804L271.361 88.8688C271.322 88.5974 271.188 88.3491 270.984 88.169C270.78 87.9889 270.519 87.889 270.248 87.8875H269.425C269.346 87.8943 269.273 87.9306 269.22 87.9894C269.167 88.0482 269.137 88.1251 269.137 88.2049C269.137 88.2847 269.167 88.3616 269.22 88.4203C269.273 88.4791 269.346 88.5155 269.425 88.5223H270.248C270.369 88.5227 270.485 88.5668 270.576 88.6466C270.667 88.7264 270.726 88.8366 270.744 88.9572L270.842 89.6688C270.886 89.9721 271.035 90.2495 271.264 90.4506C271.492 90.6516 271.784 90.7629 272.086 90.7642Z"
            fill="#424242" />
        <path
            d="M274.821 91.613L274.332 92.4083H269.792L269.436 91.7293C269.378 91.6205 269.357 91.4959 269.374 91.3736C269.391 91.2514 269.447 91.138 269.532 91.0502L270.881 89.6549C270.931 89.6009 270.989 89.5554 271.054 89.52C271.086 89.5018 271.12 89.4855 271.154 89.4712C271.241 89.4377 271.333 89.4203 271.425 89.42H274.011C274.011 89.42 273.997 90.1688 274.699 90.1176L274.928 90.9293C274.958 91.0446 274.964 91.1649 274.946 91.2827C274.927 91.4004 274.885 91.5129 274.821 91.613Z"
            fill="#212121" />
        <path opacity="0.4"
            d="M272.302 90.4246L270.856 90.3734L271.054 89.5176C271.086 89.4994 271.12 89.4831 271.154 89.4688C271.241 89.4353 271.333 89.4179 271.425 89.4176H273.678L272.302 90.4246Z"
            fill="white" />
        <path
            d="M282.396 96.1082V96.7036C282.396 97.2454 282.834 97.5943 283.366 97.5943H293.936C294.472 97.5943 294.901 97.2454 294.901 96.7036V96.1082C294.9 95.9842 294.873 95.8618 294.822 95.7487C294.772 95.6356 294.699 95.5342 294.609 95.4507C294.518 95.3673 294.412 95.3035 294.296 95.2634C294.18 95.2233 294.058 95.2077 293.936 95.2175H283.366C283.244 95.208 283.121 95.2239 283.005 95.2641C282.89 95.3042 282.783 95.3679 282.692 95.4513C282.601 95.5347 282.528 95.6359 282.477 95.7488C282.426 95.8618 282.399 95.9841 282.396 96.1082Z"
            fill="#424242" />
        <path opacity="0.1"
            d="M285.835 96.1082V96.7036C285.829 96.8239 285.848 96.9441 285.892 97.0563C285.935 97.1684 286.002 97.2699 286.087 97.3541C286.172 97.4383 286.273 97.5033 286.385 97.5447C286.497 97.5861 286.616 97.603 286.734 97.5943H293.936C294.472 97.5943 294.901 97.2454 294.901 96.7036V96.1082C294.9 95.9842 294.873 95.8618 294.822 95.7487C294.772 95.6356 294.699 95.5342 294.609 95.4507C294.518 95.3673 294.412 95.3035 294.296 95.2634C294.18 95.2233 294.058 95.2077 293.936 95.2175H286.734C286.616 95.2088 286.497 95.2257 286.385 95.2671C286.273 95.3085 286.172 95.3735 286.087 95.4577C286.002 95.5419 285.935 95.6434 285.892 95.7555C285.848 95.8677 285.829 95.9879 285.835 96.1082Z"
            fill="white" />
        <path d="M278.34 85.7328L278.588 85.925L276.894 88.1693L276.646 87.9772L278.34 85.7328Z" fill="#424242" />
        <path
            d="M279.356 85.4735H278.56C278.477 85.4734 278.396 85.498 278.327 85.5443C278.258 85.5907 278.204 85.6567 278.172 85.734L278.064 85.9874C278.037 86.0525 278.026 86.1233 278.033 86.1937C278.039 86.264 278.062 86.3317 278.101 86.3906C278.139 86.4496 278.191 86.498 278.253 86.5315C278.314 86.565 278.383 86.5827 278.452 86.5828H279.322C279.423 86.5827 279.521 86.5455 279.598 86.478C279.675 86.4105 279.725 86.3173 279.739 86.2154L279.776 85.9642C279.784 85.9033 279.779 85.8413 279.762 85.7824C279.745 85.7235 279.715 85.6691 279.675 85.6226C279.636 85.5762 279.587 85.5389 279.532 85.5132C279.477 85.4875 279.417 85.4739 279.356 85.4735Z"
            fill="#212121" />
        <path d="M270.381 86.1049L270.798 88.1121L270.493 88.1772L270.076 86.1701L270.381 86.1049Z" fill="#424242" />
        <path
            d="M269.296 85.4735H270.154C270.238 85.4737 270.32 85.5046 270.383 85.5605C270.447 85.6165 270.489 85.6937 270.501 85.7782L270.556 86.1805C270.563 86.2305 270.559 86.2815 270.546 86.33C270.532 86.3786 270.507 86.4235 270.475 86.4617C270.442 86.4999 270.402 86.5305 270.356 86.5514C270.311 86.5723 270.261 86.583 270.212 86.5828H269.354C269.27 86.5831 269.188 86.5527 269.125 86.4972C269.061 86.4417 269.019 86.3647 269.007 86.2805L268.952 85.8782C268.945 85.828 268.948 85.7769 268.962 85.7283C268.976 85.6796 269 85.6346 269.033 85.5962C269.066 85.5578 269.106 85.527 269.151 85.5058C269.197 85.4847 269.246 85.4736 269.296 85.4735Z"
            fill="#212121" />
        <path
            d="M274.926 94.5199C274.842 95.4571 274.832 96.3996 274.896 97.3384C274.919 97.6942 274.951 98.0361 274.993 98.3942L273.616 101.057C273.452 101.372 273.207 101.636 272.906 101.821C272.605 102.005 272.261 102.103 271.909 102.103H271.891C271.822 102.031 271.749 101.969 271.682 101.91C271.204 101.495 270.704 101.107 270.184 100.748C269.739 100.445 269.215 100.283 268.679 100.283H265.94C265.593 100.283 265.35 99.8361 265.456 99.5035C265.915 98.1082 266.743 96.6222 267.578 95.3408C267.602 96.8371 267.49 98.3324 267.245 99.8082H268.56C268.56 99.8082 270.962 96.3617 273.004 95.6966L274.814 92.5897C275.01 92.8737 275.092 93.2231 275.043 93.5664C274.995 93.885 274.956 94.2036 274.926 94.5199Z"
            fill="#EF5350" />
        <path opacity="0.2"
            d="M274.926 94.5199C274.842 95.4571 274.832 96.3996 274.896 97.3384C274.919 97.6942 274.951 98.0361 274.993 98.3942L273.616 101.057C273.452 101.372 273.207 101.636 272.906 101.821C272.605 102.005 272.261 102.103 271.909 102.103H271.891C271.822 102.031 271.749 101.969 271.682 101.91C271.204 101.495 270.704 101.107 270.184 100.748C269.739 100.445 269.215 100.283 268.679 100.283H265.94C265.593 100.283 265.35 99.8361 265.456 99.5035C265.915 98.1082 266.743 96.6222 267.578 95.3408C267.602 96.8371 267.49 98.3324 267.245 99.8082H268.56C268.56 99.8082 270.962 96.3617 273.004 95.6966L274.814 92.5897C275.01 92.8737 275.092 93.2231 275.043 93.5664C274.995 93.885 274.956 94.2036 274.926 94.5199Z"
            fill="black" />
        <path
            d="M267.248 96.2966C267.315 97.2813 267.195 98.27 266.892 99.2082H265.763C265.763 99.2082 266.495 97.1896 267.248 96.2966Z"
            fill="#64B5F6" />
        <path opacity="0.7"
            d="M267.248 96.2966C267.315 97.2813 267.195 98.27 266.892 99.2082H265.763C265.763 99.2082 266.495 97.1896 267.248 96.2966Z"
            fill="white" />
        <path
            d="M272.584 96.2966C272.62 96.2734 271.448 99.4198 271.448 99.4198H269.739C270.385 98.1329 271.37 97.0521 272.584 96.2966Z"
            fill="#64B5F6" />
        <path opacity="0.7"
            d="M272.584 96.2966C272.62 96.2734 271.448 99.4198 271.448 99.4198H269.739C270.385 98.1329 271.37 97.0521 272.584 96.2966Z"
            fill="white" />
        <path
            d="M271.574 98.5594C271.574 98.9501 271.331 99.257 271.033 99.257C270.735 99.257 270.491 98.9407 270.491 98.5594C270.491 98.178 270.735 97.8617 271.033 97.8617C271.331 97.8617 271.574 98.171 271.574 98.5594Z"
            fill="white" />
        <path
            d="M267.023 98.3245C267.023 98.7152 266.853 99.0222 266.642 99.0222C266.431 99.0222 266.261 98.7059 266.261 98.3245C266.261 97.9431 266.433 97.6268 266.642 97.6268C266.851 97.6268 267.023 97.9338 267.023 98.3245Z"
            fill="white" />
        <path
            d="M272.063 97.4966C272.05 97.5467 272.024 97.5921 271.987 97.6277C271.95 97.6633 271.903 97.6876 271.853 97.698C271.803 97.7083 271.751 97.7042 271.704 97.6862C271.656 97.6682 271.614 97.6369 271.583 97.5959C271.551 97.555 271.532 97.5059 271.527 97.4544C271.522 97.403 271.531 97.351 271.554 97.3046C271.576 97.2582 271.611 97.2191 271.655 97.1918C271.698 97.1645 271.748 97.15 271.799 97.1501C271.879 97.1617 271.951 97.2043 272 97.269C272.05 97.3338 272.072 97.4154 272.063 97.4966Z"
            fill="white" />
        <path
            d="M267.165 97.3152C267.165 97.5059 267.085 97.6617 266.984 97.6617C266.883 97.6617 266.802 97.5059 266.802 97.3152C266.802 97.1245 266.883 96.9803 266.986 96.9803C267.089 96.9803 267.165 97.1245 267.165 97.3152Z"
            fill="white" />
        <path
            d="M272.402 92.5827C272.402 92.5827 271.593 97.7594 268.913 97.7943C266.403 97.8291 266.16 92.9688 268.564 92.2129C270.498 91.6176 272.402 92.5827 272.402 92.5827Z"
            fill="#64B5F6" />
        <path
            d="M272.402 92.5827C272.402 92.5827 271.593 97.7594 268.913 97.7943C266.403 97.8291 266.16 92.9688 268.564 92.2129C270.498 91.6176 272.402 92.5827 272.402 92.5827Z"
            fill="#212121" />
        <path
            d="M268.628 97.3243C267.615 97.2008 266.92 96.0401 267.075 94.7318C267.231 93.4235 268.177 92.463 269.19 92.5865C270.203 92.7099 270.898 93.8707 270.742 95.179C270.587 96.4873 269.64 97.4478 268.628 97.3243Z"
            fill="#64B5F6" />
        <path opacity="0.7"
            d="M268.628 97.3243C267.615 97.2008 266.92 96.0401 267.075 94.7318C267.231 93.4235 268.177 92.463 269.19 92.5865C270.203 92.7099 270.898 93.8707 270.742 95.179C270.587 96.4873 269.64 97.4478 268.628 97.3243Z"
            fill="white" />
        <path
            d="M269.37 95.585C269.37 96.1664 269.007 96.6384 268.562 96.6384C268.117 96.6384 267.757 96.1733 267.757 95.585C267.757 94.9966 268.117 94.5338 268.562 94.5338C269.007 94.5338 269.37 95.0013 269.37 95.585Z"
            fill="white" />
        <path
            d="M270.051 94.2153C270.032 94.2921 269.991 94.3618 269.935 94.4166C269.878 94.4713 269.808 94.5089 269.731 94.525C269.655 94.5411 269.575 94.5352 269.502 94.5077C269.429 94.4803 269.364 94.4326 269.316 94.37C269.269 94.3073 269.239 94.2323 269.231 94.1535C269.223 94.0747 269.237 93.9951 269.272 93.924C269.306 93.8529 269.36 93.793 269.426 93.7512C269.492 93.7093 269.569 93.6872 269.647 93.6874C269.769 93.7048 269.879 93.7696 269.955 93.8682C270.03 93.9668 270.065 94.0913 270.051 94.2153Z"
            fill="white" />
        <path
            d="M299.104 104.673H298.308C298.241 104.673 298.176 104.7 298.128 104.749C298.08 104.797 298.054 104.863 298.054 104.931V105.383C298.054 105.451 298.08 105.517 298.128 105.565C298.176 105.613 298.241 105.641 298.308 105.641H299.253C299.296 105.478 299.305 105.308 299.279 105.141C299.253 104.975 299.194 104.815 299.104 104.673Z"
            fill="#64B5F6" />
        <path opacity="0.7"
            d="M299.104 104.673H298.308C298.241 104.673 298.176 104.7 298.128 104.749C298.08 104.797 298.054 104.863 298.054 104.931V105.383C298.054 105.451 298.08 105.517 298.128 105.565C298.176 105.613 298.241 105.641 298.308 105.641H299.253C299.296 105.478 299.305 105.308 299.279 105.141C299.253 104.975 299.194 104.815 299.104 104.673Z"
            fill="white" />
        <path
            d="M278.588 87.8874C278.588 87.8874 278.562 87.7339 278.161 87.7339C277.759 87.7339 277.617 88.3246 277.617 88.3246L277.778 88.8223H278.324L278.588 88.7293C278.588 88.7293 279.581 88.9897 279.673 89.1549C279.764 89.32 279.902 89.3595 279.863 89.1549C279.824 88.9502 278.744 88.513 278.744 88.513L278.588 87.8874Z"
            fill="#424242" />
        <path
            d="M270.56 87.9339C270.532 87.8736 270.488 87.8228 270.432 87.7873C270.376 87.7519 270.312 87.7334 270.246 87.7339C270.2 87.7274 270.154 87.7306 270.11 87.7433C270.065 87.756 270.024 87.778 269.989 87.8078C269.953 87.8375 269.925 87.8745 269.904 87.9162C269.884 87.958 269.872 88.0036 269.87 88.0502C269.859 88.1724 269.859 88.2954 269.87 88.4177L269.64 88.5921C269.64 88.5921 268.952 88.9177 268.906 88.9618C268.86 89.006 268.821 89.1944 268.941 89.1735C269.126 89.0895 269.3 88.9842 269.461 88.8595C269.645 88.7732 269.842 88.7227 270.044 88.7107L270.455 88.4549L270.56 87.9339Z"
            fill="#424242" />
        <path d="M267.328 100.38L264.623 109.308L265.311 109.738L268.025 101.073L267.328 100.38Z" fill="#64B5F6" />
        <path opacity="0.6" d="M267.328 100.38L264.623 109.308L265.311 109.738L268.025 101.073L267.328 100.38Z"
            fill="white" />
        <path
            d="M268.457 100.287L267.328 103.957H267.114C266.718 103.492 266.378 103.52 266.378 103.52L266.236 103.308L267.091 100.285L268.457 100.287Z"
            fill="#424242" />
        <path
            d="M265.662 109.178C265.662 109.643 265.403 110.015 265.084 110.015C264.765 110.015 264.506 109.641 264.506 109.178C264.506 108.715 264.765 108.341 265.084 108.341C265.403 108.341 265.662 108.715 265.662 109.178Z"
            fill="#424242" />
        <path
            d="M266.227 115.431C263.515 115.431 261.317 112.743 261.317 109.427C261.317 106.11 263.515 103.422 266.227 103.422C268.938 103.422 271.136 106.11 271.136 109.427C271.136 112.743 268.938 115.431 266.227 115.431Z"
            fill="#424242" />
        <path opacity="0.4"
            d="M266.227 115.431C263.515 115.431 261.317 112.743 261.317 109.427C261.317 106.11 263.515 103.422 266.227 103.422C268.938 103.422 271.136 106.11 271.136 109.427C271.136 112.743 268.938 115.431 266.227 115.431Z"
            fill="black" />
        <path
            d="M273.029 108.92H271.866C271.708 108.92 271.553 108.877 271.417 108.795C271.281 108.713 271.17 108.595 271.095 108.455C270.487 107.292 268.716 104.334 266.227 103.606C263.116 102.694 267.92 102.148 269.647 103.406C271.375 104.664 273.029 108.92 273.029 108.92Z"
            fill="#212121" />
        <path opacity="0.4"
            d="M273.029 108.92H271.866C271.708 108.92 271.553 108.877 271.417 108.795C271.281 108.713 271.17 108.595 271.095 108.455C270.487 107.292 268.716 104.334 266.227 103.606C263.116 102.694 267.92 102.148 269.647 103.406C271.375 104.664 273.029 108.92 273.029 108.92Z"
            fill="black" />
        <path
            d="M267.048 113.213C265.339 113.213 263.953 111.518 263.953 109.427C263.953 107.336 265.339 105.641 267.048 105.641C268.757 105.641 270.143 107.336 270.143 109.427C270.143 111.518 268.757 113.213 267.048 113.213Z"
            fill="black" />
        <path
            d="M267.759 107.801C268.473 107.801 269.048 108.499 269.048 109.378C269.048 110.257 268.473 110.955 267.759 110.955C267.046 110.955 266.47 110.257 266.47 109.378C266.47 108.499 267.048 107.801 267.759 107.801Z"
            fill="#64B5F6" />
        <path
            d="M267.759 107.801C268.473 107.801 269.048 108.499 269.048 109.378C269.048 110.257 268.473 110.955 267.759 110.955C267.046 110.955 266.47 110.257 266.47 109.378C266.47 108.499 267.048 107.801 267.759 107.801Z"
            fill="#F44336" />
        <path
            d="M262.262 105.669H262.808C263.261 105.667 263.701 105.518 264.063 105.243C264.91 104.599 266.701 103.52 268.562 104.145C270.719 104.871 272.18 107.734 272.597 108.643C272.636 108.726 272.697 108.796 272.773 108.845C272.85 108.894 272.938 108.92 273.029 108.92C273.029 108.92 272.341 103.308 268.562 101.783C264.891 100.304 262.4 103.41 261.863 105.115C261.843 105.179 261.838 105.246 261.848 105.312C261.859 105.378 261.884 105.441 261.923 105.495C261.962 105.549 262.013 105.593 262.072 105.623C262.131 105.653 262.196 105.669 262.262 105.669Z"
            fill="#64B5F6" />
        <path
            d="M262.262 105.669H262.808C263.261 105.667 263.701 105.518 264.063 105.243C264.91 104.599 266.701 103.52 268.562 104.145C270.719 104.871 272.18 107.734 272.597 108.643C272.636 108.726 272.697 108.796 272.773 108.845C272.85 108.894 272.938 108.92 273.029 108.92C273.029 108.92 272.341 103.308 268.562 101.783C264.891 100.304 262.4 103.41 261.863 105.115C261.843 105.179 261.838 105.246 261.848 105.312C261.859 105.378 261.884 105.441 261.923 105.495C261.962 105.549 262.013 105.593 262.072 105.623C262.131 105.653 262.196 105.669 262.262 105.669Z"
            fill="#EF5350" />
        <path
            d="M271.06 101.399L270.255 103.957L268.443 109.738L267.754 109.306L269.51 103.52L270.319 100.843C270.54 100.994 270.787 101.178 271.06 101.399Z"
            fill="#64B5F6" />
        <path opacity="0.6"
            d="M271.06 101.399L270.255 103.957L268.443 109.738L267.754 109.306L269.51 103.52L270.319 100.843C270.54 100.994 270.787 101.178 271.06 101.399Z"
            fill="white" />
        <path
            d="M271.212 101.51L270.459 103.957H270.246C269.851 103.492 269.51 103.52 269.51 103.52L269.367 103.308L270.106 100.701C270.12 100.707 270.132 100.715 270.143 100.724C270.2 100.762 270.26 100.801 270.319 100.845C270.549 100.997 270.778 101.18 271.06 101.392L271.212 101.51Z"
            fill="#424242" />
        <path
            d="M268.794 109.178C268.794 109.643 268.537 110.015 268.216 110.015C267.894 110.015 267.638 109.641 267.638 109.178C267.638 108.715 267.897 108.341 268.216 108.341C268.535 108.341 268.794 108.715 268.794 109.178Z"
            fill="#424242" />
        <path opacity="0.2"
            d="M299.249 105.764C299.235 105.881 299.178 105.989 299.091 106.066C299.003 106.144 298.89 106.186 298.774 106.185H297.923C297.845 106.185 297.768 106.201 297.697 106.233C297.626 106.265 297.562 106.312 297.51 106.371L294.963 109.217C294.887 109.303 294.798 109.376 294.7 109.434C293.008 110.397 291.101 110.903 289.161 110.903H287.175V107.083C287.169 105.968 287.404 104.865 287.863 103.852L289.274 100.797C289.596 100.095 290.11 99.5018 290.754 99.0868C291.399 98.6718 292.147 98.4525 292.91 98.4547H294.229H294.381C295.638 98.968 296.721 99.8406 297.498 100.966C297.576 101.073 297.65 101.185 297.728 101.294C297.96 101.658 298.167 102.038 298.347 102.431C298.499 102.755 298.634 103.086 298.751 103.424C298.951 103.986 299.111 104.562 299.23 105.148C299.266 105.351 299.272 105.559 299.249 105.764Z"
            fill="black" />
    </g>
    <defs>
        <clipPath id="clip0_4500_76513">
            <rect width="328" height="115" fill="white" transform="translate(0 0.230774)" />
        </clipPath>
        <clipPath id="clip1_4500_76513">
            <rect width="312" height="97.3099" fill="white" transform="translate(8 14.1772)" />
        </clipPath>
    </defs>
</svg>