<svg width="71" height="70" viewBox="0 0 71 70" fill="none" xmlns="http://www.w3.org/2000/svg">
    <g clip-path="url(#clip0_8617_115561)">
        <circle cx="35.39" cy="35" r="35" fill="#F5F5F5" />
        <circle cx="35.39" cy="35" r="27.7083" fill="#E3E7ED" />
        <path
            d="M47.9796 40.9398C37.4257 25.9277 35.4671 24.3882 35.4671 18.8731C35.4671 11.3184 41.7102 5.1953 49.4129 5.1953C57.1157 5.1953 63.3587 11.3184 63.3587 18.8731C63.3587 24.3882 61.4001 25.9247 50.8462 40.9338C50.686 41.1601 50.4723 41.3452 50.2234 41.4732C49.9746 41.6012 49.6979 41.6684 49.4169 41.669C49.1359 41.6696 48.8588 41.6036 48.6094 41.4766C48.36 41.3497 48.1455 41.1655 47.9842 40.9398L47.9812 40.9338L47.9796 40.9398ZM49.4129 24.5721C50.954 24.5721 52.432 23.9717 53.5217 22.9029C54.6115 21.8341 55.2237 20.3845 55.2237 18.8731C55.2237 17.3616 54.6115 15.912 53.5217 14.8432C52.432 13.7744 50.954 13.174 49.4129 13.174C47.8718 13.174 46.3938 13.7744 45.3041 14.8432C44.2144 15.912 43.6022 17.3616 43.6022 18.8731C43.6022 20.3845 44.2144 21.8341 45.3041 22.9029C46.3938 23.9717 47.8718 24.5721 49.4129 24.5721Z"
            fill="#16A75C" />
        <path
            d="M18.9931 65.7942C4.12174 44.6408 1.36188 42.4715 1.36188 34.7001C1.36188 24.0548 10.1589 15.4269 21.0128 15.4269C31.8667 15.4269 40.6637 24.0548 40.6637 34.7001C40.6637 42.4715 37.9039 44.6365 23.0325 65.7856C22.8066 66.1046 22.5056 66.3654 22.1549 66.5458C21.8042 66.7261 21.4143 66.8208 21.0184 66.8216C20.6224 66.8225 20.2321 66.7295 19.8806 66.5506C19.5291 66.3717 19.2269 66.1122 18.9997 65.7942L18.9953 65.7856L18.9931 65.7942ZM21.0128 42.7306C23.1844 42.7306 25.267 41.8845 26.8025 40.3785C28.338 38.8725 29.2007 36.8299 29.2007 34.7001C29.2007 32.5703 28.338 30.5277 26.8025 29.0217C25.267 27.5156 23.1844 26.6696 21.0128 26.6696C18.8412 26.6696 16.7586 27.5156 15.2231 29.0217C13.6876 30.5277 12.8249 32.5703 12.8249 34.7001C12.8249 36.8299 13.6876 38.8725 15.2231 40.3785C16.7586 41.8845 18.8412 42.7306 21.0128 42.7306Z"
            fill="#F44336" />
        <circle cx="20.4764" cy="35.3216" r="6.63158" fill="#C62828" />
        <circle cx="20.4764" cy="35.3216" r="8.84891" stroke="#E53935" stroke-width="5.5127" />
    </g>
    <defs>
        <clipPath id="clip0_8617_115561">
            <rect width="70" height="70" fill="white" transform="translate(0.390015)" />
        </clipPath>
    </defs>
</svg>