<svg width="102" height="98" viewBox="0 0 102 98" fill="none" xmlns="http://www.w3.org/2000/svg">
<defs>
<clipPath id="clip0_6619_156689">
<rect width="101.054" height="97.9143" rx="48.9571" fill="white"/>
</clipPath>
</defs>
<g clip-path="url(#clip0_6619_156689)">
<rect width="101.054" height="97.9143" rx="48.9571" fill="#E0E0E0"/>
<path d="M59.0678 61.4265H41.9867V70.5229H59.0678V61.4265Z" fill="#ECB79E"/>
<path d="M46.7371 68.3765C49.466 68.2743 52.1949 67.4567 54.2163 66.2302C55.9346 65.2081 57.3496 64.0838 58.3603 62.6529C58.5624 62.3463 58.7646 62.0397 58.9667 61.7331V61.4265H41.9867V68.1721C43.5028 68.3765 45.1199 68.3765 46.7371 68.3765Z" fill="#CE9980"/>
<path d="M50.4767 10.4252C39.561 10.7318 31.2732 15.2289 31.2732 30.8666C31.2732 40.1674 32.0817 42.8248 34.8107 53.4543C36.6299 60.8132 46.4339 64.5948 50.2746 64.9015C50.3756 64.9015 50.4767 64.9015 50.4767 64.9015C50.5778 64.9015 50.6789 64.9015 50.6789 64.9015C54.4185 64.697 64.2224 60.8132 66.1428 53.4543C68.7706 42.927 69.6803 40.1674 69.6803 30.8666C69.6803 15.3311 61.3924 10.7318 50.4767 10.4252Z" fill="#ECB79E"/>
<path d="M67.5577 37.3056L66.3449 46.5042C70.9942 48.5483 71.8027 37.7144 71.8027 37.7144C70.691 35.057 67.5577 37.3056 67.5577 37.3056Z" fill="#ECB79E"/>
<path d="M28.5443 37.8166C28.5443 37.8166 29.2517 48.6505 34.0021 46.6064L32.7892 37.4078C32.7892 37.3056 29.656 35.057 28.5443 37.8166Z" fill="#ECB79E"/>
<path d="M59.1688 70.5229L82.2131 76.5531C82.2131 76.5531 90.0966 77.7795 92.1181 84.934L95.5545 97.9143H50.6789H50.2746H5.5L8.93642 84.934C10.9578 77.7795 18.8414 76.5531 18.8414 76.5531L41.7846 70.5229H59.1688Z" fill="#ECB79E"/>
<path d="M5.5 97.9143L8.93642 84.934C10.9578 77.7795 18.8414 76.5531 18.8414 76.5531L41.7846 70.5229H59.1688L82.2131 76.5531C82.2131 76.5531 90.0966 77.7795 92.1181 84.934L95.5545 97.9143" fill="white"/>
<path d="M51.9928 70.5229H50.5778H50.4767H49.0617L44.8167 77.2685L48.5564 81.5612H50.4767H50.5778H52.3971L56.2378 77.2685L51.9928 70.5229Z" fill="#FFB900"/>
<path d="M52.5992 80.7435C50.1735 78.0862 49.0617 74.1001 49.7692 70.5229H49.0617L44.8167 77.2685L48.5564 81.5612H52.3971L52.9024 81.0502C52.8013 80.8458 52.7003 80.8458 52.5992 80.7435Z" fill="#FF9500"/>
<path d="M59.0678 66.2302L50.4767 70.8295L56.1367 79.4149L66.3449 73.1802L59.0678 66.2302Z" fill="#BCBEC0"/>
<path d="M59.0678 66.2302L50.4767 70.8295L56.2378 78.2906L65.8395 72.6692L59.0678 66.2302Z" fill="white"/>
<path d="M41.8857 65.9235L50.4767 70.5228L44.8167 79.1082L34.5075 72.8736L41.8857 65.9235Z" fill="#BCBEC0"/>
<path d="M41.8857 65.9235L50.4767 70.5228L44.7156 77.9839L35.1139 72.3626L41.8857 65.9235Z" fill="white"/>
<path d="M35.215 72.2604L18.8414 76.5531C18.8414 76.5531 10.9578 77.7795 8.93642 84.934L5.5 97.9143H95.5545L92.1181 84.934C90.0966 77.7795 82.2131 76.5531 82.2131 76.5531L65.031 71.5449L50.4767 97.1989L35.215 72.2604Z" fill="#1565C0"/>
<path d="M48.5564 81.5612L46.4339 90.6576L50.4767 97.1988L54.1153 90.6576L52.3971 81.5612H48.5564Z" fill="#FFB900"/>
<path d="M35.215 72.2604L27.4325 74.3045L31.8796 76.042L29.1507 79.1082L44.8167 97.9143H50.881L35.215 72.2604Z" fill="#1976D2"/>
<path d="M65.031 71.5449L73.622 74.1001L69.1749 76.042L71.9038 79.1082L56.2378 97.9143H50.1735L65.031 71.5449Z" fill="#1976D2"/>
<path d="M67.5578 47.7307L66.1428 48.6506L67.5578 34.1372L65.2331 29.129C65.2331 29.129 67.3556 17.8863 51.4874 17.5797C51.4874 17.5797 38.0449 16.8642 36.3267 22.9966C36.3267 22.9966 29.0496 10.9362 48.6574 8.07442C48.6574 8.07442 68.2653 6.43911 70.3877 18.4995C70.3877 18.4995 71.9038 31.7864 69.377 37.4078L67.5578 47.7307Z" fill="#212121"/>
<path d="M30.4646 25.143C30.4646 25.143 30.6667 30.0489 31.5764 37.4078L33.2946 47.7307L34.7096 48.6506L33.2946 34.1372L35.7203 28.3114L36.2257 23.6099L36.4278 22.9966V15.0245C30.6667 15.7399 30.4646 25.143 30.4646 25.143Z" fill="#212121"/>
<path d="M37.2364 15.9444C37.6407 16.4554 38.3482 17.1708 38.5503 17.5797C38.6514 16.8642 38.2471 16.251 38.2471 15.5355C39.3589 16.0466 40.6728 16.251 41.7846 16.6598C41.7846 16.0466 41.5824 15.3311 41.4814 14.7179C43.3007 14.5135 44.4124 16.1488 46.1306 16.1488C46.2317 15.2289 45.7264 14.5135 45.7264 13.5936C47.5456 13.4914 49.0617 15.1267 50.7799 15.0245C50.6789 14.4112 50.4767 13.5936 50.3756 12.9804C51.9928 12.8781 54.6206 15.0245 55.8335 15.9444C55.8335 15.1267 55.8335 14.309 55.9346 13.4914C58.2592 14.4112 60.0785 16.1488 62.0999 17.4775C62.201 16.762 61.8978 16.1488 61.8978 15.4333C64.3235 16.5576 65.6374 19.5216 67.3556 21.5657C67.3556 20.9525 66.9513 20.5437 66.9513 20.0326C67.3556 20.6459 67.7599 21.2591 68.2653 21.8724C67.2545 20.5437 66.547 18.7039 65.9406 17.1708C66.1428 17.6819 66.446 18.2951 66.7492 18.8061C65.7385 17.3752 64.1213 15.9443 63.616 14.2068C63.5149 14.6157 63.717 15.0245 64.0203 15.4333C63.2117 14.4112 61.4935 12.7759 60.2806 12.3671C60.3817 12.9804 60.9881 13.3892 61.0892 14.0024C60.1796 13.4914 59.1688 12.2649 58.1581 12.0605C58.2592 12.2649 58.1581 12.5715 58.2592 12.6737C57.0463 12.8781 55.6313 11.7539 54.6206 11.1406C54.6206 11.5495 54.8228 11.8561 54.8228 12.2649C53.9131 12.0605 53.0035 11.2428 52.0939 11.1406C51.9928 11.4472 51.9928 11.7539 52.0939 12.0605C50.7799 12.1627 49.5671 11.5495 48.2531 11.7539C48.2531 11.8561 48.2531 12.2649 48.3542 12.3671C47.7478 12.0605 46.1306 11.5495 45.4231 11.8561C44.8167 12.0605 44.9178 12.1627 45.0189 12.8781C43.9071 12.9804 42.8964 12.8781 41.7846 12.8781C41.7846 13.1848 41.6835 13.4914 41.6835 13.798C40.8749 13.9002 40.1674 13.6958 39.3589 13.6958C39.3589 13.9002 39.2578 14.0024 39.2578 14.2068C38.4492 14.2068 37.2364 13.9002 37.4385 15.1267C37.3374 15.1267 37.2364 15.1267 37.1353 15.0245C37.0342 15.4333 37.1353 15.7399 37.5396 15.8421" fill="#424242"/>
<path d="M34.7096 16.251C34.8107 17.5797 35.6192 18.6017 35.5182 20.0326C35.4171 21.1569 35.1139 23.201 34.1032 23.9165C34.1032 26.9827 34.3053 31.7864 32.1828 34.3416C31.8796 33.4217 31.7785 32.0931 31.1721 31.2754C31.4753 31.4798 31.7785 31.6842 32.1828 31.6842C31.9807 30.3555 31.1721 28.618 31.3742 27.1871C31.8796 27.5959 32.2839 28.0048 32.7892 28.4136C32.8903 27.4937 32.0817 26.7783 31.8796 25.9606C31.6775 25.143 31.1721 23.0988 31.2732 22.179C31.8796 22.4856 32.385 23.201 32.8903 23.7121C32.7892 22.7922 32.7892 21.7702 32.7892 20.8503C33.1935 20.9525 33.4967 21.1569 33.901 21.2591C34.0021 20.5437 33.4967 20.0326 33.3957 19.4194C33.2946 18.9084 33.2946 18.3973 33.2946 17.8863C33.6989 18.0907 34.1032 18.3973 34.5075 18.7039C34.3053 18.1929 33.8 16.8642 34.3053 16.3532" fill="#424242"/>
</g>

</svg>
