<svg width="220" height="144" viewBox="0 0 220 144" fill="none" xmlns="http://www.w3.org/2000/svg">
    <defs>
        <clipPath id="clip0_4431_74636">
            <rect x="63.3333" width="93.3333" height="93.3333" rx="46.6667" fill="white" />
        </clipPath>
        <clipPath id="clip1_4431_74636">
            <rect width="26.5823" height="26.5823" fill="white" transform="translate(141.418 66.4177)" />
        </clipPath>
        <clipPath id="clip2_4431_74636">
            <rect width="13.2911" height="13.2911" fill="white" transform="translate(148.063 73.0633)" />
        </clipPath>
    </defs>
    <g clip-path="url(#clip0_4431_74636)">
        <rect x="63.3333" width="93.3333" height="93.3333" rx="46.6667" fill="#F5F5F5" />
        <rect x="63.3332" y="77.7778" width="96.4444" height="18.6667" fill="#D9D9D9" />
        <path
            d="M67.7394 57.2877H61.8286C57.1482 57.2877 53.3539 61.084 53.3539 65.767V69.2007C53.3539 73.8837 57.1482 77.68 61.8286 77.68H67.7394C72.4198 77.68 76.2141 73.8837 76.2141 69.2007V65.767C76.2141 61.084 72.4198 57.2877 67.7394 57.2877Z"
            fill="#1F2121" />
        <path
            d="M126.455 57.2877H132.369C134.613 57.2877 136.765 58.1795 138.351 59.7669C139.938 61.3543 140.829 63.5074 140.829 65.7523V69.186C140.829 71.4309 139.938 73.5839 138.351 75.1714C136.765 76.7588 134.613 77.6506 132.369 77.6506H126.455C124.211 77.6506 122.059 76.7588 120.473 75.1714C118.886 73.5839 117.995 71.4309 117.995 69.186V65.7523C117.995 63.5074 118.886 61.3543 120.473 59.7669C122.059 58.1795 124.211 57.2877 126.455 57.2877Z"
            fill="#1F2121" />
        <path
            d="M88.5214 71.8983H66.1064V63.6619C66.1064 60.6891 67.2862 57.8379 69.3864 55.7352C71.4866 53.6324 74.3354 52.4501 77.3066 52.4481C80.279 52.4481 83.1296 53.6296 85.2315 55.7326C87.3333 57.8356 88.5141 60.6878 88.5141 63.6619V71.8983H88.5214Z"
            fill="#001B3D" />
        <path
            d="M77.2844 57.2877H83.2063C85.45 57.2877 87.6018 58.1795 89.1884 59.7669C90.7749 61.3543 91.6662 63.5074 91.6662 65.7523V69.186C91.6662 71.4309 90.7749 73.5839 89.1884 75.1714C87.6018 76.7588 85.45 77.6506 83.2063 77.6506H77.2844V57.2877Z"
            fill="#1F2121" />
        <path
            d="M85.7591 65.767V69.2007C85.7591 71.4456 84.8678 73.5986 83.2812 75.186C81.6947 76.7735 79.5429 77.6653 77.2992 77.6653C75.0555 77.6653 72.9037 76.7735 71.3171 75.186C69.7306 73.5986 68.8393 71.4456 68.8393 69.2007V65.767C68.8393 63.522 69.7306 61.3691 71.3171 59.7816C72.9037 58.1942 75.0555 57.3024 77.2992 57.3024C79.5429 57.3024 81.6947 58.1942 83.2812 59.7816C84.8678 61.3691 85.7591 63.522 85.7591 65.767Z"
            fill="#424242" />
        <path
            d="M80.9554 66.7386V68.2107C80.9554 69.1867 80.5678 70.1228 79.878 70.813C79.1882 71.5032 78.2527 71.8909 77.2772 71.8909C76.3016 71.8909 75.3661 71.5032 74.6763 70.813C73.9865 70.1228 73.5989 69.1867 73.5989 68.2107V66.7386C73.5989 65.7625 73.9865 64.8264 74.6763 64.1363C75.3661 63.4461 76.3016 63.0583 77.2772 63.0583C78.2527 63.0583 79.1882 63.4461 79.878 64.1363C80.5678 64.8264 80.9554 65.7625 80.9554 66.7386Z"
            fill="white" />
        <path
            d="M96.7054 50.7552L68.1992 43.6302H107.115L135.621 50.7552C142.58 52.496 147.542 59.5326 147.542 67.666V72.535H108.626V67.666C108.626 59.5326 103.665 52.496 96.7054 50.7552Z"
            fill="#1565C0" />
        <path d="M68.1993 43.6303L63.1454 27.68H91.3095L107.13 43.6303H68.1993Z" fill="#0D47A1" />
        <path
            d="M30.7661 46.0482C34.1353 27.8935 63.1344 27.68 63.1344 27.68L68.1882 43.6303L96.6944 50.7552C103.654 52.496 108.615 59.5327 108.615 67.666V72.535H89.0915C88.6116 72.535 88.1513 72.3442 87.8119 72.0047C87.4725 71.6651 87.2819 71.2046 87.2819 70.7243V64.9905C87.2819 59.6136 83.1549 54.9912 77.7884 54.7373C76.4391 54.6715 75.0905 54.8806 73.8243 55.3519C72.5582 55.8233 71.4009 56.5471 70.4228 57.4793C69.4446 58.4116 68.6659 59.533 68.1338 60.7754C67.6017 62.0178 67.3274 63.3554 67.3275 64.7071V70.739C67.328 70.9767 67.2817 71.212 67.1911 71.4317C67.1006 71.6513 66.9676 71.851 66.7999 72.0192C66.6321 72.1873 66.4329 72.3208 66.2135 72.4118C65.9942 72.5029 65.759 72.5497 65.5215 72.5497H48.6753C48.4378 72.5497 48.2027 72.5029 47.9833 72.4118C47.764 72.3208 47.5647 72.1873 47.397 72.0192C47.2292 71.851 47.0963 71.6513 47.0057 71.4317C46.9152 71.212 46.8688 70.9767 46.8693 70.739V64.9905C46.8693 59.6136 42.7387 54.9912 37.3722 54.7373C36.0243 54.6741 34.6777 54.8851 33.4138 55.3576C32.1498 55.8301 30.9948 56.5543 30.0186 57.4863C29.0424 58.4183 28.2653 59.5387 27.7344 60.7799C27.2035 62.021 26.9297 63.357 26.9297 64.7071V70.739C26.9302 70.9767 26.8838 71.212 26.7933 71.4317C26.7028 71.6513 26.5698 71.851 26.402 72.0192C26.2343 72.1873 26.035 72.3208 25.8157 72.4118C25.5963 72.5029 25.3612 72.5497 25.1237 72.5497H19.9117C16.1636 48.0576 30.7661 46.0482 30.7661 46.0482Z"
            fill="#0D47A1" />
        <path d="M109.881 50.3062H124.715V47.0529H109.881V50.3062Z" fill="#022B55" />
        <path d="M124.715 47.0529L111.694 44.0792H98.6733L109.881 47.0529H124.715Z" fill="#0D47A1" />
        <path d="M98.6733 44.0792V48.6796L109.881 50.3062V47.0529L98.6733 44.0792Z" fill="#0D47A1" />
        <path d="M102.517 41.9704L90.6694 29.6342H66.1063L70.0163 41.9704H102.517Z" fill="#90CAF9" />
        <path
            d="M51.8128 31.2057V41.9705H64.7822L63.5132 36.9211L61.6741 29.6342C58.3445 29.8426 55.0424 30.3688 51.8128 31.2057Z"
            fill="#90CAF9" />
        <path d="M90.6694 29.6342H66.1063L68.4162 36.9211H97.6691L90.6694 29.6342Z" fill="#BBDEFB" />
        <path d="M51.8128 31.2057V36.9211H63.5132L61.6741 29.6342C58.3445 29.8426 55.0424 30.3688 51.8128 31.2057Z"
            fill="#BBDEFB" />
        <path
            d="M110.201 60.6772C110.201 63.5772 111.941 65.9289 114.092 65.9289C116.244 65.9289 117.98 63.5772 117.98 60.6772C117.98 57.7771 116.24 55.4255 114.092 55.4255C111.944 55.4255 110.201 57.7771 110.201 60.6772Z"
            fill="#EF5350" />
        <path
            d="M143.669 65.6087C145.818 65.6087 147.56 63.2575 147.56 60.357C147.56 57.4566 145.818 55.1053 143.669 55.1053C141.52 55.1053 139.777 57.4566 139.777 60.357C139.777 63.2575 141.52 65.6087 143.669 65.6087Z"
            fill="#EF5350" />
        <path
            d="M143.095 69.7343H147.575V67.3458H143.113C142.796 67.3458 142.492 67.4718 142.268 67.6961C142.044 67.9205 141.918 68.2247 141.918 68.5419C141.919 68.8553 142.043 69.1559 142.263 69.3789C142.483 69.6019 142.782 69.7295 143.095 69.7343Z"
            fill="#FFE483" />
        <path
            d="M111.496 69.7343H118.712C118.848 69.7348 118.983 69.7084 119.108 69.6566C119.234 69.6048 119.348 69.5286 119.444 69.4325C119.54 69.3364 119.616 69.2222 119.668 69.0965C119.72 68.9708 119.746 68.8361 119.746 68.7002C119.746 68.4259 119.637 68.1628 119.443 67.9689C119.249 67.775 118.986 67.666 118.712 67.666H111.496C111.221 67.666 110.958 67.775 110.765 67.9689C110.571 68.1628 110.462 68.4259 110.462 68.7002C110.462 68.9744 110.571 69.2375 110.765 69.4314C110.958 69.6254 111.221 69.7343 111.496 69.7343Z"
            fill="#FFE483" />
        <path
            d="M64.7822 41.9704V66.7864C64.7822 67.0197 64.6896 67.2434 64.5247 67.4084C64.3598 67.5733 64.1362 67.666 63.9031 67.666H59.412C59.0217 67.6663 58.6353 67.5893 58.2748 67.4397C57.9144 67.29 57.5871 67.0705 57.3117 66.7938L53.376 62.8596C52.3751 61.8582 51.8128 60.4999 51.8128 59.0836V41.9704H64.7822Z"
            fill="#1A4373" />
        <path
            d="M122.056 60.6772H135.488C135.717 60.6762 135.936 60.5847 136.097 60.4226C136.259 60.2605 136.349 60.0411 136.349 59.8124C136.349 59.584 136.259 59.3649 136.097 59.2034C135.936 59.0419 135.717 58.9512 135.488 58.9512H122.056C121.827 58.9512 121.608 59.0419 121.447 59.2034C121.286 59.3649 121.195 59.584 121.195 59.8124C121.195 60.0411 121.285 60.2605 121.447 60.4226C121.608 60.5847 121.827 60.6762 122.056 60.6772Z"
            fill="#022B55" />
        <path
            d="M122.056 63.9306H135.488C135.717 63.9306 135.936 63.8398 136.097 63.6783C136.259 63.5168 136.349 63.2978 136.349 63.0694C136.349 62.8406 136.259 62.6212 136.097 62.4591C135.936 62.297 135.717 62.2055 135.488 62.2045H122.056C121.827 62.2055 121.608 62.297 121.447 62.4591C121.285 62.6212 121.195 62.8406 121.195 63.0694C121.195 63.2978 121.286 63.5168 121.447 63.6783C121.608 63.8398 121.827 63.9306 122.056 63.9306Z"
            fill="#022B55" />
        <path
            d="M63.508 69.1935L64.5758 71.6463C64.7773 72.11 65.1102 72.5046 65.5336 72.7817C65.9569 73.0588 66.4522 73.2062 66.9584 73.2056H71.4285C72.0193 73.2082 72.5873 72.9781 73.0094 72.5652H81.3467C81.6692 72.5643 81.9869 72.4872 82.2739 72.3403C82.5609 72.1934 82.8091 71.9808 82.9981 71.7199L84.1012 70.1862L63.508 69.1935Z"
            fill="#424242" />
        <path opacity="0.4"
            d="M63.508 69.1935L64.5758 71.6463C64.7773 72.11 65.1102 72.5046 65.5336 72.7817C65.9569 73.0588 66.4522 73.2062 66.9584 73.2056H71.4285C72.0193 73.2082 72.5873 72.9781 73.0094 72.5652H81.3467C81.6692 72.5643 81.9869 72.4872 82.2739 72.3403C82.5609 72.1934 82.8091 71.9808 82.9981 71.7199L84.1012 70.1862L63.508 69.1935Z"
            fill="black" />
        <path
            d="M78.1946 40.523C78.1946 40.523 78.2138 40.5807 79.5446 40.712C80.8753 40.8432 82.6775 41.5541 83.0078 42.3674"
            stroke="#212121" stroke-width="0.119347" stroke-linecap="round" stroke-linejoin="round" />
        <path
            d="M89.4018 40.523C89.4018 40.523 88.7317 40.4334 88.5713 41.0065C88.411 41.5797 88.3212 41.9671 87.728 42.2585"
            stroke="#212121" stroke-width="0.119347" stroke-linecap="round" stroke-linejoin="round" />
        <path
            d="M56.649 77.4771C60.4389 77.4771 63.5112 73.7756 63.5112 69.2096C63.5112 64.6435 60.4389 60.942 56.649 60.942C52.859 60.942 49.7867 64.6435 49.7867 69.2096C49.7867 73.7756 52.859 77.4771 56.649 77.4771Z"
            fill="#424242" />
        <path opacity="0.4"
            d="M56.649 77.4771C60.4389 77.4771 63.5112 73.7756 63.5112 69.2096C63.5112 64.6435 60.4389 60.942 56.649 60.942C52.859 60.942 49.7867 64.6435 49.7867 69.2096C49.7867 73.7756 52.859 77.4771 56.649 77.4771Z"
            fill="black" />
        <path
            d="M70.3126 59.4755C70.3126 60.6475 75.0039 68.9982 75.4753 69.3312C75.9467 69.6642 82.0682 69.2928 82.0682 69.2928L81.6129 71.0251H64.7843L57.7969 57.4743L62.4178 50.8174L70.8417 51.0479C70.8417 51.0479 70.3126 58.3004 70.3126 59.4755Z"
            fill="#1E88E5" />
        <path
            d="M70.3126 59.4755C70.3126 60.6475 75.0039 68.9982 75.4753 69.3312C75.9467 69.6642 82.0682 69.2928 82.0682 69.2928L81.6129 71.0251H64.7843L57.7969 57.4743L62.4178 50.8174L70.8417 51.0479C70.8417 51.0479 70.3126 58.3004 70.3126 59.4755Z"
            fill="#F44336" />
        <path
            d="M94.8724 56.725C94.8724 56.725 89.4018 60.9132 86.782 69.533C86.6347 70.0256 86.3326 70.4578 85.9202 70.7657C85.5079 71.0737 85.0073 71.2409 84.4924 71.2428H76.3988L85.7943 55.9822L90.7486 53.9233L94.8724 56.725Z"
            fill="#EF5350" />
        <path opacity="0.51"
            d="M95.4496 56.3248C95.4496 56.3248 89.3954 60.9485 86.7243 69.6258C86.575 70.1159 86.2725 70.5453 85.8611 70.8513C85.4496 71.1573 84.9509 71.3236 84.4379 71.3261H76.3251L85.7206 56.0622L90.6749 53.9938L95.4496 56.3248Z"
            fill="black" />
        <path
            d="M48.3629 64.1665C48.3826 64.3277 48.4612 64.4761 48.5837 64.583C48.7062 64.69 48.8639 64.748 49.0267 64.746H50.2163C50.3251 64.7459 50.4328 64.7687 50.5322 64.8128C50.6316 64.8569 50.7207 64.9215 50.7935 65.0022L54.3529 68.9214C54.4593 69.0395 54.5838 69.14 54.7217 69.2192C57.0856 70.5453 59.7512 71.2422 62.4626 71.2428H79.0956C79.5369 71.2371 79.9603 71.0673 80.2829 70.7665C80.6055 70.4656 80.8041 70.0555 80.84 69.6162C81.244 64.8133 84.1397 61.2911 86.5735 59.1266C87.3522 58.4357 88.1783 57.8002 89.0459 57.2246C89.6521 56.8269 90.3632 56.6184 91.0885 56.6258H94.9173C95.4015 56.6258 95.7414 56.011 95.5939 55.5531C94.9525 53.6319 93.7949 51.5859 92.6277 49.8216C91.5822 48.2457 90.4473 46.7309 89.2286 45.2844H83.8735C83.6029 45.2892 83.3376 45.36 83.1006 45.4906C82.8636 45.6212 82.6622 45.8076 82.5139 46.0337C82.2392 46.4247 82.1245 46.9058 82.1932 47.3785C82.5237 49.5782 82.5485 51.8129 82.267 54.0194C81.5006 60.5418 78.5953 66.4687 77.0786 69.1712C76.8144 69.6542 76.4276 70.0594 75.9571 70.346C75.4866 70.6326 74.9488 70.7906 74.3978 70.8042H70.2291C67.1892 69.9332 64.8355 61.432 64.8355 59.2098C64.8355 56.8627 67.2277 51.1728 67.2277 51.1728H55.3149V53.9938C55.0969 54.0194 55.2027 54.0482 55.1353 54.0834C50.5691 55.9118 48.9753 60.5866 48.4013 63.3115C48.3466 63.5931 48.3336 63.8812 48.3629 64.1665Z"
            fill="#EF5350" />
        <path
            d="M86.3299 43.5137H84.8003C84.3979 43.5123 84.0078 43.3746 83.694 43.123L80.5515 40.5806C80.4266 40.4812 80.2718 40.4271 80.1121 40.4269H74.0804C73.9708 40.4176 73.8687 40.3675 73.7943 40.2865C73.7199 40.2056 73.6786 40.0997 73.6786 39.9899C73.6786 39.88 73.7199 39.7741 73.7943 39.6932C73.8687 39.6123 73.9708 39.5622 74.0804 39.5528H80.1186C80.4786 39.5533 80.8274 39.6777 81.1062 39.905L84.2519 42.4442C84.4088 42.5712 84.6048 42.6402 84.8067 42.6395H86.3299C86.542 42.6393 86.7469 42.5628 86.9071 42.4241C87.0673 42.2853 87.172 42.0935 87.2021 41.8838L87.3432 40.904C87.3976 40.5303 87.5845 40.1884 87.8699 39.9405C88.1552 39.6925 88.5202 39.555 88.8984 39.5528H90.0496C90.1592 39.5622 90.2613 39.6123 90.3357 39.6932C90.4101 39.7741 90.4514 39.88 90.4514 39.9899C90.4514 40.0997 90.4101 40.2056 90.3357 40.2865C90.2613 40.3675 90.1592 40.4176 90.0496 40.4269H88.8984C88.7303 40.4274 88.5679 40.4881 88.4408 40.598C88.3137 40.7079 88.2303 40.8596 88.2058 41.0257L88.0679 42.0055C88.0072 42.4231 87.7983 42.8051 87.4794 43.0819C87.1604 43.3587 86.7525 43.5119 86.3299 43.5137Z"
            fill="#424242" />
        <path
            d="M82.5074 44.6824L83.1905 45.7775H89.5365L90.0335 44.8425C90.1143 44.6928 90.1448 44.5212 90.1205 44.3528C90.0963 44.1845 90.0186 44.0284 89.8988 43.9075L88.0133 41.9863C87.9435 41.9121 87.8623 41.8494 87.7728 41.8006C87.727 41.7756 87.6799 41.7532 87.6317 41.7334C87.5109 41.6873 87.3827 41.6634 87.2533 41.6629H83.6394C83.6394 41.6629 83.6586 42.694 82.6774 42.6235L82.3567 43.741C82.3148 43.8998 82.3065 44.0655 82.3325 44.2276C82.3584 44.3897 82.418 44.5446 82.5074 44.6824Z"
            fill="#212121" />
        <path opacity="0.4"
            d="M86.0284 43.0462L88.0486 42.9758L87.7728 41.7974C87.7271 41.7724 87.6799 41.75 87.6317 41.7302C87.5109 41.6841 87.3827 41.6602 87.2533 41.6597H84.1044L86.0284 43.0462Z"
            fill="white" />
        <path
            d="M71.919 50.8718V51.6915C71.919 52.4376 71.3065 52.9179 70.5626 52.9179H55.7895C55.0391 52.9179 54.4395 52.4376 54.4395 51.6915V50.8718C54.442 50.701 54.4796 50.5326 54.5499 50.3768C54.6202 50.2211 54.7218 50.0815 54.8484 49.9666C54.9749 49.8516 55.1237 49.7638 55.2856 49.7086C55.4474 49.6534 55.6189 49.6319 55.7895 49.6455H70.5626C70.7333 49.6324 70.9049 49.6542 71.067 49.7095C71.229 49.7648 71.378 49.8525 71.5049 49.9673C71.6319 50.0821 71.7341 50.2215 71.8052 50.377C71.8764 50.5325 71.9151 50.7009 71.919 50.8718Z"
            fill="#424242" />
        <path opacity="0.1"
            d="M67.1122 50.8718V51.6915C67.1204 51.8572 67.0932 52.0227 67.0325 52.1771C66.9718 52.3316 66.879 52.4713 66.7602 52.5873C66.6413 52.7032 66.4992 52.7926 66.3432 52.8496C66.1872 52.9066 66.0209 52.9299 65.8552 52.9179H55.7895C55.0391 52.9179 54.4395 52.4376 54.4395 51.6915V50.8718C54.442 50.701 54.4796 50.5326 54.5499 50.3768C54.6202 50.2211 54.7218 50.0815 54.8484 49.9666C54.9749 49.8516 55.1237 49.7638 55.2856 49.7086C55.4474 49.6534 55.6189 49.6319 55.7895 49.6455H65.8552C66.0209 49.6335 66.1872 49.6567 66.3432 49.7137C66.4992 49.7707 66.6413 49.8602 66.7602 49.9761C66.879 50.092 66.9718 50.2318 67.0325 50.3862C67.0932 50.5406 67.1204 50.7061 67.1122 50.8718Z"
            fill="white" />
        <path d="M77.5883 36.5863L77.2419 36.8508L79.6088 39.941L79.9552 39.6764L77.5883 36.5863Z" fill="#424242" />
        <path
            d="M76.1679 36.2292H77.2806C77.3962 36.229 77.5094 36.2629 77.6058 36.3267C77.7022 36.3905 77.7776 36.4813 77.8225 36.5878L77.9732 36.9368C78.0113 37.0263 78.0267 37.1239 78.0178 37.2207C78.009 37.3176 77.9763 37.4108 77.9226 37.4919C77.869 37.5731 77.796 37.6397 77.7103 37.6859C77.6246 37.7321 77.5287 37.7563 77.4313 37.7565H76.216C76.074 37.7564 75.9369 37.7052 75.8297 37.6123C75.7225 37.5193 75.6524 37.3909 75.6323 37.2506L75.581 36.9048C75.5696 36.8209 75.5763 36.7356 75.6005 36.6545C75.6247 36.5734 75.666 36.4984 75.7215 36.4345C75.777 36.3706 75.8455 36.3192 75.9225 36.2838C75.9995 36.2484 76.0831 36.2298 76.1679 36.2292Z"
            fill="#212121" />
        <path d="M88.713 37.0986L88.1302 39.8621L88.557 39.9518L89.1397 37.1883L88.713 37.0986Z" fill="#424242" />
        <path
            d="M90.2291 36.2292H89.0298C88.9122 36.2295 88.7985 36.272 88.7096 36.349C88.6208 36.426 88.5625 36.5324 88.5456 36.6486L88.4687 37.2026C88.4585 37.2714 88.4634 37.3417 88.4829 37.4085C88.5024 37.4753 88.5362 37.5372 88.5819 37.5898C88.6275 37.6424 88.6841 37.6845 88.7475 37.7133C88.811 37.742 88.88 37.7568 88.9497 37.7565H90.149C90.2663 37.757 90.3799 37.7151 90.4689 37.6387C90.5579 37.5622 90.6162 37.4562 90.6332 37.3402L90.7101 36.7863C90.7202 36.7173 90.7154 36.6469 90.6959 36.5799C90.6763 36.5129 90.6426 36.4509 90.597 36.3981C90.5514 36.3452 90.495 36.3028 90.4315 36.2737C90.368 36.2445 90.299 36.2294 90.2291 36.2292Z"
            fill="#212121" />
        <path
            d="M82.36 48.6849C82.478 49.9753 82.492 51.273 82.4017 52.5657C82.3696 53.0556 82.3247 53.5263 82.267 54.0194L84.191 57.6856C84.4198 58.1198 84.7628 58.4835 85.1832 58.7374C85.6036 58.9913 86.0855 59.1258 86.5768 59.1265H86.6024C86.6986 59.0273 86.8013 58.9408 86.8943 58.8608C87.5621 58.2889 88.2611 57.7544 88.9882 57.2598C89.6104 56.8431 90.3425 56.6202 91.0918 56.6194H94.9205C95.4047 56.6194 95.7446 56.0046 95.5971 55.5467C94.9558 53.6255 93.7982 51.5795 92.631 49.8152C92.5979 51.8754 92.7535 53.9343 93.0959 55.9662H91.2585C91.2585 55.9662 87.9011 51.2208 85.0472 50.3051L82.5171 46.0272C82.2424 46.4183 82.1277 46.8994 82.1965 47.3721C82.2638 47.8107 82.3183 48.2494 82.36 48.6849Z"
            fill="#EF5350" />
        <path opacity="0.2"
            d="M82.36 48.6849C82.478 49.9753 82.492 51.273 82.4017 52.5657C82.3696 53.0556 82.3247 53.5263 82.267 54.0194L84.191 57.6856C84.4198 58.1198 84.7628 58.4835 85.1832 58.7374C85.6036 58.9913 86.0855 59.1258 86.5768 59.1265H86.6024C86.6986 59.0273 86.8013 58.9408 86.8943 58.8608C87.5621 58.2889 88.2611 57.7544 88.9882 57.2598C89.6104 56.8431 90.3425 56.6202 91.0918 56.6194H94.9205C95.4047 56.6194 95.7446 56.0046 95.5971 55.5467C94.9558 53.6255 93.7982 51.5795 92.631 49.8152C92.5979 51.8754 92.7535 53.9343 93.0959 55.9662H91.2585C91.2585 55.9662 87.9011 51.2208 85.0472 50.3051L82.5171 46.0272C82.2424 46.4183 82.1277 46.8994 82.1965 47.3721C82.2638 47.8107 82.3183 48.2494 82.36 48.6849Z"
            fill="black" />
        <path
            d="M93.0927 51.1312C92.9978 52.487 93.1666 53.8483 93.5897 55.1401H95.1674C95.1674 55.1401 94.1445 52.3608 93.0927 51.1312Z"
            fill="#64B5F6" />
        <path opacity="0.7"
            d="M93.0927 51.1312C92.9978 52.487 93.1666 53.8483 93.5897 55.1401H95.1674C95.1674 55.1401 94.1445 52.3608 93.0927 51.1312Z"
            fill="white" />
        <path
            d="M85.634 51.1312C85.5827 51.0992 87.2213 55.4314 87.2213 55.4314H89.6103C88.707 53.6595 87.331 52.1713 85.634 51.1312Z"
            fill="#64B5F6" />
        <path opacity="0.7"
            d="M85.634 51.1312C85.5827 51.0992 87.2213 55.4314 87.2213 55.4314H89.6103C88.707 53.6595 87.331 52.1713 85.634 51.1312Z"
            fill="white" />
        <path
            d="M87.0449 54.2467C87.0449 54.7846 87.3848 55.2073 87.8016 55.2073C88.2185 55.2073 88.5584 54.7718 88.5584 54.2467C88.5584 53.7216 88.2185 53.2861 87.8016 53.2861C87.3848 53.2861 87.0449 53.712 87.0449 54.2467Z"
            fill="white" />
        <path
            d="M93.407 53.9233C93.407 54.4612 93.6443 54.8839 93.9393 54.8839C94.2343 54.8839 94.4716 54.4484 94.4716 53.9233C94.4716 53.3982 94.2311 52.9627 93.9393 52.9627C93.6475 52.9627 93.407 53.3854 93.407 53.9233Z"
            fill="white" />
        <path
            d="M86.3618 52.7834C86.3798 52.8524 86.4168 52.9149 86.4686 52.9639C86.5204 53.0129 86.5849 53.0465 86.6548 53.0607C86.7247 53.075 86.7973 53.0693 86.8641 53.0445C86.931 53.0197 86.9896 52.9766 87.0332 52.9202C87.0768 52.8638 87.1037 52.7963 87.1108 52.7254C87.1179 52.6545 87.105 52.583 87.0735 52.5191C87.0419 52.4552 86.9931 52.4013 86.9325 52.3637C86.8719 52.3261 86.802 52.3062 86.7306 52.3063C86.619 52.3223 86.5181 52.381 86.4492 52.4701C86.3803 52.5592 86.349 52.6716 86.3618 52.7834Z"
            fill="white" />
        <path
            d="M93.2081 52.5337C93.2081 52.7962 93.3203 53.0107 93.4614 53.0107C93.6025 53.0107 93.7147 52.7962 93.7147 52.5337C93.7147 52.2711 93.6025 52.0726 93.4582 52.0726C93.3139 52.0726 93.2081 52.2711 93.2081 52.5337Z"
            fill="white" />
        <path
            d="M85.8873 46.0176C85.8873 46.0176 87.0193 53.1452 90.7647 53.1933C94.2728 53.2413 94.6127 46.5492 91.2521 45.5085C88.5489 44.6888 85.8873 46.0176 85.8873 46.0176Z"
            fill="#64B5F6" />
        <path
            d="M85.8873 46.0176C85.8873 46.0176 87.0193 53.1452 90.7647 53.1933C94.2728 53.2413 94.6127 46.5492 91.2521 45.5085C88.5489 44.6888 85.8873 46.0176 85.8873 46.0176Z"
            fill="#212121" />
        <path
            d="M91.1635 52.5462C92.5789 52.3762 93.5504 50.778 93.3334 48.9766C93.1164 47.1752 91.793 45.8527 90.3775 46.0228C88.9621 46.1928 87.9906 47.791 88.2076 49.5924C88.4246 51.3938 89.748 52.7162 91.1635 52.5462Z"
            fill="#64B5F6" />
        <path opacity="0.7"
            d="M91.1635 52.5462C92.5789 52.3762 93.5504 50.778 93.3334 48.9766C93.1164 47.1752 91.793 45.8527 90.3775 46.0228C88.9621 46.1928 87.9906 47.791 88.2076 49.5924C88.4246 51.3938 89.748 52.7162 91.1635 52.5462Z"
            fill="white" />
        <path
            d="M90.1265 50.1514C90.1265 50.9519 90.6332 51.6019 91.2553 51.6019C91.8774 51.6019 92.3808 50.9615 92.3808 50.1514C92.3808 49.3413 91.8774 48.7041 91.2553 48.7041C90.6332 48.7041 90.1265 49.3477 90.1265 50.1514Z"
            fill="white" />
        <path
            d="M89.1741 48.2654C89.2011 48.3711 89.2573 48.4672 89.3363 48.5426C89.4153 48.618 89.5139 48.6697 89.6209 48.6919C89.7279 48.7141 89.839 48.7058 89.9415 48.6681C90.044 48.6304 90.1339 48.5646 90.2008 48.4784C90.2678 48.3922 90.3091 48.2889 90.3202 48.1804C90.3313 48.0718 90.3116 47.9623 90.2634 47.8644C90.2153 47.7664 90.1405 47.684 90.0477 47.6264C89.9549 47.5688 89.8478 47.5384 89.7385 47.5386C89.5682 47.5625 89.4139 47.6518 89.3085 47.7876C89.2031 47.9233 89.1549 48.0947 89.1741 48.2654Z"
            fill="white" />
        <path
            d="M77.2421 39.5528C77.2421 39.5528 77.2774 39.3415 77.8385 39.3415C78.3997 39.3415 78.5985 40.1548 78.5985 40.1548L78.3741 40.84H77.6109L77.2421 40.7119C77.2421 40.7119 75.8536 41.0705 75.7254 41.2979C75.5971 41.5252 75.4047 41.5797 75.4592 41.2979C75.5137 41.0161 77.0241 40.4142 77.0241 40.4142L77.2421 39.5528Z"
            fill="#424242" />
        <path
            d="M88.4622 39.6169C88.5014 39.5338 88.5637 39.4638 88.6415 39.415C88.7194 39.3662 88.8096 39.3407 88.9015 39.3415C88.9652 39.3325 89.0301 39.3369 89.092 39.3544C89.1539 39.3719 89.2114 39.4021 89.2609 39.4431C89.3104 39.4841 89.3508 39.535 89.3795 39.5925C89.4082 39.65 89.4245 39.7128 89.4274 39.777C89.4428 39.9452 89.4428 40.1146 89.4274 40.2829L89.7481 40.523C89.7481 40.523 90.7101 40.9713 90.7742 41.0321C90.8384 41.093 90.8929 41.3523 90.7261 41.3235C90.4676 41.208 90.2233 41.0629 89.9982 40.8913C89.7421 40.7724 89.4657 40.7029 89.1837 40.6863L88.6097 40.3341L88.4622 39.6169Z"
            fill="#424242" />
        <path d="M92.9804 56.7539L96.7611 69.0463L95.7991 69.6386L92.0056 57.7081L92.9804 56.7539Z" fill="#64B5F6" />
        <path opacity="0.6" d="M92.9804 56.7539L96.7611 69.0463L95.7991 69.6386L92.0056 57.7081L92.9804 56.7539Z"
            fill="white" />
        <path
            d="M91.4028 56.6258L92.9804 61.6785H93.2787C93.8334 61.0381 94.308 61.0765 94.308 61.0765L94.5068 60.7852L93.3107 56.6226L91.4028 56.6258Z"
            fill="#424242" />
        <path
            d="M95.3085 68.867C95.3085 69.5074 95.6709 70.0197 96.1166 70.0197C96.5623 70.0197 96.9247 69.5042 96.9247 68.867C96.9247 68.2298 96.5623 67.7142 96.1166 67.7142C95.6709 67.7142 95.3085 68.2298 95.3085 68.867Z"
            fill="#424242" />
        <path
            d="M94.5196 77.4771C98.3095 77.4771 101.382 73.7756 101.382 69.2096C101.382 64.6435 98.3095 60.942 94.5196 60.942C90.7297 60.942 87.6573 64.6435 87.6573 69.2096C87.6573 73.7756 90.7297 77.4771 94.5196 77.4771Z"
            fill="#424242" />
        <path opacity="0.4"
            d="M94.5196 77.4771C98.3095 77.4771 101.382 73.7756 101.382 69.2096C101.382 64.6435 98.3095 60.942 94.5196 60.942C90.7297 60.942 87.6573 64.6435 87.6573 69.2096C87.6573 73.7756 90.7297 77.4771 94.5196 77.4771Z"
            fill="black" />
        <path
            d="M85.0119 68.5115H86.6377C86.8584 68.5116 87.075 68.4522 87.2647 68.3394C87.4543 68.2267 87.61 68.0649 87.7151 67.8712C88.5649 66.2702 91.0404 62.1972 94.5197 61.195C98.8679 59.9398 92.1532 59.1874 89.7385 60.9196C87.3239 62.6519 85.0119 68.5115 85.0119 68.5115Z"
            fill="#212121" />
        <path opacity="0.4"
            d="M85.0119 68.5115H86.6377C86.8584 68.5116 87.075 68.4522 87.2647 68.3394C87.4543 68.2267 87.61 68.0649 87.7151 67.8712C88.5649 66.2702 91.0404 62.1972 94.5197 61.195C98.8679 59.9398 92.1532 59.1874 89.7385 60.9196C87.3239 62.6519 85.0119 68.5115 85.0119 68.5115Z"
            fill="black" />
        <path
            d="M93.3717 74.4224C95.7608 74.4224 97.6975 72.0885 97.6975 69.2096C97.6975 66.3306 95.7608 63.9967 93.3717 63.9967C90.9826 63.9967 89.0459 66.3306 89.0459 69.2096C89.0459 72.0885 90.9826 74.4224 93.3717 74.4224Z"
            fill="black" />
        <path
            d="M92.3776 66.9714C91.3803 66.9714 90.5754 67.932 90.5754 69.1423C90.5754 70.3527 91.3803 71.3133 92.3776 71.3133C93.3749 71.3133 94.1797 70.3527 94.1797 69.1423C94.1797 67.932 93.3717 66.9714 92.3776 66.9714Z"
            fill="#64B5F6" />
        <path
            d="M92.3776 66.9714C91.3803 66.9714 90.5754 67.932 90.5754 69.1423C90.5754 70.3527 91.3803 71.3133 92.3776 71.3133C93.3749 71.3133 94.1797 70.3527 94.1797 69.1423C94.1797 67.932 93.3717 66.9714 92.3776 66.9714Z"
            fill="#F44336" />
        <path
            d="M100.061 64.0351H99.2976C98.6651 64.0331 98.05 63.8276 97.5436 63.4492C96.3603 62.5623 93.8559 61.0765 91.2553 61.9379C88.241 62.9369 86.1984 66.8785 85.6148 68.1305C85.5613 68.245 85.4762 68.3417 85.3693 68.4093C85.2624 68.4768 85.1384 68.5123 85.0119 68.5115C85.0119 68.5115 85.9739 60.7852 91.2553 58.6847C96.386 56.6482 99.8684 60.926 100.619 63.2731C100.647 63.3607 100.654 63.4538 100.64 63.5448C100.625 63.6358 100.589 63.722 100.535 63.7963C100.48 63.8707 100.409 63.9311 100.326 63.9726C100.244 64.0141 100.153 64.0356 100.061 64.0351Z"
            fill="#64B5F6" />
        <path
            d="M100.061 64.0351H99.2976C98.6651 64.0331 98.05 63.8276 97.5436 63.4492C96.3603 62.5623 93.8559 61.0765 91.2553 61.9379C88.241 62.9369 86.1984 66.8785 85.6148 68.1305C85.5613 68.245 85.4762 68.3417 85.3693 68.4093C85.2624 68.4768 85.1384 68.5123 85.0119 68.5115C85.0119 68.5115 85.9739 60.7852 91.2553 58.6847C96.386 56.6482 99.8684 60.926 100.619 63.2731C100.647 63.3607 100.654 63.4538 100.64 63.5448C100.625 63.6358 100.589 63.722 100.535 63.7963C100.48 63.8707 100.409 63.9311 100.326 63.9726C100.244 64.0141 100.153 64.0356 100.061 64.0351Z"
            fill="#EF5350" />
        <path
            d="M87.7632 58.1563L88.8888 61.6785L91.4221 69.6386L92.3841 69.0431L89.931 61.0765L88.799 57.3911C88.4912 57.5992 88.1448 57.8521 87.7632 58.1563Z"
            fill="#64B5F6" />
        <path opacity="0.6"
            d="M87.7632 58.1563L88.8888 61.6785L91.4221 69.6386L92.3841 69.0431L89.931 61.0765L88.799 57.3911C88.4912 57.5992 88.1448 57.8521 87.7632 58.1563Z"
            fill="white" />
        <path
            d="M87.5516 58.31L88.6034 61.6785H88.9016C89.4531 61.0381 89.9309 61.0765 89.9309 61.0765L90.1297 60.7852L89.0972 57.1957C89.0783 57.2033 89.061 57.2142 89.0459 57.2278C88.9657 57.279 88.8823 57.3334 88.799 57.3943C88.4783 57.6024 88.1576 57.8553 87.7632 58.1467L87.5516 58.31Z"
            fill="#424242" />
        <path
            d="M90.9314 68.867C90.9314 69.5074 91.2905 70.0197 91.7395 70.0197C92.1884 70.0197 92.5475 69.5042 92.5475 68.867C92.5475 68.2298 92.1852 67.7142 91.7395 67.7142C91.2938 67.7142 90.9314 68.2298 90.9314 68.867Z"
            fill="#424242" />
        <path opacity="0.2"
            d="M48.3629 64.1664C48.3826 64.3277 48.4613 64.476 48.5838 64.583C48.7063 64.6899 48.864 64.748 49.0267 64.746H50.2164C50.3252 64.7459 50.4328 64.7687 50.5322 64.8128C50.6317 64.8569 50.7207 64.9214 50.7936 65.0022L54.3529 68.9214C54.4594 69.0395 54.5838 69.14 54.7217 69.2192C57.0856 70.5453 59.7512 71.2421 62.4626 71.2428H65.2396V65.982C65.2478 64.4471 64.9195 62.9291 64.2776 61.5344L62.3055 57.327C61.8549 56.3612 61.1369 55.5443 60.2362 54.9729C59.3356 54.4016 58.29 54.0996 57.2229 54.1026H55.3791H55.1675C53.41 54.8094 51.896 56.0108 50.8096 57.5608C50.7006 57.708 50.5979 57.8617 50.4889 58.0122C50.1642 58.5134 49.8749 59.0366 49.6231 59.578C49.4105 60.0233 49.2221 60.4797 49.0587 60.9453C48.7789 61.7191 48.5549 62.5121 48.3886 63.3179C48.3387 63.598 48.3301 63.8839 48.3629 64.1664Z"
            fill="black" />
    </g>
    <g clip-path="url(#clip1_4431_74636)">
        <circle cx="154.709" cy="79.7089" r="13.2911" fill="#1976D2" />
        <g clip-path="url(#clip2_4431_74636)">
            <path fill-rule="evenodd" clip-rule="evenodd"
                d="M157.223 82.0535C157.536 81.7398 158.083 81.7779 158.444 82.1387L161.057 84.7518C161.418 85.1126 161.456 85.6594 161.142 85.9732C160.828 86.2869 160.282 86.2488 159.921 85.888L157.308 83.2749C156.947 82.9141 156.909 82.3673 157.223 82.0535Z"
                fill="white" />
            <circle cx="153.971" cy="78.9705" r="5.27426" stroke="white" stroke-width="1.26582" />
        </g>
    </g>
    <path
        d="M12.8955 113.818C12.8955 113.585 12.859 113.38 12.7861 113.202C12.7178 113.02 12.5947 112.856 12.417 112.71C12.2438 112.564 12.0023 112.425 11.6924 112.293C11.387 112.161 10.9997 112.027 10.5303 111.89C10.0381 111.744 9.59375 111.582 9.19727 111.405C8.80078 111.222 8.46126 111.015 8.17871 110.783C7.89616 110.55 7.67969 110.284 7.5293 109.983C7.37891 109.682 7.30371 109.338 7.30371 108.951C7.30371 108.563 7.38346 108.205 7.54297 107.877C7.70247 107.549 7.93034 107.264 8.22656 107.023C8.52734 106.777 8.88509 106.585 9.2998 106.449C9.71452 106.312 10.1771 106.243 10.6875 106.243C11.4349 106.243 12.0684 106.387 12.5879 106.674C13.112 106.957 13.5107 107.328 13.7842 107.788C14.0576 108.244 14.1943 108.732 14.1943 109.251H12.8818C12.8818 108.878 12.8021 108.547 12.6426 108.26C12.4831 107.968 12.2415 107.741 11.918 107.576C11.5944 107.408 11.1842 107.324 10.6875 107.324C10.2181 107.324 9.83073 107.394 9.52539 107.535C9.22005 107.677 8.99219 107.868 8.8418 108.11C8.69596 108.351 8.62305 108.627 8.62305 108.937C8.62305 109.146 8.66634 109.338 8.75293 109.511C8.84408 109.68 8.98307 109.837 9.16992 109.983C9.36133 110.129 9.60286 110.263 9.89453 110.386C10.1908 110.509 10.5439 110.628 10.9541 110.742C11.5192 110.901 12.0068 111.079 12.417 111.275C12.8271 111.471 13.1644 111.692 13.4287 111.938C13.6976 112.179 13.8958 112.455 14.0234 112.765C14.1556 113.07 14.2217 113.417 14.2217 113.804C14.2217 114.21 14.1396 114.576 13.9756 114.905C13.8115 115.233 13.5768 115.513 13.2715 115.745C12.9661 115.978 12.5993 116.158 12.1709 116.285C11.7471 116.409 11.2731 116.47 10.749 116.47C10.2887 116.47 9.83529 116.406 9.38867 116.279C8.94661 116.151 8.54329 115.96 8.17871 115.704C7.81868 115.449 7.5293 115.135 7.31055 114.761C7.09635 114.383 6.98926 113.945 6.98926 113.449H8.30176C8.30176 113.79 8.36784 114.084 8.5 114.33C8.63216 114.572 8.81217 114.772 9.04004 114.932C9.27246 115.091 9.53451 115.21 9.82617 115.287C10.1224 115.36 10.43 115.397 10.749 115.397C11.2093 115.397 11.599 115.333 11.918 115.205C12.237 115.078 12.4785 114.896 12.6426 114.659C12.8112 114.422 12.8955 114.141 12.8955 113.818ZM17.0859 108.937V116.333H15.8145V108.937H17.0859ZM15.7188 106.975C15.7188 106.77 15.7803 106.597 15.9033 106.455C16.0309 106.314 16.2178 106.243 16.4639 106.243C16.7054 106.243 16.89 106.314 17.0176 106.455C17.1497 106.597 17.2158 106.77 17.2158 106.975C17.2158 107.171 17.1497 107.34 17.0176 107.481C16.89 107.618 16.7054 107.686 16.4639 107.686C16.2178 107.686 16.0309 107.618 15.9033 107.481C15.7803 107.34 15.7188 107.171 15.7188 106.975ZM20.4902 105.833V116.333H19.2188V105.833H20.4902ZM26.8818 115.069V111.261C26.8818 110.969 26.8226 110.716 26.7041 110.502C26.5902 110.284 26.417 110.115 26.1846 109.996C25.9521 109.878 25.665 109.819 25.3232 109.819C25.0042 109.819 24.724 109.873 24.4824 109.983C24.2454 110.092 24.0586 110.236 23.9219 110.413C23.7897 110.591 23.7236 110.783 23.7236 110.988H22.459C22.459 110.723 22.5273 110.461 22.6641 110.201C22.8008 109.942 22.9967 109.707 23.252 109.497C23.5117 109.283 23.8216 109.115 24.1816 108.992C24.5462 108.864 24.9518 108.8 25.3984 108.8C25.9362 108.8 26.4102 108.891 26.8203 109.074C27.235 109.256 27.5586 109.532 27.791 109.901C28.028 110.265 28.1465 110.723 28.1465 111.275V114.72C28.1465 114.966 28.167 115.228 28.208 115.506C28.2536 115.784 28.3197 116.023 28.4062 116.224V116.333H27.0869C27.0231 116.188 26.973 115.994 26.9365 115.752C26.9001 115.506 26.8818 115.278 26.8818 115.069ZM27.1006 111.849L27.1143 112.738H25.8359C25.4759 112.738 25.1546 112.767 24.8721 112.826C24.5895 112.881 24.3525 112.965 24.1611 113.079C23.9697 113.193 23.8239 113.337 23.7236 113.51C23.6234 113.679 23.5732 113.877 23.5732 114.105C23.5732 114.337 23.6257 114.549 23.7305 114.741C23.8353 114.932 23.9925 115.085 24.2021 115.199C24.4163 115.308 24.6784 115.363 24.9883 115.363C25.3757 115.363 25.7174 115.281 26.0137 115.117C26.3099 114.952 26.5446 114.752 26.7178 114.515C26.8955 114.278 26.9912 114.048 27.0049 113.825L27.5449 114.433C27.513 114.624 27.4264 114.836 27.2852 115.069C27.1439 115.301 26.9548 115.524 26.7178 115.739C26.4854 115.948 26.2074 116.124 25.8838 116.265C25.5648 116.402 25.2048 116.47 24.8037 116.47C24.3024 116.47 23.8626 116.372 23.4844 116.176C23.1107 115.98 22.819 115.718 22.6094 115.39C22.4043 115.057 22.3018 114.686 22.3018 114.276C22.3018 113.879 22.3792 113.531 22.5342 113.23C22.6891 112.924 22.9124 112.672 23.2041 112.471C23.4958 112.266 23.8467 112.111 24.2568 112.006C24.667 111.901 25.125 111.849 25.6309 111.849H27.1006ZM31.4072 105.833V116.333H30.1357V105.833H31.4072ZM35.9258 108.937L32.6992 112.389L30.8945 114.262L30.792 112.915L32.084 111.37L34.3809 108.937H35.9258ZM34.7705 116.333L32.1318 112.806L32.7881 111.678L36.2607 116.333H34.7705ZM41.5928 115.069V111.261C41.5928 110.969 41.5335 110.716 41.415 110.502C41.3011 110.284 41.1279 110.115 40.8955 109.996C40.6631 109.878 40.376 109.819 40.0342 109.819C39.7152 109.819 39.4349 109.873 39.1934 109.983C38.9564 110.092 38.7695 110.236 38.6328 110.413C38.5007 110.591 38.4346 110.783 38.4346 110.988H37.1699C37.1699 110.723 37.2383 110.461 37.375 110.201C37.5117 109.942 37.7077 109.707 37.9629 109.497C38.2227 109.283 38.5326 109.115 38.8926 108.992C39.2572 108.864 39.6628 108.8 40.1094 108.8C40.6471 108.8 41.1211 108.891 41.5312 109.074C41.946 109.256 42.2695 109.532 42.502 109.901C42.7389 110.265 42.8574 110.723 42.8574 111.275V114.72C42.8574 114.966 42.8779 115.228 42.9189 115.506C42.9645 115.784 43.0306 116.023 43.1172 116.224V116.333H41.7979C41.734 116.188 41.6839 115.994 41.6475 115.752C41.611 115.506 41.5928 115.278 41.5928 115.069ZM41.8115 111.849L41.8252 112.738H40.5469C40.1868 112.738 39.8656 112.767 39.583 112.826C39.3005 112.881 39.0635 112.965 38.8721 113.079C38.6807 113.193 38.5348 113.337 38.4346 113.51C38.3343 113.679 38.2842 113.877 38.2842 114.105C38.2842 114.337 38.3366 114.549 38.4414 114.741C38.5462 114.932 38.7035 115.085 38.9131 115.199C39.1273 115.308 39.3893 115.363 39.6992 115.363C40.0866 115.363 40.4284 115.281 40.7246 115.117C41.0208 114.952 41.2555 114.752 41.4287 114.515C41.6064 114.278 41.7021 114.048 41.7158 113.825L42.2559 114.433C42.224 114.624 42.1374 114.836 41.9961 115.069C41.8548 115.301 41.6657 115.524 41.4287 115.739C41.1963 115.948 40.9183 116.124 40.5947 116.265C40.2757 116.402 39.9157 116.47 39.5146 116.47C39.0133 116.47 38.5736 116.372 38.1953 116.176C37.8216 115.98 37.5299 115.718 37.3203 115.39C37.1152 115.057 37.0127 114.686 37.0127 114.276C37.0127 113.879 37.0902 113.531 37.2451 113.23C37.4001 112.924 37.6234 112.672 37.915 112.471C38.2067 112.266 38.5576 112.111 38.9678 112.006C39.3779 111.901 39.8359 111.849 40.3418 111.849H41.8115ZM46.1113 110.516V116.333H44.8467V108.937H46.043L46.1113 110.516ZM45.8105 112.355L45.2842 112.334C45.2887 111.828 45.3639 111.361 45.5098 110.933C45.6556 110.5 45.8607 110.124 46.125 109.805C46.3893 109.486 46.7038 109.24 47.0684 109.067C47.4375 108.889 47.8454 108.8 48.292 108.8C48.6566 108.8 48.9847 108.85 49.2764 108.951C49.568 109.046 49.8164 109.201 50.0215 109.415C50.2311 109.63 50.3906 109.908 50.5 110.249C50.6094 110.587 50.6641 110.999 50.6641 111.487V116.333H49.3926V111.473C49.3926 111.086 49.3356 110.776 49.2217 110.543C49.1077 110.306 48.9414 110.135 48.7227 110.031C48.5039 109.921 48.235 109.867 47.916 109.867C47.6016 109.867 47.3145 109.933 47.0547 110.065C46.7995 110.197 46.5785 110.379 46.3916 110.612C46.2093 110.844 46.0658 111.111 45.9609 111.411C45.8607 111.708 45.8105 112.022 45.8105 112.355ZM59.0176 115.431C59.3184 115.431 59.5964 115.369 59.8516 115.246C60.1068 115.123 60.3164 114.955 60.4805 114.741C60.6445 114.522 60.738 114.273 60.7607 113.995H61.9639C61.9411 114.433 61.793 114.841 61.5195 115.219C61.2507 115.593 60.8975 115.896 60.46 116.128C60.0225 116.356 59.5417 116.47 59.0176 116.47C58.4616 116.47 57.9762 116.372 57.5615 116.176C57.1514 115.98 56.8096 115.711 56.5361 115.369C56.2673 115.028 56.0645 114.636 55.9277 114.194C55.7956 113.747 55.7295 113.275 55.7295 112.779V112.492C55.7295 111.995 55.7956 111.525 55.9277 111.083C56.0645 110.637 56.2673 110.243 56.5361 109.901C56.8096 109.559 57.1514 109.29 57.5615 109.094C57.9762 108.898 58.4616 108.8 59.0176 108.8C59.5964 108.8 60.1022 108.919 60.5352 109.156C60.9681 109.388 61.3076 109.707 61.5537 110.113C61.8044 110.514 61.9411 110.969 61.9639 111.48H60.7607C60.738 111.174 60.6514 110.899 60.501 110.653C60.3551 110.407 60.1546 110.211 59.8994 110.065C59.6488 109.914 59.3548 109.839 59.0176 109.839C58.6302 109.839 58.3044 109.917 58.04 110.072C57.7803 110.222 57.5729 110.427 57.418 110.687C57.2676 110.942 57.1582 111.227 57.0898 111.541C57.026 111.851 56.9941 112.168 56.9941 112.492V112.779C56.9941 113.102 57.026 113.421 57.0898 113.736C57.1536 114.05 57.2607 114.335 57.4111 114.59C57.5661 114.845 57.7734 115.05 58.0332 115.205C58.2975 115.356 58.6257 115.431 59.0176 115.431ZM67.7471 115.069V111.261C67.7471 110.969 67.6878 110.716 67.5693 110.502C67.4554 110.284 67.2822 110.115 67.0498 109.996C66.8174 109.878 66.5303 109.819 66.1885 109.819C65.8695 109.819 65.5892 109.873 65.3477 109.983C65.1107 110.092 64.9238 110.236 64.7871 110.413C64.6549 110.591 64.5889 110.783 64.5889 110.988H63.3242C63.3242 110.723 63.3926 110.461 63.5293 110.201C63.666 109.942 63.862 109.707 64.1172 109.497C64.377 109.283 64.6868 109.115 65.0469 108.992C65.4115 108.864 65.8171 108.8 66.2637 108.8C66.8014 108.8 67.2754 108.891 67.6855 109.074C68.1003 109.256 68.4238 109.532 68.6562 109.901C68.8932 110.265 69.0117 110.723 69.0117 111.275V114.72C69.0117 114.966 69.0322 115.228 69.0732 115.506C69.1188 115.784 69.1849 116.023 69.2715 116.224V116.333H67.9521C67.8883 116.188 67.8382 115.994 67.8018 115.752C67.7653 115.506 67.7471 115.278 67.7471 115.069ZM67.9658 111.849L67.9795 112.738H66.7012C66.3411 112.738 66.0199 112.767 65.7373 112.826C65.4548 112.881 65.2178 112.965 65.0264 113.079C64.835 113.193 64.6891 113.337 64.5889 113.51C64.4886 113.679 64.4385 113.877 64.4385 114.105C64.4385 114.337 64.4909 114.549 64.5957 114.741C64.7005 114.932 64.8577 115.085 65.0674 115.199C65.2816 115.308 65.5436 115.363 65.8535 115.363C66.2409 115.363 66.5827 115.281 66.8789 115.117C67.1751 114.952 67.4098 114.752 67.583 114.515C67.7607 114.278 67.8564 114.048 67.8701 113.825L68.4102 114.433C68.3783 114.624 68.2917 114.836 68.1504 115.069C68.0091 115.301 67.82 115.524 67.583 115.739C67.3506 115.948 67.0726 116.124 66.749 116.265C66.43 116.402 66.07 116.47 65.6689 116.47C65.1676 116.47 64.7279 116.372 64.3496 116.176C63.9759 115.98 63.6842 115.718 63.4746 115.39C63.2695 115.057 63.167 114.686 63.167 114.276C63.167 113.879 63.2445 113.531 63.3994 113.23C63.5544 112.924 63.7777 112.672 64.0693 112.471C64.361 112.266 64.7119 112.111 65.1221 112.006C65.5322 111.901 65.9902 111.849 66.4961 111.849H67.9658ZM72.2656 110.099V116.333H71.001V108.937H72.2314L72.2656 110.099ZM74.5762 108.896L74.5693 110.072C74.4645 110.049 74.3643 110.035 74.2686 110.031C74.1774 110.021 74.0726 110.017 73.9541 110.017C73.6624 110.017 73.4049 110.063 73.1816 110.154C72.9583 110.245 72.7692 110.372 72.6143 110.536C72.4593 110.701 72.3363 110.896 72.2451 111.124C72.1585 111.348 72.1016 111.594 72.0742 111.863L71.7188 112.068C71.7188 111.621 71.762 111.202 71.8486 110.81C71.9398 110.418 72.0788 110.072 72.2656 109.771C72.4525 109.465 72.6895 109.229 72.9766 109.06C73.2682 108.887 73.6146 108.8 74.0156 108.8C74.1068 108.8 74.2116 108.812 74.3301 108.834C74.4486 108.853 74.5306 108.873 74.5762 108.896ZM77.1191 108.937V116.333H75.8477V108.937H77.1191ZM75.752 106.975C75.752 106.77 75.8135 106.597 75.9365 106.455C76.0641 106.314 76.251 106.243 76.4971 106.243C76.7386 106.243 76.9232 106.314 77.0508 106.455C77.1829 106.597 77.249 106.77 77.249 106.975C77.249 107.171 77.1829 107.34 77.0508 107.481C76.9232 107.618 76.7386 107.686 76.4971 107.686C76.251 107.686 76.0641 107.618 75.9365 107.481C75.8135 107.34 75.752 107.171 75.752 106.975ZM83.8936 105.833V116.333H82.6221V105.833H83.8936ZM88.4121 108.937L85.1855 112.389L83.3809 114.262L83.2783 112.915L84.5703 111.37L86.8672 108.937H88.4121ZM87.2568 116.333L84.6182 112.806L85.2744 111.678L88.7471 116.333H87.2568ZM92.6504 116.47C92.1354 116.47 91.6683 116.383 91.249 116.21C90.8343 116.033 90.4766 115.784 90.1758 115.465C89.8796 115.146 89.6517 114.768 89.4922 114.33C89.3327 113.893 89.2529 113.414 89.2529 112.895V112.608C89.2529 112.006 89.3418 111.471 89.5195 111.001C89.6973 110.527 89.9388 110.126 90.2441 109.798C90.5495 109.47 90.8958 109.222 91.2832 109.053C91.6706 108.884 92.0716 108.8 92.4863 108.8C93.015 108.8 93.4707 108.891 93.8535 109.074C94.2409 109.256 94.5576 109.511 94.8037 109.839C95.0498 110.163 95.2321 110.546 95.3506 110.988C95.4691 111.425 95.5283 111.904 95.5283 112.423V112.991H90.0049V111.958H94.2637V111.863C94.2454 111.535 94.1771 111.215 94.0586 110.906C93.9447 110.596 93.7624 110.34 93.5117 110.14C93.2611 109.939 92.9193 109.839 92.4863 109.839C92.1992 109.839 91.9349 109.901 91.6934 110.024C91.4518 110.142 91.2445 110.32 91.0713 110.557C90.8981 110.794 90.7637 111.083 90.668 111.425C90.5723 111.767 90.5244 112.161 90.5244 112.608V112.895C90.5244 113.246 90.5723 113.576 90.668 113.886C90.7682 114.191 90.9118 114.46 91.0986 114.693C91.29 114.925 91.5202 115.107 91.7891 115.24C92.0625 115.372 92.3724 115.438 92.7188 115.438C93.1654 115.438 93.5436 115.347 93.8535 115.164C94.1634 114.982 94.4346 114.738 94.667 114.433L95.4326 115.041C95.2731 115.283 95.0703 115.513 94.8242 115.732C94.5781 115.951 94.2751 116.128 93.915 116.265C93.5596 116.402 93.138 116.47 92.6504 116.47ZM98.2695 110.516V116.333H97.0049V108.937H98.2012L98.2695 110.516ZM97.9688 112.355L97.4424 112.334C97.4469 111.828 97.5221 111.361 97.668 110.933C97.8138 110.5 98.0189 110.124 98.2832 109.805C98.5475 109.486 98.862 109.24 99.2266 109.067C99.5957 108.889 100.004 108.8 100.45 108.8C100.815 108.8 101.143 108.85 101.435 108.951C101.726 109.046 101.975 109.201 102.18 109.415C102.389 109.63 102.549 109.908 102.658 110.249C102.768 110.587 102.822 110.999 102.822 111.487V116.333H101.551V111.473C101.551 111.086 101.494 110.776 101.38 110.543C101.266 110.306 101.1 110.135 100.881 110.031C100.662 109.921 100.393 109.867 100.074 109.867C99.7598 109.867 99.4727 109.933 99.2129 110.065C98.9577 110.197 98.7367 110.379 98.5498 110.612C98.3675 110.844 98.224 111.111 98.1191 111.411C98.0189 111.708 97.9688 112.022 97.9688 112.355ZM109.405 114.898V105.833H110.677V116.333H109.515L109.405 114.898ZM104.429 112.717V112.574C104.429 112.008 104.497 111.496 104.634 111.035C104.775 110.571 104.973 110.172 105.229 109.839C105.488 109.507 105.796 109.251 106.151 109.074C106.511 108.891 106.912 108.8 107.354 108.8C107.819 108.8 108.225 108.882 108.571 109.046C108.922 109.206 109.218 109.44 109.46 109.75C109.706 110.056 109.9 110.425 110.041 110.858C110.182 111.291 110.28 111.781 110.335 112.327V112.956C110.285 113.499 110.187 113.986 110.041 114.419C109.9 114.852 109.706 115.221 109.46 115.527C109.218 115.832 108.922 116.067 108.571 116.231C108.22 116.39 107.81 116.47 107.341 116.47C106.908 116.47 106.511 116.377 106.151 116.19C105.796 116.003 105.488 115.741 105.229 115.404C104.973 115.066 104.775 114.67 104.634 114.214C104.497 113.754 104.429 113.255 104.429 112.717ZM105.7 112.574V112.717C105.7 113.086 105.737 113.433 105.81 113.756C105.887 114.08 106.006 114.365 106.165 114.611C106.325 114.857 106.527 115.05 106.773 115.192C107.02 115.328 107.313 115.397 107.655 115.397C108.075 115.397 108.419 115.308 108.688 115.13C108.961 114.952 109.18 114.718 109.344 114.426C109.508 114.134 109.635 113.818 109.727 113.476V111.828C109.672 111.578 109.592 111.336 109.487 111.104C109.387 110.867 109.255 110.657 109.091 110.475C108.931 110.288 108.733 110.14 108.496 110.031C108.264 109.921 107.988 109.867 107.669 109.867C107.323 109.867 107.024 109.939 106.773 110.085C106.527 110.227 106.325 110.423 106.165 110.673C106.006 110.919 105.887 111.206 105.81 111.535C105.737 111.858 105.7 112.204 105.7 112.574ZM117.007 115.069V111.261C117.007 110.969 116.948 110.716 116.829 110.502C116.715 110.284 116.542 110.115 116.31 109.996C116.077 109.878 115.79 109.819 115.448 109.819C115.129 109.819 114.849 109.873 114.607 109.983C114.37 110.092 114.184 110.236 114.047 110.413C113.915 110.591 113.849 110.783 113.849 110.988H112.584C112.584 110.723 112.652 110.461 112.789 110.201C112.926 109.942 113.122 109.707 113.377 109.497C113.637 109.283 113.947 109.115 114.307 108.992C114.671 108.864 115.077 108.8 115.523 108.8C116.061 108.8 116.535 108.891 116.945 109.074C117.36 109.256 117.684 109.532 117.916 109.901C118.153 110.265 118.271 110.723 118.271 111.275V114.72C118.271 114.966 118.292 115.228 118.333 115.506C118.379 115.784 118.445 116.023 118.531 116.224V116.333H117.212C117.148 116.188 117.098 115.994 117.062 115.752C117.025 115.506 117.007 115.278 117.007 115.069ZM117.226 111.849L117.239 112.738H115.961C115.601 112.738 115.28 112.767 114.997 112.826C114.715 112.881 114.478 112.965 114.286 113.079C114.095 113.193 113.949 113.337 113.849 113.51C113.748 113.679 113.698 113.877 113.698 114.105C113.698 114.337 113.751 114.549 113.855 114.741C113.96 114.932 114.118 115.085 114.327 115.199C114.541 115.308 114.803 115.363 115.113 115.363C115.501 115.363 115.842 115.281 116.139 115.117C116.435 114.952 116.67 114.752 116.843 114.515C117.021 114.278 117.116 114.048 117.13 113.825L117.67 114.433C117.638 114.624 117.551 114.836 117.41 115.069C117.269 115.301 117.08 115.524 116.843 115.739C116.61 115.948 116.332 116.124 116.009 116.265C115.69 116.402 115.33 116.47 114.929 116.47C114.427 116.47 113.988 116.372 113.609 116.176C113.236 115.98 112.944 115.718 112.734 115.39C112.529 115.057 112.427 114.686 112.427 114.276C112.427 113.879 112.504 113.531 112.659 113.23C112.814 112.924 113.037 112.672 113.329 112.471C113.621 112.266 113.972 112.111 114.382 112.006C114.792 111.901 115.25 111.849 115.756 111.849H117.226ZM121.525 110.099V116.333H120.261V108.937H121.491L121.525 110.099ZM123.836 108.896L123.829 110.072C123.724 110.049 123.624 110.035 123.528 110.031C123.437 110.021 123.332 110.017 123.214 110.017C122.922 110.017 122.665 110.063 122.441 110.154C122.218 110.245 122.029 110.372 121.874 110.536C121.719 110.701 121.596 110.896 121.505 111.124C121.418 111.348 121.361 111.594 121.334 111.863L120.979 112.068C120.979 111.621 121.022 111.202 121.108 110.81C121.2 110.418 121.339 110.072 121.525 109.771C121.712 109.465 121.949 109.229 122.236 109.06C122.528 108.887 122.874 108.8 123.275 108.8C123.367 108.8 123.471 108.812 123.59 108.834C123.708 108.853 123.79 108.873 123.836 108.896ZM129.093 115.069V111.261C129.093 110.969 129.034 110.716 128.915 110.502C128.801 110.284 128.628 110.115 128.396 109.996C128.163 109.878 127.876 109.819 127.534 109.819C127.215 109.819 126.935 109.873 126.693 109.983C126.456 110.092 126.27 110.236 126.133 110.413C126.001 110.591 125.935 110.783 125.935 110.988H124.67C124.67 110.723 124.738 110.461 124.875 110.201C125.012 109.942 125.208 109.707 125.463 109.497C125.723 109.283 126.033 109.115 126.393 108.992C126.757 108.864 127.163 108.8 127.609 108.8C128.147 108.8 128.621 108.891 129.031 109.074C129.446 109.256 129.77 109.532 130.002 109.901C130.239 110.265 130.357 110.723 130.357 111.275V114.72C130.357 114.966 130.378 115.228 130.419 115.506C130.465 115.784 130.531 116.023 130.617 116.224V116.333H129.298C129.234 116.188 129.184 115.994 129.147 115.752C129.111 115.506 129.093 115.278 129.093 115.069ZM129.312 111.849L129.325 112.738H128.047C127.687 112.738 127.366 112.767 127.083 112.826C126.8 112.881 126.563 112.965 126.372 113.079C126.181 113.193 126.035 113.337 125.935 113.51C125.834 113.679 125.784 113.877 125.784 114.105C125.784 114.337 125.837 114.549 125.941 114.741C126.046 114.932 126.203 115.085 126.413 115.199C126.627 115.308 126.889 115.363 127.199 115.363C127.587 115.363 127.928 115.281 128.225 115.117C128.521 114.952 128.756 114.752 128.929 114.515C129.106 114.278 129.202 114.048 129.216 113.825L129.756 114.433C129.724 114.624 129.637 114.836 129.496 115.069C129.355 115.301 129.166 115.524 128.929 115.739C128.696 115.948 128.418 116.124 128.095 116.265C127.776 116.402 127.416 116.47 127.015 116.47C126.513 116.47 126.074 116.372 125.695 116.176C125.322 115.98 125.03 115.718 124.82 115.39C124.615 115.057 124.513 114.686 124.513 114.276C124.513 113.879 124.59 113.531 124.745 113.23C124.9 112.924 125.123 112.672 125.415 112.471C125.707 112.266 126.058 112.111 126.468 112.006C126.878 111.901 127.336 111.849 127.842 111.849H129.312ZM136.708 115.069V111.261C136.708 110.969 136.649 110.716 136.53 110.502C136.416 110.284 136.243 110.115 136.011 109.996C135.778 109.878 135.491 109.819 135.149 109.819C134.83 109.819 134.55 109.873 134.309 109.983C134.072 110.092 133.885 110.236 133.748 110.413C133.616 110.591 133.55 110.783 133.55 110.988H132.285C132.285 110.723 132.354 110.461 132.49 110.201C132.627 109.942 132.823 109.707 133.078 109.497C133.338 109.283 133.648 109.115 134.008 108.992C134.372 108.864 134.778 108.8 135.225 108.8C135.762 108.8 136.236 108.891 136.646 109.074C137.061 109.256 137.385 109.532 137.617 109.901C137.854 110.265 137.973 110.723 137.973 111.275V114.72C137.973 114.966 137.993 115.228 138.034 115.506C138.08 115.784 138.146 116.023 138.232 116.224V116.333H136.913C136.849 116.188 136.799 115.994 136.763 115.752C136.726 115.506 136.708 115.278 136.708 115.069ZM136.927 111.849L136.94 112.738H135.662C135.302 112.738 134.981 112.767 134.698 112.826C134.416 112.881 134.179 112.965 133.987 113.079C133.796 113.193 133.65 113.337 133.55 113.51C133.45 113.679 133.399 113.877 133.399 114.105C133.399 114.337 133.452 114.549 133.557 114.741C133.661 114.932 133.819 115.085 134.028 115.199C134.243 115.308 134.505 115.363 134.814 115.363C135.202 115.363 135.544 115.281 135.84 115.117C136.136 114.952 136.371 114.752 136.544 114.515C136.722 114.278 136.817 114.048 136.831 113.825L137.371 114.433C137.339 114.624 137.253 114.836 137.111 115.069C136.97 115.301 136.781 115.524 136.544 115.739C136.312 115.948 136.034 116.124 135.71 116.265C135.391 116.402 135.031 116.47 134.63 116.47C134.129 116.47 133.689 116.372 133.311 116.176C132.937 115.98 132.645 115.718 132.436 115.39C132.23 115.057 132.128 114.686 132.128 114.276C132.128 113.879 132.205 113.531 132.36 113.23C132.515 112.924 132.739 112.672 133.03 112.471C133.322 112.266 133.673 112.111 134.083 112.006C134.493 111.901 134.951 111.849 135.457 111.849H136.927ZM141.227 110.516V116.333H139.962V108.937H141.158L141.227 110.516ZM140.926 112.355L140.399 112.334C140.404 111.828 140.479 111.361 140.625 110.933C140.771 110.5 140.976 110.124 141.24 109.805C141.505 109.486 141.819 109.24 142.184 109.067C142.553 108.889 142.961 108.8 143.407 108.8C143.772 108.8 144.1 108.85 144.392 108.951C144.683 109.046 144.932 109.201 145.137 109.415C145.346 109.63 145.506 109.908 145.615 110.249C145.725 110.587 145.779 110.999 145.779 111.487V116.333H144.508V111.473C144.508 111.086 144.451 110.776 144.337 110.543C144.223 110.306 144.057 110.135 143.838 110.031C143.619 109.921 143.35 109.867 143.031 109.867C142.717 109.867 142.43 109.933 142.17 110.065C141.915 110.197 141.694 110.379 141.507 110.612C141.325 110.844 141.181 111.111 141.076 111.411C140.976 111.708 140.926 112.022 140.926 112.355ZM153.251 115.568L155.309 108.937H156.662L153.695 117.475C153.627 117.657 153.536 117.853 153.422 118.063C153.312 118.277 153.171 118.48 152.998 118.671C152.825 118.863 152.615 119.018 152.369 119.136C152.128 119.259 151.838 119.321 151.501 119.321C151.401 119.321 151.273 119.307 151.118 119.28C150.963 119.252 150.854 119.229 150.79 119.211L150.783 118.186C150.82 118.19 150.877 118.195 150.954 118.2C151.036 118.209 151.093 118.213 151.125 118.213C151.412 118.213 151.656 118.174 151.856 118.097C152.057 118.024 152.226 117.899 152.362 117.721C152.504 117.548 152.624 117.309 152.725 117.003L153.251 115.568ZM151.74 108.937L153.661 114.679L153.989 116.012L153.08 116.477L150.359 108.937H151.74ZM162.056 115.069V111.261C162.056 110.969 161.996 110.716 161.878 110.502C161.764 110.284 161.591 110.115 161.358 109.996C161.126 109.878 160.839 109.819 160.497 109.819C160.178 109.819 159.898 109.873 159.656 109.983C159.419 110.092 159.232 110.236 159.096 110.413C158.964 110.591 158.897 110.783 158.897 110.988H157.633C157.633 110.723 157.701 110.461 157.838 110.201C157.975 109.942 158.171 109.707 158.426 109.497C158.686 109.283 158.995 109.115 159.355 108.992C159.72 108.864 160.126 108.8 160.572 108.8C161.11 108.8 161.584 108.891 161.994 109.074C162.409 109.256 162.732 109.532 162.965 109.901C163.202 110.265 163.32 110.723 163.32 111.275V114.72C163.32 114.966 163.341 115.228 163.382 115.506C163.427 115.784 163.493 116.023 163.58 116.224V116.333H162.261C162.197 116.188 162.147 115.994 162.11 115.752C162.074 115.506 162.056 115.278 162.056 115.069ZM162.274 111.849L162.288 112.738H161.01C160.65 112.738 160.328 112.767 160.046 112.826C159.763 112.881 159.526 112.965 159.335 113.079C159.144 113.193 158.998 113.337 158.897 113.51C158.797 113.679 158.747 113.877 158.747 114.105C158.747 114.337 158.799 114.549 158.904 114.741C159.009 114.932 159.166 115.085 159.376 115.199C159.59 115.308 159.852 115.363 160.162 115.363C160.549 115.363 160.891 115.281 161.188 115.117C161.484 114.952 161.718 114.752 161.892 114.515C162.069 114.278 162.165 114.048 162.179 113.825L162.719 114.433C162.687 114.624 162.6 114.836 162.459 115.069C162.318 115.301 162.129 115.524 161.892 115.739C161.659 115.948 161.381 116.124 161.058 116.265C160.739 116.402 160.379 116.47 159.978 116.47C159.476 116.47 159.036 116.372 158.658 116.176C158.285 115.98 157.993 115.718 157.783 115.39C157.578 115.057 157.476 114.686 157.476 114.276C157.476 113.879 157.553 113.531 157.708 113.23C157.863 112.924 158.086 112.672 158.378 112.471C158.67 112.266 159.021 112.111 159.431 112.006C159.841 111.901 160.299 111.849 160.805 111.849H162.274ZM166.574 110.516V116.333H165.31V108.937H166.506L166.574 110.516ZM166.273 112.355L165.747 112.334C165.752 111.828 165.827 111.361 165.973 110.933C166.118 110.5 166.324 110.124 166.588 109.805C166.852 109.486 167.167 109.24 167.531 109.067C167.9 108.889 168.308 108.8 168.755 108.8C169.119 108.8 169.448 108.85 169.739 108.951C170.031 109.046 170.279 109.201 170.484 109.415C170.694 109.63 170.854 109.908 170.963 110.249C171.072 110.587 171.127 110.999 171.127 111.487V116.333H169.855V111.473C169.855 111.086 169.799 110.776 169.685 110.543C169.571 110.306 169.404 110.135 169.186 110.031C168.967 109.921 168.698 109.867 168.379 109.867C168.064 109.867 167.777 109.933 167.518 110.065C167.262 110.197 167.041 110.379 166.854 110.612C166.672 110.844 166.529 111.111 166.424 111.411C166.324 111.708 166.273 112.022 166.273 112.355ZM177.84 108.937H178.988V116.176C178.988 116.828 178.856 117.384 178.592 117.844C178.327 118.304 177.958 118.653 177.484 118.89C177.015 119.132 176.473 119.252 175.857 119.252C175.602 119.252 175.301 119.211 174.955 119.129C174.613 119.052 174.276 118.917 173.943 118.726C173.615 118.539 173.34 118.286 173.116 117.967L173.779 117.215C174.089 117.589 174.413 117.849 174.75 117.994C175.092 118.14 175.429 118.213 175.762 118.213C176.163 118.213 176.509 118.138 176.801 117.988C177.092 117.837 177.318 117.614 177.478 117.318C177.642 117.026 177.724 116.666 177.724 116.238V110.564L177.84 108.937ZM172.747 112.717V112.574C172.747 112.008 172.813 111.496 172.945 111.035C173.082 110.571 173.276 110.172 173.526 109.839C173.782 109.507 174.089 109.251 174.449 109.074C174.809 108.891 175.215 108.8 175.666 108.8C176.131 108.8 176.536 108.882 176.883 109.046C177.234 109.206 177.53 109.44 177.771 109.75C178.018 110.056 178.211 110.425 178.353 110.858C178.494 111.291 178.592 111.781 178.646 112.327V112.956C178.596 113.499 178.498 113.986 178.353 114.419C178.211 114.852 178.018 115.221 177.771 115.527C177.53 115.832 177.234 116.067 176.883 116.231C176.532 116.39 176.122 116.47 175.652 116.47C175.21 116.47 174.809 116.377 174.449 116.19C174.094 116.003 173.788 115.741 173.533 115.404C173.278 115.066 173.082 114.67 172.945 114.214C172.813 113.754 172.747 113.255 172.747 112.717ZM174.012 112.574V112.717C174.012 113.086 174.048 113.433 174.121 113.756C174.199 114.08 174.315 114.365 174.47 114.611C174.629 114.857 174.832 115.05 175.078 115.192C175.324 115.328 175.618 115.397 175.96 115.397C176.379 115.397 176.726 115.308 176.999 115.13C177.272 114.952 177.489 114.718 177.648 114.426C177.812 114.134 177.94 113.818 178.031 113.476V111.828C177.981 111.578 177.904 111.336 177.799 111.104C177.699 110.867 177.566 110.657 177.402 110.475C177.243 110.288 177.045 110.14 176.808 110.031C176.571 109.921 176.293 109.867 175.974 109.867C175.627 109.867 175.329 109.939 175.078 110.085C174.832 110.227 174.629 110.423 174.47 110.673C174.315 110.919 174.199 111.206 174.121 111.535C174.048 111.858 174.012 112.204 174.012 112.574ZM185.756 108.937V116.333H184.484V108.937H185.756ZM184.389 106.975C184.389 106.77 184.45 106.597 184.573 106.455C184.701 106.314 184.888 106.243 185.134 106.243C185.375 106.243 185.56 106.314 185.688 106.455C185.82 106.597 185.886 106.77 185.886 106.975C185.886 107.171 185.82 107.34 185.688 107.481C185.56 107.618 185.375 107.686 185.134 107.686C184.888 107.686 184.701 107.618 184.573 107.481C184.45 107.34 184.389 107.171 184.389 106.975ZM189.051 110.516V116.333H187.786V108.937H188.982L189.051 110.516ZM188.75 112.355L188.224 112.334C188.228 111.828 188.303 111.361 188.449 110.933C188.595 110.5 188.8 110.124 189.064 109.805C189.329 109.486 189.643 109.24 190.008 109.067C190.377 108.889 190.785 108.8 191.231 108.8C191.596 108.8 191.924 108.85 192.216 108.951C192.507 109.046 192.756 109.201 192.961 109.415C193.171 109.63 193.33 109.908 193.439 110.249C193.549 110.587 193.604 110.999 193.604 111.487V116.333H192.332V111.473C192.332 111.086 192.275 110.776 192.161 110.543C192.047 110.306 191.881 110.135 191.662 110.031C191.443 109.921 191.174 109.867 190.855 109.867C190.541 109.867 190.254 109.933 189.994 110.065C189.739 110.197 189.518 110.379 189.331 110.612C189.149 110.844 189.005 111.111 188.9 111.411C188.8 111.708 188.75 112.022 188.75 112.355ZM200.316 108.937H201.465V116.176C201.465 116.828 201.333 117.384 201.068 117.844C200.804 118.304 200.435 118.653 199.961 118.89C199.492 119.132 198.949 119.252 198.334 119.252C198.079 119.252 197.778 119.211 197.432 119.129C197.09 119.052 196.753 118.917 196.42 118.726C196.092 118.539 195.816 118.286 195.593 117.967L196.256 117.215C196.566 117.589 196.889 117.849 197.227 117.994C197.568 118.14 197.906 118.213 198.238 118.213C198.639 118.213 198.986 118.138 199.277 117.988C199.569 117.837 199.795 117.614 199.954 117.318C200.118 117.026 200.2 116.666 200.2 116.238V110.564L200.316 108.937ZM195.224 112.717V112.574C195.224 112.008 195.29 111.496 195.422 111.035C195.559 110.571 195.752 110.172 196.003 109.839C196.258 109.507 196.566 109.251 196.926 109.074C197.286 108.891 197.691 108.8 198.143 108.8C198.607 108.8 199.013 108.882 199.359 109.046C199.71 109.206 200.007 109.44 200.248 109.75C200.494 110.056 200.688 110.425 200.829 110.858C200.97 111.291 201.068 111.781 201.123 112.327V112.956C201.073 113.499 200.975 113.986 200.829 114.419C200.688 114.852 200.494 115.221 200.248 115.527C200.007 115.832 199.71 116.067 199.359 116.231C199.008 116.39 198.598 116.47 198.129 116.47C197.687 116.47 197.286 116.377 196.926 116.19C196.57 116.003 196.265 115.741 196.01 115.404C195.755 115.066 195.559 114.67 195.422 114.214C195.29 113.754 195.224 113.255 195.224 112.717ZM196.488 112.574V112.717C196.488 113.086 196.525 113.433 196.598 113.756C196.675 114.08 196.791 114.365 196.946 114.611C197.106 114.857 197.309 115.05 197.555 115.192C197.801 115.328 198.095 115.397 198.437 115.397C198.856 115.397 199.202 115.308 199.476 115.13C199.749 114.952 199.965 114.718 200.125 114.426C200.289 114.134 200.417 113.818 200.508 113.476V111.828C200.458 111.578 200.38 111.336 200.275 111.104C200.175 110.867 200.043 110.657 199.879 110.475C199.719 110.288 199.521 110.14 199.284 110.031C199.047 109.921 198.769 109.867 198.45 109.867C198.104 109.867 197.805 109.939 197.555 110.085C197.309 110.227 197.106 110.423 196.946 110.673C196.791 110.919 196.675 111.206 196.598 111.535C196.525 111.858 196.488 112.204 196.488 112.574ZM204.76 108.937V116.333H203.488V108.937H204.76ZM203.393 106.975C203.393 106.77 203.454 106.597 203.577 106.455C203.705 106.314 203.892 106.243 204.138 106.243C204.379 106.243 204.564 106.314 204.691 106.455C204.824 106.597 204.89 106.77 204.89 106.975C204.89 107.171 204.824 107.34 204.691 107.481C204.564 107.618 204.379 107.686 204.138 107.686C203.892 107.686 203.705 107.618 203.577 107.481C203.454 107.34 203.393 107.171 203.393 106.975ZM208.055 110.516V116.333H206.79V108.937H207.986L208.055 110.516ZM207.754 112.355L207.228 112.334C207.232 111.828 207.307 111.361 207.453 110.933C207.599 110.5 207.804 110.124 208.068 109.805C208.333 109.486 208.647 109.24 209.012 109.067C209.381 108.889 209.789 108.8 210.235 108.8C210.6 108.8 210.928 108.85 211.22 108.951C211.511 109.046 211.76 109.201 211.965 109.415C212.174 109.63 212.334 109.908 212.443 110.249C212.553 110.587 212.607 110.999 212.607 111.487V116.333H211.336V111.473C211.336 111.086 211.279 110.776 211.165 110.543C211.051 110.306 210.885 110.135 210.666 110.031C210.447 109.921 210.178 109.867 209.859 109.867C209.545 109.867 209.258 109.933 208.998 110.065C208.743 110.197 208.522 110.379 208.335 110.612C208.153 110.844 208.009 111.111 207.904 111.411C207.804 111.708 207.754 112.022 207.754 112.355ZM96.5811 135.898V126.833H97.8525V137.333H96.6904L96.5811 135.898ZM91.6045 133.717V133.574C91.6045 133.008 91.6729 132.496 91.8096 132.035C91.9508 131.571 92.1491 131.172 92.4043 130.839C92.6641 130.507 92.9717 130.251 93.3271 130.074C93.6872 129.891 94.0882 129.8 94.5303 129.8C94.9951 129.8 95.4007 129.882 95.7471 130.046C96.098 130.206 96.3942 130.44 96.6357 130.75C96.8818 131.056 97.0755 131.425 97.2168 131.858C97.3581 132.291 97.4561 132.781 97.5107 133.327V133.956C97.4606 134.499 97.3626 134.986 97.2168 135.419C97.0755 135.852 96.8818 136.221 96.6357 136.527C96.3942 136.832 96.098 137.067 95.7471 137.231C95.3962 137.39 94.986 137.47 94.5166 137.47C94.0837 137.47 93.6872 137.377 93.3271 137.19C92.9717 137.003 92.6641 136.741 92.4043 136.404C92.1491 136.066 91.9508 135.67 91.8096 135.214C91.6729 134.754 91.6045 134.255 91.6045 133.717ZM92.876 133.574V133.717C92.876 134.086 92.9124 134.433 92.9854 134.756C93.0628 135.08 93.1813 135.365 93.3408 135.611C93.5003 135.857 93.7031 136.05 93.9492 136.192C94.1953 136.328 94.4893 136.397 94.8311 136.397C95.2503 136.397 95.5944 136.308 95.8633 136.13C96.1367 135.952 96.3555 135.718 96.5195 135.426C96.6836 135.134 96.8112 134.818 96.9023 134.476V132.828C96.8477 132.578 96.7679 132.336 96.6631 132.104C96.5628 131.867 96.4307 131.657 96.2666 131.475C96.1071 131.288 95.9089 131.14 95.6719 131.031C95.4395 130.921 95.1637 130.867 94.8447 130.867C94.4984 130.867 94.1999 130.939 93.9492 131.085C93.7031 131.227 93.5003 131.423 93.3408 131.673C93.1813 131.919 93.0628 132.206 92.9854 132.535C92.9124 132.858 92.876 133.204 92.876 133.574ZM101.195 129.937V137.333H99.9238V129.937H101.195ZM99.8281 127.975C99.8281 127.77 99.8896 127.597 100.013 127.455C100.14 127.314 100.327 127.243 100.573 127.243C100.815 127.243 100.999 127.314 101.127 127.455C101.259 127.597 101.325 127.77 101.325 127.975C101.325 128.171 101.259 128.34 101.127 128.481C100.999 128.618 100.815 128.686 100.573 128.686C100.327 128.686 100.14 128.618 100.013 128.481C99.8896 128.34 99.8281 128.171 99.8281 127.975ZM106.186 136.431C106.486 136.431 106.764 136.369 107.02 136.246C107.275 136.123 107.484 135.955 107.648 135.741C107.812 135.522 107.906 135.273 107.929 134.995H109.132C109.109 135.433 108.961 135.841 108.688 136.219C108.419 136.593 108.065 136.896 107.628 137.128C107.19 137.356 106.71 137.47 106.186 137.47C105.63 137.47 105.144 137.372 104.729 137.176C104.319 136.98 103.978 136.711 103.704 136.369C103.435 136.028 103.232 135.636 103.096 135.194C102.964 134.747 102.897 134.275 102.897 133.779V133.492C102.897 132.995 102.964 132.525 103.096 132.083C103.232 131.637 103.435 131.243 103.704 130.901C103.978 130.559 104.319 130.29 104.729 130.094C105.144 129.898 105.63 129.8 106.186 129.8C106.764 129.8 107.27 129.919 107.703 130.156C108.136 130.388 108.476 130.707 108.722 131.113C108.972 131.514 109.109 131.969 109.132 132.48H107.929C107.906 132.174 107.819 131.899 107.669 131.653C107.523 131.407 107.323 131.211 107.067 131.065C106.817 130.914 106.523 130.839 106.186 130.839C105.798 130.839 105.472 130.917 105.208 131.072C104.948 131.222 104.741 131.427 104.586 131.687C104.436 131.942 104.326 132.227 104.258 132.541C104.194 132.851 104.162 133.168 104.162 133.492V133.779C104.162 134.102 104.194 134.421 104.258 134.736C104.322 135.05 104.429 135.335 104.579 135.59C104.734 135.845 104.941 136.05 105.201 136.205C105.465 136.356 105.794 136.431 106.186 136.431ZM114.915 136.069V132.261C114.915 131.969 114.856 131.716 114.737 131.502C114.623 131.284 114.45 131.115 114.218 130.996C113.985 130.878 113.698 130.819 113.356 130.819C113.037 130.819 112.757 130.873 112.516 130.983C112.279 131.092 112.092 131.236 111.955 131.413C111.823 131.591 111.757 131.783 111.757 131.988H110.492C110.492 131.723 110.561 131.461 110.697 131.201C110.834 130.942 111.03 130.707 111.285 130.497C111.545 130.283 111.855 130.115 112.215 129.992C112.579 129.864 112.985 129.8 113.432 129.8C113.969 129.8 114.443 129.891 114.854 130.074C115.268 130.256 115.592 130.532 115.824 130.901C116.061 131.265 116.18 131.723 116.18 132.275V135.72C116.18 135.966 116.2 136.228 116.241 136.506C116.287 136.784 116.353 137.023 116.439 137.224V137.333H115.12C115.056 137.188 115.006 136.994 114.97 136.752C114.933 136.506 114.915 136.278 114.915 136.069ZM115.134 132.849L115.147 133.738H113.869C113.509 133.738 113.188 133.767 112.905 133.826C112.623 133.881 112.386 133.965 112.194 134.079C112.003 134.193 111.857 134.337 111.757 134.51C111.657 134.679 111.606 134.877 111.606 135.105C111.606 135.337 111.659 135.549 111.764 135.741C111.868 135.932 112.026 136.085 112.235 136.199C112.45 136.308 112.712 136.363 113.021 136.363C113.409 136.363 113.751 136.281 114.047 136.117C114.343 135.952 114.578 135.752 114.751 135.515C114.929 135.278 115.024 135.048 115.038 134.825L115.578 135.433C115.546 135.624 115.46 135.836 115.318 136.069C115.177 136.301 114.988 136.524 114.751 136.739C114.519 136.948 114.241 137.124 113.917 137.265C113.598 137.402 113.238 137.47 112.837 137.47C112.336 137.47 111.896 137.372 111.518 137.176C111.144 136.98 110.852 136.718 110.643 136.39C110.438 136.057 110.335 135.686 110.335 135.276C110.335 134.879 110.412 134.531 110.567 134.23C110.722 133.924 110.946 133.672 111.237 133.471C111.529 133.266 111.88 133.111 112.29 133.006C112.7 132.901 113.158 132.849 113.664 132.849H115.134ZM119.434 131.099V137.333H118.169V129.937H119.399L119.434 131.099ZM121.744 129.896L121.737 131.072C121.632 131.049 121.532 131.035 121.437 131.031C121.345 131.021 121.241 131.017 121.122 131.017C120.83 131.017 120.573 131.063 120.35 131.154C120.126 131.245 119.937 131.372 119.782 131.536C119.627 131.701 119.504 131.896 119.413 132.124C119.326 132.348 119.27 132.594 119.242 132.863L118.887 133.068C118.887 132.621 118.93 132.202 119.017 131.81C119.108 131.418 119.247 131.072 119.434 130.771C119.62 130.465 119.857 130.229 120.145 130.06C120.436 129.887 120.783 129.8 121.184 129.8C121.275 129.8 121.38 129.812 121.498 129.834C121.617 129.853 121.699 129.873 121.744 129.896ZM124.287 129.937V137.333H123.016V129.937H124.287ZM122.92 127.975C122.92 127.77 122.981 127.597 123.104 127.455C123.232 127.314 123.419 127.243 123.665 127.243C123.907 127.243 124.091 127.314 124.219 127.455C124.351 127.597 124.417 127.77 124.417 127.975C124.417 128.171 124.351 128.34 124.219 128.481C124.091 128.618 123.907 128.686 123.665 128.686C123.419 128.686 123.232 128.618 123.104 128.481C122.981 128.34 122.92 128.171 122.92 127.975ZM126.338 136.663C126.338 136.449 126.404 136.269 126.536 136.123C126.673 135.973 126.869 135.898 127.124 135.898C127.379 135.898 127.573 135.973 127.705 136.123C127.842 136.269 127.91 136.449 127.91 136.663C127.91 136.873 127.842 137.051 127.705 137.197C127.573 137.342 127.379 137.415 127.124 137.415C126.869 137.415 126.673 137.342 126.536 137.197C126.404 137.051 126.338 136.873 126.338 136.663Z"
        fill="#424242" />

</svg>