<svg width="220" height="129" viewBox="0 0 220 129" fill="none" xmlns="http://www.w3.org/2000/svg">
<g clip-path="url(#clip0_6549_277431)">
<circle cx="110" cy="50" r="50" fill="#F4F4F4"/>
<g clip-path="url(#clip1_6549_277431)">
<mask id="mask0_6549_277431" style="mask-type:alpha" maskUnits="userSpaceOnUse" x="60" y="0" width="100" height="100">
<circle cx="110" cy="50" r="50" fill="#F4F4F4"/>
</mask>
<g mask="url(#mask0_6549_277431)">
<path d="M78.9874 33.5443C78.9874 27.9515 83.5212 23.4177 89.1139 23.4177H130.886C136.479 23.4177 141.013 27.9516 141.013 33.5443V100H78.9874V33.5443Z" fill="#001B3D"/>
<path d="M82.7848 33.5443C82.7848 30.0488 85.6185 27.2152 89.1139 27.2152H130.886C134.382 27.2152 137.215 30.0488 137.215 33.5443V100H82.7848V33.5443Z" fill="white"/>
<path d="M100.506 27.2152H119.494C119.494 28.6134 118.36 29.7468 116.962 29.7468H103.038C101.64 29.7468 100.506 28.6134 100.506 27.2152Z" fill="#001B3D"/>
</g>
<g clip-path="url(#clip2_6549_277431)">
<g clip-path="url(#clip3_6549_277431)">
<rect x="95.2113" y="49.2958" width="29.5775" height="29.5775" rx="14.7887" fill="#F5F5F5"/>
<g clip-path="url(#clip4_6549_277431)">
<rect x="95.2113" y="49.2958" width="29.5775" height="29.5775" rx="14.7887" fill="#FAFAFA"/>
<rect x="95.2113" y="73.9437" width="30.5634" height="5.91549" fill="#D9D9D9"/>
<path d="M115.395 63.4029L115.369 63.3444C115.199 62.9601 114.818 62.7122 114.397 62.7122H113.403C113.091 62.7122 112.791 62.8328 112.566 63.0486C112.327 63.2769 112.193 63.5926 112.193 63.9225V64.7164H114.541C114.879 64.7164 115.191 64.5332 115.356 64.2377C115.5 63.981 115.514 63.6717 115.395 63.4029Z" fill="#FF9500"/>
<path d="M80.3556 71.7402H120.564C121.197 71.7402 121.71 71.2268 121.71 70.5934V68.4045C121.71 66.0295 119.785 64.1042 117.41 64.1042H113.354L108.096 58.7045C107.422 58.0117 106.496 57.6208 105.529 57.6208H84.3976C83.3014 57.6208 82.2481 58.0473 81.4606 58.8099C80.9449 59.3093 80.5295 59.9027 80.2368 60.5581L78.9906 63.3484C78.662 64.0842 78.4922 64.8809 78.4922 65.6866V69.8767C78.4922 70.9059 79.3265 71.7402 80.3556 71.7402Z" fill="#FFB900"/>
<path d="M102.429 57.0116H86.8321C86.3663 57.0116 85.9279 57.2403 85.6593 57.6208H103.613L103.504 57.4967C103.231 57.1883 102.84 57.0116 102.429 57.0116Z" fill="#FF9500"/>
<path fill-rule="evenodd" clip-rule="evenodd" d="M110.448 71.7402C110.462 71.7781 110.477 71.8158 110.493 71.8533C110.705 72.3664 111.017 72.8325 111.41 73.2252C111.802 73.6178 112.268 73.9293 112.782 74.1418C113.295 74.3543 113.844 74.4637 114.4 74.4637C114.955 74.4637 115.505 74.3543 116.018 74.1418C116.531 73.9293 116.997 73.6178 117.39 73.2252C117.783 72.8325 118.094 72.3664 118.306 71.8533C118.322 71.8158 118.337 71.7781 118.351 71.7402H110.448Z" fill="#424242"/>
<path d="M117.195 70.916C117.195 71.8569 116.821 72.7593 116.156 73.4246C115.49 74.0899 114.588 74.4637 113.647 74.4637C112.706 74.4637 111.804 74.0899 111.139 73.4246C110.473 72.7593 110.099 71.8569 110.099 70.916L113.647 70.916H117.195Z" fill="#212121"/>
<path fill-rule="evenodd" clip-rule="evenodd" d="M91.025 71.7402C91.0394 71.7781 91.0544 71.8158 91.0699 71.8533C91.2824 72.3664 91.5939 72.8325 91.9866 73.2252C92.3792 73.6178 92.8454 73.9293 93.3584 74.1418C93.8715 74.3543 94.4214 74.4637 94.9767 74.4637C95.532 74.4637 96.0819 74.3543 96.5949 74.1418C97.1079 73.9293 97.5741 73.6178 97.9668 73.2252C98.3594 72.8325 98.6709 72.3664 98.8834 71.8533C98.899 71.8158 98.914 71.7781 98.9284 71.7402H91.025Z" fill="#424242"/>
<path d="M97.7719 70.916C97.7719 71.8569 97.3981 72.7593 96.7328 73.4246C96.0674 74.0899 95.165 74.4637 94.2241 74.4637C93.2832 74.4637 92.3808 74.0899 91.7155 73.4246C91.0501 72.7593 90.6764 71.8569 90.6764 70.916L94.2241 70.916H97.7719Z" fill="#212121"/>
<path d="M78.4922 69.8767V69.7334L100.352 70.5934H121.71C121.71 71.2268 121.197 71.7402 120.564 71.7402H80.3556C79.3265 71.7402 78.4922 70.9059 78.4922 69.8767Z" fill="#FF9500"/>
<path d="M121.71 70.5934H110.816V70.1966C110.816 69.7564 111.094 69.3642 111.51 69.2184C111.62 69.1797 111.736 69.16 111.853 69.16H121.146C121.279 69.16 121.408 69.207 121.509 69.2926C121.637 69.3999 121.71 69.5578 121.71 69.7243V70.5934Z" fill="white"/>
<path d="M112.68 70.5934V69.16H120.42V70.5934H112.68Z" fill="#FF7500"/>
<path d="M110.187 66.9988L110.2 66.9813C110.317 66.8192 110.505 66.7232 110.705 66.7232H121.352C121.352 66.7232 121.484 66.9218 121.567 67.2965C121.65 67.6713 121.674 67.9416 121.674 67.9416H110.669C110.49 67.9416 110.321 67.8609 110.208 67.7219C110.038 67.5132 110.03 67.2167 110.187 66.9988Z" fill="white"/>
<path d="M112.644 67.9415L113.289 66.7231H114.651L114.006 67.9415H112.644Z" fill="#FFE483"/>
<path d="M120.42 67.9415H119.094L118.449 66.7231H119.811L120.42 67.9415Z" fill="#FFE483"/>
<path d="M114.006 67.9415L114.651 66.7231H118.449L119.094 67.9415H114.006Z" fill="#FF7500"/>
<path d="M108.881 70.9876C108.881 70.4276 108.771 69.8731 108.556 69.3557C108.342 68.8383 108.028 68.3682 107.632 67.9722C107.236 67.5762 106.766 67.2621 106.248 67.0478C105.731 66.8335 105.177 66.7232 104.617 66.7232C104.057 66.7232 103.502 66.8335 102.985 67.0478C102.467 67.2621 101.997 67.5762 101.601 67.9722C101.205 68.3682 100.891 68.8383 100.677 69.3557C100.462 69.8731 100.352 70.4276 100.352 70.9876L104.617 70.9876H108.881Z" fill="#FF9500"/>
<path fill-rule="evenodd" clip-rule="evenodd" d="M101.346 71.7402C101.36 71.7781 101.375 71.8158 101.391 71.8533C101.603 72.3663 101.915 72.8325 102.307 73.2252C102.7 73.6178 103.166 73.9293 103.679 74.1418C104.192 74.3543 104.742 74.4637 105.297 74.4637C105.853 74.4637 106.403 74.3543 106.916 74.1418C107.429 73.9293 107.895 73.6178 108.288 73.2252C108.68 72.8325 108.992 72.3663 109.204 71.8533C109.22 71.8158 109.235 71.7781 109.249 71.7402H101.346Z" fill="#424242"/>
<path d="M108.236 70.8801C108.236 72.8593 106.632 74.4637 104.652 74.4637C102.673 74.4637 101.069 72.8593 101.069 70.8801C101.069 68.901 102.673 67.2965 104.652 67.2965C106.632 67.2965 108.236 68.901 108.236 70.8801Z" fill="#212121"/>
<path d="M107.018 70.8801C107.018 72.1864 105.959 73.2453 104.652 73.2453C103.346 73.2453 102.287 72.1864 102.287 70.8801C102.287 69.5739 103.346 68.5149 104.652 68.5149C105.959 68.5149 107.018 69.5739 107.018 70.8801Z" fill="#CEC3C0"/>
<path d="M106.301 70.8801C106.301 71.7905 105.563 72.5286 104.652 72.5286C103.742 72.5286 103.004 71.7905 103.004 70.8801C103.004 69.9697 103.742 69.2317 104.652 69.2317C105.563 69.2317 106.301 69.9697 106.301 70.8801Z" fill="white"/>
<path d="M90.8663 62.8511L91.3931 58.9468H95.8773C96.3832 58.9468 96.8725 59.1269 97.2576 59.455C97.5018 59.663 97.6958 59.9234 97.8251 60.2169L99.492 63.9996L91.3992 63.5001C91.0669 63.4796 90.8218 63.1811 90.8663 62.8511Z" fill="#FFF9E1"/>
<path d="M99.7379 58.9109H107.41C107.526 58.9109 107.637 58.9575 107.717 59.0401L112.441 63.8635C112.53 63.9542 112.466 64.1071 112.339 64.1071H102.079C101.83 64.1071 101.599 63.9776 101.468 63.7652L99.1427 59.9743C99.0895 59.8876 99.0559 59.7903 99.0443 59.6892C98.9964 59.2746 99.3206 58.9109 99.7379 58.9109Z" fill="#FFF9E1"/>
<path d="M96.8543 63.3601L96.8806 63.3015C97.0518 62.9195 97.4314 62.6737 97.85 62.6737H98.8737C99.1852 62.6737 99.4848 62.7931 99.7109 63.0073C99.9536 63.2372 100.091 63.5568 100.091 63.891V64.6778H97.7076C97.3705 64.6778 97.0594 64.4963 96.8935 64.2028C96.7473 63.9441 96.7327 63.6313 96.8543 63.3601Z" fill="#FF9500"/>
<path d="M104.883 72.0581C104.883 72.3609 104.832 72.6608 104.732 72.9405C104.633 73.2203 104.487 73.4745 104.303 73.6886C104.119 73.9027 103.901 74.0725 103.661 74.1884C103.421 74.3043 103.164 74.3639 102.904 74.3639C102.644 74.3639 102.258 74.3639 101.979 74.3639C101.699 74.3639 101.656 73.9156 101.504 73.6886C101.32 73.4745 101.175 73.2203 101.075 72.9405C100.976 72.6608 100.925 72.3609 100.925 72.0581L102.904 72.0581H104.883Z" fill="#424242"/>
<path d="M103.807 72.0581C103.807 72.3609 103.756 72.6608 103.658 72.9405C103.559 73.2203 103.415 73.4745 103.233 73.6886C103.051 73.9027 102.835 74.0725 102.597 74.1884C102.359 74.3043 102.104 74.3639 101.847 74.3639C101.589 74.3639 101.335 74.3043 101.097 74.1884C100.859 74.0725 100.643 73.9027 100.461 73.6886C100.279 73.4745 100.135 73.2203 100.036 72.9405C99.9376 72.6608 99.8869 72.3609 99.8869 72.0581L101.847 72.0581H103.807Z" fill="#212121"/>
<path d="M103.038 72.0581C103.038 72.2297 103.009 72.3996 102.952 72.5582C102.895 72.7167 102.811 72.8607 102.706 72.982C102.601 73.1034 102.476 73.1996 102.338 73.2653C102.201 73.331 102.053 73.3647 101.904 73.3647C101.756 73.3647 101.608 73.331 101.471 73.2653C101.333 73.1996 101.208 73.1034 101.103 72.982C100.998 72.8607 100.914 72.7167 100.857 72.5582C100.8 72.3996 100.771 72.2297 100.771 72.0581L101.904 72.0581H103.038Z" fill="#757575"/>
<path d="M92.5853 69.0665V72.0581H98.8493V67.4081H94.2241L93.2305 67.965C92.832 68.1884 92.5853 68.6097 92.5853 69.0665Z" fill="#008444"/>
<path d="M97.4659 69.2857C97.4659 68.5883 98.0312 68.023 98.7285 68.023H98.8878V72.0581H97.4659V69.2857Z" fill="#006430"/>
<path d="M94.5452 72.0581V68.3304H95.1601C95.1601 68.3304 95.8436 68.3304 96.2553 68.8108C96.6255 69.2427 96.6407 69.7211 96.64 69.8133C96.6399 69.8241 96.6396 69.8346 96.6396 69.8453V72.0581H94.5452Z" fill="#069550"/>
<path d="M95.4291 72.0581H91.1641V71.3472C91.1641 71.3472 91.1246 70.5482 91.608 69.7331C92.0121 69.0519 92.7659 68.3304 93.3256 68.3304H94.5027C95.4291 68.3304 95.4291 69.2527 95.4291 69.2527V72.0581Z" fill="#1FB767"/>
<rect x="91.1634" y="71.3664" width="4.26571" height="0.691736" fill="#006430"/>
<path d="M93.3923 67.0321C93.3923 66.8577 93.5336 66.7164 93.7079 66.7164H98.3031C98.4774 66.7164 98.6187 66.8577 98.6187 67.0321V67.6387H93.3923V67.0321Z" fill="#3B0F03"/>
<path d="M97.3265 72.0581C97.3265 72.3609 97.2758 72.6608 97.1771 72.9405C97.0784 73.2203 96.9338 73.4745 96.7514 73.6886C96.5691 73.9027 96.3527 74.0725 96.1144 74.1884C95.8762 74.3043 95.6209 74.3639 95.363 74.3639C95.1052 74.3639 94.7227 74.3639 94.4453 74.3639C94.1678 74.3639 94.1252 73.9156 93.9746 73.6886C93.7923 73.4745 93.6476 73.2203 93.549 72.9405C93.4503 72.6608 93.3995 72.3609 93.3995 72.0581L95.363 72.0581H97.3265Z" fill="#424242"/>
<path d="M96.2817 72.0581C96.2817 72.3609 96.2309 72.6608 96.1323 72.9405C96.0336 73.2203 95.8889 73.4745 95.7066 73.6886C95.5243 73.9027 95.3078 74.0725 95.0696 74.1884C94.8314 74.3043 94.5761 74.3639 94.3182 74.3639C94.0603 74.3639 93.805 74.3043 93.5668 74.1884C93.3286 74.0725 93.1121 73.9027 92.9298 73.6886C92.7474 73.4745 92.6028 73.2203 92.5041 72.9405C92.4055 72.6608 92.3547 72.3609 92.3547 72.0581L94.3182 72.0581H96.2817Z" fill="#212121"/>
<path d="M95.4531 72.0581C95.4531 72.2285 95.4242 72.3971 95.3681 72.5545C95.3119 72.7118 95.2297 72.8548 95.126 72.9753C95.0223 73.0957 94.8991 73.1912 94.7636 73.2564C94.6281 73.3216 94.4829 73.3551 94.3362 73.3551C94.1896 73.3551 94.0443 73.3216 93.9088 73.2564C93.7733 73.1912 93.6502 73.0957 93.5465 72.9753C93.4428 72.8548 93.3605 72.7118 93.3044 72.5545C93.2482 72.3971 93.2194 72.2285 93.2194 72.0581L94.3362 72.0581H95.4531Z" fill="#757575"/>
<path d="M96.1784 72.1734V72.0581H98.3689L98.6064 71.6261C98.7225 71.4148 98.7757 71.1747 98.7598 70.9342L98.4019 65.5469C98.377 65.1719 98.5204 64.8054 98.7932 64.5468L98.9364 64.411C99.171 64.1887 99.4819 64.0647 99.8051 64.0647H101.47C101.845 64.0647 102.2 64.231 102.44 64.5187L102.715 64.8477C102.888 65.0556 102.99 65.3137 103.005 65.584L103.384 72.1734H96.1784Z" fill="#008444"/>
<path fill-rule="evenodd" clip-rule="evenodd" d="M98.8579 64.4435C99.1441 64.1755 99.5219 64.0263 99.9145 64.0263H101.378C101.848 64.0263 102.295 64.2335 102.598 64.5925L102.73 64.7494C102.952 65.0121 103.083 65.3393 103.103 65.6822L103.48 72.1734H95.906V72.0584H98.256L98.5101 71.6358C98.6655 71.3775 98.7379 71.0781 98.7177 70.7776L98.3742 65.6694C98.3433 65.2091 98.5208 64.7593 98.8579 64.4435ZM98.3904 72.0584H103.358L102.988 65.6888C102.969 65.3708 102.848 65.0672 102.642 64.8235L102.51 64.6666C102.229 64.3336 101.814 64.1413 101.378 64.1413H99.9145C99.5512 64.1413 99.2016 64.2794 98.9368 64.5274C98.6249 64.8196 98.4606 65.2358 98.4893 65.6617L98.8327 70.7699C98.8545 71.0938 98.7764 71.4166 98.609 71.695L98.3904 72.0584Z" fill="#1FB767"/>
<rect x="98.8877" y="65.1573" width="0.653306" height="0.230036" rx="0.115018" fill="#069550"/>
<rect x="101.578" y="65.1573" width="0.653306" height="0.230036" rx="0.115018" fill="#069550"/>
<path d="M100.026 64.0263H99.6948L100.26 70.2135H101.078V68.3567C101.078 68.1959 101.017 68.0412 100.907 67.9241L100.504 67.4965C100.409 67.3951 100.35 67.2651 100.336 67.1266L100.026 64.0263Z" fill="#006430"/>
<path d="M101.194 64.0263H100.027L100.346 67.1155C100.36 67.249 100.416 67.3747 100.506 67.4742L100.915 67.926C101.02 68.0421 101.078 68.1931 101.078 68.3497V70.2135H102.27L102.201 68.2974C102.196 68.1493 102.138 68.0077 102.039 67.8976L101.659 67.475C101.569 67.375 101.513 67.2488 101.5 67.1149L101.194 64.0263Z" fill="#1FB767"/>
<rect x="100.425" y="65.0639" width="0.653306" height="0.230579" rx="0.115289" fill="#FF7733"/>
<rect x="100.463" y="65.5635" width="0.653306" height="0.230579" rx="0.115289" fill="#FF7733"/>
<path d="M102.27 70.2135L100.29 70.348L100.262 70.0502L100.252 69.8869L100.692 69.6004C100.946 69.4351 101.236 69.3331 101.537 69.303L102.231 69.2336L102.24 69.4641L102.27 70.2135Z" fill="#3A0F00"/>
<path d="M101.405 68.8777V68.5418H102.212L102.231 69.1567H101.684C101.616 69.1567 101.55 69.1316 101.499 69.0862C101.439 69.0333 101.405 68.9574 101.405 68.8777Z" fill="#006430"/>
<rect x="101.386" y="68.2151" width="1.19132" height="0.614876" rx="0.307438" fill="#D88B19"/>
<rect x="101.808" y="68.3304" width="0.576447" height="0.230579" rx="0.115289" fill="#FEB536"/>
<path d="M103.845 72.1926H99.714C99.714 72.1926 99.714 69.541 101.751 69.5794C103.788 69.6179 103.845 72.1926 103.845 72.1926Z" fill="#006430"/>
<path d="M105.075 72.1926H103.845C103.845 72.1926 103.788 71.3664 103.538 70.8668C103.095 69.7671 102.227 69.6022 101.89 69.5809C101.768 69.5794 101.751 69.5794 101.751 69.5794C101.751 69.5794 101.803 69.5754 101.89 69.5809C102.054 69.5829 102.41 69.5876 103.173 69.5986C105.037 69.8292 105.075 72.1926 105.075 72.1926Z" fill="#1FB767"/>
<path d="M101.174 61.7974L101.194 63.6036H99.6948C99.684 63.4626 99.5664 63.3538 99.425 63.3538H98.9049C98.7283 63.3538 98.5656 63.2581 98.4798 63.1037L98.4633 63.0739C98.3822 62.928 98.3924 62.7484 98.4894 62.6126C98.5706 62.4989 98.7016 62.4315 98.8413 62.4315H99.5603L99.8031 62.1811C100.041 61.9358 100.368 61.7974 100.71 61.7974H101.174Z" fill="#006430"/>
<rect x="99.6948" y="63.6036" width="1.49876" height="0.422727" fill="#006430"/>
<path d="M102.432 62.6562L102.415 62.6298C102.348 62.5299 102.236 62.4699 102.116 62.4699C102.166 62.7309 102.124 63.001 101.997 63.2346L101.943 63.3346H102.052C102.211 63.3346 102.357 63.2504 102.437 63.1136L102.445 63.099C102.526 62.9609 102.521 62.7891 102.432 62.6562Z" fill="#006430"/>
<path d="M102.298 62.7749L102.287 62.7595C102.252 62.7104 102.195 62.6813 102.135 62.6813C102.135 62.834 102.11 62.9857 102.062 63.1306L102.058 63.1424L102.1 63.1424C102.181 63.1424 102.257 63.1003 102.301 63.031L102.306 63.0232C102.354 62.9465 102.351 62.8485 102.298 62.7749Z" fill="#4D1303"/>
<path d="M102.828 62.7389H102.481L102.484 62.7516C102.507 62.8562 102.499 62.9653 102.462 63.0656H102.837C102.891 63.0656 102.941 63.0389 102.97 62.9944C103.01 62.9344 103.005 62.8549 102.958 62.8006L102.954 62.7961C102.922 62.7598 102.876 62.7389 102.828 62.7389Z" fill="#4D1303"/>
<path d="M101.071 61.7974H101.405C101.292 61.7974 101.18 61.8265 101.093 61.8997C100.925 62.0425 100.664 62.333 100.664 62.759C100.664 63.0943 100.861 63.3493 101.015 63.4971C101.124 63.6014 101.273 63.642 101.424 63.642H101.02C100.571 63.642 100.19 63.3088 100.131 62.8629C100.122 62.7938 100.121 62.7233 100.128 62.654C100.177 62.1705 100.585 61.7974 101.071 61.7974Z" fill="#AE9F8F"/>
<ellipse cx="101.405" cy="62.7197" rx="0.749381" ry="0.922314" fill="#E9E0CE"/>
<ellipse cx="101.443" cy="62.7197" rx="0.595662" ry="0.730165" fill="#FEB434"/>
<ellipse cx="98.6572" cy="62.8734" rx="0.461157" ry="0.461157" fill="#006430"/>
<ellipse cx="98.6187" cy="62.8734" rx="0.307438" ry="0.307438" fill="#4D1303"/>
<rect x="97.4274" y="62.7197" width="1.30661" height="0.345868" rx="0.172934" fill="#3F0F02"/>
</g>
</g>
</g>
</g>
<g clip-path="url(#clip5_6549_277431)">
<circle cx="144" cy="84" r="16" fill="#EF5350"/>
<g clip-path="url(#clip6_6549_277431)">
<path fill-rule="evenodd" clip-rule="evenodd" d="M143.644 87.9111C143.154 87.9111 142.756 87.5131 142.756 87.0222L142.756 84.3556C142.756 83.8646 143.154 83.4667 143.644 83.4667C144.135 83.4667 144.533 83.8646 144.533 84.3556L144.533 87.0222C144.533 87.5131 144.135 87.9111 143.644 87.9111Z" fill="white"/>
<rect x="142.756" y="80.8" width="1.77778" height="1.77778" rx="0.888889" fill="white"/>
<circle cx="143.644" cy="84.3556" r="7.08321" stroke="white" stroke-width="1.83357"/>
</g>
</g>
</g>
<path d="M60.3848 113.047V123H59.0859V113.047H60.3848ZM63.584 113.047V114.127H55.8936V113.047H63.584ZM67.2549 123.137C66.7399 123.137 66.2728 123.05 65.8535 122.877C65.4388 122.699 65.0811 122.451 64.7803 122.132C64.484 121.813 64.2562 121.435 64.0967 120.997C63.9372 120.56 63.8574 120.081 63.8574 119.562V119.274C63.8574 118.673 63.9463 118.137 64.124 117.668C64.3018 117.194 64.5433 116.793 64.8486 116.465C65.154 116.137 65.5003 115.888 65.8877 115.72C66.2751 115.551 66.6761 115.467 67.0908 115.467C67.6195 115.467 68.0752 115.558 68.458 115.74C68.8454 115.923 69.1621 116.178 69.4082 116.506C69.6543 116.829 69.8366 117.212 69.9551 117.654C70.0736 118.092 70.1328 118.57 70.1328 119.09V119.657H64.6094V118.625H68.8682V118.529C68.8499 118.201 68.7816 117.882 68.6631 117.572C68.5492 117.262 68.3669 117.007 68.1162 116.807C67.8656 116.606 67.5238 116.506 67.0908 116.506C66.8037 116.506 66.5394 116.567 66.2979 116.69C66.0563 116.809 65.849 116.987 65.6758 117.224C65.5026 117.461 65.3682 117.75 65.2725 118.092C65.1768 118.434 65.1289 118.828 65.1289 119.274V119.562C65.1289 119.912 65.1768 120.243 65.2725 120.553C65.3727 120.858 65.5163 121.127 65.7031 121.359C65.8945 121.592 66.1247 121.774 66.3936 121.906C66.667 122.038 66.9769 122.104 67.3232 122.104C67.7699 122.104 68.1481 122.013 68.458 121.831C68.7679 121.649 69.0391 121.405 69.2715 121.1L70.0371 121.708C69.8776 121.95 69.6748 122.18 69.4287 122.398C69.1826 122.617 68.8796 122.795 68.5195 122.932C68.1641 123.068 67.7425 123.137 67.2549 123.137ZM72.874 116.766V123H71.6094V115.604H72.8398L72.874 116.766ZM75.1846 115.562L75.1777 116.738C75.0729 116.715 74.9727 116.702 74.877 116.697C74.7858 116.688 74.681 116.684 74.5625 116.684C74.2708 116.684 74.0133 116.729 73.79 116.82C73.5667 116.911 73.3776 117.039 73.2227 117.203C73.0677 117.367 72.9447 117.563 72.8535 117.791C72.7669 118.014 72.71 118.26 72.6826 118.529L72.3271 118.734C72.3271 118.288 72.3704 117.868 72.457 117.477C72.5482 117.085 72.6872 116.738 72.874 116.438C73.0609 116.132 73.2979 115.895 73.585 115.727C73.8766 115.553 74.223 115.467 74.624 115.467C74.7152 115.467 74.82 115.478 74.9385 115.501C75.057 115.519 75.139 115.54 75.1846 115.562ZM76.3877 115.604H77.6592V123.882C77.6592 124.333 77.5863 124.716 77.4404 125.03C77.2992 125.345 77.085 125.582 76.7979 125.741C76.5153 125.905 76.1576 125.987 75.7246 125.987C75.6107 125.987 75.4785 125.976 75.3281 125.953C75.1732 125.93 75.0433 125.903 74.9385 125.871L74.9453 124.853C75.0319 124.871 75.1299 124.884 75.2393 124.894C75.3486 124.907 75.4443 124.914 75.5264 124.914C75.7132 124.914 75.8704 124.88 75.998 124.812C76.1257 124.743 76.2214 124.634 76.2852 124.483C76.3535 124.333 76.3877 124.132 76.3877 123.882V115.604ZM76.2578 113.642C76.2578 113.437 76.3216 113.263 76.4492 113.122C76.5768 112.981 76.7614 112.91 77.0029 112.91C77.249 112.91 77.4359 112.981 77.5635 113.122C77.6911 113.263 77.7549 113.437 77.7549 113.642C77.7549 113.838 77.6911 114.006 77.5635 114.147C77.4359 114.284 77.249 114.353 77.0029 114.353C76.7614 114.353 76.5768 114.284 76.4492 114.147C76.3216 114.006 76.2578 113.838 76.2578 113.642ZM84.0645 121.735V117.928C84.0645 117.636 84.0052 117.383 83.8867 117.169C83.7728 116.95 83.5996 116.782 83.3672 116.663C83.1348 116.545 82.8477 116.485 82.5059 116.485C82.1868 116.485 81.9066 116.54 81.665 116.649C81.4281 116.759 81.2412 116.902 81.1045 117.08C80.9723 117.258 80.9062 117.449 80.9062 117.654H79.6416C79.6416 117.39 79.71 117.128 79.8467 116.868C79.9834 116.608 80.1794 116.374 80.4346 116.164C80.6943 115.95 81.0042 115.781 81.3643 115.658C81.7288 115.531 82.1344 115.467 82.5811 115.467C83.1188 115.467 83.5928 115.558 84.0029 115.74C84.4176 115.923 84.7412 116.198 84.9736 116.567C85.2106 116.932 85.3291 117.39 85.3291 117.941V121.387C85.3291 121.633 85.3496 121.895 85.3906 122.173C85.4362 122.451 85.5023 122.69 85.5889 122.891V123H84.2695C84.2057 122.854 84.1556 122.66 84.1191 122.419C84.0827 122.173 84.0645 121.945 84.0645 121.735ZM84.2832 118.516L84.2969 119.404H83.0186C82.6585 119.404 82.3372 119.434 82.0547 119.493C81.7721 119.548 81.5352 119.632 81.3438 119.746C81.1523 119.86 81.0065 120.004 80.9062 120.177C80.806 120.345 80.7559 120.544 80.7559 120.771C80.7559 121.004 80.8083 121.216 80.9131 121.407C81.0179 121.599 81.1751 121.751 81.3848 121.865C81.599 121.975 81.861 122.029 82.1709 122.029C82.5583 122.029 82.9001 121.947 83.1963 121.783C83.4925 121.619 83.7272 121.419 83.9004 121.182C84.0781 120.945 84.1738 120.715 84.1875 120.491L84.7275 121.1C84.6956 121.291 84.609 121.503 84.4678 121.735C84.3265 121.968 84.1374 122.191 83.9004 122.405C83.668 122.615 83.39 122.79 83.0664 122.932C82.7474 123.068 82.3874 123.137 81.9863 123.137C81.485 123.137 81.0452 123.039 80.667 122.843C80.2933 122.647 80.0016 122.385 79.792 122.057C79.5869 121.724 79.4844 121.353 79.4844 120.942C79.4844 120.546 79.5618 120.197 79.7168 119.896C79.8717 119.591 80.0951 119.338 80.3867 119.138C80.6784 118.933 81.0293 118.778 81.4395 118.673C81.8496 118.568 82.3076 118.516 82.8135 118.516H84.2832ZM91.9805 121.564V112.5H93.252V123H92.0898L91.9805 121.564ZM87.0039 119.384V119.24C87.0039 118.675 87.0723 118.162 87.209 117.702C87.3503 117.237 87.5485 116.839 87.8037 116.506C88.0635 116.173 88.3711 115.918 88.7266 115.74C89.0866 115.558 89.4876 115.467 89.9297 115.467C90.3945 115.467 90.8001 115.549 91.1465 115.713C91.4974 115.872 91.7936 116.107 92.0352 116.417C92.2812 116.722 92.4749 117.091 92.6162 117.524C92.7575 117.957 92.8555 118.447 92.9102 118.994V119.623C92.86 120.165 92.762 120.653 92.6162 121.086C92.4749 121.519 92.2812 121.888 92.0352 122.193C91.7936 122.499 91.4974 122.733 91.1465 122.897C90.7956 123.057 90.3854 123.137 89.916 123.137C89.4831 123.137 89.0866 123.043 88.7266 122.856C88.3711 122.67 88.0635 122.408 87.8037 122.07C87.5485 121.733 87.3503 121.337 87.209 120.881C87.0723 120.421 87.0039 119.922 87.0039 119.384ZM88.2754 119.24V119.384C88.2754 119.753 88.3118 120.099 88.3848 120.423C88.4622 120.746 88.5807 121.031 88.7402 121.277C88.8997 121.523 89.1025 121.717 89.3486 121.858C89.5947 121.995 89.8887 122.063 90.2305 122.063C90.6497 122.063 90.9938 121.975 91.2627 121.797C91.5361 121.619 91.7549 121.384 91.9189 121.093C92.083 120.801 92.2106 120.484 92.3018 120.143V118.495C92.2471 118.244 92.1673 118.003 92.0625 117.771C91.9622 117.534 91.8301 117.324 91.666 117.142C91.5065 116.955 91.3083 116.807 91.0713 116.697C90.8389 116.588 90.5632 116.533 90.2441 116.533C89.8978 116.533 89.5993 116.606 89.3486 116.752C89.1025 116.893 88.8997 117.089 88.7402 117.34C88.5807 117.586 88.4622 117.873 88.3848 118.201C88.3118 118.525 88.2754 118.871 88.2754 119.24ZM96.5947 115.604V123H95.3232V115.604H96.5947ZM95.2275 113.642C95.2275 113.437 95.2891 113.263 95.4121 113.122C95.5397 112.981 95.7266 112.91 95.9727 112.91C96.2142 112.91 96.3988 112.981 96.5264 113.122C96.6585 113.263 96.7246 113.437 96.7246 113.642C96.7246 113.838 96.6585 114.006 96.5264 114.147C96.3988 114.284 96.2142 114.353 95.9727 114.353C95.7266 114.353 95.5397 114.284 95.4121 114.147C95.2891 114.006 95.2275 113.838 95.2275 113.642ZM103.369 112.5V123H102.098V112.5H103.369ZM107.888 115.604L104.661 119.056L102.856 120.929L102.754 119.582L104.046 118.037L106.343 115.604H107.888ZM106.732 123L104.094 119.473L104.75 118.345L108.223 123H106.732ZM112.126 123.137C111.611 123.137 111.144 123.05 110.725 122.877C110.31 122.699 109.952 122.451 109.651 122.132C109.355 121.813 109.127 121.435 108.968 120.997C108.808 120.56 108.729 120.081 108.729 119.562V119.274C108.729 118.673 108.817 118.137 108.995 117.668C109.173 117.194 109.414 116.793 109.72 116.465C110.025 116.137 110.371 115.888 110.759 115.72C111.146 115.551 111.547 115.467 111.962 115.467C112.491 115.467 112.946 115.558 113.329 115.74C113.716 115.923 114.033 116.178 114.279 116.506C114.525 116.829 114.708 117.212 114.826 117.654C114.945 118.092 115.004 118.57 115.004 119.09V119.657H109.48V118.625H113.739V118.529C113.721 118.201 113.653 117.882 113.534 117.572C113.42 117.262 113.238 117.007 112.987 116.807C112.737 116.606 112.395 116.506 111.962 116.506C111.675 116.506 111.41 116.567 111.169 116.69C110.927 116.809 110.72 116.987 110.547 117.224C110.374 117.461 110.239 117.75 110.144 118.092C110.048 118.434 110 118.828 110 119.274V119.562C110 119.912 110.048 120.243 110.144 120.553C110.244 120.858 110.387 121.127 110.574 121.359C110.766 121.592 110.996 121.774 111.265 121.906C111.538 122.038 111.848 122.104 112.194 122.104C112.641 122.104 113.019 122.013 113.329 121.831C113.639 121.649 113.91 121.405 114.143 121.1L114.908 121.708C114.749 121.95 114.546 122.18 114.3 122.398C114.054 122.617 113.751 122.795 113.391 122.932C113.035 123.068 112.614 123.137 112.126 123.137ZM120.787 121.038C120.787 120.856 120.746 120.687 120.664 120.532C120.587 120.373 120.425 120.229 120.179 120.102C119.937 119.969 119.573 119.855 119.085 119.76C118.675 119.673 118.303 119.571 117.971 119.452C117.643 119.334 117.362 119.19 117.13 119.021C116.902 118.853 116.727 118.655 116.604 118.427C116.48 118.199 116.419 117.932 116.419 117.627C116.419 117.335 116.483 117.06 116.61 116.8C116.743 116.54 116.927 116.31 117.164 116.109C117.406 115.909 117.695 115.752 118.032 115.638C118.369 115.524 118.745 115.467 119.16 115.467C119.753 115.467 120.258 115.572 120.678 115.781C121.097 115.991 121.418 116.271 121.642 116.622C121.865 116.968 121.977 117.354 121.977 117.777H120.712C120.712 117.572 120.65 117.374 120.527 117.183C120.409 116.987 120.233 116.825 120.001 116.697C119.773 116.57 119.493 116.506 119.16 116.506C118.809 116.506 118.524 116.561 118.306 116.67C118.091 116.775 117.934 116.909 117.834 117.073C117.738 117.237 117.69 117.41 117.69 117.593C117.69 117.729 117.713 117.853 117.759 117.962C117.809 118.067 117.896 118.165 118.019 118.256C118.142 118.342 118.315 118.424 118.538 118.502C118.761 118.579 119.046 118.657 119.393 118.734C119.999 118.871 120.498 119.035 120.89 119.227C121.282 119.418 121.573 119.653 121.765 119.931C121.956 120.209 122.052 120.546 122.052 120.942C122.052 121.266 121.983 121.562 121.847 121.831C121.715 122.1 121.521 122.332 121.266 122.528C121.015 122.72 120.714 122.87 120.363 122.979C120.017 123.084 119.627 123.137 119.194 123.137C118.543 123.137 117.991 123.021 117.54 122.788C117.089 122.556 116.747 122.255 116.515 121.886C116.282 121.517 116.166 121.127 116.166 120.717H117.438C117.456 121.063 117.556 121.339 117.738 121.544C117.921 121.744 118.144 121.888 118.408 121.975C118.673 122.057 118.935 122.098 119.194 122.098C119.541 122.098 119.83 122.052 120.062 121.961C120.299 121.87 120.479 121.744 120.603 121.585C120.726 121.425 120.787 121.243 120.787 121.038ZM128.074 121.735V117.928C128.074 117.636 128.015 117.383 127.896 117.169C127.783 116.95 127.609 116.782 127.377 116.663C127.145 116.545 126.857 116.485 126.516 116.485C126.197 116.485 125.916 116.54 125.675 116.649C125.438 116.759 125.251 116.902 125.114 117.08C124.982 117.258 124.916 117.449 124.916 117.654H123.651C123.651 117.39 123.72 117.128 123.856 116.868C123.993 116.608 124.189 116.374 124.444 116.164C124.704 115.95 125.014 115.781 125.374 115.658C125.739 115.531 126.144 115.467 126.591 115.467C127.129 115.467 127.603 115.558 128.013 115.74C128.427 115.923 128.751 116.198 128.983 116.567C129.22 116.932 129.339 117.39 129.339 117.941V121.387C129.339 121.633 129.359 121.895 129.4 122.173C129.446 122.451 129.512 122.69 129.599 122.891V123H128.279C128.215 122.854 128.165 122.66 128.129 122.419C128.092 122.173 128.074 121.945 128.074 121.735ZM128.293 118.516L128.307 119.404H127.028C126.668 119.404 126.347 119.434 126.064 119.493C125.782 119.548 125.545 119.632 125.354 119.746C125.162 119.86 125.016 120.004 124.916 120.177C124.816 120.345 124.766 120.544 124.766 120.771C124.766 121.004 124.818 121.216 124.923 121.407C125.028 121.599 125.185 121.751 125.395 121.865C125.609 121.975 125.871 122.029 126.181 122.029C126.568 122.029 126.91 121.947 127.206 121.783C127.502 121.619 127.737 121.419 127.91 121.182C128.088 120.945 128.184 120.715 128.197 120.491L128.737 121.1C128.705 121.291 128.619 121.503 128.478 121.735C128.336 121.968 128.147 122.191 127.91 122.405C127.678 122.615 127.4 122.79 127.076 122.932C126.757 123.068 126.397 123.137 125.996 123.137C125.495 123.137 125.055 123.039 124.677 122.843C124.303 122.647 124.011 122.385 123.802 122.057C123.597 121.724 123.494 121.353 123.494 120.942C123.494 120.546 123.572 120.197 123.727 119.896C123.882 119.591 124.105 119.338 124.396 119.138C124.688 118.933 125.039 118.778 125.449 118.673C125.859 118.568 126.317 118.516 126.823 118.516H128.293ZM132.702 112.5V123H131.431V112.5H132.702ZM139.094 121.735V117.928C139.094 117.636 139.035 117.383 138.916 117.169C138.802 116.95 138.629 116.782 138.396 116.663C138.164 116.545 137.877 116.485 137.535 116.485C137.216 116.485 136.936 116.54 136.694 116.649C136.457 116.759 136.271 116.902 136.134 117.08C136.002 117.258 135.936 117.449 135.936 117.654H134.671C134.671 117.39 134.739 117.128 134.876 116.868C135.013 116.608 135.209 116.374 135.464 116.164C135.724 115.95 136.034 115.781 136.394 115.658C136.758 115.531 137.164 115.467 137.61 115.467C138.148 115.467 138.622 115.558 139.032 115.74C139.447 115.923 139.771 116.198 140.003 116.567C140.24 116.932 140.358 117.39 140.358 117.941V121.387C140.358 121.633 140.379 121.895 140.42 122.173C140.465 122.451 140.532 122.69 140.618 122.891V123H139.299C139.235 122.854 139.185 122.66 139.148 122.419C139.112 122.173 139.094 121.945 139.094 121.735ZM139.312 118.516L139.326 119.404H138.048C137.688 119.404 137.367 119.434 137.084 119.493C136.801 119.548 136.564 119.632 136.373 119.746C136.182 119.86 136.036 120.004 135.936 120.177C135.835 120.345 135.785 120.544 135.785 120.771C135.785 121.004 135.838 121.216 135.942 121.407C136.047 121.599 136.204 121.751 136.414 121.865C136.628 121.975 136.89 122.029 137.2 122.029C137.588 122.029 137.929 121.947 138.226 121.783C138.522 121.619 138.757 121.419 138.93 121.182C139.107 120.945 139.203 120.715 139.217 120.491L139.757 121.1C139.725 121.291 139.638 121.503 139.497 121.735C139.356 121.968 139.167 122.191 138.93 122.405C138.697 122.615 138.419 122.79 138.096 122.932C137.777 123.068 137.417 123.137 137.016 123.137C136.514 123.137 136.075 123.039 135.696 122.843C135.323 122.647 135.031 122.385 134.821 122.057C134.616 121.724 134.514 121.353 134.514 120.942C134.514 120.546 134.591 120.197 134.746 119.896C134.901 119.591 135.124 119.338 135.416 119.138C135.708 118.933 136.059 118.778 136.469 118.673C136.879 118.568 137.337 118.516 137.843 118.516H139.312ZM143.612 112.5V123H142.348V112.5H143.612ZM143.312 119.021L142.785 119.001C142.79 118.495 142.865 118.028 143.011 117.6C143.157 117.167 143.362 116.791 143.626 116.472C143.89 116.153 144.205 115.907 144.569 115.733C144.938 115.556 145.346 115.467 145.793 115.467C146.158 115.467 146.486 115.517 146.777 115.617C147.069 115.713 147.317 115.868 147.522 116.082C147.732 116.296 147.892 116.574 148.001 116.916C148.11 117.253 148.165 117.666 148.165 118.153V123H146.894V118.14C146.894 117.752 146.837 117.442 146.723 117.21C146.609 116.973 146.442 116.802 146.224 116.697C146.005 116.588 145.736 116.533 145.417 116.533C145.103 116.533 144.815 116.599 144.556 116.731C144.3 116.864 144.079 117.046 143.893 117.278C143.71 117.511 143.567 117.777 143.462 118.078C143.362 118.374 143.312 118.689 143.312 119.021ZM154.42 121.735V117.928C154.42 117.636 154.361 117.383 154.242 117.169C154.128 116.95 153.955 116.782 153.723 116.663C153.49 116.545 153.203 116.485 152.861 116.485C152.542 116.485 152.262 116.54 152.021 116.649C151.784 116.759 151.597 116.902 151.46 117.08C151.328 117.258 151.262 117.449 151.262 117.654H149.997C149.997 117.39 150.065 117.128 150.202 116.868C150.339 116.608 150.535 116.374 150.79 116.164C151.05 115.95 151.36 115.781 151.72 115.658C152.084 115.531 152.49 115.467 152.937 115.467C153.474 115.467 153.948 115.558 154.358 115.74C154.773 115.923 155.097 116.198 155.329 116.567C155.566 116.932 155.685 117.39 155.685 117.941V121.387C155.685 121.633 155.705 121.895 155.746 122.173C155.792 122.451 155.858 122.69 155.944 122.891V123H154.625C154.561 122.854 154.511 122.66 154.475 122.419C154.438 122.173 154.42 121.945 154.42 121.735ZM154.639 118.516L154.652 119.404H153.374C153.014 119.404 152.693 119.434 152.41 119.493C152.128 119.548 151.891 119.632 151.699 119.746C151.508 119.86 151.362 120.004 151.262 120.177C151.161 120.345 151.111 120.544 151.111 120.771C151.111 121.004 151.164 121.216 151.269 121.407C151.373 121.599 151.531 121.751 151.74 121.865C151.954 121.975 152.216 122.029 152.526 122.029C152.914 122.029 153.256 121.947 153.552 121.783C153.848 121.619 154.083 121.419 154.256 121.182C154.434 120.945 154.529 120.715 154.543 120.491L155.083 121.1C155.051 121.291 154.965 121.503 154.823 121.735C154.682 121.968 154.493 122.191 154.256 122.405C154.023 122.615 153.745 122.79 153.422 122.932C153.103 123.068 152.743 123.137 152.342 123.137C151.84 123.137 151.401 123.039 151.022 122.843C150.649 122.647 150.357 122.385 150.147 122.057C149.942 121.724 149.84 121.353 149.84 120.942C149.84 120.546 149.917 120.197 150.072 119.896C150.227 119.591 150.451 119.338 150.742 119.138C151.034 118.933 151.385 118.778 151.795 118.673C152.205 118.568 152.663 118.516 153.169 118.516H154.639ZM158.938 117.183V123H157.674V115.604H158.87L158.938 117.183ZM158.638 119.021L158.111 119.001C158.116 118.495 158.191 118.028 158.337 117.6C158.483 117.167 158.688 116.791 158.952 116.472C159.216 116.153 159.531 115.907 159.896 115.733C160.265 115.556 160.673 115.467 161.119 115.467C161.484 115.467 161.812 115.517 162.104 115.617C162.395 115.713 162.644 115.868 162.849 116.082C163.058 116.296 163.218 116.574 163.327 116.916C163.437 117.253 163.491 117.666 163.491 118.153V123H162.22V118.14C162.22 117.752 162.163 117.442 162.049 117.21C161.935 116.973 161.769 116.802 161.55 116.697C161.331 116.588 161.062 116.533 160.743 116.533C160.429 116.533 160.142 116.599 159.882 116.731C159.627 116.864 159.406 117.046 159.219 117.278C159.036 117.511 158.893 117.777 158.788 118.078C158.688 118.374 158.638 118.689 158.638 119.021Z" fill="#212121"/>
<defs>
<clipPath id="clip0_6549_277431">
<rect width="100" height="100" fill="white" transform="translate(60)"/>
</clipPath>
<clipPath id="clip1_6549_277431">
<rect x="60" width="100" height="100" rx="50" fill="white"/>
</clipPath>
<clipPath id="clip2_6549_277431">
<rect width="29.5775" height="29.5775" fill="white" transform="translate(95.2113 49.2958)"/>
</clipPath>
<clipPath id="clip3_6549_277431">
<rect x="95.2113" y="49.2958" width="29.5775" height="29.5775" rx="14.7887" fill="white"/>
</clipPath>
<clipPath id="clip4_6549_277431">
<rect x="95.2113" y="49.2958" width="29.5775" height="29.5775" rx="14.7887" fill="white"/>
</clipPath>
<clipPath id="clip5_6549_277431">
<rect width="32" height="32" fill="white" transform="translate(128 68)"/>
</clipPath>
<clipPath id="clip6_6549_277431">
<rect width="16" height="16" fill="white" transform="translate(135.644 76.3556)"/>
</clipPath>
</defs>
</svg>
