<svg width="220" height="129" viewBox="0 0 220 129" fill="none" xmlns="http://www.w3.org/2000/svg">
<defs>
<clipPath id="clip0_8270_71851">
<rect x="60" width="100" height="100" rx="50" fill="white"/>
</clipPath>
<clipPath id="clip1_8270_71851">
<rect x="60" width="100" height="100" rx="50" fill="white"/>
</clipPath>
<clipPath id="clip2_8270_71851">
<rect width="26.5823" height="26.5823" fill="white" transform="translate(141.418 72)"/>
</clipPath>
<clipPath id="clip3_8270_71851">
<rect width="17.7215" height="17.7215" fill="white" transform="translate(145.848 76.4304)"/>
</clipPath>
<clipPath id="clip4_8270_71851">
<rect width="14.6195" height="14.6195" fill="white" transform="translate(144.371 85.2911) rotate(-45)"/>
</clipPath>
</defs>
<g clip-path="url(#clip0_8270_71851)">
<g clip-path="url(#clip1_8270_71851)">
<rect x="60" width="100" height="100" rx="50" fill="#FAFAFA"/>
<rect x="60" y="83.3333" width="103.333" height="20" fill="#D9D9D9"/>
<path d="M128.24 47.6955L128.153 47.4977C127.577 46.1983 126.289 45.3605 124.868 45.3605H121.505C120.45 45.3605 119.436 45.7679 118.675 46.4977C117.869 47.2695 117.414 48.3367 117.414 49.4523V52.1362H125.351C126.496 52.1362 127.551 51.5171 128.11 50.5178C128.595 49.6499 128.643 48.6044 128.24 47.6955Z" fill="#616161"/>
<path d="M9.77369 75.8835H145.715C147.856 75.8835 149.592 74.1477 149.592 72.0064V64.6058C149.592 56.5761 143.082 50.0667 135.053 50.0667H121.338L103.564 31.8106C101.283 29.4681 98.1522 28.1467 94.8827 28.1467H23.4395C19.7332 28.1467 16.1721 29.5884 13.5096 32.1667C11.7661 33.8551 10.3617 35.8614 9.37195 38.0774L5.15854 47.5114C4.04759 49.9988 3.47339 52.6925 3.47339 55.4168V69.5832C3.47339 73.0628 6.29413 75.8835 9.77369 75.8835Z" fill="#9E9E9E"/>
<path d="M84.4018 26.087H31.6704C30.0957 26.087 28.6134 26.8602 27.7053 28.1467H88.4062L88.0358 27.7269C87.1158 26.6842 85.7923 26.087 84.4018 26.087Z" fill="#757575"/>
<path fill-rule="evenodd" clip-rule="evenodd" d="M111.515 75.8836C111.563 76.0117 111.614 76.1392 111.667 76.266C112.385 78.0006 113.438 79.5767 114.766 80.9042C116.093 82.2318 117.669 83.2849 119.404 84.0034C121.139 84.7219 122.998 85.0917 124.875 85.0917C126.753 85.0917 128.612 84.7219 130.346 84.0034C132.081 83.2849 133.657 82.2318 134.985 80.9042C136.312 79.5767 137.365 78.0006 138.084 76.266C138.136 76.1392 138.187 76.0117 138.236 75.8836H111.515Z" fill="#424242"/>
<path d="M134.326 73.0969C134.326 76.2781 133.062 79.329 130.812 81.5785C128.563 83.8279 125.512 85.0917 122.331 85.0917C119.15 85.0917 116.099 83.8279 113.849 81.5785C111.6 79.329 110.336 76.2781 110.336 73.0969L122.331 73.0969H134.326Z" fill="#212121"/>
<path fill-rule="evenodd" clip-rule="evenodd" d="M45.8462 75.8836C45.895 76.0117 45.9456 76.1392 45.9982 76.266C46.7166 78.0006 47.7697 79.5767 49.0973 80.9042C50.4249 82.2318 52.001 83.2849 53.7355 84.0034C55.4701 84.7219 57.3292 85.0917 59.2067 85.0917C61.0842 85.0917 62.9433 84.7219 64.6779 84.0034C66.4124 83.2849 67.9885 82.2318 69.3161 80.9042C70.6437 79.5767 71.6968 78.0006 72.4152 76.266C72.4678 76.1392 72.5185 76.0117 72.5673 75.8836H45.8462Z" fill="#424242"/>
<path d="M68.6572 73.0969C68.6572 76.2781 67.3935 79.329 65.144 81.5785C62.8945 83.8279 59.8436 85.0917 56.6624 85.0917C53.4812 85.0917 50.4303 83.8279 48.1808 81.5785C45.9313 79.329 44.6676 76.2781 44.6676 73.0969L56.6624 73.0969H68.6572Z" fill="#212121"/>
<path d="M3.47339 69.5832V69.0986L77.3807 72.0064H149.592C149.592 74.1477 147.856 75.8835 145.715 75.8835H9.77368C6.29413 75.8835 3.47339 73.0628 3.47339 69.5832Z" fill="#757575"/>
<path d="M149.592 72.0064H112.759V70.6648C112.759 69.1765 113.699 67.8504 115.104 67.3576C115.477 67.2268 115.869 67.16 116.264 67.16H147.684C148.133 67.16 148.569 67.3188 148.913 67.6085C149.343 67.971 149.592 68.5051 149.592 69.0679V72.0064Z" fill="white"/>
<path d="M119.059 72.0064V67.16H145.23V72.0064H119.059Z" fill="#424242"/>
<path d="M110.632 59.853L110.675 59.794C111.071 59.2459 111.706 58.9212 112.382 58.9212H148.38C148.38 58.9212 148.826 59.5928 149.107 60.8598C149.389 62.1267 149.471 63.0406 149.471 63.0406H112.262C111.657 63.0406 111.084 62.7678 110.702 62.2979C110.129 61.5924 110.1 60.5899 110.632 59.853Z" fill="white"/>
<path d="M118.938 63.0405L121.119 58.9211H125.723L123.542 63.0405H118.938Z" fill="#EEEEEE"/>
<path d="M145.23 63.0405H140.747L138.566 58.9211H143.17L145.23 63.0405Z" fill="#EEEEEE"/>
<path d="M123.542 63.0405L125.723 58.9211H138.566L140.747 63.0405H123.542Z" fill="#424242"/>
<path d="M106.217 73.3392C106.217 71.4458 105.844 69.5709 105.119 67.8217C104.394 66.0724 103.332 64.483 101.994 63.1441C100.655 61.8053 99.0654 60.7433 97.3161 60.0187C95.5668 59.2941 93.692 58.9212 91.7986 58.9212C89.9052 58.9212 88.0303 59.2941 86.2811 60.0187C84.5318 60.7433 82.9424 61.8053 81.6035 63.1441C80.2647 64.483 79.2027 66.0724 78.4781 67.8217C77.7535 69.5709 77.3806 71.4458 77.3806 73.3392L91.7986 73.3392H106.217Z" fill="#757575"/>
<path fill-rule="evenodd" clip-rule="evenodd" d="M80.7402 75.8836C80.789 76.0117 80.8396 76.1392 80.8922 76.266C81.6107 78.0006 82.6638 79.5767 83.9913 80.9042C85.3189 82.2318 86.895 83.2849 88.6296 84.0034C90.3641 84.7219 92.2232 85.0917 94.1007 85.0917C95.9782 85.0917 97.8373 84.7219 99.5719 84.0034C101.306 83.2849 102.883 82.2318 104.21 80.9042C105.538 79.5767 106.591 78.0006 107.309 76.266C107.362 76.1392 107.412 76.0117 107.461 75.8836H80.7402Z" fill="#424242"/>
<path d="M104.036 72.9757C104.036 79.6672 98.6113 85.0917 91.9198 85.0917C85.2284 85.0917 79.8039 79.6672 79.8039 72.9757C79.8039 66.2843 85.2284 60.8598 91.9198 60.8598C98.6113 60.8598 104.036 66.2843 104.036 72.9757Z" fill="#212121"/>
<path d="M99.9165 72.9758C99.9165 77.3921 96.3363 80.9723 91.9199 80.9723C87.5036 80.9723 83.9234 77.3921 83.9234 72.9758C83.9234 68.5594 87.5036 64.9792 91.9199 64.9792C96.3363 64.9792 99.9165 68.5594 99.9165 72.9758Z" fill="#EEEEEE"/>
<path d="M97.4932 72.9757C97.4932 76.0538 94.998 78.5491 91.9199 78.5491C88.8418 78.5491 86.3466 76.0538 86.3466 72.9757C86.3466 69.8977 88.8418 67.4024 91.9199 67.4024C94.998 67.4024 97.4932 69.8977 97.4932 72.9757Z" fill="white"/>
<path d="M45.3099 45.83L47.0909 32.6296H62.2517C63.962 32.6296 65.6164 33.2387 66.9184 34.3478C67.7439 35.051 68.3998 35.9317 68.8371 36.924L74.4729 49.7131L47.1116 48.0241C45.9878 47.9547 45.1593 46.9458 45.3099 45.83Z" fill="#FAFAFA"/>
<path d="M75.3043 32.5084H101.244C101.635 32.5084 102.009 32.6658 102.283 32.9451L118.253 49.2528C118.553 49.5596 118.336 50.0765 117.907 50.0765H83.2199C82.3772 50.0765 81.595 49.6387 81.1544 48.9204L73.292 36.1037C73.1121 35.8105 72.9985 35.4815 72.9591 35.1398C72.7974 33.7381 73.8933 32.5084 75.3043 32.5084Z" fill="#FAFAFA"/>
<path d="M65.5549 47.5509L65.6437 47.3527C66.2226 46.0612 67.5059 45.2302 68.9212 45.2302H72.3825C73.4356 45.2302 74.4486 45.6338 75.2131 46.3581C76.0335 47.1354 76.4983 48.2158 76.4983 49.346V52.006H68.4399C67.3 52.006 66.2484 51.3924 65.6875 50.4C65.1931 49.5253 65.1439 48.4678 65.5549 47.5509Z" fill="#616161"/>
<path d="M92.6988 76.9585C92.6988 77.9823 92.5257 78.996 92.1895 79.9418C91.8532 80.8876 91.3603 81.747 90.739 82.4709C90.1176 83.1948 89.38 83.7691 88.5681 84.1608C87.7563 84.5526 86.8862 84.7543 86.0075 84.7543C85.1287 84.7543 83.8255 84.7543 82.88 84.7543C81.9345 84.7543 81.789 83.2384 81.276 82.4709C80.6546 81.747 80.1617 80.8876 79.8254 79.9418C79.4892 78.996 79.3161 77.9823 79.3161 76.9585L86.0075 76.9585H92.6988Z" fill="#424242"/>
<path d="M89.0608 76.9585C89.0608 77.9823 88.8894 78.996 88.5564 79.9418C88.2234 80.8876 87.7353 81.747 87.12 82.4709C86.5047 83.1948 85.7742 83.7691 84.9702 84.1608C84.1663 84.5526 83.3046 84.7543 82.4344 84.7543C81.5642 84.7543 80.7026 84.5526 79.8986 84.1608C79.0947 83.7691 78.3642 83.1948 77.7489 82.4709C77.1336 81.747 76.6455 80.8876 76.3124 79.9418C75.9794 78.996 75.808 77.9823 75.808 76.9585L82.4344 76.9585H89.0608Z" fill="#212121"/>
<path d="M86.4622 76.9585C86.4622 77.5386 86.3631 78.1131 86.1705 78.6491C85.9779 79.185 85.6955 79.672 85.3396 80.0822C84.9837 80.4924 84.5612 80.8178 84.0961 81.0398C83.6311 81.2618 83.1327 81.3761 82.6293 81.3761C82.126 81.3761 81.6276 81.2618 81.1625 81.0398C80.6975 80.8178 80.275 80.4924 79.9191 80.0822C79.5631 79.672 79.2808 79.185 79.0882 78.6491C78.8956 78.1131 78.7964 77.5386 78.7964 76.9585L82.6293 76.9585H86.4622Z" fill="#FAFAFA"/>
<path d="M51.1215 66.844V76.9585H72.3V61.237H56.6624L53.3032 63.12C51.9558 63.8753 51.1215 65.2994 51.1215 66.844Z" fill="#757575"/>
<path d="M67.6225 67.585C67.6225 65.2273 69.5338 63.3159 71.8916 63.3159H72.4299V76.9585H67.6225V67.585Z" fill="#757575"/>
<path d="M57.7479 76.9585V64.3553H59.8267C59.8267 64.3553 62.1376 64.3553 63.5297 65.9794C64.7812 67.4396 64.8326 69.0572 64.8302 69.369C64.8299 69.4053 64.829 69.4407 64.829 69.477V76.9585H57.7479Z" fill="#757575"/>
<path d="M60.7362 76.9585H46.3167V74.5548C46.3167 74.5548 46.1831 71.8534 47.8174 69.0978C49.1835 66.7944 51.7322 64.3553 53.6244 64.3553H57.6044C60.7362 64.3553 60.7362 67.4736 60.7362 67.4736V76.9585Z" fill="#BDBDBD"/>
<rect x="46.3141" y="74.6198" width="14.4221" height="2.33873" fill="#757575"/>
<path d="M53.85 59.9656C53.85 59.3762 54.3278 58.8983 54.9173 58.8983H70.4531C71.0425 58.8983 71.5204 59.3762 71.5204 59.9656V62.0166H53.85V59.9656Z" fill="#424242"/>
<path d="M67.1515 76.9585C67.1515 77.9823 66.9798 78.996 66.6462 79.9418C66.3126 80.8876 65.8236 81.747 65.2071 82.4709C64.5907 83.1948 63.8589 83.7691 63.0534 84.1608C62.248 84.5526 61.3848 84.7543 60.513 84.7543C59.6412 84.7543 58.3482 84.7543 57.4102 84.7543C56.4721 84.7543 56.3278 83.2384 55.8188 82.4709C55.2023 81.747 54.7133 80.8876 54.3797 79.9418C54.0461 78.996 53.8744 77.9823 53.8744 76.9585L60.513 76.9585H67.1515Z" fill="#424242"/>
<path d="M63.6191 76.9585C63.6191 77.9823 63.4474 78.996 63.1137 79.9418C62.7801 80.8876 62.2911 81.747 61.6747 82.4709C61.0582 83.1948 60.3264 83.7691 59.521 84.1608C58.7155 84.5526 57.8523 84.7543 56.9805 84.7543C56.1087 84.7543 55.2455 84.5526 54.44 84.1608C53.6346 83.7691 52.9028 83.1948 52.2863 82.4709C51.6699 81.747 51.1809 80.8876 50.8473 79.9418C50.5136 78.996 50.3419 77.9823 50.3419 76.9585L56.9805 76.9585H63.6191Z" fill="#212121"/>
<path d="M60.8175 76.9585C60.8175 77.5344 60.7198 78.1046 60.5301 78.6366C60.3403 79.1686 60.0621 79.6521 59.7115 80.0593C59.3609 80.4664 58.9446 80.7895 58.4865 81.0098C58.0283 81.2302 57.5373 81.3436 57.0414 81.3436C56.5455 81.3436 56.0545 81.2302 55.5964 81.0098C55.1382 80.7895 54.722 80.4664 54.3713 80.0593C54.0207 79.6521 53.7426 79.1686 53.5528 78.6366C53.363 78.1046 53.2654 77.5344 53.2654 76.9585L57.0414 76.9585H60.8175Z" fill="#757575"/>
<path d="M63.2698 77.3483V76.9585H70.6758L71.4786 75.4978C71.8713 74.7835 72.0512 73.9718 71.9972 73.1585L70.7873 54.9444C70.7031 53.6766 71.1879 52.4372 72.11 51.5631L72.5943 51.104C73.3874 50.3523 74.4385 49.9332 75.5313 49.9332H81.1619C82.4283 49.9332 83.6294 50.4955 84.4405 51.4681L85.3681 52.5804C85.9543 53.2833 86.2991 54.156 86.3516 55.0698L87.6315 77.3483H63.2698Z" fill="#757575"/>
<path fill-rule="evenodd" clip-rule="evenodd" d="M72.329 51.2139C73.2967 50.3077 74.574 49.8033 75.9012 49.8033H80.8494C82.4399 49.8033 83.9493 50.5038 84.9738 51.7176L85.4217 52.2481C86.1713 53.1363 86.6128 54.2425 86.6802 55.4017L87.9564 77.3483H62.3487V76.9594H70.294L71.1532 75.5306C71.6784 74.6575 71.9232 73.645 71.8549 72.629L70.6938 55.3585C70.5892 53.8024 71.1893 52.2814 72.329 51.2139ZM70.7485 76.9594H87.5433L86.2911 55.4242C86.2286 54.3488 85.819 53.3226 85.1235 52.4986L84.6757 51.9681C83.7252 50.8421 82.3249 50.1921 80.8494 50.1921H75.9012C74.6731 50.1921 73.4912 50.6589 72.5958 51.4975C71.5412 52.4852 70.9859 53.8926 71.0827 55.3325L72.2438 72.603C72.3174 73.6981 72.0535 74.7895 71.4875 75.7307L70.7485 76.9594Z" fill="#BDBDBD"/>
<rect x="72.4298" y="53.6272" width="2.2088" height="0.777741" rx="0.38887" fill="#757575"/>
<rect x="81.5249" y="53.6272" width="2.2088" height="0.777741" rx="0.38887" fill="#757575"/>
<path d="M76.2783 49.8033H75.1584L77.0689 70.7219H79.8358V64.4442C79.8358 63.9006 79.6284 63.3774 79.2558 62.9815L77.8955 61.5358C77.5731 61.1931 77.3729 60.7535 77.3261 60.2853L76.2783 49.8033Z" fill="#616161"/>
<path d="M80.2256 49.8033H76.2801L77.3602 60.2476C77.4069 60.6991 77.5964 61.124 77.901 61.4606L79.2837 62.988C79.639 63.3805 79.8358 63.8911 79.8358 64.4205V70.7219H83.8636L83.6315 64.2436C83.6136 63.7428 83.42 63.2643 83.0848 62.8918L81.7986 61.4631C81.4942 61.125 81.3058 60.6984 81.2609 60.2456L80.2256 49.8033Z" fill="#BDBDBD"/>
<rect x="77.627" y="53.3114" width="2.2088" height="0.779575" rx="0.389788" fill="#BDBDBD"/>
<rect x="77.757" y="55.0005" width="2.2088" height="0.779575" rx="0.389788" fill="#BDBDBD"/>
<path d="M83.8636 70.7219L77.1723 71.1766L77.0748 70.1697L77.0423 69.6175L78.5296 68.649C79.3879 68.0901 80.3677 67.7453 81.3867 67.6434L83.7337 67.4087L83.7643 68.1883L83.8636 70.7219Z" fill="#616161"/>
<path d="M80.9402 66.2055V65.07H83.6687L83.7337 67.1489H81.8836C81.6525 67.1489 81.4295 67.0641 81.2568 66.9106C81.0554 66.7316 80.9402 66.475 80.9402 66.2055Z" fill="#757575"/>
<rect x="80.8753" y="63.9656" width="4.02781" height="2.07887" rx="1.03943" fill="#E0E0E0"/>
<rect x="82.3045" y="64.3554" width="1.94894" height="0.779575" rx="0.389788" fill="#FAFAFA"/>
<path d="M89.1907 77.4133H75.2233C75.2233 77.4133 75.2233 68.4481 82.1096 68.5781C88.9958 68.708 89.1907 77.4133 89.1907 77.4133Z" fill="#757575"/>
<path d="M93.3484 77.4132H89.1907C89.1907 77.4132 88.9958 74.6198 88.1513 72.9307C86.6537 69.2127 83.7196 68.6553 82.5789 68.583C82.1681 68.5781 82.1096 68.5781 82.1096 68.5781C82.1096 68.5781 82.2845 68.5644 82.5789 68.583C83.1353 68.5898 84.338 68.6056 86.9169 68.643C93.2185 69.4226 93.3484 77.4132 93.3484 77.4132Z" fill="#BDBDBD"/>
<path d="M80.1607 42.2674L80.2257 48.3741H75.1584C75.1218 47.8975 74.7244 47.5295 74.2464 47.5295H72.4878C71.8907 47.5295 71.3406 47.2058 71.0506 46.6839L70.9947 46.5833C70.7206 46.0899 70.755 45.4828 71.0831 45.0235C71.3575 44.6393 71.8006 44.4112 72.2728 44.4112H74.7037L75.5247 43.5646C76.3287 42.7354 77.4344 42.2674 78.5894 42.2674H80.1607Z" fill="#757575"/>
<rect x="75.1584" y="48.3741" width="5.06724" height="1.42922" fill="#757575"/>
<path d="M84.4134 45.1709L84.354 45.0817C84.1288 44.744 83.7498 44.5411 83.344 44.5411C83.512 45.4235 83.3702 46.3368 82.9424 47.1265L82.7593 47.4645H83.1286C83.6642 47.4645 84.1596 47.1801 84.4294 46.7174L84.4583 46.6679C84.7305 46.2013 84.7131 45.6204 84.4134 45.1709Z" fill="#757575"/>
<path d="M83.9597 45.5722L83.9225 45.5201C83.804 45.3542 83.6128 45.2558 83.4089 45.2558C83.4089 45.7721 83.3257 46.2851 83.1624 46.7749L83.149 46.8149H83.2893C83.5658 46.8149 83.8227 46.6725 83.9693 46.438L83.9856 46.4118C84.1477 46.1525 84.1375 45.821 83.9597 45.5722Z" fill="#424242"/>
<path d="M85.7505 45.4506H84.5783L84.5878 45.4935C84.6664 45.8471 84.6405 46.2159 84.5133 46.555H85.7833C85.964 46.555 86.1326 46.4648 86.2328 46.3145C86.3682 46.1114 86.3506 45.8428 86.1899 45.6591L86.1767 45.644C86.0692 45.5211 85.9138 45.4506 85.7505 45.4506Z" fill="#424242"/>
<path d="M79.8106 42.2674H80.9393C80.5571 42.2674 80.1782 42.3658 79.8869 42.6132C79.318 43.0961 78.4338 44.0783 78.4338 45.5184C78.4338 46.6523 79.1014 47.5143 79.6216 48.0139C79.989 48.3667 80.4959 48.504 81.0052 48.504H79.6404C78.1195 48.504 76.834 47.3775 76.6342 45.8699C76.6032 45.6364 76.5998 45.3979 76.6236 45.1635C76.7894 43.5288 78.1675 42.2674 79.8106 42.2674Z" fill="#E0E0E0"/>
<ellipse cx="80.9402" cy="45.3857" rx="2.53362" ry="3.1183" fill="#BDBDBD"/>
<ellipse cx="81.0702" cy="45.3857" rx="2.0139" ry="2.46865" fill="white"/>
<ellipse cx="71.6503" cy="45.9054" rx="1.55915" ry="1.55915" fill="#757575"/>
<ellipse cx="71.5203" cy="45.9054" rx="1.03943" ry="1.03943" fill="#424242"/>
<rect x="67.4926" y="45.3857" width="4.41759" height="1.16936" rx="0.584681" fill="#424242"/>
</g>
</g>
<g clip-path="url(#clip2_8270_71851)">
<circle cx="154.709" cy="85.2911" r="13.2911" fill="#EF5350"/>
<g clip-path="url(#clip3_8270_71851)">
<g clip-path="url(#clip4_8270_71851)">
<path fill-rule="evenodd" clip-rule="evenodd" d="M150.14 80.3587C150.501 79.9982 151.144 80.0567 151.576 80.4892L159.408 88.3211C159.841 88.7536 159.899 89.3965 159.539 89.7569C159.178 90.1174 158.535 90.0589 158.103 89.6264L150.271 81.7945C149.838 81.362 149.78 80.7191 150.14 80.3587Z" fill="white"/>
<path fill-rule="evenodd" clip-rule="evenodd" d="M159.539 80.3587C159.899 80.7191 159.841 81.362 159.408 81.7945L151.576 89.6264C151.144 90.0589 150.501 90.1174 150.14 89.7569C149.78 89.3965 149.838 88.7536 150.271 88.3211L158.103 80.4892C158.535 80.0567 159.178 79.9982 159.539 80.3587Z" fill="white"/>
</g>
</g>
</g>
<path d="M34.4766 113.047V123H33.1777V113.047H34.4766ZM37.6758 113.047V114.127H29.9854V113.047H37.6758ZM40.335 115.604V123H39.0635V115.604H40.335ZM38.9678 113.642C38.9678 113.437 39.0293 113.263 39.1523 113.122C39.2799 112.981 39.4668 112.91 39.7129 112.91C39.9544 112.91 40.139 112.981 40.2666 113.122C40.3988 113.263 40.4648 113.437 40.4648 113.642C40.4648 113.838 40.3988 114.006 40.2666 114.147C40.139 114.284 39.9544 114.353 39.7129 114.353C39.4668 114.353 39.2799 114.284 39.1523 114.147C39.0293 114.006 38.9678 113.838 38.9678 113.642ZM47.0273 121.564V112.5H48.2988V123H47.1367L47.0273 121.564ZM42.0508 119.384V119.24C42.0508 118.675 42.1191 118.162 42.2559 117.702C42.3971 117.237 42.5954 116.839 42.8506 116.506C43.1104 116.173 43.418 115.918 43.7734 115.74C44.1335 115.558 44.5345 115.467 44.9766 115.467C45.4414 115.467 45.847 115.549 46.1934 115.713C46.5443 115.872 46.8405 116.107 47.082 116.417C47.3281 116.722 47.5218 117.091 47.6631 117.524C47.8044 117.957 47.9023 118.447 47.957 118.994V119.623C47.9069 120.165 47.8089 120.653 47.6631 121.086C47.5218 121.519 47.3281 121.888 47.082 122.193C46.8405 122.499 46.5443 122.733 46.1934 122.897C45.8424 123.057 45.4323 123.137 44.9629 123.137C44.5299 123.137 44.1335 123.043 43.7734 122.856C43.418 122.67 43.1104 122.408 42.8506 122.07C42.5954 121.733 42.3971 121.337 42.2559 120.881C42.1191 120.421 42.0508 119.922 42.0508 119.384ZM43.3223 119.24V119.384C43.3223 119.753 43.3587 120.099 43.4316 120.423C43.5091 120.746 43.6276 121.031 43.7871 121.277C43.9466 121.523 44.1494 121.717 44.3955 121.858C44.6416 121.995 44.9355 122.063 45.2773 122.063C45.6966 122.063 46.0407 121.975 46.3096 121.797C46.583 121.619 46.8018 121.384 46.9658 121.093C47.1299 120.801 47.2575 120.484 47.3486 120.143V118.495C47.2939 118.244 47.2142 118.003 47.1094 117.771C47.0091 117.534 46.877 117.324 46.7129 117.142C46.5534 116.955 46.3551 116.807 46.1182 116.697C45.8857 116.588 45.61 116.533 45.291 116.533C44.9447 116.533 44.6462 116.606 44.3955 116.752C44.1494 116.893 43.9466 117.089 43.7871 117.34C43.6276 117.586 43.5091 117.873 43.4316 118.201C43.3587 118.525 43.3223 118.871 43.3223 119.24ZM54.6289 121.735V117.928C54.6289 117.636 54.5697 117.383 54.4512 117.169C54.3372 116.95 54.1641 116.782 53.9316 116.663C53.6992 116.545 53.4121 116.485 53.0703 116.485C52.7513 116.485 52.471 116.54 52.2295 116.649C51.9925 116.759 51.8057 116.902 51.6689 117.08C51.5368 117.258 51.4707 117.449 51.4707 117.654H50.2061C50.2061 117.39 50.2744 117.128 50.4111 116.868C50.5479 116.608 50.7438 116.374 50.999 116.164C51.2588 115.95 51.5687 115.781 51.9287 115.658C52.2933 115.531 52.6989 115.467 53.1455 115.467C53.6833 115.467 54.1572 115.558 54.5674 115.74C54.9821 115.923 55.3057 116.198 55.5381 116.567C55.7751 116.932 55.8936 117.39 55.8936 117.941V121.387C55.8936 121.633 55.9141 121.895 55.9551 122.173C56.0007 122.451 56.0667 122.69 56.1533 122.891V123H54.834C54.7702 122.854 54.7201 122.66 54.6836 122.419C54.6471 122.173 54.6289 121.945 54.6289 121.735ZM54.8477 118.516L54.8613 119.404H53.583C53.223 119.404 52.9017 119.434 52.6191 119.493C52.3366 119.548 52.0996 119.632 51.9082 119.746C51.7168 119.86 51.571 120.004 51.4707 120.177C51.3704 120.345 51.3203 120.544 51.3203 120.771C51.3203 121.004 51.3727 121.216 51.4775 121.407C51.5824 121.599 51.7396 121.751 51.9492 121.865C52.1634 121.975 52.4255 122.029 52.7354 122.029C53.1227 122.029 53.4645 121.947 53.7607 121.783C54.057 121.619 54.2917 121.419 54.4648 121.182C54.6426 120.945 54.7383 120.715 54.752 120.491L55.292 121.1C55.2601 121.291 55.1735 121.503 55.0322 121.735C54.891 121.968 54.7018 122.191 54.4648 122.405C54.2324 122.615 53.9544 122.79 53.6309 122.932C53.3118 123.068 52.9518 123.137 52.5508 123.137C52.0495 123.137 51.6097 123.039 51.2314 122.843C50.8577 122.647 50.5661 122.385 50.3564 122.057C50.1514 121.724 50.0488 121.353 50.0488 120.942C50.0488 120.546 50.1263 120.197 50.2812 119.896C50.4362 119.591 50.6595 119.338 50.9512 119.138C51.2428 118.933 51.5938 118.778 52.0039 118.673C52.4141 118.568 52.8721 118.516 53.3779 118.516H54.8477ZM59.1543 112.5V123H57.8828V112.5H59.1543ZM63.6729 115.604L60.4463 119.056L58.6416 120.929L58.5391 119.582L59.8311 118.037L62.1279 115.604H63.6729ZM62.5176 123L59.8789 119.473L60.5352 118.345L64.0078 123H62.5176ZM72.8125 121.735V117.928C72.8125 117.636 72.7533 117.383 72.6348 117.169C72.5208 116.95 72.3477 116.782 72.1152 116.663C71.8828 116.545 71.5957 116.485 71.2539 116.485C70.9349 116.485 70.6546 116.54 70.4131 116.649C70.1761 116.759 69.9893 116.902 69.8525 117.08C69.7204 117.258 69.6543 117.449 69.6543 117.654H68.3896C68.3896 117.39 68.458 117.128 68.5947 116.868C68.7314 116.608 68.9274 116.374 69.1826 116.164C69.4424 115.95 69.7523 115.781 70.1123 115.658C70.4769 115.531 70.8825 115.467 71.3291 115.467C71.8669 115.467 72.3408 115.558 72.751 115.74C73.1657 115.923 73.4893 116.198 73.7217 116.567C73.9587 116.932 74.0771 117.39 74.0771 117.941V121.387C74.0771 121.633 74.0977 121.895 74.1387 122.173C74.1842 122.451 74.2503 122.69 74.3369 122.891V123H73.0176C72.9538 122.854 72.9036 122.66 72.8672 122.419C72.8307 122.173 72.8125 121.945 72.8125 121.735ZM73.0312 118.516L73.0449 119.404H71.7666C71.4066 119.404 71.0853 119.434 70.8027 119.493C70.5202 119.548 70.2832 119.632 70.0918 119.746C69.9004 119.86 69.7546 120.004 69.6543 120.177C69.554 120.345 69.5039 120.544 69.5039 120.771C69.5039 121.004 69.5563 121.216 69.6611 121.407C69.766 121.599 69.9232 121.751 70.1328 121.865C70.347 121.975 70.609 122.029 70.9189 122.029C71.3063 122.029 71.6481 121.947 71.9443 121.783C72.2406 121.619 72.4753 121.419 72.6484 121.182C72.8262 120.945 72.9219 120.715 72.9355 120.491L73.4756 121.1C73.4437 121.291 73.3571 121.503 73.2158 121.735C73.0745 121.968 72.8854 122.191 72.6484 122.405C72.416 122.615 72.138 122.79 71.8145 122.932C71.4954 123.068 71.1354 123.137 70.7344 123.137C70.2331 123.137 69.7933 123.039 69.415 122.843C69.0413 122.647 68.7497 122.385 68.54 122.057C68.335 121.724 68.2324 121.353 68.2324 120.942C68.2324 120.546 68.3099 120.197 68.4648 119.896C68.6198 119.591 68.8431 119.338 69.1348 119.138C69.4264 118.933 69.7773 118.778 70.1875 118.673C70.5977 118.568 71.0557 118.516 71.5615 118.516H73.0312ZM80.7285 121.564V112.5H82V123H80.8379L80.7285 121.564ZM75.752 119.384V119.24C75.752 118.675 75.8203 118.162 75.957 117.702C76.0983 117.237 76.2965 116.839 76.5518 116.506C76.8115 116.173 77.1191 115.918 77.4746 115.74C77.8346 115.558 78.2357 115.467 78.6777 115.467C79.1426 115.467 79.5482 115.549 79.8945 115.713C80.2454 115.872 80.5417 116.107 80.7832 116.417C81.0293 116.722 81.223 117.091 81.3643 117.524C81.5055 117.957 81.6035 118.447 81.6582 118.994V119.623C81.6081 120.165 81.5101 120.653 81.3643 121.086C81.223 121.519 81.0293 121.888 80.7832 122.193C80.5417 122.499 80.2454 122.733 79.8945 122.897C79.5436 123.057 79.1335 123.137 78.6641 123.137C78.2311 123.137 77.8346 123.043 77.4746 122.856C77.1191 122.67 76.8115 122.408 76.5518 122.07C76.2965 121.733 76.0983 121.337 75.957 120.881C75.8203 120.421 75.752 119.922 75.752 119.384ZM77.0234 119.24V119.384C77.0234 119.753 77.0599 120.099 77.1328 120.423C77.2103 120.746 77.3288 121.031 77.4883 121.277C77.6478 121.523 77.8506 121.717 78.0967 121.858C78.3428 121.995 78.6367 122.063 78.9785 122.063C79.3978 122.063 79.7419 121.975 80.0107 121.797C80.2842 121.619 80.5029 121.384 80.667 121.093C80.8311 120.801 80.9587 120.484 81.0498 120.143V118.495C80.9951 118.244 80.9154 118.003 80.8105 117.771C80.7103 117.534 80.5781 117.324 80.4141 117.142C80.2546 116.955 80.0563 116.807 79.8193 116.697C79.5869 116.588 79.3112 116.533 78.9922 116.533C78.6458 116.533 78.3473 116.606 78.0967 116.752C77.8506 116.893 77.6478 117.089 77.4883 117.34C77.3288 117.586 77.2103 117.873 77.1328 118.201C77.0599 118.525 77.0234 118.871 77.0234 119.24ZM88.3301 121.735V117.928C88.3301 117.636 88.2708 117.383 88.1523 117.169C88.0384 116.95 87.8652 116.782 87.6328 116.663C87.4004 116.545 87.1133 116.485 86.7715 116.485C86.4525 116.485 86.1722 116.54 85.9307 116.649C85.6937 116.759 85.5068 116.902 85.3701 117.08C85.238 117.258 85.1719 117.449 85.1719 117.654H83.9072C83.9072 117.39 83.9756 117.128 84.1123 116.868C84.249 116.608 84.445 116.374 84.7002 116.164C84.96 115.95 85.2699 115.781 85.6299 115.658C85.9945 115.531 86.4001 115.467 86.8467 115.467C87.3844 115.467 87.8584 115.558 88.2686 115.74C88.6833 115.923 89.0068 116.198 89.2393 116.567C89.4762 116.932 89.5947 117.39 89.5947 117.941V121.387C89.5947 121.633 89.6152 121.895 89.6562 122.173C89.7018 122.451 89.7679 122.69 89.8545 122.891V123H88.5352C88.4714 122.854 88.4212 122.66 88.3848 122.419C88.3483 122.173 88.3301 121.945 88.3301 121.735ZM88.5488 118.516L88.5625 119.404H87.2842C86.9242 119.404 86.6029 119.434 86.3203 119.493C86.0378 119.548 85.8008 119.632 85.6094 119.746C85.418 119.86 85.2721 120.004 85.1719 120.177C85.0716 120.345 85.0215 120.544 85.0215 120.771C85.0215 121.004 85.0739 121.216 85.1787 121.407C85.2835 121.599 85.4408 121.751 85.6504 121.865C85.8646 121.975 86.1266 122.029 86.4365 122.029C86.8239 122.029 87.1657 121.947 87.4619 121.783C87.7581 121.619 87.9928 121.419 88.166 121.182C88.3438 120.945 88.4395 120.715 88.4531 120.491L88.9932 121.1C88.9613 121.291 88.8747 121.503 88.7334 121.735C88.5921 121.968 88.403 122.191 88.166 122.405C87.9336 122.615 87.6556 122.79 87.332 122.932C87.013 123.068 86.653 123.137 86.252 123.137C85.7507 123.137 85.3109 123.039 84.9326 122.843C84.5589 122.647 84.2673 122.385 84.0576 122.057C83.8525 121.724 83.75 121.353 83.75 120.942C83.75 120.546 83.8275 120.197 83.9824 119.896C84.1374 119.591 84.3607 119.338 84.6523 119.138C84.944 118.933 85.2949 118.778 85.7051 118.673C86.1152 118.568 86.5732 118.516 87.0791 118.516H88.5488ZM99.7188 121.564V112.5H100.99V123H99.8281L99.7188 121.564ZM94.7422 119.384V119.24C94.7422 118.675 94.8105 118.162 94.9473 117.702C95.0885 117.237 95.2868 116.839 95.542 116.506C95.8018 116.173 96.1094 115.918 96.4648 115.74C96.8249 115.558 97.2259 115.467 97.668 115.467C98.1328 115.467 98.5384 115.549 98.8848 115.713C99.2357 115.872 99.5319 116.107 99.7734 116.417C100.02 116.722 100.213 117.091 100.354 117.524C100.496 117.957 100.594 118.447 100.648 118.994V119.623C100.598 120.165 100.5 120.653 100.354 121.086C100.213 121.519 100.02 121.888 99.7734 122.193C99.5319 122.499 99.2357 122.733 98.8848 122.897C98.5339 123.057 98.1237 123.137 97.6543 123.137C97.2214 123.137 96.8249 123.043 96.4648 122.856C96.1094 122.67 95.8018 122.408 95.542 122.07C95.2868 121.733 95.0885 121.337 94.9473 120.881C94.8105 120.421 94.7422 119.922 94.7422 119.384ZM96.0137 119.24V119.384C96.0137 119.753 96.0501 120.099 96.123 120.423C96.2005 120.746 96.319 121.031 96.4785 121.277C96.638 121.523 96.8408 121.717 97.0869 121.858C97.333 121.995 97.627 122.063 97.9688 122.063C98.388 122.063 98.7321 121.975 99.001 121.797C99.2744 121.619 99.4932 121.384 99.6572 121.093C99.8213 120.801 99.9489 120.484 100.04 120.143V118.495C99.9854 118.244 99.9056 118.003 99.8008 117.771C99.7005 117.534 99.5684 117.324 99.4043 117.142C99.2448 116.955 99.0465 116.807 98.8096 116.697C98.5771 116.588 98.3014 116.533 97.9824 116.533C97.6361 116.533 97.3376 116.606 97.0869 116.752C96.8408 116.893 96.638 117.089 96.4785 117.34C96.319 117.586 96.2005 117.873 96.123 118.201C96.0501 118.525 96.0137 118.871 96.0137 119.24ZM107.32 121.735V117.928C107.32 117.636 107.261 117.383 107.143 117.169C107.029 116.95 106.855 116.782 106.623 116.663C106.391 116.545 106.104 116.485 105.762 116.485C105.443 116.485 105.162 116.54 104.921 116.649C104.684 116.759 104.497 116.902 104.36 117.08C104.228 117.258 104.162 117.449 104.162 117.654H102.897C102.897 117.39 102.966 117.128 103.103 116.868C103.239 116.608 103.435 116.374 103.69 116.164C103.95 115.95 104.26 115.781 104.62 115.658C104.985 115.531 105.39 115.467 105.837 115.467C106.375 115.467 106.849 115.558 107.259 115.74C107.674 115.923 107.997 116.198 108.229 116.567C108.466 116.932 108.585 117.39 108.585 117.941V121.387C108.585 121.633 108.605 121.895 108.646 122.173C108.692 122.451 108.758 122.69 108.845 122.891V123H107.525C107.462 122.854 107.411 122.66 107.375 122.419C107.339 122.173 107.32 121.945 107.32 121.735ZM107.539 118.516L107.553 119.404H106.274C105.914 119.404 105.593 119.434 105.311 119.493C105.028 119.548 104.791 119.632 104.6 119.746C104.408 119.86 104.262 120.004 104.162 120.177C104.062 120.345 104.012 120.544 104.012 120.771C104.012 121.004 104.064 121.216 104.169 121.407C104.274 121.599 104.431 121.751 104.641 121.865C104.855 121.975 105.117 122.029 105.427 122.029C105.814 122.029 106.156 121.947 106.452 121.783C106.748 121.619 106.983 121.419 107.156 121.182C107.334 120.945 107.43 120.715 107.443 120.491L107.983 121.1C107.951 121.291 107.865 121.503 107.724 121.735C107.582 121.968 107.393 122.191 107.156 122.405C106.924 122.615 106.646 122.79 106.322 122.932C106.003 123.068 105.643 123.137 105.242 123.137C104.741 123.137 104.301 123.039 103.923 122.843C103.549 122.647 103.257 122.385 103.048 122.057C102.843 121.724 102.74 121.353 102.74 120.942C102.74 120.546 102.818 120.197 102.973 119.896C103.128 119.591 103.351 119.338 103.643 119.138C103.934 118.933 104.285 118.778 104.695 118.673C105.105 118.568 105.563 118.516 106.069 118.516H107.539ZM113.671 115.604V116.574H109.672V115.604H113.671ZM111.025 113.806H112.29V121.168C112.29 121.419 112.329 121.608 112.406 121.735C112.484 121.863 112.584 121.947 112.707 121.988C112.83 122.029 112.962 122.05 113.104 122.05C113.208 122.05 113.318 122.041 113.432 122.022C113.55 122 113.639 121.981 113.698 121.968L113.705 123C113.605 123.032 113.473 123.062 113.309 123.089C113.149 123.121 112.955 123.137 112.728 123.137C112.418 123.137 112.133 123.075 111.873 122.952C111.613 122.829 111.406 122.624 111.251 122.337C111.101 122.045 111.025 121.653 111.025 121.161V113.806ZM119.516 121.735V117.928C119.516 117.636 119.456 117.383 119.338 117.169C119.224 116.95 119.051 116.782 118.818 116.663C118.586 116.545 118.299 116.485 117.957 116.485C117.638 116.485 117.358 116.54 117.116 116.649C116.879 116.759 116.692 116.902 116.556 117.08C116.424 117.258 116.357 117.449 116.357 117.654H115.093C115.093 117.39 115.161 117.128 115.298 116.868C115.435 116.608 115.631 116.374 115.886 116.164C116.146 115.95 116.455 115.781 116.815 115.658C117.18 115.531 117.586 115.467 118.032 115.467C118.57 115.467 119.044 115.558 119.454 115.74C119.869 115.923 120.192 116.198 120.425 116.567C120.662 116.932 120.78 117.39 120.78 117.941V121.387C120.78 121.633 120.801 121.895 120.842 122.173C120.887 122.451 120.953 122.69 121.04 122.891V123H119.721C119.657 122.854 119.607 122.66 119.57 122.419C119.534 122.173 119.516 121.945 119.516 121.735ZM119.734 118.516L119.748 119.404H118.47C118.11 119.404 117.788 119.434 117.506 119.493C117.223 119.548 116.986 119.632 116.795 119.746C116.604 119.86 116.458 120.004 116.357 120.177C116.257 120.345 116.207 120.544 116.207 120.771C116.207 121.004 116.259 121.216 116.364 121.407C116.469 121.599 116.626 121.751 116.836 121.865C117.05 121.975 117.312 122.029 117.622 122.029C118.009 122.029 118.351 121.947 118.647 121.783C118.944 121.619 119.178 121.419 119.352 121.182C119.529 120.945 119.625 120.715 119.639 120.491L120.179 121.1C120.147 121.291 120.06 121.503 119.919 121.735C119.778 121.968 119.589 122.191 119.352 122.405C119.119 122.615 118.841 122.79 118.518 122.932C118.199 123.068 117.839 123.137 117.438 123.137C116.936 123.137 116.496 123.039 116.118 122.843C115.744 122.647 115.453 122.385 115.243 122.057C115.038 121.724 114.936 121.353 114.936 120.942C114.936 120.546 115.013 120.197 115.168 119.896C115.323 119.591 115.546 119.338 115.838 119.138C116.13 118.933 116.48 118.778 116.891 118.673C117.301 118.568 117.759 118.516 118.265 118.516H119.734ZM127.514 112.5V123H126.242V112.5H127.514ZM132.032 115.604L128.806 119.056L127.001 120.929L126.898 119.582L128.19 118.037L130.487 115.604H132.032ZM130.877 123L128.238 119.473L128.895 118.345L132.367 123H130.877ZM136.271 123.137C135.756 123.137 135.288 123.05 134.869 122.877C134.454 122.699 134.097 122.451 133.796 122.132C133.5 121.813 133.272 121.435 133.112 120.997C132.953 120.56 132.873 120.081 132.873 119.562V119.274C132.873 118.673 132.962 118.137 133.14 117.668C133.317 117.194 133.559 116.793 133.864 116.465C134.17 116.137 134.516 115.888 134.903 115.72C135.291 115.551 135.692 115.467 136.106 115.467C136.635 115.467 137.091 115.558 137.474 115.74C137.861 115.923 138.178 116.178 138.424 116.506C138.67 116.829 138.852 117.212 138.971 117.654C139.089 118.092 139.148 118.57 139.148 119.09V119.657H133.625V118.625H137.884V118.529C137.866 118.201 137.797 117.882 137.679 117.572C137.565 117.262 137.382 117.007 137.132 116.807C136.881 116.606 136.539 116.506 136.106 116.506C135.819 116.506 135.555 116.567 135.313 116.69C135.072 116.809 134.865 116.987 134.691 117.224C134.518 117.461 134.384 117.75 134.288 118.092C134.192 118.434 134.145 118.828 134.145 119.274V119.562C134.145 119.912 134.192 120.243 134.288 120.553C134.388 120.858 134.532 121.127 134.719 121.359C134.91 121.592 135.14 121.774 135.409 121.906C135.683 122.038 135.993 122.104 136.339 122.104C136.785 122.104 137.164 122.013 137.474 121.831C137.784 121.649 138.055 121.405 138.287 121.1L139.053 121.708C138.893 121.95 138.69 122.18 138.444 122.398C138.198 122.617 137.895 122.795 137.535 122.932C137.18 123.068 136.758 123.137 136.271 123.137ZM141.89 117.183V123H140.625V115.604H141.821L141.89 117.183ZM141.589 119.021L141.062 119.001C141.067 118.495 141.142 118.028 141.288 117.6C141.434 117.167 141.639 116.791 141.903 116.472C142.168 116.153 142.482 115.907 142.847 115.733C143.216 115.556 143.624 115.467 144.07 115.467C144.435 115.467 144.763 115.517 145.055 115.617C145.346 115.713 145.595 115.868 145.8 116.082C146.009 116.296 146.169 116.574 146.278 116.916C146.388 117.253 146.442 117.666 146.442 118.153V123H145.171V118.14C145.171 117.752 145.114 117.442 145 117.21C144.886 116.973 144.72 116.802 144.501 116.697C144.282 116.588 144.013 116.533 143.694 116.533C143.38 116.533 143.093 116.599 142.833 116.731C142.578 116.864 142.357 117.046 142.17 117.278C141.988 117.511 141.844 117.777 141.739 118.078C141.639 118.374 141.589 118.689 141.589 119.021ZM153.025 121.564V112.5H154.297V123H153.135L153.025 121.564ZM148.049 119.384V119.24C148.049 118.675 148.117 118.162 148.254 117.702C148.395 117.237 148.593 116.839 148.849 116.506C149.108 116.173 149.416 115.918 149.771 115.74C150.132 115.558 150.533 115.467 150.975 115.467C151.439 115.467 151.845 115.549 152.191 115.713C152.542 115.872 152.839 116.107 153.08 116.417C153.326 116.722 153.52 117.091 153.661 117.524C153.802 117.957 153.9 118.447 153.955 118.994V119.623C153.905 120.165 153.807 120.653 153.661 121.086C153.52 121.519 153.326 121.888 153.08 122.193C152.839 122.499 152.542 122.733 152.191 122.897C151.84 123.057 151.43 123.137 150.961 123.137C150.528 123.137 150.132 123.043 149.771 122.856C149.416 122.67 149.108 122.408 148.849 122.07C148.593 121.733 148.395 121.337 148.254 120.881C148.117 120.421 148.049 119.922 148.049 119.384ZM149.32 119.24V119.384C149.32 119.753 149.357 120.099 149.43 120.423C149.507 120.746 149.626 121.031 149.785 121.277C149.945 121.523 150.147 121.717 150.394 121.858C150.64 121.995 150.934 122.063 151.275 122.063C151.695 122.063 152.039 121.975 152.308 121.797C152.581 121.619 152.8 121.384 152.964 121.093C153.128 120.801 153.256 120.484 153.347 120.143V118.495C153.292 118.244 153.212 118.003 153.107 117.771C153.007 117.534 152.875 117.324 152.711 117.142C152.551 116.955 152.353 116.807 152.116 116.697C151.884 116.588 151.608 116.533 151.289 116.533C150.943 116.533 150.644 116.606 150.394 116.752C150.147 116.893 149.945 117.089 149.785 117.34C149.626 117.586 149.507 117.873 149.43 118.201C149.357 118.525 149.32 118.871 149.32 119.24ZM160.627 121.735V117.928C160.627 117.636 160.568 117.383 160.449 117.169C160.335 116.95 160.162 116.782 159.93 116.663C159.697 116.545 159.41 116.485 159.068 116.485C158.749 116.485 158.469 116.54 158.228 116.649C157.991 116.759 157.804 116.902 157.667 117.08C157.535 117.258 157.469 117.449 157.469 117.654H156.204C156.204 117.39 156.272 117.128 156.409 116.868C156.546 116.608 156.742 116.374 156.997 116.164C157.257 115.95 157.567 115.781 157.927 115.658C158.291 115.531 158.697 115.467 159.144 115.467C159.681 115.467 160.155 115.558 160.565 115.74C160.98 115.923 161.304 116.198 161.536 116.567C161.773 116.932 161.892 117.39 161.892 117.941V121.387C161.892 121.633 161.912 121.895 161.953 122.173C161.999 122.451 162.065 122.69 162.151 122.891V123H160.832C160.768 122.854 160.718 122.66 160.682 122.419C160.645 122.173 160.627 121.945 160.627 121.735ZM160.846 118.516L160.859 119.404H159.581C159.221 119.404 158.9 119.434 158.617 119.493C158.335 119.548 158.098 119.632 157.906 119.746C157.715 119.86 157.569 120.004 157.469 120.177C157.368 120.345 157.318 120.544 157.318 120.771C157.318 121.004 157.371 121.216 157.476 121.407C157.58 121.599 157.738 121.751 157.947 121.865C158.161 121.975 158.424 122.029 158.733 122.029C159.121 122.029 159.463 121.947 159.759 121.783C160.055 121.619 160.29 121.419 160.463 121.182C160.641 120.945 160.736 120.715 160.75 120.491L161.29 121.1C161.258 121.291 161.172 121.503 161.03 121.735C160.889 121.968 160.7 122.191 160.463 122.405C160.23 122.615 159.952 122.79 159.629 122.932C159.31 123.068 158.95 123.137 158.549 123.137C158.048 123.137 157.608 123.039 157.229 122.843C156.856 122.647 156.564 122.385 156.354 122.057C156.149 121.724 156.047 121.353 156.047 120.942C156.047 120.546 156.124 120.197 156.279 119.896C156.434 119.591 156.658 119.338 156.949 119.138C157.241 118.933 157.592 118.778 158.002 118.673C158.412 118.568 158.87 118.516 159.376 118.516H160.846ZM165.146 116.766V123H163.881V115.604H165.111L165.146 116.766ZM167.456 115.563L167.449 116.738C167.344 116.716 167.244 116.702 167.148 116.697C167.057 116.688 166.952 116.684 166.834 116.684C166.542 116.684 166.285 116.729 166.062 116.82C165.838 116.911 165.649 117.039 165.494 117.203C165.339 117.367 165.216 117.563 165.125 117.791C165.038 118.014 164.981 118.26 164.954 118.529L164.599 118.734C164.599 118.288 164.642 117.868 164.729 117.477C164.82 117.085 164.959 116.738 165.146 116.438C165.332 116.132 165.569 115.895 165.856 115.727C166.148 115.553 166.494 115.467 166.896 115.467C166.987 115.467 167.091 115.478 167.21 115.501C167.328 115.519 167.41 115.54 167.456 115.563ZM172.713 121.735V117.928C172.713 117.636 172.654 117.383 172.535 117.169C172.421 116.95 172.248 116.782 172.016 116.663C171.783 116.545 171.496 116.485 171.154 116.485C170.835 116.485 170.555 116.54 170.313 116.649C170.076 116.759 169.89 116.902 169.753 117.08C169.621 117.258 169.555 117.449 169.555 117.654H168.29C168.29 117.39 168.358 117.128 168.495 116.868C168.632 116.608 168.828 116.374 169.083 116.164C169.343 115.95 169.653 115.781 170.013 115.658C170.377 115.531 170.783 115.467 171.229 115.467C171.767 115.467 172.241 115.558 172.651 115.74C173.066 115.923 173.39 116.198 173.622 116.567C173.859 116.932 173.978 117.39 173.978 117.941V121.387C173.978 121.633 173.998 121.895 174.039 122.173C174.085 122.451 174.151 122.69 174.237 122.891V123H172.918C172.854 122.854 172.804 122.66 172.768 122.419C172.731 122.173 172.713 121.945 172.713 121.735ZM172.932 118.516L172.945 119.404H171.667C171.307 119.404 170.986 119.434 170.703 119.493C170.421 119.548 170.184 119.632 169.992 119.746C169.801 119.86 169.655 120.004 169.555 120.177C169.454 120.345 169.404 120.544 169.404 120.771C169.404 121.004 169.457 121.216 169.562 121.407C169.666 121.599 169.824 121.751 170.033 121.865C170.247 121.975 170.509 122.029 170.819 122.029C171.207 122.029 171.549 121.947 171.845 121.783C172.141 121.619 172.376 121.419 172.549 121.182C172.727 120.945 172.822 120.715 172.836 120.491L173.376 121.1C173.344 121.291 173.257 121.503 173.116 121.735C172.975 121.968 172.786 122.191 172.549 122.405C172.316 122.615 172.038 122.79 171.715 122.932C171.396 123.068 171.036 123.137 170.635 123.137C170.133 123.137 169.694 123.039 169.315 122.843C168.942 122.647 168.65 122.385 168.44 122.057C168.235 121.724 168.133 121.353 168.133 120.942C168.133 120.546 168.21 120.197 168.365 119.896C168.52 119.591 168.743 119.338 169.035 119.138C169.327 118.933 169.678 118.778 170.088 118.673C170.498 118.568 170.956 118.516 171.462 118.516H172.932ZM180.328 121.735V117.928C180.328 117.636 180.269 117.383 180.15 117.169C180.036 116.95 179.863 116.782 179.631 116.663C179.398 116.545 179.111 116.485 178.77 116.485C178.451 116.485 178.17 116.54 177.929 116.649C177.692 116.759 177.505 116.902 177.368 117.08C177.236 117.258 177.17 117.449 177.17 117.654H175.905C175.905 117.39 175.974 117.128 176.11 116.868C176.247 116.608 176.443 116.374 176.698 116.164C176.958 115.95 177.268 115.781 177.628 115.658C177.993 115.531 178.398 115.467 178.845 115.467C179.382 115.467 179.856 115.558 180.267 115.74C180.681 115.923 181.005 116.198 181.237 116.567C181.474 116.932 181.593 117.39 181.593 117.941V121.387C181.593 121.633 181.613 121.895 181.654 122.173C181.7 122.451 181.766 122.69 181.853 122.891V123H180.533C180.469 122.854 180.419 122.66 180.383 122.419C180.346 122.173 180.328 121.945 180.328 121.735ZM180.547 118.516L180.561 119.404H179.282C178.922 119.404 178.601 119.434 178.318 119.493C178.036 119.548 177.799 119.632 177.607 119.746C177.416 119.86 177.27 120.004 177.17 120.177C177.07 120.345 177.02 120.544 177.02 120.771C177.02 121.004 177.072 121.216 177.177 121.407C177.282 121.599 177.439 121.751 177.648 121.865C177.863 121.975 178.125 122.029 178.435 122.029C178.822 122.029 179.164 121.947 179.46 121.783C179.756 121.619 179.991 121.419 180.164 121.182C180.342 120.945 180.438 120.715 180.451 120.491L180.991 121.1C180.959 121.291 180.873 121.503 180.731 121.735C180.59 121.968 180.401 122.191 180.164 122.405C179.932 122.615 179.654 122.79 179.33 122.932C179.011 123.068 178.651 123.137 178.25 123.137C177.749 123.137 177.309 123.039 176.931 122.843C176.557 122.647 176.265 122.385 176.056 122.057C175.851 121.724 175.748 121.353 175.748 120.942C175.748 120.546 175.826 120.197 175.98 119.896C176.135 119.591 176.359 119.338 176.65 119.138C176.942 118.933 177.293 118.778 177.703 118.673C178.113 118.568 178.571 118.516 179.077 118.516H180.547ZM184.847 117.183V123H183.582V115.604H184.778L184.847 117.183ZM184.546 119.021L184.02 119.001C184.024 118.495 184.099 118.028 184.245 117.6C184.391 117.167 184.596 116.791 184.86 116.472C185.125 116.153 185.439 115.907 185.804 115.733C186.173 115.556 186.581 115.467 187.027 115.467C187.392 115.467 187.72 115.517 188.012 115.617C188.303 115.713 188.552 115.868 188.757 116.082C188.966 116.296 189.126 116.574 189.235 116.916C189.345 117.253 189.399 117.666 189.399 118.153V123H188.128V118.14C188.128 117.752 188.071 117.442 187.957 117.21C187.843 116.973 187.677 116.802 187.458 116.697C187.239 116.588 186.97 116.533 186.651 116.533C186.337 116.533 186.05 116.599 185.79 116.731C185.535 116.864 185.314 117.046 185.127 117.278C184.945 117.511 184.801 117.777 184.696 118.078C184.596 118.374 184.546 118.689 184.546 119.021Z" fill="#424242"/>
</svg>
