<svg width="220" height="150" viewBox="0 0 220 150" fill="none" xmlns="http://www.w3.org/2000/svg">
<g clip-path="url(#clip0_4431_74636)">
<circle cx="110" cy="50" r="50" fill="#F4F4F4"/>
<g clip-path="url(#clip1_4431_74636)">
<mask id="mask0_4431_74636" style="mask-type:alpha" maskUnits="userSpaceOnUse" x="60" y="0" width="100" height="100">
<circle cx="110" cy="50" r="50" fill="#F4F4F4"/>
</mask>
<g mask="url(#mask0_4431_74636)">
<path d="M78.9874 33.5443C78.9874 27.9515 83.5212 23.4177 89.1139 23.4177H130.886C136.479 23.4177 141.013 27.9516 141.013 33.5443V100H78.9874V33.5443Z" fill="#001B3D"/>
<path d="M82.7849 33.5443C82.7849 30.0488 85.6185 27.2152 89.114 27.2152H130.886C134.382 27.2152 137.215 30.0488 137.215 33.5443V100H82.7849V33.5443Z" fill="white"/>
<path d="M100.506 27.2152H119.494V27.2152C119.494 28.6134 118.36 29.7468 116.962 29.7468H103.038C101.64 29.7468 100.506 28.6134 100.506 27.2152V27.2152Z" fill="#001B3D"/>
</g>
<g clip-path="url(#clip2_4431_74636)">
<g clip-path="url(#clip3_4431_74636)">
<rect x="95.2113" y="49.2958" width="29.5775" height="29.5775" rx="14.7887" fill="#F5F5F5"/>
<g clip-path="url(#clip4_4431_74636)">
<rect x="95.2113" y="49.2958" width="29.5775" height="29.5775" rx="14.7887" fill="#FAFAFA"/>
<rect x="95.2113" y="73.9437" width="30.5634" height="5.91549" fill="#D9D9D9"/>
<path d="M115.395 63.4029L115.369 63.3444C115.199 62.9601 114.818 62.7122 114.398 62.7122H113.403C113.091 62.7122 112.791 62.8328 112.566 63.0486C112.328 63.2769 112.193 63.5926 112.193 63.9225V64.7164H114.541C114.879 64.7164 115.191 64.5332 115.357 64.2377C115.5 63.981 115.514 63.6717 115.395 63.4029Z" fill="#FF9500"/>
<path d="M80.3557 71.7402H120.564C121.197 71.7402 121.71 71.2268 121.71 70.5934V68.4045C121.71 66.0295 119.785 64.1042 117.41 64.1042H113.354L108.096 58.7045C107.422 58.0117 106.496 57.6208 105.529 57.6208H84.3977C83.3014 57.6208 82.2482 58.0473 81.4606 58.8099C80.945 59.3093 80.5296 59.9027 80.2368 60.5581L78.9906 63.3484C78.662 64.0842 78.4922 64.8809 78.4922 65.6866V69.8767C78.4922 70.9059 79.3265 71.7402 80.3557 71.7402Z" fill="#FFB900"/>
<path d="M102.429 57.0116H86.8321C86.3664 57.0116 85.928 57.2403 85.6594 57.6208H103.613L103.504 57.4967C103.231 57.1883 102.84 57.0116 102.429 57.0116Z" fill="#FF9500"/>
<path fill-rule="evenodd" clip-rule="evenodd" d="M110.448 71.7402C110.462 71.7781 110.477 71.8158 110.493 71.8533C110.706 72.3664 111.017 72.8325 111.41 73.2252C111.802 73.6178 112.268 73.9293 112.782 74.1418C113.295 74.3543 113.844 74.4637 114.4 74.4637C114.955 74.4637 115.505 74.3543 116.018 74.1418C116.531 73.9293 116.997 73.6178 117.39 73.2252C117.783 72.8325 118.094 72.3664 118.307 71.8533C118.322 71.8158 118.337 71.7781 118.351 71.7402H110.448Z" fill="#424242"/>
<path d="M117.195 70.916C117.195 71.8569 116.821 72.7593 116.156 73.4246C115.491 74.0899 114.588 74.4637 113.647 74.4637C112.706 74.4637 111.804 74.0899 111.139 73.4246C110.473 72.7593 110.099 71.8569 110.099 70.916L113.647 70.916H117.195Z" fill="#212121"/>
<path fill-rule="evenodd" clip-rule="evenodd" d="M91.025 71.7402C91.0394 71.7781 91.0544 71.8158 91.0699 71.8533C91.2824 72.3664 91.5939 72.8325 91.9866 73.2252C92.3792 73.6179 92.8454 73.9293 93.3585 74.1419C93.8715 74.3544 94.4214 74.4637 94.9767 74.4637C95.532 74.4637 96.0819 74.3544 96.5949 74.1419C97.108 73.9293 97.5741 73.6179 97.9668 73.2252C98.3594 72.8325 98.6709 72.3664 98.8834 71.8533C98.899 71.8158 98.914 71.7781 98.9284 71.7402H91.025Z" fill="#424242"/>
<path d="M97.7719 70.916C97.7719 71.8569 97.3981 72.7593 96.7328 73.4246C96.0675 74.0899 95.1651 74.4637 94.2241 74.4637C93.2832 74.4637 92.3808 74.0899 91.7155 73.4246C91.0502 72.7593 90.6764 71.8569 90.6764 70.916L94.2241 70.916H97.7719Z" fill="#212121"/>
<path d="M78.4922 69.8767V69.7334L100.352 70.5934H121.71C121.71 71.2268 121.197 71.7402 120.564 71.7402H80.3557C79.3265 71.7402 78.4922 70.9059 78.4922 69.8767Z" fill="#FF9500"/>
<path d="M121.71 70.5934H110.816V70.1966C110.816 69.7564 111.094 69.3642 111.51 69.2184C111.62 69.1797 111.736 69.16 111.853 69.16H121.146C121.279 69.16 121.408 69.207 121.509 69.2926C121.637 69.3999 121.71 69.5578 121.71 69.7243V70.5934Z" fill="white"/>
<path d="M112.68 70.5934V69.16H120.42V70.5934H112.68Z" fill="#FF7500"/>
<path d="M110.187 66.9988L110.2 66.9813C110.317 66.8192 110.505 66.7232 110.705 66.7232H121.352C121.352 66.7232 121.484 66.9218 121.567 67.2965C121.65 67.6713 121.674 67.9416 121.674 67.9416H110.669C110.49 67.9416 110.321 67.8609 110.208 67.7219C110.038 67.5132 110.03 67.2167 110.187 66.9988Z" fill="white"/>
<path d="M112.644 67.9415L113.289 66.7231H114.651L114.006 67.9415H112.644Z" fill="#FFE483"/>
<path d="M120.42 67.9415H119.094L118.449 66.7231H119.811L120.42 67.9415Z" fill="#FFE483"/>
<path d="M114.006 67.9415L114.651 66.7231H118.449L119.094 67.9415H114.006Z" fill="#FF7500"/>
<path d="M108.881 70.9876C108.881 70.4276 108.771 69.8731 108.556 69.3557C108.342 68.8383 108.028 68.3682 107.632 67.9722C107.236 67.5762 106.766 67.2621 106.249 67.0478C105.731 66.8335 105.177 66.7232 104.617 66.7232C104.057 66.7232 103.502 66.8335 102.985 67.0478C102.467 67.2621 101.997 67.5762 101.601 67.9722C101.205 68.3682 100.891 68.8383 100.677 69.3557C100.462 69.8731 100.352 70.4276 100.352 70.9876L104.617 70.9876H108.881Z" fill="#FF9500"/>
<path fill-rule="evenodd" clip-rule="evenodd" d="M101.346 71.7402C101.36 71.7781 101.375 71.8158 101.391 71.8533C101.603 72.3663 101.915 72.8325 102.307 73.2252C102.7 73.6178 103.166 73.9293 103.679 74.1418C104.192 74.3543 104.742 74.4637 105.297 74.4637C105.853 74.4637 106.403 74.3543 106.916 74.1418C107.429 73.9293 107.895 73.6178 108.288 73.2252C108.68 72.8325 108.992 72.3663 109.204 71.8533C109.22 71.8158 109.235 71.7781 109.249 71.7402H101.346Z" fill="#424242"/>
<path d="M108.236 70.8801C108.236 72.8593 106.632 74.4637 104.652 74.4637C102.673 74.4637 101.069 72.8593 101.069 70.8801C101.069 68.901 102.673 67.2965 104.652 67.2965C106.632 67.2965 108.236 68.901 108.236 70.8801Z" fill="#212121"/>
<path d="M107.018 70.8801C107.018 72.1864 105.959 73.2453 104.652 73.2453C103.346 73.2453 102.287 72.1864 102.287 70.8801C102.287 69.5739 103.346 68.5149 104.652 68.5149C105.959 68.5149 107.018 69.5739 107.018 70.8801Z" fill="#CEC3C0"/>
<path d="M106.301 70.8801C106.301 71.7905 105.563 72.5286 104.652 72.5286C103.742 72.5286 103.004 71.7905 103.004 70.8801C103.004 69.9697 103.742 69.2317 104.652 69.2317C105.563 69.2317 106.301 69.9697 106.301 70.8801Z" fill="white"/>
<path d="M90.8664 62.8511L91.3932 58.9468H95.8773C96.3832 58.9468 96.8725 59.1269 97.2576 59.455C97.5018 59.663 97.6958 59.9234 97.8251 60.2169L99.4921 63.9996L91.3993 63.5001C91.0669 63.4796 90.8218 63.1811 90.8664 62.8511Z" fill="#FFF9E1"/>
<path d="M99.738 58.9109H107.41C107.526 58.9109 107.637 58.9575 107.717 59.0401L112.441 63.8635C112.53 63.9542 112.466 64.1071 112.339 64.1071H102.079C101.83 64.1071 101.599 63.9776 101.468 63.7652L99.1428 59.9743C99.0896 59.8876 99.056 59.7903 99.0443 59.6892C98.9965 59.2746 99.3206 58.9109 99.738 58.9109Z" fill="#FFF9E1"/>
<path d="M96.8543 63.3601L96.8806 63.3015C97.0519 62.9195 97.4314 62.6737 97.85 62.6737H98.8738C99.1853 62.6737 99.4849 62.7931 99.711 63.0073C99.9537 63.2372 100.091 63.5568 100.091 63.891V64.6778H97.7077C97.3705 64.6778 97.0595 64.4963 96.8936 64.2028C96.7473 63.9441 96.7328 63.6313 96.8543 63.3601Z" fill="#FF9500"/>
<path d="M104.883 72.0581C104.883 72.3609 104.832 72.6608 104.732 72.9405C104.633 73.2203 104.487 73.4745 104.303 73.6886C104.119 73.9027 103.901 74.0725 103.661 74.1884C103.421 74.3043 103.164 74.3639 102.904 74.3639C102.644 74.3639 102.258 74.3639 101.979 74.3639C101.699 74.3639 101.656 73.9156 101.504 73.6886C101.32 73.4745 101.175 73.2203 101.075 72.9405C100.976 72.6608 100.925 72.3609 100.925 72.0581L102.904 72.0581H104.883Z" fill="#424242"/>
<path d="M103.807 72.0581C103.807 72.3609 103.756 72.6608 103.658 72.9405C103.559 73.2203 103.415 73.4745 103.233 73.6886C103.051 73.9027 102.835 74.0725 102.597 74.1884C102.359 74.3043 102.104 74.3639 101.847 74.3639C101.59 74.3639 101.335 74.3043 101.097 74.1884C100.859 74.0725 100.643 73.9027 100.461 73.6886C100.279 73.4745 100.135 73.2203 100.036 72.9405C99.9377 72.6608 99.887 72.3609 99.887 72.0581L101.847 72.0581H103.807Z" fill="#212121"/>
<path d="M103.038 72.0581C103.038 72.2297 103.009 72.3996 102.952 72.5582C102.895 72.7167 102.811 72.8607 102.706 72.982C102.601 73.1034 102.476 73.1996 102.338 73.2653C102.201 73.331 102.053 73.3647 101.904 73.3647C101.756 73.3647 101.608 73.331 101.471 73.2653C101.333 73.1996 101.208 73.1034 101.103 72.982C100.998 72.8607 100.914 72.7167 100.857 72.5582C100.8 72.3996 100.771 72.2297 100.771 72.0581L101.904 72.0581H103.038Z" fill="#757575"/>
<path d="M92.5853 69.0665V72.0581H98.8494V67.4081H94.2242L93.2306 67.965C92.8321 68.1884 92.5853 68.6097 92.5853 69.0665Z" fill="#008444"/>
<path d="M97.4659 69.2857C97.4659 68.5883 98.0312 68.023 98.7286 68.023H98.8878V72.0581H97.4659V69.2857Z" fill="#006430"/>
<path d="M94.5452 72.0581V68.3304H95.1601C95.1601 68.3304 95.8436 68.3304 96.2554 68.8108C96.6255 69.2427 96.6407 69.7211 96.64 69.8133C96.6399 69.8241 96.6396 69.8346 96.6396 69.8453V72.0581H94.5452Z" fill="#069550"/>
<path d="M95.4291 72.0581H91.1642V71.3472C91.1642 71.3472 91.1246 70.5482 91.608 69.7331C92.0121 69.0519 92.7659 68.3304 93.3256 68.3304H94.5028C95.4291 68.3304 95.4291 69.2527 95.4291 69.2527V72.0581Z" fill="#1FB767"/>
<rect x="91.1634" y="71.3664" width="4.26571" height="0.691736" fill="#006430"/>
<path d="M93.3923 67.0321C93.3923 66.8577 93.5337 66.7164 93.708 66.7164H98.3031C98.4775 66.7164 98.6188 66.8577 98.6188 67.0321V67.6387H93.3923V67.0321Z" fill="#3B0F03"/>
<path d="M97.3266 72.0581C97.3266 72.3609 97.2758 72.6608 97.1771 72.9405C97.0784 73.2203 96.9338 73.4745 96.7515 73.6886C96.5691 73.9027 96.3527 74.0725 96.1145 74.1884C95.8762 74.3043 95.6209 74.3639 95.3631 74.3639C95.1052 74.3639 94.7228 74.3639 94.4453 74.3639C94.1679 74.3639 94.1252 73.9156 93.9746 73.6886C93.7923 73.4745 93.6477 73.2203 93.549 72.9405C93.4503 72.6608 93.3995 72.3609 93.3995 72.0581L95.3631 72.0581H97.3266Z" fill="#424242"/>
<path d="M96.2818 72.0581C96.2818 72.3609 96.231 72.6608 96.1323 72.9405C96.0336 73.2203 95.889 73.4745 95.7067 73.6886C95.5243 73.9027 95.3079 74.0725 95.0697 74.1884C94.8314 74.3043 94.5761 74.3639 94.3183 74.3639C94.0604 74.3639 93.8051 74.3043 93.5669 74.1884C93.3286 74.0725 93.1122 73.9027 92.9298 73.6886C92.7475 73.4745 92.6029 73.2203 92.5042 72.9405C92.4055 72.6608 92.3547 72.3609 92.3547 72.0581L94.3183 72.0581H96.2818Z" fill="#212121"/>
<path d="M95.4532 72.0581C95.4532 72.2285 95.4243 72.3971 95.3681 72.5545C95.312 72.7118 95.2297 72.8548 95.126 72.9753C95.0223 73.0957 94.8992 73.1912 94.7637 73.2564C94.6282 73.3216 94.483 73.3551 94.3363 73.3551C94.1896 73.3551 94.0444 73.3216 93.9089 73.2564C93.7734 73.1912 93.6503 73.0957 93.5465 72.9753C93.4428 72.8548 93.3606 72.7118 93.3044 72.5545C93.2483 72.3971 93.2194 72.2285 93.2194 72.0581L94.3363 72.0581H95.4532Z" fill="#757575"/>
<path d="M96.1785 72.1734V72.0581H98.369L98.6064 71.6261C98.7226 71.4148 98.7758 71.1747 98.7598 70.9342L98.4019 65.5469C98.377 65.1719 98.5204 64.8054 98.7932 64.5468L98.9364 64.411C99.171 64.1887 99.4819 64.0647 99.8051 64.0647H101.47C101.845 64.0647 102.2 64.231 102.44 64.5187L102.715 64.8477C102.888 65.0556 102.99 65.3137 103.005 65.584L103.384 72.1734H96.1785Z" fill="#008444"/>
<path fill-rule="evenodd" clip-rule="evenodd" d="M98.8579 64.4435C99.1441 64.1755 99.5219 64.0263 99.9145 64.0263H101.378C101.848 64.0263 102.295 64.2335 102.598 64.5925L102.73 64.7494C102.952 65.0121 103.083 65.3393 103.103 65.6822L103.48 72.1734H95.906V72.0584H98.256L98.5102 71.6358C98.6655 71.3775 98.7379 71.0781 98.7177 70.7776L98.3743 65.6694C98.3433 65.2091 98.5208 64.7593 98.8579 64.4435ZM98.3905 72.0584H103.358L102.988 65.6888C102.969 65.3708 102.848 65.0672 102.642 64.8235L102.51 64.6666C102.229 64.3336 101.814 64.1413 101.378 64.1413H99.9145C99.5513 64.1413 99.2017 64.2794 98.9368 64.5274C98.6249 64.8196 98.4607 65.2358 98.4893 65.6617L98.8327 70.7699C98.8545 71.0938 98.7764 71.4166 98.609 71.695L98.3905 72.0584Z" fill="#1FB767"/>
<rect x="98.8878" y="65.1573" width="0.653306" height="0.230036" rx="0.115018" fill="#069550"/>
<rect x="101.578" y="65.1573" width="0.653306" height="0.230036" rx="0.115018" fill="#069550"/>
<path d="M100.026 64.0263H99.6948L100.26 70.2135H101.078V68.3567C101.078 68.1959 101.017 68.0412 100.907 67.9241L100.504 67.4965C100.409 67.3951 100.35 67.2651 100.336 67.1266L100.026 64.0263Z" fill="#006430"/>
<path d="M101.194 64.0263H100.027L100.346 67.1155C100.36 67.249 100.416 67.3747 100.506 67.4742L100.915 67.926C101.02 68.0421 101.078 68.1931 101.078 68.3497V70.2135H102.27L102.201 68.2974C102.196 68.1493 102.138 68.0077 102.039 67.8976L101.659 67.475C101.569 67.375 101.513 67.2488 101.5 67.1149L101.194 64.0263Z" fill="#1FB767"/>
<rect x="100.425" y="65.0639" width="0.653306" height="0.230579" rx="0.115289" fill="#FF7733"/>
<rect x="100.463" y="65.5635" width="0.653306" height="0.230579" rx="0.115289" fill="#FF7733"/>
<path d="M102.27 70.2135L100.291 70.348L100.262 70.0502L100.252 69.8869L100.692 69.6004C100.946 69.4351 101.236 69.3331 101.537 69.303L102.231 69.2336L102.24 69.4641L102.27 70.2135Z" fill="#3A0F00"/>
<path d="M101.405 68.8777V68.5418H102.212L102.231 69.1567H101.684C101.616 69.1567 101.55 69.1316 101.499 69.0862C101.439 69.0333 101.405 68.9574 101.405 68.8777Z" fill="#006430"/>
<rect x="101.386" y="68.2151" width="1.19132" height="0.614876" rx="0.307438" fill="#D88B19"/>
<rect x="101.808" y="68.3304" width="0.576447" height="0.230579" rx="0.115289" fill="#FEB536"/>
<path d="M103.845 72.1926H99.714C99.714 72.1926 99.714 69.541 101.751 69.5794C103.788 69.6179 103.845 72.1926 103.845 72.1926Z" fill="#006430"/>
<path d="M105.075 72.1926H103.845C103.845 72.1926 103.788 71.3664 103.538 70.8668C103.095 69.7671 102.227 69.6022 101.89 69.5809C101.768 69.5794 101.751 69.5794 101.751 69.5794C101.751 69.5794 101.802 69.5754 101.89 69.5809C102.054 69.5829 102.41 69.5876 103.173 69.5986C105.036 69.8292 105.075 72.1926 105.075 72.1926Z" fill="#1FB767"/>
<path d="M101.174 61.7974L101.194 63.6036H99.6948C99.6839 63.4626 99.5664 63.3538 99.425 63.3538H98.9049C98.7283 63.3538 98.5655 63.2581 98.4798 63.1037L98.4632 63.0739C98.3822 62.928 98.3923 62.7484 98.4894 62.6126C98.5706 62.4989 98.7016 62.4315 98.8413 62.4315H99.5603L99.8031 62.1811C100.041 61.9358 100.368 61.7974 100.71 61.7974H101.174Z" fill="#006430"/>
<rect x="99.6948" y="63.6036" width="1.49876" height="0.422727" fill="#006430"/>
<path d="M102.432 62.6562L102.415 62.6298C102.348 62.5299 102.236 62.4699 102.116 62.4699C102.166 62.7309 102.124 63.001 101.997 63.2346L101.943 63.3346H102.052C102.211 63.3346 102.357 63.2504 102.437 63.1136L102.445 63.099C102.526 62.9609 102.521 62.7891 102.432 62.6562Z" fill="#006430"/>
<path d="M102.298 62.7749L102.287 62.7595C102.252 62.7104 102.195 62.6813 102.135 62.6813C102.135 62.834 102.11 62.9857 102.062 63.1306L102.058 63.1424L102.1 63.1424C102.181 63.1424 102.257 63.1003 102.301 63.031L102.306 63.0232C102.354 62.9465 102.351 62.8485 102.298 62.7749Z" fill="#4D1303"/>
<path d="M102.828 62.7389H102.481L102.484 62.7516C102.507 62.8562 102.499 62.9653 102.462 63.0656H102.837C102.891 63.0656 102.941 63.0389 102.97 62.9944C103.01 62.9344 103.005 62.8549 102.958 62.8006L102.954 62.7961C102.922 62.7598 102.876 62.7389 102.828 62.7389Z" fill="#4D1303"/>
<path d="M101.071 61.7974H101.405C101.292 61.7974 101.18 61.8265 101.093 61.8997C100.925 62.0425 100.664 62.333 100.664 62.759C100.664 63.0943 100.861 63.3493 101.015 63.4971C101.124 63.6014 101.273 63.642 101.424 63.642H101.02C100.571 63.642 100.19 63.3088 100.131 62.8629C100.122 62.7938 100.121 62.7233 100.128 62.654C100.177 62.1705 100.585 61.7974 101.071 61.7974Z" fill="#AE9F8F"/>
<ellipse cx="101.405" cy="62.7197" rx="0.749381" ry="0.922314" fill="#E9E0CE"/>
<ellipse cx="101.443" cy="62.7197" rx="0.595662" ry="0.730165" fill="#FEB434"/>
<ellipse cx="98.6571" cy="62.8734" rx="0.461157" ry="0.461157" fill="#006430"/>
<ellipse cx="98.6187" cy="62.8734" rx="0.307438" ry="0.307438" fill="#4D1303"/>
<rect x="97.4274" y="62.7197" width="1.30661" height="0.345868" rx="0.172934" fill="#3F0F02"/>
</g>
</g>
</g>
</g>
<g clip-path="url(#clip5_4431_74636)">
<circle cx="146.709" cy="86.7089" r="13.2911" fill="#EF5350"/>
<path d="M149.418 89.0395C149.497 89.1152 149.56 89.2059 149.603 89.3061C149.647 89.4063 149.671 89.5142 149.673 89.6235C149.675 89.7329 149.655 89.8415 149.615 89.9432C149.575 90.045 149.515 90.1377 149.439 90.2163C149.361 90.2961 149.269 90.3598 149.166 90.4037C149.064 90.4477 148.954 90.471 148.843 90.4724C148.627 90.4694 148.419 90.3855 148.262 90.237C147.764 89.7622 147.102 89.4973 146.413 89.4973C145.725 89.4973 145.063 89.7622 144.565 90.237C144.487 90.3129 144.394 90.3726 144.292 90.4127C144.19 90.4527 144.082 90.4723 143.972 90.4704C143.863 90.4685 143.755 90.445 143.655 90.4014C143.555 90.3578 143.464 90.2949 143.388 90.2163C143.312 90.1376 143.253 90.0448 143.213 89.9431C143.173 89.8414 143.153 89.7328 143.155 89.6236C143.157 89.5143 143.18 89.4065 143.224 89.3062C143.268 89.206 143.33 89.1154 143.409 89.0395C144.218 88.266 145.294 87.8343 146.413 87.8343C147.533 87.8343 148.609 88.266 149.418 89.0395V89.0395ZM146.413 84.5122C144.409 84.5048 142.482 85.2912 141.055 86.6997C140.977 86.7753 140.915 86.8657 140.872 86.9656C140.829 87.0655 140.806 87.173 140.805 87.2817C140.804 87.3905 140.824 87.4984 140.864 87.5993C140.905 87.7002 140.965 87.7921 141.042 87.8696C141.118 87.9479 141.209 88.0104 141.309 88.0536C141.41 88.0967 141.518 88.1195 141.627 88.1208C141.737 88.1221 141.845 88.1018 141.946 88.0611C142.048 88.0203 142.14 87.9599 142.218 87.8834C143.34 86.7875 144.846 86.1738 146.413 86.1738C147.981 86.1738 149.487 86.7875 150.608 87.8834C150.764 88.0355 150.973 88.1201 151.19 88.1188C151.301 88.1187 151.41 88.0966 151.513 88.0538C151.615 88.011 151.707 87.9484 151.785 87.8696C151.862 87.7921 151.922 87.7002 151.963 87.5993C152.003 87.4984 152.023 87.3905 152.022 87.2817C152.021 87.173 151.998 87.0655 151.955 86.9656C151.912 86.8657 151.85 86.7753 151.771 86.6997C150.345 85.2912 148.418 84.5048 146.413 84.5122V84.5122ZM154.125 84.346C152.068 82.3235 149.298 81.1901 146.413 81.1901C143.529 81.1901 140.759 82.3235 138.702 84.346C138.545 84.5012 138.456 84.7123 138.455 84.933C138.453 85.1537 138.54 85.3659 138.695 85.5228C138.85 85.6798 139.061 85.7687 139.282 85.77C139.503 85.7713 139.715 85.6849 139.872 85.5298C141.616 83.8125 143.966 82.85 146.413 82.85C148.861 82.85 151.211 83.8125 152.955 85.5298C153.11 85.6837 153.319 85.7708 153.537 85.772C153.703 85.7739 153.866 85.7259 154.004 85.6343C154.143 85.5427 154.25 85.4117 154.314 85.2583C154.377 85.1048 154.393 84.9358 154.359 84.7732C154.326 84.6106 154.244 84.4618 154.125 84.346V84.346ZM146.413 90.8808C146.194 90.8808 145.98 90.9458 145.798 91.0675C145.616 91.1892 145.474 91.3622 145.39 91.5646C145.306 91.7669 145.284 91.9896 145.327 92.2045C145.37 92.4194 145.475 92.6167 145.63 92.7716C145.785 92.9265 145.983 93.032 146.197 93.0747C146.412 93.1175 146.635 93.0955 146.837 93.0117C147.04 92.9279 147.213 92.7859 147.334 92.6038C147.456 92.4216 147.521 92.2075 147.521 91.9884C147.521 91.6947 147.404 91.4129 147.197 91.2052C146.989 90.9975 146.707 90.8808 146.413 90.8808V90.8808Z" fill="white"/>
</g>
</g>
<path d="M6.36035 113.047V123H5.06152V113.047H6.36035ZM9.55957 113.047V114.127H1.86914V113.047H9.55957ZM12.2188 115.604V123H10.9473V115.604H12.2188ZM10.8516 113.642C10.8516 113.437 10.9131 113.263 11.0361 113.122C11.1637 112.981 11.3506 112.91 11.5967 112.91C11.8382 112.91 12.0228 112.981 12.1504 113.122C12.2826 113.263 12.3486 113.437 12.3486 113.642C12.3486 113.838 12.2826 114.006 12.1504 114.147C12.0228 114.284 11.8382 114.353 11.5967 114.353C11.3506 114.353 11.1637 114.284 11.0361 114.147C10.9131 114.006 10.8516 113.838 10.8516 113.642ZM18.9111 121.564V112.5H20.1826V123H19.0205L18.9111 121.564ZM13.9346 119.384V119.24C13.9346 118.675 14.0029 118.162 14.1396 117.702C14.2809 117.237 14.4792 116.839 14.7344 116.506C14.9941 116.173 15.3018 115.918 15.6572 115.74C16.0173 115.558 16.4183 115.467 16.8604 115.467C17.3252 115.467 17.7308 115.549 18.0771 115.713C18.4281 115.872 18.7243 116.107 18.9658 116.417C19.2119 116.722 19.4056 117.091 19.5469 117.524C19.6882 117.957 19.7861 118.447 19.8408 118.994V119.623C19.7907 120.165 19.6927 120.653 19.5469 121.086C19.4056 121.519 19.2119 121.888 18.9658 122.193C18.7243 122.499 18.4281 122.733 18.0771 122.897C17.7262 123.057 17.3161 123.137 16.8467 123.137C16.4137 123.137 16.0173 123.043 15.6572 122.856C15.3018 122.67 14.9941 122.408 14.7344 122.07C14.4792 121.733 14.2809 121.337 14.1396 120.881C14.0029 120.421 13.9346 119.922 13.9346 119.384ZM15.2061 119.24V119.384C15.2061 119.753 15.2425 120.099 15.3154 120.423C15.3929 120.746 15.5114 121.031 15.6709 121.277C15.8304 121.523 16.0332 121.717 16.2793 121.858C16.5254 121.995 16.8193 122.063 17.1611 122.063C17.5804 122.063 17.9245 121.975 18.1934 121.797C18.4668 121.619 18.6855 121.384 18.8496 121.093C19.0137 120.801 19.1413 120.484 19.2324 120.143V118.495C19.1777 118.244 19.098 118.003 18.9932 117.771C18.8929 117.534 18.7607 117.324 18.5967 117.142C18.4372 116.955 18.2389 116.807 18.002 116.697C17.7695 116.588 17.4938 116.533 17.1748 116.533C16.8285 116.533 16.5299 116.606 16.2793 116.752C16.0332 116.893 15.8304 117.089 15.6709 117.34C15.5114 117.586 15.3929 117.873 15.3154 118.201C15.2425 118.525 15.2061 118.871 15.2061 119.24ZM26.5127 121.735V117.928C26.5127 117.636 26.4535 117.383 26.335 117.169C26.221 116.95 26.0479 116.782 25.8154 116.663C25.583 116.545 25.2959 116.485 24.9541 116.485C24.6351 116.485 24.3548 116.54 24.1133 116.649C23.8763 116.759 23.6895 116.902 23.5527 117.08C23.4206 117.258 23.3545 117.449 23.3545 117.654H22.0898C22.0898 117.39 22.1582 117.128 22.2949 116.868C22.4316 116.608 22.6276 116.374 22.8828 116.164C23.1426 115.95 23.4525 115.781 23.8125 115.658C24.1771 115.531 24.5827 115.467 25.0293 115.467C25.5671 115.467 26.041 115.558 26.4512 115.74C26.8659 115.923 27.1895 116.198 27.4219 116.567C27.6589 116.932 27.7773 117.39 27.7773 117.941V121.387C27.7773 121.633 27.7979 121.895 27.8389 122.173C27.8844 122.451 27.9505 122.69 28.0371 122.891V123H26.7178C26.654 122.854 26.6038 122.66 26.5674 122.419C26.5309 122.173 26.5127 121.945 26.5127 121.735ZM26.7314 118.516L26.7451 119.404H25.4668C25.1068 119.404 24.7855 119.434 24.5029 119.493C24.2204 119.548 23.9834 119.632 23.792 119.746C23.6006 119.86 23.4548 120.004 23.3545 120.177C23.2542 120.345 23.2041 120.544 23.2041 120.771C23.2041 121.004 23.2565 121.216 23.3613 121.407C23.4661 121.599 23.6234 121.751 23.833 121.865C24.0472 121.975 24.3092 122.029 24.6191 122.029C25.0065 122.029 25.3483 121.947 25.6445 121.783C25.9408 121.619 26.1755 121.419 26.3486 121.182C26.5264 120.945 26.6221 120.715 26.6357 120.491L27.1758 121.1C27.1439 121.291 27.0573 121.503 26.916 121.735C26.7747 121.968 26.5856 122.191 26.3486 122.405C26.1162 122.615 25.8382 122.79 25.5146 122.932C25.1956 123.068 24.8356 123.137 24.4346 123.137C23.9333 123.137 23.4935 123.039 23.1152 122.843C22.7415 122.647 22.4499 122.385 22.2402 122.057C22.0352 121.724 21.9326 121.353 21.9326 120.942C21.9326 120.546 22.0101 120.197 22.165 119.896C22.32 119.591 22.5433 119.338 22.835 119.138C23.1266 118.933 23.4775 118.778 23.8877 118.673C24.2979 118.568 24.7559 118.516 25.2617 118.516H26.7314ZM31.0381 112.5V123H29.7666V112.5H31.0381ZM35.5566 115.604L32.3301 119.056L30.5254 120.929L30.4229 119.582L31.7148 118.037L34.0117 115.604H35.5566ZM34.4014 123L31.7627 119.473L32.4189 118.345L35.8916 123H34.4014ZM44.6963 121.735V117.928C44.6963 117.636 44.637 117.383 44.5186 117.169C44.4046 116.95 44.2314 116.782 43.999 116.663C43.7666 116.545 43.4795 116.485 43.1377 116.485C42.8187 116.485 42.5384 116.54 42.2969 116.649C42.0599 116.759 41.873 116.902 41.7363 117.08C41.6042 117.258 41.5381 117.449 41.5381 117.654H40.2734C40.2734 117.39 40.3418 117.128 40.4785 116.868C40.6152 116.608 40.8112 116.374 41.0664 116.164C41.3262 115.95 41.6361 115.781 41.9961 115.658C42.3607 115.531 42.7663 115.467 43.2129 115.467C43.7507 115.467 44.2246 115.558 44.6348 115.74C45.0495 115.923 45.373 116.198 45.6055 116.567C45.8424 116.932 45.9609 117.39 45.9609 117.941V121.387C45.9609 121.633 45.9814 121.895 46.0225 122.173C46.068 122.451 46.1341 122.69 46.2207 122.891V123H44.9014C44.8376 122.854 44.7874 122.66 44.751 122.419C44.7145 122.173 44.6963 121.945 44.6963 121.735ZM44.915 118.516L44.9287 119.404H43.6504C43.2904 119.404 42.9691 119.434 42.6865 119.493C42.404 119.548 42.167 119.632 41.9756 119.746C41.7842 119.86 41.6383 120.004 41.5381 120.177C41.4378 120.345 41.3877 120.544 41.3877 120.771C41.3877 121.004 41.4401 121.216 41.5449 121.407C41.6497 121.599 41.807 121.751 42.0166 121.865C42.2308 121.975 42.4928 122.029 42.8027 122.029C43.1901 122.029 43.5319 121.947 43.8281 121.783C44.1243 121.619 44.359 121.419 44.5322 121.182C44.71 120.945 44.8057 120.715 44.8193 120.491L45.3594 121.1C45.3275 121.291 45.2409 121.503 45.0996 121.735C44.9583 121.968 44.7692 122.191 44.5322 122.405C44.2998 122.615 44.0218 122.79 43.6982 122.932C43.3792 123.068 43.0192 123.137 42.6182 123.137C42.1169 123.137 41.6771 123.039 41.2988 122.843C40.9251 122.647 40.6335 122.385 40.4238 122.057C40.2188 121.724 40.1162 121.353 40.1162 120.942C40.1162 120.546 40.1937 120.197 40.3486 119.896C40.5036 119.591 40.7269 119.338 41.0186 119.138C41.3102 118.933 41.6611 118.778 42.0713 118.673C42.4814 118.568 42.9395 118.516 43.4453 118.516H44.915ZM52.6123 121.564V112.5H53.8838V123H52.7217L52.6123 121.564ZM47.6357 119.384V119.24C47.6357 118.675 47.7041 118.162 47.8408 117.702C47.9821 117.237 48.1803 116.839 48.4355 116.506C48.6953 116.173 49.0029 115.918 49.3584 115.74C49.7184 115.558 50.1195 115.467 50.5615 115.467C51.0264 115.467 51.432 115.549 51.7783 115.713C52.1292 115.872 52.4255 116.107 52.667 116.417C52.9131 116.722 53.1068 117.091 53.248 117.524C53.3893 117.957 53.4873 118.447 53.542 118.994V119.623C53.4919 120.165 53.3939 120.653 53.248 121.086C53.1068 121.519 52.9131 121.888 52.667 122.193C52.4255 122.499 52.1292 122.733 51.7783 122.897C51.4274 123.057 51.0173 123.137 50.5479 123.137C50.1149 123.137 49.7184 123.043 49.3584 122.856C49.0029 122.67 48.6953 122.408 48.4355 122.07C48.1803 121.733 47.9821 121.337 47.8408 120.881C47.7041 120.421 47.6357 119.922 47.6357 119.384ZM48.9072 119.24V119.384C48.9072 119.753 48.9437 120.099 49.0166 120.423C49.0941 120.746 49.2126 121.031 49.3721 121.277C49.5316 121.523 49.7344 121.717 49.9805 121.858C50.2266 121.995 50.5205 122.063 50.8623 122.063C51.2816 122.063 51.6257 121.975 51.8945 121.797C52.168 121.619 52.3867 121.384 52.5508 121.093C52.7148 120.801 52.8424 120.484 52.9336 120.143V118.495C52.8789 118.244 52.7992 118.003 52.6943 117.771C52.5941 117.534 52.4619 117.324 52.2979 117.142C52.1383 116.955 51.9401 116.807 51.7031 116.697C51.4707 116.588 51.195 116.533 50.876 116.533C50.5296 116.533 50.2311 116.606 49.9805 116.752C49.7344 116.893 49.5316 117.089 49.3721 117.34C49.2126 117.586 49.0941 117.873 49.0166 118.201C48.9437 118.525 48.9072 118.871 48.9072 119.24ZM60.2139 121.735V117.928C60.2139 117.636 60.1546 117.383 60.0361 117.169C59.9222 116.95 59.749 116.782 59.5166 116.663C59.2842 116.545 58.9971 116.485 58.6553 116.485C58.3363 116.485 58.056 116.54 57.8145 116.649C57.5775 116.759 57.3906 116.902 57.2539 117.08C57.1217 117.258 57.0557 117.449 57.0557 117.654H55.791C55.791 117.39 55.8594 117.128 55.9961 116.868C56.1328 116.608 56.3288 116.374 56.584 116.164C56.8438 115.95 57.1536 115.781 57.5137 115.658C57.8783 115.531 58.2839 115.467 58.7305 115.467C59.2682 115.467 59.7422 115.558 60.1523 115.74C60.5671 115.923 60.8906 116.198 61.123 116.567C61.36 116.932 61.4785 117.39 61.4785 117.941V121.387C61.4785 121.633 61.499 121.895 61.54 122.173C61.5856 122.451 61.6517 122.69 61.7383 122.891V123H60.4189C60.3551 122.854 60.305 122.66 60.2686 122.419C60.2321 122.173 60.2139 121.945 60.2139 121.735ZM60.4326 118.516L60.4463 119.404H59.168C58.8079 119.404 58.4867 119.434 58.2041 119.493C57.9215 119.548 57.6846 119.632 57.4932 119.746C57.3018 119.86 57.1559 120.004 57.0557 120.177C56.9554 120.345 56.9053 120.544 56.9053 120.771C56.9053 121.004 56.9577 121.216 57.0625 121.407C57.1673 121.599 57.3245 121.751 57.5342 121.865C57.7484 121.975 58.0104 122.029 58.3203 122.029C58.7077 122.029 59.0495 121.947 59.3457 121.783C59.6419 121.619 59.8766 121.419 60.0498 121.182C60.2275 120.945 60.3232 120.715 60.3369 120.491L60.877 121.1C60.8451 121.291 60.7585 121.503 60.6172 121.735C60.4759 121.968 60.2868 122.191 60.0498 122.405C59.8174 122.615 59.5394 122.79 59.2158 122.932C58.8968 123.068 58.5368 123.137 58.1357 123.137C57.6344 123.137 57.1947 123.039 56.8164 122.843C56.4427 122.647 56.151 122.385 55.9414 122.057C55.7363 121.724 55.6338 121.353 55.6338 120.942C55.6338 120.546 55.7113 120.197 55.8662 119.896C56.0212 119.591 56.2445 119.338 56.5361 119.138C56.8278 118.933 57.1787 118.778 57.5889 118.673C57.999 118.568 58.457 118.516 58.9629 118.516H60.4326ZM68.2119 112.5V123H66.9404V112.5H68.2119ZM72.7305 115.604L69.5039 119.056L67.6992 120.929L67.5967 119.582L68.8887 118.037L71.1855 115.604H72.7305ZM71.5752 123L68.9365 119.473L69.5928 118.345L73.0654 123H71.5752ZM73.7012 119.384V119.227C73.7012 118.693 73.7786 118.199 73.9336 117.743C74.0885 117.283 74.3118 116.884 74.6035 116.547C74.8952 116.205 75.2484 115.941 75.6631 115.754C76.0778 115.562 76.5426 115.467 77.0576 115.467C77.5771 115.467 78.0443 115.562 78.459 115.754C78.8783 115.941 79.2337 116.205 79.5254 116.547C79.8216 116.884 80.0472 117.283 80.2021 117.743C80.3571 118.199 80.4346 118.693 80.4346 119.227V119.384C80.4346 119.917 80.3571 120.411 80.2021 120.867C80.0472 121.323 79.8216 121.722 79.5254 122.063C79.2337 122.401 78.8805 122.665 78.4658 122.856C78.0557 123.043 77.5908 123.137 77.0713 123.137C76.5518 123.137 76.0846 123.043 75.6699 122.856C75.2552 122.665 74.8997 122.401 74.6035 122.063C74.3118 121.722 74.0885 121.323 73.9336 120.867C73.7786 120.411 73.7012 119.917 73.7012 119.384ZM74.9658 119.227V119.384C74.9658 119.753 75.0091 120.102 75.0957 120.43C75.1823 120.753 75.3122 121.04 75.4854 121.291C75.6631 121.542 75.8841 121.74 76.1484 121.886C76.4128 122.027 76.7204 122.098 77.0713 122.098C77.4176 122.098 77.7207 122.027 77.9805 121.886C78.2448 121.74 78.4635 121.542 78.6367 121.291C78.8099 121.04 78.9398 120.753 79.0264 120.43C79.1175 120.102 79.1631 119.753 79.1631 119.384V119.227C79.1631 118.862 79.1175 118.518 79.0264 118.194C78.9398 117.866 78.8076 117.577 78.6299 117.326C78.4567 117.071 78.238 116.87 77.9736 116.725C77.7139 116.579 77.4085 116.506 77.0576 116.506C76.7113 116.506 76.4059 116.579 76.1416 116.725C75.8818 116.87 75.6631 117.071 75.4854 117.326C75.3122 117.577 75.1823 117.866 75.0957 118.194C75.0091 118.518 74.9658 118.862 74.9658 119.227ZM83.2852 117.183V123H82.0205V115.604H83.2168L83.2852 117.183ZM82.9844 119.021L82.458 119.001C82.4626 118.495 82.5378 118.028 82.6836 117.6C82.8294 117.167 83.0345 116.791 83.2988 116.472C83.5632 116.153 83.8776 115.907 84.2422 115.733C84.6113 115.556 85.0192 115.467 85.4658 115.467C85.8304 115.467 86.1585 115.517 86.4502 115.617C86.7419 115.713 86.9902 115.868 87.1953 116.082C87.4049 116.296 87.5645 116.574 87.6738 116.916C87.7832 117.253 87.8379 117.666 87.8379 118.153V123H86.5664V118.14C86.5664 117.752 86.5094 117.442 86.3955 117.21C86.2816 116.973 86.1152 116.802 85.8965 116.697C85.6777 116.588 85.4089 116.533 85.0898 116.533C84.7754 116.533 84.4883 116.599 84.2285 116.731C83.9733 116.864 83.7523 117.046 83.5654 117.278C83.3831 117.511 83.2396 117.777 83.1348 118.078C83.0345 118.374 82.9844 118.689 82.9844 119.021ZM92.8281 123.137C92.3132 123.137 91.846 123.05 91.4268 122.877C91.012 122.699 90.6543 122.451 90.3535 122.132C90.0573 121.813 89.8294 121.435 89.6699 120.997C89.5104 120.56 89.4307 120.081 89.4307 119.562V119.274C89.4307 118.673 89.5195 118.137 89.6973 117.668C89.875 117.194 90.1165 116.793 90.4219 116.465C90.7272 116.137 91.0736 115.888 91.4609 115.72C91.8483 115.551 92.2493 115.467 92.6641 115.467C93.1927 115.467 93.6484 115.558 94.0312 115.74C94.4186 115.923 94.7354 116.178 94.9814 116.506C95.2275 116.829 95.4098 117.212 95.5283 117.654C95.6468 118.092 95.7061 118.57 95.7061 119.09V119.657H90.1826V118.625H94.4414V118.529C94.4232 118.201 94.3548 117.882 94.2363 117.572C94.1224 117.262 93.9401 117.007 93.6895 116.807C93.4388 116.606 93.097 116.506 92.6641 116.506C92.377 116.506 92.1126 116.567 91.8711 116.69C91.6296 116.809 91.4222 116.987 91.249 117.224C91.0758 117.461 90.9414 117.75 90.8457 118.092C90.75 118.434 90.7021 118.828 90.7021 119.274V119.562C90.7021 119.912 90.75 120.243 90.8457 120.553C90.946 120.858 91.0895 121.127 91.2764 121.359C91.4678 121.592 91.6979 121.774 91.9668 121.906C92.2402 122.038 92.5501 122.104 92.8965 122.104C93.3431 122.104 93.7214 122.013 94.0312 121.831C94.3411 121.649 94.6123 121.405 94.8447 121.1L95.6104 121.708C95.4508 121.95 95.248 122.18 95.002 122.398C94.7559 122.617 94.4528 122.795 94.0928 122.932C93.7373 123.068 93.3158 123.137 92.8281 123.137ZM98.4541 112.5V123H97.1826V112.5H98.4541ZM102.973 115.604L99.7461 119.056L97.9414 120.929L97.8389 119.582L99.1309 118.037L101.428 115.604H102.973ZM101.817 123L99.1787 119.473L99.835 118.345L103.308 123H101.817ZM108.585 121.038C108.585 120.856 108.544 120.687 108.462 120.532C108.384 120.373 108.223 120.229 107.977 120.102C107.735 119.969 107.37 119.855 106.883 119.76C106.473 119.673 106.101 119.571 105.769 119.452C105.44 119.334 105.16 119.19 104.928 119.021C104.7 118.853 104.524 118.655 104.401 118.427C104.278 118.199 104.217 117.932 104.217 117.627C104.217 117.335 104.281 117.06 104.408 116.8C104.54 116.54 104.725 116.31 104.962 116.109C105.203 115.909 105.493 115.752 105.83 115.638C106.167 115.524 106.543 115.467 106.958 115.467C107.55 115.467 108.056 115.572 108.476 115.781C108.895 115.991 109.216 116.271 109.439 116.622C109.663 116.968 109.774 117.354 109.774 117.777H108.51C108.51 117.572 108.448 117.374 108.325 117.183C108.207 116.987 108.031 116.825 107.799 116.697C107.571 116.57 107.291 116.506 106.958 116.506C106.607 116.506 106.322 116.561 106.104 116.67C105.889 116.775 105.732 116.909 105.632 117.073C105.536 117.237 105.488 117.41 105.488 117.593C105.488 117.729 105.511 117.853 105.557 117.962C105.607 118.067 105.693 118.165 105.816 118.256C105.939 118.342 106.113 118.424 106.336 118.502C106.559 118.579 106.844 118.657 107.19 118.734C107.797 118.871 108.296 119.035 108.688 119.227C109.079 119.418 109.371 119.653 109.562 119.931C109.754 120.209 109.85 120.546 109.85 120.942C109.85 121.266 109.781 121.562 109.645 121.831C109.512 122.1 109.319 122.332 109.063 122.528C108.813 122.72 108.512 122.87 108.161 122.979C107.815 123.084 107.425 123.137 106.992 123.137C106.34 123.137 105.789 123.021 105.338 122.788C104.887 122.556 104.545 122.255 104.312 121.886C104.08 121.517 103.964 121.127 103.964 120.717H105.235C105.254 121.063 105.354 121.339 105.536 121.544C105.718 121.744 105.942 121.888 106.206 121.975C106.47 122.057 106.732 122.098 106.992 122.098C107.339 122.098 107.628 122.052 107.86 121.961C108.097 121.87 108.277 121.744 108.4 121.585C108.523 121.425 108.585 121.243 108.585 121.038ZM112.885 115.604V123H111.613V115.604H112.885ZM111.518 113.642C111.518 113.437 111.579 113.263 111.702 113.122C111.83 112.981 112.017 112.91 112.263 112.91C112.504 112.91 112.689 112.981 112.816 113.122C112.949 113.263 113.015 113.437 113.015 113.642C113.015 113.838 112.949 114.006 112.816 114.147C112.689 114.284 112.504 114.353 112.263 114.353C112.017 114.353 111.83 114.284 111.702 114.147C111.579 114.006 111.518 113.838 111.518 113.642ZM119.762 115.604V123H118.49V115.604H119.762ZM118.395 113.642C118.395 113.437 118.456 113.263 118.579 113.122C118.707 112.981 118.894 112.91 119.14 112.91C119.381 112.91 119.566 112.981 119.693 113.122C119.826 113.263 119.892 113.437 119.892 113.642C119.892 113.838 119.826 114.006 119.693 114.147C119.566 114.284 119.381 114.353 119.14 114.353C118.894 114.353 118.707 114.284 118.579 114.147C118.456 114.006 118.395 113.838 118.395 113.642ZM123.057 117.183V123H121.792V115.604H122.988L123.057 117.183ZM122.756 119.021L122.229 119.001C122.234 118.495 122.309 118.028 122.455 117.6C122.601 117.167 122.806 116.791 123.07 116.472C123.335 116.153 123.649 115.907 124.014 115.733C124.383 115.556 124.791 115.467 125.237 115.467C125.602 115.467 125.93 115.517 126.222 115.617C126.513 115.713 126.762 115.868 126.967 116.082C127.176 116.296 127.336 116.574 127.445 116.916C127.555 117.253 127.609 117.666 127.609 118.153V123H126.338V118.14C126.338 117.752 126.281 117.442 126.167 117.21C126.053 116.973 125.887 116.802 125.668 116.697C125.449 116.588 125.18 116.533 124.861 116.533C124.547 116.533 124.26 116.599 124 116.731C123.745 116.864 123.524 117.046 123.337 117.278C123.155 117.511 123.011 117.777 122.906 118.078C122.806 118.374 122.756 118.689 122.756 119.021ZM132.627 115.604V116.574H128.628V115.604H132.627ZM129.981 113.806H131.246V121.168C131.246 121.419 131.285 121.608 131.362 121.735C131.44 121.863 131.54 121.947 131.663 121.988C131.786 122.029 131.918 122.05 132.06 122.05C132.164 122.05 132.274 122.041 132.388 122.022C132.506 122 132.595 121.981 132.654 121.968L132.661 123C132.561 123.032 132.429 123.062 132.265 123.089C132.105 123.121 131.911 123.137 131.684 123.137C131.374 123.137 131.089 123.075 130.829 122.952C130.569 122.829 130.362 122.624 130.207 122.337C130.057 122.045 129.981 121.653 129.981 121.161V113.806ZM137.18 123.137C136.665 123.137 136.198 123.05 135.778 122.877C135.364 122.699 135.006 122.451 134.705 122.132C134.409 121.813 134.181 121.435 134.021 120.997C133.862 120.56 133.782 120.081 133.782 119.562V119.274C133.782 118.673 133.871 118.137 134.049 117.668C134.227 117.194 134.468 116.793 134.773 116.465C135.079 116.137 135.425 115.888 135.812 115.72C136.2 115.551 136.601 115.467 137.016 115.467C137.544 115.467 138 115.558 138.383 115.74C138.77 115.923 139.087 116.178 139.333 116.506C139.579 116.829 139.761 117.212 139.88 117.654C139.998 118.092 140.058 118.57 140.058 119.09V119.657H134.534V118.625H138.793V118.529C138.775 118.201 138.706 117.882 138.588 117.572C138.474 117.262 138.292 117.007 138.041 116.807C137.79 116.606 137.449 116.506 137.016 116.506C136.729 116.506 136.464 116.567 136.223 116.69C135.981 116.809 135.774 116.987 135.601 117.224C135.427 117.461 135.293 117.75 135.197 118.092C135.102 118.434 135.054 118.828 135.054 119.274V119.562C135.054 119.912 135.102 120.243 135.197 120.553C135.298 120.858 135.441 121.127 135.628 121.359C135.819 121.592 136.049 121.774 136.318 121.906C136.592 122.038 136.902 122.104 137.248 122.104C137.695 122.104 138.073 122.013 138.383 121.831C138.693 121.649 138.964 121.405 139.196 121.1L139.962 121.708C139.802 121.95 139.6 122.18 139.354 122.398C139.107 122.617 138.804 122.795 138.444 122.932C138.089 123.068 137.667 123.137 137.18 123.137ZM142.799 116.766V123H141.534V115.604H142.765L142.799 116.766ZM145.109 115.562L145.103 116.738C144.998 116.715 144.897 116.702 144.802 116.697C144.711 116.688 144.606 116.684 144.487 116.684C144.196 116.684 143.938 116.729 143.715 116.82C143.492 116.911 143.302 117.039 143.147 117.203C142.993 117.367 142.869 117.563 142.778 117.791C142.692 118.014 142.635 118.26 142.607 118.529L142.252 118.734C142.252 118.288 142.295 117.868 142.382 117.477C142.473 117.085 142.612 116.738 142.799 116.438C142.986 116.132 143.223 115.895 143.51 115.727C143.801 115.553 144.148 115.467 144.549 115.467C144.64 115.467 144.745 115.478 144.863 115.501C144.982 115.519 145.064 115.54 145.109 115.562ZM147.543 117.183V123H146.278V115.604H147.475L147.543 117.183ZM147.242 119.021L146.716 119.001C146.72 118.495 146.796 118.028 146.941 117.6C147.087 117.167 147.292 116.791 147.557 116.472C147.821 116.153 148.135 115.907 148.5 115.733C148.869 115.556 149.277 115.467 149.724 115.467C150.088 115.467 150.416 115.517 150.708 115.617C151 115.713 151.248 115.868 151.453 116.082C151.663 116.296 151.822 116.574 151.932 116.916C152.041 117.253 152.096 117.666 152.096 118.153V123H150.824V118.14C150.824 117.752 150.767 117.442 150.653 117.21C150.539 116.973 150.373 116.802 150.154 116.697C149.936 116.588 149.667 116.533 149.348 116.533C149.033 116.533 148.746 116.599 148.486 116.731C148.231 116.864 148.01 117.046 147.823 117.278C147.641 117.511 147.497 117.777 147.393 118.078C147.292 118.374 147.242 118.689 147.242 119.021ZM157.086 123.137C156.571 123.137 156.104 123.05 155.685 122.877C155.27 122.699 154.912 122.451 154.611 122.132C154.315 121.813 154.087 121.435 153.928 120.997C153.768 120.56 153.688 120.081 153.688 119.562V119.274C153.688 118.673 153.777 118.137 153.955 117.668C154.133 117.194 154.374 116.793 154.68 116.465C154.985 116.137 155.331 115.888 155.719 115.72C156.106 115.551 156.507 115.467 156.922 115.467C157.451 115.467 157.906 115.558 158.289 115.74C158.676 115.923 158.993 116.178 159.239 116.506C159.485 116.829 159.668 117.212 159.786 117.654C159.905 118.092 159.964 118.57 159.964 119.09V119.657H154.44V118.625H158.699V118.529C158.681 118.201 158.613 117.882 158.494 117.572C158.38 117.262 158.198 117.007 157.947 116.807C157.697 116.606 157.355 116.506 156.922 116.506C156.635 116.506 156.37 116.567 156.129 116.69C155.887 116.809 155.68 116.987 155.507 117.224C155.334 117.461 155.199 117.75 155.104 118.092C155.008 118.434 154.96 118.828 154.96 119.274V119.562C154.96 119.912 155.008 120.243 155.104 120.553C155.204 120.858 155.347 121.127 155.534 121.359C155.726 121.592 155.956 121.774 156.225 121.906C156.498 122.038 156.808 122.104 157.154 122.104C157.601 122.104 157.979 122.013 158.289 121.831C158.599 121.649 158.87 121.405 159.103 121.1L159.868 121.708C159.709 121.95 159.506 122.18 159.26 122.398C159.014 122.617 158.711 122.795 158.351 122.932C157.995 123.068 157.574 123.137 157.086 123.137ZM164.537 115.604V116.574H160.538V115.604H164.537ZM161.892 113.806H163.156V121.168C163.156 121.419 163.195 121.608 163.272 121.735C163.35 121.863 163.45 121.947 163.573 121.988C163.696 122.029 163.828 122.05 163.97 122.05C164.075 122.05 164.184 122.041 164.298 122.022C164.416 122 164.505 121.981 164.564 121.968L164.571 123C164.471 123.032 164.339 123.062 164.175 123.089C164.015 123.121 163.822 123.137 163.594 123.137C163.284 123.137 162.999 123.075 162.739 122.952C162.479 122.829 162.272 122.624 162.117 122.337C161.967 122.045 161.892 121.653 161.892 121.161V113.806ZM166.041 122.33C166.041 122.116 166.107 121.936 166.239 121.79C166.376 121.64 166.572 121.564 166.827 121.564C167.082 121.564 167.276 121.64 167.408 121.79C167.545 121.936 167.613 122.116 167.613 122.33C167.613 122.54 167.545 122.717 167.408 122.863C167.276 123.009 167.082 123.082 166.827 123.082C166.572 123.082 166.376 123.009 166.239 122.863C166.107 122.717 166.041 122.54 166.041 122.33ZM177.047 119.097H174.388V118.023H177.047C177.562 118.023 177.979 117.941 178.298 117.777C178.617 117.613 178.849 117.385 178.995 117.094C179.146 116.802 179.221 116.469 179.221 116.096C179.221 115.754 179.146 115.433 178.995 115.132C178.849 114.831 178.617 114.59 178.298 114.407C177.979 114.22 177.562 114.127 177.047 114.127H174.695V123H173.376V113.047H177.047C177.799 113.047 178.435 113.177 178.954 113.437C179.474 113.696 179.868 114.056 180.137 114.517C180.406 114.972 180.54 115.494 180.54 116.082C180.54 116.72 180.406 117.265 180.137 117.716C179.868 118.167 179.474 118.511 178.954 118.748C178.435 118.98 177.799 119.097 177.047 119.097ZM184.99 123.137C184.475 123.137 184.008 123.05 183.589 122.877C183.174 122.699 182.816 122.451 182.516 122.132C182.219 121.813 181.992 121.435 181.832 120.997C181.673 120.56 181.593 120.081 181.593 119.562V119.274C181.593 118.673 181.682 118.137 181.859 117.668C182.037 117.194 182.279 116.793 182.584 116.465C182.889 116.137 183.236 115.888 183.623 115.72C184.01 115.551 184.411 115.467 184.826 115.467C185.355 115.467 185.811 115.558 186.193 115.74C186.581 115.923 186.897 116.178 187.144 116.506C187.39 116.829 187.572 117.212 187.69 117.654C187.809 118.092 187.868 118.57 187.868 119.09V119.657H182.345V118.625H186.604V118.529C186.585 118.201 186.517 117.882 186.398 117.572C186.285 117.262 186.102 117.007 185.852 116.807C185.601 116.606 185.259 116.506 184.826 116.506C184.539 116.506 184.275 116.567 184.033 116.69C183.792 116.809 183.584 116.987 183.411 117.224C183.238 117.461 183.104 117.75 183.008 118.092C182.912 118.434 182.864 118.828 182.864 119.274V119.562C182.864 119.912 182.912 120.243 183.008 120.553C183.108 120.858 183.252 121.127 183.438 121.359C183.63 121.592 183.86 121.774 184.129 121.906C184.402 122.038 184.712 122.104 185.059 122.104C185.505 122.104 185.883 122.013 186.193 121.831C186.503 121.649 186.774 121.405 187.007 121.1L187.772 121.708C187.613 121.95 187.41 122.18 187.164 122.398C186.918 122.617 186.615 122.795 186.255 122.932C185.899 123.068 185.478 123.137 184.99 123.137ZM190.609 116.766V123H189.345V115.604H190.575L190.609 116.766ZM192.92 115.562L192.913 116.738C192.808 116.715 192.708 116.702 192.612 116.697C192.521 116.688 192.416 116.684 192.298 116.684C192.006 116.684 191.749 116.729 191.525 116.82C191.302 116.911 191.113 117.039 190.958 117.203C190.803 117.367 190.68 117.563 190.589 117.791C190.502 118.014 190.445 118.26 190.418 118.529L190.062 118.734C190.062 118.288 190.106 117.868 190.192 117.477C190.284 117.085 190.423 116.738 190.609 116.438C190.796 116.132 191.033 115.895 191.32 115.727C191.612 115.553 191.958 115.467 192.359 115.467C192.451 115.467 192.555 115.478 192.674 115.501C192.792 115.519 192.874 115.54 192.92 115.562ZM195.463 115.604V123H194.191V115.604H195.463ZM194.096 113.642C194.096 113.437 194.157 113.263 194.28 113.122C194.408 112.981 194.595 112.91 194.841 112.91C195.082 112.91 195.267 112.981 195.395 113.122C195.527 113.263 195.593 113.437 195.593 113.642C195.593 113.838 195.527 114.006 195.395 114.147C195.267 114.284 195.082 114.353 194.841 114.353C194.595 114.353 194.408 114.284 194.28 114.147C194.157 114.006 194.096 113.838 194.096 113.642ZM198.765 112.5V123H197.493V112.5H198.765ZM203.283 115.604L200.057 119.056L198.252 120.929L198.149 119.582L199.441 118.037L201.738 115.604H203.283ZM202.128 123L199.489 119.473L200.146 118.345L203.618 123H202.128ZM208.896 121.038C208.896 120.856 208.854 120.687 208.772 120.532C208.695 120.373 208.533 120.229 208.287 120.102C208.046 119.969 207.681 119.855 207.193 119.76C206.783 119.673 206.412 119.571 206.079 119.452C205.751 119.334 205.471 119.19 205.238 119.021C205.01 118.853 204.835 118.655 204.712 118.427C204.589 118.199 204.527 117.932 204.527 117.627C204.527 117.335 204.591 117.06 204.719 116.8C204.851 116.54 205.035 116.31 205.272 116.109C205.514 115.909 205.803 115.752 206.141 115.638C206.478 115.524 206.854 115.467 207.269 115.467C207.861 115.467 208.367 115.572 208.786 115.781C209.205 115.991 209.527 116.271 209.75 116.622C209.973 116.968 210.085 117.354 210.085 117.777H208.82C208.82 117.572 208.759 117.374 208.636 117.183C208.517 116.987 208.342 116.825 208.109 116.697C207.882 116.57 207.601 116.506 207.269 116.506C206.918 116.506 206.633 116.561 206.414 116.67C206.2 116.775 206.043 116.909 205.942 117.073C205.847 117.237 205.799 117.41 205.799 117.593C205.799 117.729 205.822 117.853 205.867 117.962C205.917 118.067 206.004 118.165 206.127 118.256C206.25 118.342 206.423 118.424 206.646 118.502C206.87 118.579 207.155 118.657 207.501 118.734C208.107 118.871 208.606 119.035 208.998 119.227C209.39 119.418 209.682 119.653 209.873 119.931C210.064 120.209 210.16 120.546 210.16 120.942C210.16 121.266 210.092 121.562 209.955 121.831C209.823 122.1 209.629 122.332 209.374 122.528C209.123 122.72 208.823 122.87 208.472 122.979C208.125 123.084 207.736 123.137 207.303 123.137C206.651 123.137 206.1 123.021 205.648 122.788C205.197 122.556 204.855 122.255 204.623 121.886C204.391 121.517 204.274 121.127 204.274 120.717H205.546C205.564 121.063 205.664 121.339 205.847 121.544C206.029 121.744 206.252 121.888 206.517 121.975C206.781 122.057 207.043 122.098 207.303 122.098C207.649 122.098 207.938 122.052 208.171 121.961C208.408 121.87 208.588 121.744 208.711 121.585C208.834 121.425 208.896 121.243 208.896 121.038ZM216.183 121.735V117.928C216.183 117.636 216.123 117.383 216.005 117.169C215.891 116.95 215.718 116.782 215.485 116.663C215.253 116.545 214.966 116.485 214.624 116.485C214.305 116.485 214.025 116.54 213.783 116.649C213.546 116.759 213.359 116.902 213.223 117.08C213.09 117.258 213.024 117.449 213.024 117.654H211.76C211.76 117.39 211.828 117.128 211.965 116.868C212.102 116.608 212.298 116.374 212.553 116.164C212.812 115.95 213.122 115.781 213.482 115.658C213.847 115.531 214.253 115.467 214.699 115.467C215.237 115.467 215.711 115.558 216.121 115.74C216.536 115.923 216.859 116.198 217.092 116.567C217.329 116.932 217.447 117.39 217.447 117.941V121.387C217.447 121.633 217.468 121.895 217.509 122.173C217.554 122.451 217.62 122.69 217.707 122.891V123H216.388C216.324 122.854 216.274 122.66 216.237 122.419C216.201 122.173 216.183 121.945 216.183 121.735ZM216.401 118.516L216.415 119.404H215.137C214.777 119.404 214.455 119.434 214.173 119.493C213.89 119.548 213.653 119.632 213.462 119.746C213.271 119.86 213.125 120.004 213.024 120.177C212.924 120.345 212.874 120.544 212.874 120.771C212.874 121.004 212.926 121.216 213.031 121.407C213.136 121.599 213.293 121.751 213.503 121.865C213.717 121.975 213.979 122.029 214.289 122.029C214.676 122.029 215.018 121.947 215.314 121.783C215.611 121.619 215.845 121.419 216.019 121.182C216.196 120.945 216.292 120.715 216.306 120.491L216.846 121.1C216.814 121.291 216.727 121.503 216.586 121.735C216.445 121.968 216.256 122.191 216.019 122.405C215.786 122.615 215.508 122.79 215.185 122.932C214.866 123.068 214.506 123.137 214.104 123.137C213.603 123.137 213.163 123.039 212.785 122.843C212.411 122.647 212.12 122.385 211.91 122.057C211.705 121.724 211.603 121.353 211.603 120.942C211.603 120.546 211.68 120.197 211.835 119.896C211.99 119.591 212.213 119.338 212.505 119.138C212.797 118.933 213.147 118.778 213.558 118.673C213.968 118.568 214.426 118.516 214.932 118.516H216.401ZM18.5557 133.5V144H17.2842V133.5H18.5557ZM23.0742 136.604L19.8477 140.056L18.043 141.929L17.9404 140.582L19.2324 139.037L21.5293 136.604H23.0742ZM21.9189 144L19.2803 140.473L19.9365 139.345L23.4092 144H21.9189ZM27.3125 144.137C26.7975 144.137 26.3304 144.05 25.9111 143.877C25.4964 143.699 25.1387 143.451 24.8379 143.132C24.5417 142.813 24.3138 142.435 24.1543 141.997C23.9948 141.56 23.915 141.081 23.915 140.562V140.274C23.915 139.673 24.0039 139.137 24.1816 138.668C24.3594 138.194 24.6009 137.793 24.9062 137.465C25.2116 137.137 25.5579 136.888 25.9453 136.72C26.3327 136.551 26.7337 136.467 27.1484 136.467C27.6771 136.467 28.1328 136.558 28.5156 136.74C28.903 136.923 29.2197 137.178 29.4658 137.506C29.7119 137.829 29.8942 138.212 30.0127 138.654C30.1312 139.092 30.1904 139.57 30.1904 140.09V140.657H24.667V139.625H28.9258V139.529C28.9076 139.201 28.8392 138.882 28.7207 138.572C28.6068 138.262 28.4245 138.007 28.1738 137.807C27.9232 137.606 27.5814 137.506 27.1484 137.506C26.8613 137.506 26.597 137.567 26.3555 137.69C26.1139 137.809 25.9066 137.987 25.7334 138.224C25.5602 138.461 25.4258 138.75 25.3301 139.092C25.2344 139.434 25.1865 139.828 25.1865 140.274V140.562C25.1865 140.912 25.2344 141.243 25.3301 141.553C25.4303 141.858 25.5739 142.127 25.7607 142.359C25.9521 142.592 26.1823 142.774 26.4512 142.906C26.7246 143.038 27.0345 143.104 27.3809 143.104C27.8275 143.104 28.2057 143.013 28.5156 142.831C28.8255 142.649 29.0967 142.405 29.3291 142.1L30.0947 142.708C29.9352 142.95 29.7324 143.18 29.4863 143.398C29.2402 143.617 28.9372 143.795 28.5771 143.932C28.2217 144.068 27.8001 144.137 27.3125 144.137ZM32.9248 138.073V144H31.6533V136.604H32.8564L32.9248 138.073ZM32.665 140.021L32.0771 140.001C32.0817 139.495 32.1478 139.028 32.2754 138.6C32.403 138.167 32.5921 137.791 32.8428 137.472C33.0934 137.153 33.4056 136.907 33.7793 136.733C34.153 136.556 34.5859 136.467 35.0781 136.467C35.4245 136.467 35.7435 136.517 36.0352 136.617C36.3268 136.713 36.5798 136.866 36.7939 137.075C37.0081 137.285 37.1745 137.554 37.293 137.882C37.4115 138.21 37.4707 138.606 37.4707 139.071V144H36.2061V139.133C36.2061 138.745 36.14 138.436 36.0078 138.203C35.8802 137.971 35.6979 137.802 35.4609 137.697C35.224 137.588 34.946 137.533 34.627 137.533C34.2533 137.533 33.9411 137.599 33.6904 137.731C33.4398 137.864 33.2393 138.046 33.0889 138.278C32.9385 138.511 32.8291 138.777 32.7607 139.078C32.6969 139.374 32.665 139.689 32.665 140.021ZM37.457 139.324L36.6094 139.584C36.6139 139.178 36.68 138.789 36.8076 138.415C36.9398 138.041 37.1289 137.709 37.375 137.417C37.6257 137.125 37.9333 136.895 38.2979 136.727C38.6624 136.553 39.0794 136.467 39.5488 136.467C39.9453 136.467 40.2962 136.519 40.6016 136.624C40.9115 136.729 41.1712 136.891 41.3809 137.109C41.5951 137.324 41.7568 137.599 41.8662 137.937C41.9756 138.274 42.0303 138.675 42.0303 139.14V144H40.7588V139.126C40.7588 138.711 40.6927 138.39 40.5605 138.162C40.4329 137.93 40.2507 137.768 40.0137 137.677C39.7812 137.581 39.5033 137.533 39.1797 137.533C38.9017 137.533 38.6556 137.581 38.4414 137.677C38.2272 137.772 38.0472 137.905 37.9014 138.073C37.7555 138.237 37.6439 138.426 37.5664 138.641C37.4935 138.855 37.457 139.083 37.457 139.324ZM43.9375 133.5H45.209V142.564L45.0996 144H43.9375V133.5ZM50.2061 140.24V140.384C50.2061 140.922 50.1423 141.421 50.0146 141.881C49.887 142.337 49.7002 142.733 49.4541 143.07C49.208 143.408 48.9072 143.67 48.5518 143.856C48.1963 144.043 47.7884 144.137 47.3281 144.137C46.8587 144.137 46.4463 144.057 46.0908 143.897C45.7399 143.733 45.4437 143.499 45.2021 143.193C44.9606 142.888 44.7669 142.519 44.6211 142.086C44.4798 141.653 44.3818 141.165 44.3271 140.623V139.994C44.3818 139.447 44.4798 138.957 44.6211 138.524C44.7669 138.091 44.9606 137.722 45.2021 137.417C45.4437 137.107 45.7399 136.872 46.0908 136.713C46.4417 136.549 46.8496 136.467 47.3145 136.467C47.7793 136.467 48.1917 136.558 48.5518 136.74C48.9118 136.918 49.2126 137.173 49.4541 137.506C49.7002 137.839 49.887 138.237 50.0146 138.702C50.1423 139.162 50.2061 139.675 50.2061 140.24ZM48.9346 140.384V140.24C48.9346 139.871 48.9004 139.525 48.832 139.201C48.7637 138.873 48.6543 138.586 48.5039 138.34C48.3535 138.089 48.1553 137.893 47.9092 137.752C47.6631 137.606 47.36 137.533 47 137.533C46.681 137.533 46.403 137.588 46.166 137.697C45.9336 137.807 45.7354 137.955 45.5713 138.142C45.4072 138.324 45.2728 138.534 45.168 138.771C45.0677 139.003 44.9925 139.244 44.9424 139.495V141.143C45.0153 141.462 45.1338 141.769 45.2979 142.065C45.4665 142.357 45.6898 142.596 45.9678 142.783C46.2503 142.97 46.599 143.063 47.0137 143.063C47.3555 143.063 47.6471 142.995 47.8887 142.858C48.1348 142.717 48.333 142.523 48.4834 142.277C48.6383 142.031 48.7523 141.746 48.8252 141.423C48.8981 141.099 48.9346 140.753 48.9346 140.384ZM56.167 142.735V138.928C56.167 138.636 56.1077 138.383 55.9893 138.169C55.8753 137.95 55.7021 137.782 55.4697 137.663C55.2373 137.545 54.9502 137.485 54.6084 137.485C54.2894 137.485 54.0091 137.54 53.7676 137.649C53.5306 137.759 53.3438 137.902 53.207 138.08C53.0749 138.258 53.0088 138.449 53.0088 138.654H51.7441C51.7441 138.39 51.8125 138.128 51.9492 137.868C52.0859 137.608 52.2819 137.374 52.5371 137.164C52.7969 136.95 53.1068 136.781 53.4668 136.658C53.8314 136.531 54.237 136.467 54.6836 136.467C55.2214 136.467 55.6953 136.558 56.1055 136.74C56.5202 136.923 56.8438 137.198 57.0762 137.567C57.3132 137.932 57.4316 138.39 57.4316 138.941V142.387C57.4316 142.633 57.4521 142.895 57.4932 143.173C57.5387 143.451 57.6048 143.69 57.6914 143.891V144H56.3721C56.3083 143.854 56.2581 143.66 56.2217 143.419C56.1852 143.173 56.167 142.945 56.167 142.735ZM56.3857 139.516L56.3994 140.404H55.1211C54.7611 140.404 54.4398 140.434 54.1572 140.493C53.8747 140.548 53.6377 140.632 53.4463 140.746C53.2549 140.86 53.109 141.004 53.0088 141.177C52.9085 141.345 52.8584 141.544 52.8584 141.771C52.8584 142.004 52.9108 142.216 53.0156 142.407C53.1204 142.599 53.2777 142.751 53.4873 142.865C53.7015 142.975 53.9635 143.029 54.2734 143.029C54.6608 143.029 55.0026 142.947 55.2988 142.783C55.5951 142.619 55.8298 142.419 56.0029 142.182C56.1807 141.945 56.2764 141.715 56.29 141.491L56.8301 142.1C56.7982 142.291 56.7116 142.503 56.5703 142.735C56.429 142.968 56.2399 143.191 56.0029 143.405C55.7705 143.615 55.4925 143.79 55.1689 143.932C54.8499 144.068 54.4899 144.137 54.0889 144.137C53.5876 144.137 53.1478 144.039 52.7695 143.843C52.3958 143.647 52.1042 143.385 51.8945 143.057C51.6895 142.724 51.5869 142.353 51.5869 141.942C51.5869 141.546 51.6644 141.197 51.8193 140.896C51.9743 140.591 52.1976 140.338 52.4893 140.138C52.7809 139.933 53.1318 139.778 53.542 139.673C53.9521 139.568 54.4102 139.516 54.916 139.516H56.3857ZM60.7949 133.5V144H59.5234V133.5H60.7949ZM64.1992 136.604V144H62.9277V136.604H64.1992ZM62.832 134.642C62.832 134.437 62.8936 134.263 63.0166 134.122C63.1442 133.981 63.3311 133.91 63.5771 133.91C63.8187 133.91 64.0033 133.981 64.1309 134.122C64.263 134.263 64.3291 134.437 64.3291 134.642C64.3291 134.838 64.263 135.006 64.1309 135.147C64.0033 135.284 63.8187 135.353 63.5771 135.353C63.3311 135.353 63.1442 135.284 63.0166 135.147C62.8936 135.006 62.832 134.838 62.832 134.642ZM70.9736 133.5V144H69.7021V133.5H70.9736ZM75.4922 136.604L72.2656 140.056L70.4609 141.929L70.3584 140.582L71.6504 139.037L73.9473 136.604H75.4922ZM74.3369 144L71.6982 140.473L72.3545 139.345L75.8271 144H74.3369ZM76.4629 140.384V140.227C76.4629 139.693 76.5404 139.199 76.6953 138.743C76.8503 138.283 77.0736 137.884 77.3652 137.547C77.6569 137.205 78.0101 136.941 78.4248 136.754C78.8395 136.562 79.3044 136.467 79.8193 136.467C80.3389 136.467 80.806 136.562 81.2207 136.754C81.64 136.941 81.9954 137.205 82.2871 137.547C82.5833 137.884 82.8089 138.283 82.9639 138.743C83.1188 139.199 83.1963 139.693 83.1963 140.227V140.384C83.1963 140.917 83.1188 141.411 82.9639 141.867C82.8089 142.323 82.5833 142.722 82.2871 143.063C81.9954 143.401 81.6423 143.665 81.2275 143.856C80.8174 144.043 80.3525 144.137 79.833 144.137C79.3135 144.137 78.8464 144.043 78.4316 143.856C78.0169 143.665 77.6615 143.401 77.3652 143.063C77.0736 142.722 76.8503 142.323 76.6953 141.867C76.5404 141.411 76.4629 140.917 76.4629 140.384ZM77.7275 140.227V140.384C77.7275 140.753 77.7708 141.102 77.8574 141.43C77.944 141.753 78.0739 142.04 78.2471 142.291C78.4248 142.542 78.6458 142.74 78.9102 142.886C79.1745 143.027 79.4821 143.098 79.833 143.098C80.1794 143.098 80.4824 143.027 80.7422 142.886C81.0065 142.74 81.2253 142.542 81.3984 142.291C81.5716 142.04 81.7015 141.753 81.7881 141.43C81.8792 141.102 81.9248 140.753 81.9248 140.384V140.227C81.9248 139.862 81.8792 139.518 81.7881 139.194C81.7015 138.866 81.5693 138.577 81.3916 138.326C81.2184 138.071 80.9997 137.87 80.7354 137.725C80.4756 137.579 80.1702 137.506 79.8193 137.506C79.473 137.506 79.1676 137.579 78.9033 137.725C78.6436 137.87 78.4248 138.071 78.2471 138.326C78.0739 138.577 77.944 138.866 77.8574 139.194C77.7708 139.518 77.7275 139.862 77.7275 140.227ZM86.0469 138.183V144H84.7822V136.604H85.9785L86.0469 138.183ZM85.7461 140.021L85.2197 140.001C85.2243 139.495 85.2995 139.028 85.4453 138.6C85.5911 138.167 85.7962 137.791 86.0605 137.472C86.3249 137.153 86.6393 136.907 87.0039 136.733C87.373 136.556 87.7809 136.467 88.2275 136.467C88.5921 136.467 88.9202 136.517 89.2119 136.617C89.5036 136.713 89.752 136.868 89.957 137.082C90.1667 137.296 90.3262 137.574 90.4355 137.916C90.5449 138.253 90.5996 138.666 90.5996 139.153V144H89.3281V139.14C89.3281 138.752 89.2712 138.442 89.1572 138.21C89.0433 137.973 88.877 137.802 88.6582 137.697C88.4395 137.588 88.1706 137.533 87.8516 137.533C87.5371 137.533 87.25 137.599 86.9902 137.731C86.735 137.864 86.514 138.046 86.3271 138.278C86.1449 138.511 86.0013 138.777 85.8965 139.078C85.7962 139.374 85.7461 139.689 85.7461 140.021ZM95.5898 144.137C95.0749 144.137 94.6077 144.05 94.1885 143.877C93.7738 143.699 93.416 143.451 93.1152 143.132C92.819 142.813 92.5911 142.435 92.4316 141.997C92.2721 141.56 92.1924 141.081 92.1924 140.562V140.274C92.1924 139.673 92.2812 139.137 92.459 138.668C92.6367 138.194 92.8783 137.793 93.1836 137.465C93.4889 137.137 93.8353 136.888 94.2227 136.72C94.61 136.551 95.0111 136.467 95.4258 136.467C95.9544 136.467 96.4102 136.558 96.793 136.74C97.1803 136.923 97.4971 137.178 97.7432 137.506C97.9893 137.829 98.1715 138.212 98.29 138.654C98.4085 139.092 98.4678 139.57 98.4678 140.09V140.657H92.9443V139.625H97.2031V139.529C97.1849 139.201 97.1165 138.882 96.998 138.572C96.8841 138.262 96.7018 138.007 96.4512 137.807C96.2005 137.606 95.8587 137.506 95.4258 137.506C95.1387 137.506 94.8743 137.567 94.6328 137.69C94.3913 137.809 94.1839 137.987 94.0107 138.224C93.8376 138.461 93.7031 138.75 93.6074 139.092C93.5117 139.434 93.4639 139.828 93.4639 140.274V140.562C93.4639 140.912 93.5117 141.243 93.6074 141.553C93.7077 141.858 93.8512 142.127 94.0381 142.359C94.2295 142.592 94.4596 142.774 94.7285 142.906C95.002 143.038 95.3118 143.104 95.6582 143.104C96.1048 143.104 96.4831 143.013 96.793 142.831C97.1029 142.649 97.374 142.405 97.6064 142.1L98.3721 142.708C98.2126 142.95 98.0098 143.18 97.7637 143.398C97.5176 143.617 97.2145 143.795 96.8545 143.932C96.499 144.068 96.0775 144.137 95.5898 144.137ZM101.216 133.5V144H99.9443V133.5H101.216ZM105.734 136.604L102.508 140.056L100.703 141.929L100.601 140.582L101.893 139.037L104.189 136.604H105.734ZM104.579 144L101.94 140.473L102.597 139.345L106.069 144H104.579ZM111.347 142.038C111.347 141.856 111.306 141.687 111.224 141.532C111.146 141.373 110.984 141.229 110.738 141.102C110.497 140.969 110.132 140.855 109.645 140.76C109.234 140.673 108.863 140.571 108.53 140.452C108.202 140.334 107.922 140.19 107.689 140.021C107.462 139.853 107.286 139.655 107.163 139.427C107.04 139.199 106.979 138.932 106.979 138.627C106.979 138.335 107.042 138.06 107.17 137.8C107.302 137.54 107.487 137.31 107.724 137.109C107.965 136.909 108.255 136.752 108.592 136.638C108.929 136.524 109.305 136.467 109.72 136.467C110.312 136.467 110.818 136.572 111.237 136.781C111.657 136.991 111.978 137.271 112.201 137.622C112.424 137.968 112.536 138.354 112.536 138.777H111.271C111.271 138.572 111.21 138.374 111.087 138.183C110.968 137.987 110.793 137.825 110.561 137.697C110.333 137.57 110.052 137.506 109.72 137.506C109.369 137.506 109.084 137.561 108.865 137.67C108.651 137.775 108.494 137.909 108.394 138.073C108.298 138.237 108.25 138.41 108.25 138.593C108.25 138.729 108.273 138.853 108.318 138.962C108.368 139.067 108.455 139.165 108.578 139.256C108.701 139.342 108.874 139.424 109.098 139.502C109.321 139.579 109.606 139.657 109.952 139.734C110.558 139.871 111.057 140.035 111.449 140.227C111.841 140.418 112.133 140.653 112.324 140.931C112.516 141.209 112.611 141.546 112.611 141.942C112.611 142.266 112.543 142.562 112.406 142.831C112.274 143.1 112.08 143.332 111.825 143.528C111.575 143.72 111.274 143.87 110.923 143.979C110.576 144.084 110.187 144.137 109.754 144.137C109.102 144.137 108.551 144.021 108.1 143.788C107.648 143.556 107.307 143.255 107.074 142.886C106.842 142.517 106.726 142.127 106.726 141.717H107.997C108.015 142.063 108.116 142.339 108.298 142.544C108.48 142.744 108.703 142.888 108.968 142.975C109.232 143.057 109.494 143.098 109.754 143.098C110.1 143.098 110.39 143.052 110.622 142.961C110.859 142.87 111.039 142.744 111.162 142.585C111.285 142.425 111.347 142.243 111.347 142.038ZM115.646 136.604V144H114.375V136.604H115.646ZM114.279 134.642C114.279 134.437 114.341 134.263 114.464 134.122C114.591 133.981 114.778 133.91 115.024 133.91C115.266 133.91 115.451 133.981 115.578 134.122C115.71 134.263 115.776 134.437 115.776 134.642C115.776 134.838 115.71 135.006 115.578 135.147C115.451 135.284 115.266 135.353 115.024 135.353C114.778 135.353 114.591 135.284 114.464 135.147C114.341 135.006 114.279 134.838 114.279 134.642ZM122.523 136.604V144H121.252V136.604H122.523ZM121.156 134.642C121.156 134.437 121.218 134.263 121.341 134.122C121.468 133.981 121.655 133.91 121.901 133.91C122.143 133.91 122.327 133.981 122.455 134.122C122.587 134.263 122.653 134.437 122.653 134.642C122.653 134.838 122.587 135.006 122.455 135.147C122.327 135.284 122.143 135.353 121.901 135.353C121.655 135.353 121.468 135.284 121.341 135.147C121.218 135.006 121.156 134.838 121.156 134.642ZM125.818 138.183V144H124.554V136.604H125.75L125.818 138.183ZM125.518 140.021L124.991 140.001C124.996 139.495 125.071 139.028 125.217 138.6C125.363 138.167 125.568 137.791 125.832 137.472C126.096 137.153 126.411 136.907 126.775 136.733C127.145 136.556 127.552 136.467 127.999 136.467C128.364 136.467 128.692 136.517 128.983 136.617C129.275 136.713 129.523 136.868 129.729 137.082C129.938 137.296 130.098 137.574 130.207 137.916C130.316 138.253 130.371 138.666 130.371 139.153V144H129.1V139.14C129.1 138.752 129.043 138.442 128.929 138.21C128.815 137.973 128.648 137.802 128.43 137.697C128.211 137.588 127.942 137.533 127.623 137.533C127.309 137.533 127.021 137.599 126.762 137.731C126.507 137.864 126.285 138.046 126.099 138.278C125.916 138.511 125.773 138.777 125.668 139.078C125.568 139.374 125.518 139.689 125.518 140.021ZM135.389 136.604V137.574H131.39V136.604H135.389ZM132.743 134.806H134.008V142.168C134.008 142.419 134.047 142.608 134.124 142.735C134.201 142.863 134.302 142.947 134.425 142.988C134.548 143.029 134.68 143.05 134.821 143.05C134.926 143.05 135.035 143.041 135.149 143.022C135.268 143 135.357 142.981 135.416 142.968L135.423 144C135.323 144.032 135.19 144.062 135.026 144.089C134.867 144.121 134.673 144.137 134.445 144.137C134.135 144.137 133.851 144.075 133.591 143.952C133.331 143.829 133.124 143.624 132.969 143.337C132.818 143.045 132.743 142.653 132.743 142.161V134.806ZM139.941 144.137C139.426 144.137 138.959 144.05 138.54 143.877C138.125 143.699 137.768 143.451 137.467 143.132C137.171 142.813 136.943 142.435 136.783 141.997C136.624 141.56 136.544 141.081 136.544 140.562V140.274C136.544 139.673 136.633 139.137 136.811 138.668C136.988 138.194 137.23 137.793 137.535 137.465C137.84 137.137 138.187 136.888 138.574 136.72C138.962 136.551 139.363 136.467 139.777 136.467C140.306 136.467 140.762 136.558 141.145 136.74C141.532 136.923 141.849 137.178 142.095 137.506C142.341 137.829 142.523 138.212 142.642 138.654C142.76 139.092 142.819 139.57 142.819 140.09V140.657H137.296V139.625H141.555V139.529C141.536 139.201 141.468 138.882 141.35 138.572C141.236 138.262 141.053 138.007 140.803 137.807C140.552 137.606 140.21 137.506 139.777 137.506C139.49 137.506 139.226 137.567 138.984 137.69C138.743 137.809 138.535 137.987 138.362 138.224C138.189 138.461 138.055 138.75 137.959 139.092C137.863 139.434 137.815 139.828 137.815 140.274V140.562C137.815 140.912 137.863 141.243 137.959 141.553C138.059 141.858 138.203 142.127 138.39 142.359C138.581 142.592 138.811 142.774 139.08 142.906C139.354 143.038 139.663 143.104 140.01 143.104C140.456 143.104 140.835 143.013 141.145 142.831C141.454 142.649 141.726 142.405 141.958 142.1L142.724 142.708C142.564 142.95 142.361 143.18 142.115 143.398C141.869 143.617 141.566 143.795 141.206 143.932C140.851 144.068 140.429 144.137 139.941 144.137ZM145.561 137.766V144H144.296V136.604H145.526L145.561 137.766ZM147.871 136.562L147.864 137.738C147.759 137.715 147.659 137.702 147.563 137.697C147.472 137.688 147.368 137.684 147.249 137.684C146.957 137.684 146.7 137.729 146.477 137.82C146.253 137.911 146.064 138.039 145.909 138.203C145.754 138.367 145.631 138.563 145.54 138.791C145.453 139.014 145.396 139.26 145.369 139.529L145.014 139.734C145.014 139.288 145.057 138.868 145.144 138.477C145.235 138.085 145.374 137.738 145.561 137.438C145.747 137.132 145.984 136.895 146.271 136.727C146.563 136.553 146.91 136.467 147.311 136.467C147.402 136.467 147.507 136.478 147.625 136.501C147.743 136.519 147.826 136.54 147.871 136.562ZM150.305 138.183V144H149.04V136.604H150.236L150.305 138.183ZM150.004 140.021L149.478 140.001C149.482 139.495 149.557 139.028 149.703 138.6C149.849 138.167 150.054 137.791 150.318 137.472C150.583 137.153 150.897 136.907 151.262 136.733C151.631 136.556 152.039 136.467 152.485 136.467C152.85 136.467 153.178 136.517 153.47 136.617C153.761 136.713 154.01 136.868 154.215 137.082C154.424 137.296 154.584 137.574 154.693 137.916C154.803 138.253 154.857 138.666 154.857 139.153V144H153.586V139.14C153.586 138.752 153.529 138.442 153.415 138.21C153.301 137.973 153.135 137.802 152.916 137.697C152.697 137.588 152.428 137.533 152.109 137.533C151.795 137.533 151.508 137.599 151.248 137.731C150.993 137.864 150.772 138.046 150.585 138.278C150.403 138.511 150.259 138.777 150.154 139.078C150.054 139.374 150.004 139.689 150.004 140.021ZM159.848 144.137C159.333 144.137 158.866 144.05 158.446 143.877C158.032 143.699 157.674 143.451 157.373 143.132C157.077 142.813 156.849 142.435 156.689 141.997C156.53 141.56 156.45 141.081 156.45 140.562V140.274C156.45 139.673 156.539 139.137 156.717 138.668C156.895 138.194 157.136 137.793 157.441 137.465C157.747 137.137 158.093 136.888 158.48 136.72C158.868 136.551 159.269 136.467 159.684 136.467C160.212 136.467 160.668 136.558 161.051 136.74C161.438 136.923 161.755 137.178 162.001 137.506C162.247 137.829 162.429 138.212 162.548 138.654C162.666 139.092 162.726 139.57 162.726 140.09V140.657H157.202V139.625H161.461V139.529C161.443 139.201 161.374 138.882 161.256 138.572C161.142 138.262 160.96 138.007 160.709 137.807C160.458 137.606 160.117 137.506 159.684 137.506C159.396 137.506 159.132 137.567 158.891 137.69C158.649 137.809 158.442 137.987 158.269 138.224C158.095 138.461 157.961 138.75 157.865 139.092C157.77 139.434 157.722 139.828 157.722 140.274V140.562C157.722 140.912 157.77 141.243 157.865 141.553C157.965 141.858 158.109 142.127 158.296 142.359C158.487 142.592 158.717 142.774 158.986 142.906C159.26 143.038 159.57 143.104 159.916 143.104C160.363 143.104 160.741 143.013 161.051 142.831C161.361 142.649 161.632 142.405 161.864 142.1L162.63 142.708C162.47 142.95 162.268 143.18 162.021 143.398C161.775 143.617 161.472 143.795 161.112 143.932C160.757 144.068 160.335 144.137 159.848 144.137ZM167.299 136.604V137.574H163.3V136.604H167.299ZM164.653 134.806H165.918V142.168C165.918 142.419 165.957 142.608 166.034 142.735C166.112 142.863 166.212 142.947 166.335 142.988C166.458 143.029 166.59 143.05 166.731 143.05C166.836 143.05 166.946 143.041 167.06 143.022C167.178 143 167.267 142.981 167.326 142.968L167.333 144C167.233 144.032 167.101 144.062 166.937 144.089C166.777 144.121 166.583 144.137 166.355 144.137C166.046 144.137 165.761 144.075 165.501 143.952C165.241 143.829 165.034 143.624 164.879 143.337C164.729 143.045 164.653 142.653 164.653 142.161V134.806ZM176.131 134.929L172.836 144H171.489L175.283 134.047H176.151L176.131 134.929ZM178.893 144L175.591 134.929L175.57 134.047H176.438L180.246 144H178.893ZM178.722 140.315V141.396H173.13V140.315H178.722ZM182.652 138.183V144H181.388V136.604H182.584L182.652 138.183ZM182.352 140.021L181.825 140.001C181.83 139.495 181.905 139.028 182.051 138.6C182.197 138.167 182.402 137.791 182.666 137.472C182.93 137.153 183.245 136.907 183.609 136.733C183.979 136.556 184.386 136.467 184.833 136.467C185.198 136.467 185.526 136.517 185.817 136.617C186.109 136.713 186.357 136.868 186.562 137.082C186.772 137.296 186.932 137.574 187.041 137.916C187.15 138.253 187.205 138.666 187.205 139.153V144H185.934V139.14C185.934 138.752 185.877 138.442 185.763 138.21C185.649 137.973 185.482 137.802 185.264 137.697C185.045 137.588 184.776 137.533 184.457 137.533C184.143 137.533 183.855 137.599 183.596 137.731C183.34 137.864 183.119 138.046 182.933 138.278C182.75 138.511 182.607 138.777 182.502 139.078C182.402 139.374 182.352 139.689 182.352 140.021ZM193.788 142.564V133.5H195.06V144H193.897L193.788 142.564ZM188.812 140.384V140.24C188.812 139.675 188.88 139.162 189.017 138.702C189.158 138.237 189.356 137.839 189.611 137.506C189.871 137.173 190.179 136.918 190.534 136.74C190.894 136.558 191.295 136.467 191.737 136.467C192.202 136.467 192.608 136.549 192.954 136.713C193.305 136.872 193.601 137.107 193.843 137.417C194.089 137.722 194.283 138.091 194.424 138.524C194.565 138.957 194.663 139.447 194.718 139.994V140.623C194.668 141.165 194.57 141.653 194.424 142.086C194.283 142.519 194.089 142.888 193.843 143.193C193.601 143.499 193.305 143.733 192.954 143.897C192.603 144.057 192.193 144.137 191.724 144.137C191.291 144.137 190.894 144.043 190.534 143.856C190.179 143.67 189.871 143.408 189.611 143.07C189.356 142.733 189.158 142.337 189.017 141.881C188.88 141.421 188.812 140.922 188.812 140.384ZM190.083 140.24V140.384C190.083 140.753 190.119 141.099 190.192 141.423C190.27 141.746 190.388 142.031 190.548 142.277C190.707 142.523 190.91 142.717 191.156 142.858C191.402 142.995 191.696 143.063 192.038 143.063C192.457 143.063 192.801 142.975 193.07 142.797C193.344 142.619 193.562 142.384 193.727 142.093C193.891 141.801 194.018 141.484 194.109 141.143V139.495C194.055 139.244 193.975 139.003 193.87 138.771C193.77 138.534 193.638 138.324 193.474 138.142C193.314 137.955 193.116 137.807 192.879 137.697C192.646 137.588 192.371 137.533 192.052 137.533C191.705 137.533 191.407 137.606 191.156 137.752C190.91 137.893 190.707 138.089 190.548 138.34C190.388 138.586 190.27 138.873 190.192 139.201C190.119 139.525 190.083 139.871 190.083 140.24ZM201.39 142.735V138.928C201.39 138.636 201.33 138.383 201.212 138.169C201.098 137.95 200.925 137.782 200.692 137.663C200.46 137.545 200.173 137.485 199.831 137.485C199.512 137.485 199.232 137.54 198.99 137.649C198.753 137.759 198.566 137.902 198.43 138.08C198.298 138.258 198.231 138.449 198.231 138.654H196.967C196.967 138.39 197.035 138.128 197.172 137.868C197.309 137.608 197.505 137.374 197.76 137.164C198.02 136.95 198.329 136.781 198.689 136.658C199.054 136.531 199.46 136.467 199.906 136.467C200.444 136.467 200.918 136.558 201.328 136.74C201.743 136.923 202.066 137.198 202.299 137.567C202.536 137.932 202.654 138.39 202.654 138.941V142.387C202.654 142.633 202.675 142.895 202.716 143.173C202.761 143.451 202.827 143.69 202.914 143.891V144H201.595C201.531 143.854 201.481 143.66 201.444 143.419C201.408 143.173 201.39 142.945 201.39 142.735ZM201.608 139.516L201.622 140.404H200.344C199.984 140.404 199.662 140.434 199.38 140.493C199.097 140.548 198.86 140.632 198.669 140.746C198.478 140.86 198.332 141.004 198.231 141.177C198.131 141.345 198.081 141.544 198.081 141.771C198.081 142.004 198.133 142.216 198.238 142.407C198.343 142.599 198.5 142.751 198.71 142.865C198.924 142.975 199.186 143.029 199.496 143.029C199.883 143.029 200.225 142.947 200.521 142.783C200.818 142.619 201.052 142.419 201.226 142.182C201.403 141.945 201.499 141.715 201.513 141.491L202.053 142.1C202.021 142.291 201.934 142.503 201.793 142.735C201.652 142.968 201.463 143.191 201.226 143.405C200.993 143.615 200.715 143.79 200.392 143.932C200.073 144.068 199.713 144.137 199.312 144.137C198.81 144.137 198.37 144.039 197.992 143.843C197.618 143.647 197.327 143.385 197.117 143.057C196.912 142.724 196.81 142.353 196.81 141.942C196.81 141.546 196.887 141.197 197.042 140.896C197.197 140.591 197.42 140.338 197.712 140.138C198.004 139.933 198.354 139.778 198.765 139.673C199.175 139.568 199.633 139.516 200.139 139.516H201.608Z" fill="#212121"/>
<defs>
<clipPath id="clip0_4431_74636">
<rect width="100" height="100" fill="white" transform="translate(60)"/>
</clipPath>
<clipPath id="clip1_4431_74636">
<rect x="60" width="100" height="100" rx="50" fill="white"/>
</clipPath>
<clipPath id="clip2_4431_74636">
<rect width="29.5775" height="29.5775" fill="white" transform="translate(95.2113 49.2958)"/>
</clipPath>
<clipPath id="clip3_4431_74636">
<rect x="95.2113" y="49.2958" width="29.5775" height="29.5775" rx="14.7887" fill="white"/>
</clipPath>
<clipPath id="clip4_4431_74636">
<rect x="95.2113" y="49.2958" width="29.5775" height="29.5775" rx="14.7887" fill="white"/>
</clipPath>
<clipPath id="clip5_4431_74636">
<rect width="26.5823" height="26.5823" fill="white" transform="translate(133.418 73.4177)"/>
</clipPath>
</defs>
</svg>
