<svg width="56" height="56" viewBox="0 0 56 56" fill="none" xmlns="http://www.w3.org/2000/svg">
<rect width="56" height="56" rx="28" fill="#FAFAFA"/>
<ellipse cx="28" cy="46.9533" rx="12" ry="1.5" fill="#D9D9D9"/>
<g clip-path="url(#clip0_6536_87491)">
<path d="M27.8608 16.5706H11.7339V38.8124H27.8608V16.5706Z" fill="#E0E0E0"/>
<path d="M26.9718 17.1261H12.4222V38.1408H26.9718V17.1261Z" fill="#FAFAFA" stroke="#FAFAFA" stroke-width="0.113636" stroke-miterlimit="10"/>
<path d="M27.2404 23.1501H12.3542V23.4825H27.2404V23.1501Z" fill="#E0E0E0"/>
<path d="M19.5308 23.1501V38.2339H19.8632V23.1501H19.5308Z" fill="#E0E0E0"/>
<path d="M30.4257 14.4773H9.25006V14.8901H30.4257V14.4773Z" fill="#E0E0E0"/>
<path d="M9.25005 15.8942C9.25005 15.8942 9.443 38.136 9.25585 38.136C9.06869 38.136 13.4379 38.136 13.4379 38.136V15.8942H9.25005Z" fill="#EBEBEB"/>
<path d="M10.2973 16.3724C10.2809 16.3724 10.2678 15.9577 10.2678 15.4462C10.2678 14.9347 10.2811 14.5201 10.2973 14.5201C10.3136 14.5201 10.3269 14.9347 10.3269 15.4462C10.3269 15.9576 10.3137 16.3724 10.2973 16.3724Z" fill="#E0E0E0"/>
<path d="M9.73298 16.3724C9.71661 16.3724 9.70343 15.9577 9.70343 15.4462C9.70343 14.9347 9.71673 14.5201 9.73298 14.5201C9.74934 14.5201 9.76252 14.9347 9.76252 15.4462C9.76252 15.9576 9.74934 16.3724 9.73298 16.3724Z" fill="#E0E0E0"/>
<path d="M10.9456 16.3724C10.9293 16.3724 10.9161 15.9577 10.9161 15.4462C10.9161 14.9347 10.9294 14.5201 10.9456 14.5201C10.9619 14.5201 10.9752 14.9347 10.9752 15.4462C10.9753 15.9576 10.962 16.3724 10.9456 16.3724Z" fill="#E0E0E0"/>
<path d="M11.594 16.3724C11.5776 16.3724 11.5645 15.9577 11.5645 15.4462C11.5645 14.9347 11.5777 14.5201 11.594 14.5201C11.6104 14.5201 11.6235 14.9347 11.6235 15.4462C11.6235 15.9576 11.6102 16.3724 11.594 16.3724Z" fill="#E0E0E0"/>
<path d="M12.2423 16.3724C12.2259 16.3724 12.2128 15.9577 12.2128 15.4462C12.2128 14.9347 12.2261 14.5201 12.2423 14.5201C12.2586 14.5201 12.2719 14.9347 12.2719 15.4462C12.2719 15.9576 12.2587 16.3724 12.2423 16.3724Z" fill="#E0E0E0"/>
<path d="M12.8658 16.3724C12.8495 16.3724 12.8363 15.9577 12.8363 15.4462C12.8363 14.9347 12.8496 14.5201 12.8658 14.5201C12.8822 14.5201 12.8954 14.9347 12.8954 15.4462C12.8955 15.9576 12.8822 16.3724 12.8658 16.3724Z" fill="#E0E0E0"/>
<path d="M26.0998 15.8942C26.0998 15.8942 26.2928 38.136 26.1056 38.136C25.9185 38.136 30.2877 38.136 30.2877 38.136V15.8942H26.0998Z" fill="#EBEBEB"/>
<path d="M27.1471 16.3724C27.1307 16.3724 27.1176 15.9577 27.1176 15.4462C27.1176 14.9347 27.1308 14.5201 27.1471 14.5201C27.1633 14.5201 27.1766 14.9347 27.1766 15.4462C27.1766 15.9576 27.1633 16.3724 27.1471 16.3724Z" fill="#E0E0E0"/>
<path d="M26.5828 16.3724C26.5664 16.3724 26.5532 15.9577 26.5532 15.4462C26.5532 14.9347 26.5665 14.5201 26.5828 14.5201C26.599 14.5201 26.6123 14.9347 26.6123 15.4462C26.6123 15.9576 26.599 16.3724 26.5828 16.3724Z" fill="#E0E0E0"/>
<path d="M27.7954 16.3724C27.7791 16.3724 27.7659 15.9577 27.7659 15.4462C27.7659 14.9347 27.7792 14.5201 27.7954 14.5201C27.8118 14.5201 27.825 14.9347 27.825 15.4462C27.825 15.9576 27.8118 16.3724 27.7954 16.3724Z" fill="#E0E0E0"/>
<path d="M28.4437 16.3724C28.4274 16.3724 28.4142 15.9577 28.4142 15.4462C28.4142 14.9347 28.4275 14.5201 28.4437 14.5201C28.4601 14.5201 28.4733 14.9347 28.4733 15.4462C28.4733 15.9576 28.4601 16.3724 28.4437 16.3724Z" fill="#E0E0E0"/>
<path d="M29.092 16.3724C29.0756 16.3724 29.0624 15.9577 29.0624 15.4462C29.0624 14.9347 29.0757 14.5201 29.092 14.5201C29.1083 14.5201 29.1215 14.9347 29.1215 15.4462C29.1216 15.9576 29.1083 16.3724 29.092 16.3724Z" fill="#E0E0E0"/>
<path d="M29.7156 16.3724C29.6993 16.3724 29.6861 15.9577 29.6861 15.4462C29.6861 14.9347 29.6994 14.5201 29.7156 14.5201C29.7319 14.5201 29.7452 14.9347 29.7452 15.4462C29.7452 15.9576 29.732 16.3724 29.7156 16.3724Z" fill="#E0E0E0"/>
<path d="M36.1475 13.1136L35.5317 18.8281H43.4213L44.0757 13.1136H36.1475Z" fill="#EBEBEB"/>
<path d="M36.4718 13.5241L35.8727 18.5245H42.9931L43.5693 13.5241H36.4718Z" fill="#FAFAFA"/>
<path d="M37.6701 14.3652L37.3015 17.6834H41.7949L42.0254 14.3652H37.6701Z" fill="#E0E0E0"/>
<path d="M43.7939 15.5747L45.4236 18.851L43.4213 18.8281L43.8184 15.3608" fill="#F5F5F5"/>
<path d="M45.4501 19.5087H44.7404V21.2857H45.4501V19.5087Z" fill="#E0E0E0"/>
<path d="M35.056 19.5087H34.3464V21.2857H35.056V19.5087Z" fill="#E0E0E0"/>
<path d="M46.7495 18.8625H32.8864V19.6127H46.7495V18.8625Z" fill="#E0E0E0"/>
<path d="M37.2825 39.7851C35.3224 38.4157 34.8777 35.8739 34.9552 33.589C34.9681 33.2076 34.9262 32.8055 35.1076 32.4708C35.2891 32.1362 35.7124 31.9075 36.0539 32.0682C36.3372 32.2015 36.4606 32.531 36.619 32.8034C36.8298 33.1659 37.1439 33.4659 37.5134 33.6577C37.7562 33.7837 38.0567 33.8608 38.2965 33.7286C38.6254 33.5472 38.6642 33.0926 38.6619 32.7132C38.6575 32.0061 38.6531 31.2991 38.6486 30.5923C38.6462 30.213 38.6451 29.8257 38.7632 29.4657C38.8811 29.1057 39.1418 28.7713 39.5026 28.6701C39.8635 28.5691 40.3098 28.7772 40.3859 29.1484C40.4176 29.303 40.3861 29.4633 40.3967 29.6207C40.4073 29.7782 40.4806 29.9524 40.6301 29.9963C40.7815 30.0407 40.9333 29.9332 41.0467 29.8222C41.4383 29.4392 41.704 28.9458 41.9523 28.4551C42.2006 27.9644 42.4416 27.4622 42.7968 27.0443C43.152 26.6266 43.6435 26.2956 44.1867 26.2648C44.73 26.234 45.3089 26.5693 45.4461 27.1026C45.5837 27.6374 45.2718 28.18 44.9323 28.6128C44.4286 29.2551 43.8327 29.8231 43.1693 30.2933C43.0498 30.3782 42.9201 30.4699 42.8744 30.6103C42.792 30.8632 43.0317 31.1144 43.2814 31.1975C43.5641 31.2917 43.8709 31.2623 44.1667 31.2972C44.4625 31.3319 44.7829 31.4625 44.8948 31.742C45.0501 32.1298 44.7259 32.5361 44.4068 32.8023C43.7679 33.3353 43.0384 33.7564 42.2601 34.0415C41.981 34.1435 41.6874 34.2332 41.4624 34.4292C41.2374 34.6253 41.1016 34.9662 41.2375 35.2334C41.3735 35.5009 41.7225 35.5864 42.0148 35.5322C42.3069 35.4781 42.5686 35.3193 42.8472 35.2142C43.3684 35.0174 44.0416 35.0534 44.3756 35.5039C44.595 35.8 44.6143 36.2124 44.5033 36.5653C44.3924 36.9184 44.1673 37.2224 43.9283 37.5028C43.0927 38.4831 42.0232 39.2723 40.8139 39.6916C39.6048 40.1111 38.4843 40.2245 37.2825 39.7851Z" fill="#1565C0"/>
<path d="M44.8982 26.5825C44.8991 26.5834 44.8865 26.5957 44.8614 26.6185C44.8334 26.6435 44.796 26.6767 44.7487 26.719C44.6494 26.8068 44.5029 26.9364 44.3187 27.1083C43.9501 27.451 43.4323 27.9667 42.8699 28.6722C42.5876 29.0238 42.2943 29.4218 41.9872 29.8548C41.6807 30.2885 41.3562 30.7541 41.0334 31.2563C40.7107 31.7582 40.3875 32.2963 40.0975 32.8775C39.9512 33.1674 39.8209 33.4709 39.6878 33.7803C39.5556 34.0897 39.4214 34.4035 39.2853 34.721C38.7464 35.9931 38.2723 37.2227 37.9335 38.3714C37.5927 39.519 37.3901 40.5826 37.3014 41.484C37.2104 42.3857 37.229 43.1216 37.2658 43.6265C37.2856 43.879 37.3049 44.075 37.3228 44.2073C37.3301 44.2707 37.336 44.3207 37.3403 44.3581C37.344 44.3922 37.3452 44.4098 37.3441 44.41C37.3428 44.4101 37.3392 44.3931 37.3333 44.3592C37.3274 44.322 37.3192 44.2724 37.3089 44.2093C37.2866 44.0775 37.2627 43.8817 37.2387 43.6289C37.1936 43.1234 37.1674 42.385 37.2524 41.4793C37.3351 40.5742 37.5336 39.5052 37.8722 38.353C38.2084 37.1999 38.6819 35.9665 39.2214 34.6934C39.3574 34.3757 39.4918 34.0617 39.6243 33.7524C39.7573 33.4439 39.8891 33.1378 40.0366 32.8465C40.329 32.2624 40.6547 31.7232 40.9798 31.2209C41.3048 30.7183 41.6315 30.2533 41.9402 29.8208C42.25 29.3886 42.5462 28.9914 42.8317 28.6408C43.4007 27.9372 43.9258 27.4251 44.3007 27.0882C44.4877 26.9191 44.6373 26.7926 44.7397 26.7083C44.789 26.6683 44.8276 26.6368 44.8567 26.6132C44.8835 26.5919 44.8975 26.5815 44.8982 26.5825Z" fill="#263238"/>
<path d="M40.0567 32.8435C40.052 32.8443 40.0391 32.7867 40.0197 32.6817C39.9997 32.5768 39.9759 32.4243 39.9493 32.2353C39.8957 31.8577 39.8394 31.3335 39.7795 30.7556C39.7197 30.1772 39.6561 29.6553 39.5969 29.2795C39.5678 29.0916 39.5427 28.9397 39.5241 28.8349C39.506 28.7299 39.4982 28.6714 39.5028 28.6702C39.5076 28.6692 39.5243 28.7257 39.5506 28.8292C39.5775 28.9325 39.61 29.0835 39.6453 29.271C39.7174 29.646 39.789 30.1691 39.8488 30.748C39.9064 31.3185 39.9584 31.8348 39.9982 32.2292C40.0173 32.4073 40.0335 32.5573 40.0465 32.6777C40.0575 32.7836 40.0615 32.8427 40.0567 32.8435Z" fill="#263238"/>
<path d="M44.9336 31.932C44.9338 31.9369 44.8643 31.9449 44.7391 31.9553C44.614 31.9665 44.4329 31.9816 44.2097 32.0075C43.763 32.0557 43.1483 32.144 42.4743 32.2709C41.8004 32.3992 41.1955 32.5411 40.7609 32.6565C40.5431 32.7126 40.3682 32.7628 40.2469 32.7967C40.1259 32.8311 40.0582 32.848 40.0566 32.8434C40.0551 32.8388 40.12 32.8131 40.2389 32.7705C40.3579 32.7284 40.5312 32.6708 40.7479 32.6083C41.1802 32.4803 41.7856 32.3301 42.4615 32.2014C43.1374 32.0741 43.7556 31.9933 44.2049 31.9577C44.4294 31.9382 44.6117 31.9305 44.7377 31.9278C44.8638 31.926 44.9334 31.9272 44.9336 31.932Z" fill="#263238"/>
<path d="M37.9322 38.263C37.93 38.264 37.9186 38.2435 37.8988 38.2035C37.8763 38.1558 37.8488 38.0976 37.8154 38.027C37.7437 37.8735 37.6457 37.6486 37.5283 37.3692C37.2929 36.8105 36.9923 36.0285 36.672 35.1611C36.3516 34.2934 36.0586 33.5097 35.8353 32.9469C35.7259 32.6733 35.6358 32.4483 35.569 32.281C35.5403 32.2084 35.5168 32.1485 35.4975 32.0993C35.4819 32.0576 35.4746 32.0351 35.4769 32.034C35.4792 32.0331 35.4905 32.0535 35.5103 32.0936C35.5328 32.1414 35.5603 32.1994 35.5937 32.27C35.6654 32.4235 35.7635 32.6484 35.881 32.9278C36.1163 33.4866 36.417 34.2685 36.7374 35.1363C37.0577 36.0038 37.3507 36.7874 37.574 37.3502C37.6835 37.6236 37.7734 37.8489 37.8403 38.016C37.869 38.0886 37.8925 38.1486 37.9118 38.1977C37.9273 38.2395 37.9344 38.262 37.9322 38.263Z" fill="#263238"/>
<path d="M44.4131 36.1743C44.4136 36.1767 44.3915 36.1857 44.3488 36.2008C44.2981 36.2177 44.2359 36.2386 44.1606 36.2639C43.9867 36.3202 43.752 36.3964 43.4666 36.4888C42.8807 36.6789 42.0743 36.9506 41.1839 37.252C40.2931 37.5538 39.4835 37.8183 38.8934 37.9963C38.5984 38.0853 38.359 38.155 38.1926 38.1997C38.1157 38.2199 38.0523 38.2365 38.0007 38.2501C37.9566 38.2609 37.9331 38.2653 37.9324 38.263C37.9317 38.2606 37.954 38.2516 37.9967 38.2364C38.0473 38.2195 38.1094 38.1986 38.1849 38.1734C38.3588 38.117 38.5933 38.0411 38.8788 37.9485C39.4647 37.7585 40.2711 37.4867 41.1619 37.1851C42.0525 36.8835 42.8619 36.619 43.4519 36.441C43.7469 36.3519 43.9864 36.2823 44.1528 36.2376C44.2298 36.2174 44.2931 36.2007 44.3448 36.1872C44.3889 36.1764 44.4123 36.1719 44.4131 36.1743Z" fill="#263238"/>
<path d="M38.8447 39.3144C39.2403 39.3281 39.6224 39.0873 39.8219 38.7455C40.0213 38.4036 40.0486 37.9768 39.9409 37.596C39.891 37.42 39.7997 37.2373 39.6318 37.1647C39.4747 37.0968 39.2848 37.1464 39.1519 37.2541C39.019 37.3618 38.9351 37.5187 38.8747 37.6789C38.6676 38.2278 38.5679 38.7972 38.8447 39.3144Z" fill="#455A64"/>
<path d="M38.6334 40.3706C39.4669 40.3326 40.3085 40.7267 40.8131 41.3912C40.9415 41.5604 41.0507 41.7935 40.9427 41.9766C40.8345 42.1599 40.5765 42.1768 40.3666 42.1411C39.4936 41.9925 38.7492 41.2645 38.5812 40.3951" fill="#455A64"/>
<path d="M43.7209 38.8998C43.5182 38.6092 43.1764 38.4344 42.8258 38.3831C42.4752 38.3316 42.1161 38.3933 41.7791 38.5022C41.1268 38.713 40.5297 39.2286 40.0789 39.745C40.6833 40.2078 41.5653 40.164 42.0114 40.1136C42.7164 40.0341 43.9423 39.462 43.7209 38.8998Z" fill="#455A64"/>
<path d="M37.0872 40.4302C37.1732 40.3965 37.2657 40.3991 37.4165 40.3313C37.7161 40.1944 38.134 39.993 38.527 39.6664C38.9203 39.339 39.1756 38.9336 39.278 38.6153C39.3309 38.4565 39.3539 38.3223 39.3599 38.2293C39.3664 38.1364 39.3623 38.0849 39.3578 38.0848C39.3423 38.0828 39.3436 38.2917 39.2269 38.5969C39.1143 38.9016 38.8607 39.2885 38.4777 39.6076C38.0942 39.9266 37.6858 40.1335 37.3932 40.2823" fill="#263238"/>
<path d="M37.0758 40.4327C37.238 40.3969 37.4505 40.35 37.707 40.2934C38.2396 40.1744 38.9758 40.0119 39.7913 39.8431C40.6066 39.6745 41.3468 39.5317 41.8829 39.4295C42.1408 39.3798 42.3545 39.3385 42.5177 39.3071C42.6675 39.2772 42.7499 39.2582 42.7489 39.253C42.748 39.2477 42.6639 39.2568 42.5127 39.2776C42.3613 39.2983 42.1429 39.3318 41.8734 39.3761C41.3344 39.4647 40.5919 39.5992 39.7758 39.768C38.9594 39.9369 38.2243 40.1081 37.6945 40.2407C37.4295 40.3069 37.2158 40.3627 37.0686 40.4039" fill="#263238"/>
<path d="M40.1601 41.4335C40.1643 41.4303 40.1374 41.3895 40.0845 41.3181C40.0587 41.2818 40.0254 41.2387 39.9818 41.1931C39.9389 41.1468 39.8926 41.0911 39.8324 41.039C39.7182 40.9278 39.5674 40.8109 39.3892 40.6978C39.2087 40.5886 38.9997 40.4854 38.7687 40.4066C38.5369 40.3307 38.3077 40.287 38.0978 40.2657C37.8875 40.2487 37.6967 40.2512 37.5386 40.2712C37.4591 40.2766 37.3886 40.2933 37.3266 40.3043C37.2642 40.3145 37.2117 40.3289 37.1693 40.3423C37.0841 40.3675 37.0674 40.3986 37.0687 40.4036C37.0725 40.4182 37.2317 40.3481 37.5435 40.3252C37.6992 40.3124 37.8857 40.3156 38.0908 40.3359C38.2953 40.3607 38.5183 40.4052 38.7444 40.4793C38.9695 40.5564 39.1743 40.6549 39.3525 40.7583C39.5284 40.8654 39.6792 40.9751 39.7959 41.0791C40.0312 41.2852 40.1484 41.4428 40.1601 41.4335Z" fill="#263238"/>
<path d="M34.9608 46.6801L22.2877 46.6215C20.7635 46.6145 19.5334 45.3735 19.5399 43.8493L19.6742 12.0776C19.6807 10.5526 20.9225 9.3217 22.4475 9.32863L35.1206 9.38716C36.6448 9.3942 37.8748 10.6352 37.8684 12.1594L37.7341 43.9311C37.7276 45.4562 36.4859 46.6872 34.9608 46.6801Z" fill="#263238"/>
<path d="M35.1025 10.4837L32.6455 10.4724C32.316 10.4709 32.0476 10.749 32.0463 11.0934L32.0442 11.5391C32.0428 11.8835 31.7744 12.1616 31.445 12.1601L26.6556 12.138C26.3261 12.1365 26.0601 11.8559 26.0616 11.5115L26.0635 11.0658C26.0649 10.7214 25.799 10.4408 25.4694 10.4393L24.6053 10.4353L22.4548 10.4255C21.3867 10.4206 20.517 11.2826 20.5125 12.3507L20.3814 43.362C20.3768 44.4297 21.2383 45.2987 22.3058 45.3037L34.9535 45.362C36.0215 45.367 36.8911 44.505 36.8958 43.4369L37.0269 12.4255C37.0315 11.3578 36.17 10.4887 35.1025 10.4837Z" fill="#FAFAFA"/>
<path d="M23.8648 14.9636C23.8648 15.0364 23.8529 15.103 23.8293 15.1634C23.8057 15.2234 23.7723 15.275 23.7291 15.3182C23.6864 15.3614 23.6348 15.395 23.5743 15.4191C23.5143 15.4427 23.4475 15.4545 23.3739 15.4545H23.0029V14.4727H23.3739C23.4475 14.4727 23.5143 14.4848 23.5743 14.5089C23.6348 14.5325 23.6864 14.5659 23.7291 14.6091C23.7723 14.6523 23.8057 14.7041 23.8293 14.7645C23.8529 14.8245 23.8648 14.8909 23.8648 14.9636ZM23.7018 14.9636C23.7018 14.9073 23.6941 14.8566 23.6786 14.8116C23.6636 14.7666 23.6418 14.7286 23.6132 14.6977C23.585 14.6668 23.5507 14.6432 23.5102 14.6268C23.4698 14.61 23.4243 14.6016 23.3739 14.6016H23.1632V15.3257H23.3739C23.4243 15.3257 23.4698 15.3175 23.5102 15.3011C23.5507 15.2848 23.585 15.2611 23.6132 15.2302C23.6418 15.1989 23.6636 15.1609 23.6786 15.1164C23.6941 15.0714 23.7018 15.0205 23.7018 14.9636ZM24.3673 15.1505C24.3151 15.1523 24.271 15.1566 24.2351 15.1634C24.1991 15.1698 24.1701 15.1782 24.1478 15.1886C24.1255 15.1986 24.1094 15.2107 24.0994 15.2248C24.0898 15.2389 24.0851 15.2543 24.0851 15.2711C24.0851 15.2875 24.0876 15.3016 24.0926 15.3134C24.098 15.3248 24.1053 15.3343 24.1144 15.342C24.1239 15.3493 24.1348 15.3548 24.1471 15.3584C24.1598 15.3616 24.1737 15.3632 24.1887 15.3632C24.2269 15.3632 24.2596 15.3561 24.2869 15.342C24.3146 15.3275 24.3414 15.3066 24.3673 15.2793V15.1505ZM23.9787 14.8559C24.0573 14.7827 24.151 14.7461 24.2596 14.7461C24.2996 14.7461 24.3351 14.7527 24.366 14.7659C24.3973 14.7786 24.4235 14.7968 24.4444 14.8205C24.4657 14.8441 24.4819 14.8723 24.4928 14.905C24.5041 14.9373 24.5098 14.9732 24.5098 15.0127V15.4545H24.4444C24.4303 15.4545 24.4196 15.4525 24.4123 15.4484C24.4051 15.4439 24.3989 15.435 24.3939 15.4218L24.3796 15.3652C24.3619 15.3811 24.3444 15.3955 24.3271 15.4082C24.3098 15.4205 24.2919 15.4309 24.2732 15.4395C24.2551 15.4482 24.2353 15.4545 24.2139 15.4586C24.193 15.4632 24.1698 15.4655 24.1444 15.4655C24.1162 15.4655 24.0898 15.4616 24.0653 15.4539C24.0412 15.4461 24.0203 15.4345 24.0026 15.4191C23.9848 15.4032 23.9707 15.3836 23.9603 15.3605C23.9503 15.3373 23.9453 15.31 23.9453 15.2786C23.9453 15.2518 23.9523 15.2257 23.9664 15.2002C23.981 15.1748 24.0046 15.152 24.0373 15.132C24.0705 15.1116 24.1139 15.0948 24.1676 15.0816C24.2216 15.0684 24.2882 15.0609 24.3673 15.0591V15.0127C24.3673 14.9627 24.3566 14.9255 24.3353 14.9009C24.3139 14.8764 24.2826 14.8641 24.2412 14.8641C24.213 14.8641 24.1894 14.8677 24.1703 14.875C24.1512 14.8818 24.1346 14.8893 24.1205 14.8975C24.1064 14.9057 24.0939 14.9134 24.083 14.9207C24.0721 14.9275 24.0605 14.9309 24.0482 14.9309C24.0382 14.9309 24.0296 14.9284 24.0223 14.9234C24.0155 14.918 24.0098 14.9114 24.0053 14.9036L23.9787 14.8559ZM25.3105 14.8743V15.2691C25.3105 15.2941 25.3166 15.3132 25.3289 15.3264C25.3412 15.3395 25.3575 15.3461 25.378 15.3461C25.3893 15.3461 25.3991 15.3448 25.4073 15.342C25.4155 15.3389 25.4225 15.3357 25.4284 15.3325C25.4343 15.3289 25.4393 15.3257 25.4434 15.323C25.448 15.3198 25.4523 15.3182 25.4564 15.3182C25.4646 15.3182 25.4712 15.3227 25.4762 15.3318L25.5198 15.4034C25.4971 15.4234 25.4702 15.4389 25.4393 15.4498C25.4084 15.4602 25.3766 15.4655 25.3439 15.4655C25.2862 15.4655 25.2416 15.4493 25.2102 15.417C25.1793 15.3843 25.1639 15.3384 25.1639 15.2793V14.8743H24.8632V15.4545H24.7166V14.8757L24.6484 14.8661C24.6371 14.8639 24.6277 14.8598 24.6205 14.8539C24.6137 14.848 24.6102 14.8395 24.6102 14.8286V14.7686H24.7166V14.71C24.7166 14.6705 24.7223 14.635 24.7337 14.6036C24.7455 14.5723 24.7621 14.5457 24.7834 14.5239C24.8052 14.502 24.8316 14.4855 24.8625 14.4741C24.8934 14.4623 24.9282 14.4564 24.9668 14.4564C24.9827 14.4564 24.9977 14.4575 25.0118 14.4598C25.0264 14.462 25.0405 14.4655 25.0541 14.47L25.0514 14.5436C25.0505 14.5559 25.0443 14.5632 25.033 14.5655C25.0221 14.5677 25.0082 14.5689 24.9914 14.5689C24.9709 14.5689 24.9525 14.5714 24.9362 14.5764C24.9198 14.5809 24.9057 14.5889 24.8939 14.6002C24.8825 14.6116 24.8737 14.6266 24.8673 14.6452C24.8614 14.6639 24.8584 14.687 24.8584 14.7148V14.7686H25.1693L25.2021 14.5661C25.2043 14.5584 25.2082 14.5523 25.2137 14.5477C25.2191 14.5427 25.2264 14.5402 25.2355 14.5402H25.3105V14.7686H25.5034V14.8743H25.3105ZM25.9906 15.1505C25.9384 15.1523 25.8943 15.1566 25.8584 15.1634C25.8225 15.1698 25.7934 15.1782 25.7711 15.1886C25.7488 15.1986 25.7327 15.2107 25.7227 15.2248C25.7131 15.2389 25.7084 15.2543 25.7084 15.2711C25.7084 15.2875 25.7109 15.3016 25.7159 15.3134C25.7213 15.3248 25.7286 15.3343 25.7377 15.342C25.7472 15.3493 25.7581 15.3548 25.7704 15.3584C25.7831 15.3616 25.797 15.3632 25.812 15.3632C25.8502 15.3632 25.8829 15.3561 25.9102 15.342C25.9379 15.3275 25.9647 15.3066 25.9906 15.2793V15.1505ZM25.602 14.8559C25.6806 14.7827 25.7743 14.7461 25.8829 14.7461C25.9229 14.7461 25.9584 14.7527 25.9893 14.7659C26.0206 14.7786 26.0468 14.7968 26.0677 14.8205C26.089 14.8441 26.1052 14.8723 26.1161 14.905C26.1275 14.9373 26.1331 14.9732 26.1331 15.0127V15.4545H26.0677C26.0536 15.4545 26.0429 15.4525 26.0356 15.4484C26.0284 15.4439 26.0222 15.435 26.0172 15.4218L26.0029 15.3652C25.9852 15.3811 25.9677 15.3955 25.9504 15.4082C25.9331 15.4205 25.9152 15.4309 25.8965 15.4395C25.8784 15.4482 25.8586 15.4545 25.8372 15.4586C25.8163 15.4632 25.7931 15.4655 25.7677 15.4655C25.7395 15.4655 25.7131 15.4616 25.6886 15.4539C25.6645 15.4461 25.6436 15.4345 25.6259 15.4191C25.6081 15.4032 25.594 15.3836 25.5836 15.3605C25.5736 15.3373 25.5686 15.31 25.5686 15.2786C25.5686 15.2518 25.5756 15.2257 25.5897 15.2002C25.6043 15.1748 25.6279 15.152 25.6606 15.132C25.6938 15.1116 25.7372 15.0948 25.7909 15.0816C25.845 15.0684 25.9115 15.0609 25.9906 15.0591V15.0127C25.9906 14.9627 25.98 14.9255 25.9586 14.9009C25.9372 14.8764 25.9059 14.8641 25.8645 14.8641C25.8363 14.8641 25.8127 14.8677 25.7936 14.875C25.7745 14.8818 25.7579 14.8893 25.7438 14.8975C25.7297 14.9057 25.7172 14.9134 25.7063 14.9207C25.6954 14.9275 25.6838 14.9309 25.6715 14.9309C25.6615 14.9309 25.6529 14.9284 25.6456 14.9234C25.6388 14.918 25.6331 14.9114 25.6286 14.9036L25.602 14.8559ZM26.4433 14.888C26.4651 14.8439 26.4915 14.8093 26.5224 14.7843C26.5533 14.7589 26.5903 14.7461 26.6335 14.7461C26.6485 14.7461 26.6626 14.748 26.6758 14.7516C26.689 14.7548 26.7008 14.7598 26.7112 14.7666L26.701 14.877C26.6992 14.8848 26.6962 14.8902 26.6921 14.8934C26.6885 14.8961 26.6835 14.8975 26.6771 14.8975C26.6703 14.8975 26.6605 14.8964 26.6478 14.8941C26.6351 14.8914 26.6217 14.89 26.6076 14.89C26.5871 14.89 26.569 14.893 26.553 14.8989C26.5376 14.9048 26.5235 14.9134 26.5108 14.9248C26.4985 14.9361 26.4876 14.95 26.478 14.9664C26.4685 14.9827 26.4596 15.0014 26.4515 15.0223V15.4545H26.3049V14.7591H26.3901C26.4055 14.7591 26.4162 14.762 26.4221 14.768C26.428 14.7734 26.4321 14.7832 26.4344 14.7973L26.4433 14.888ZM27.4512 14.9732C27.4867 14.9732 27.5178 14.9686 27.5447 14.9595C27.5719 14.9505 27.5944 14.9377 27.6122 14.9214C27.6303 14.9045 27.644 14.8843 27.6531 14.8607C27.6622 14.837 27.6667 14.8107 27.6667 14.7816C27.6667 14.753 27.6622 14.7273 27.6531 14.7045C27.6444 14.6818 27.6312 14.6625 27.6135 14.6466C27.5958 14.6307 27.5733 14.6186 27.546 14.6105C27.5192 14.6018 27.4876 14.5975 27.4512 14.5975H27.3053V14.9732H27.4512ZM27.4512 14.4727C27.5153 14.4727 27.5708 14.4802 27.6176 14.4952C27.6649 14.5102 27.7037 14.5314 27.7342 14.5586C27.7651 14.5855 27.7881 14.618 27.8031 14.6561C27.8181 14.6939 27.8256 14.7357 27.8256 14.7816C27.8256 14.8284 27.8176 14.8714 27.8017 14.9105C27.7858 14.9491 27.7622 14.9825 27.7308 15.0107C27.6994 15.0384 27.6603 15.0602 27.6135 15.0761C27.5672 15.0916 27.5131 15.0993 27.4512 15.0993H27.3053V15.4545H27.1458V14.4727H27.4512ZM28.3723 15.0284C28.3723 15.0039 28.3687 14.9811 28.3614 14.9602C28.3546 14.9389 28.3444 14.9205 28.3307 14.905C28.3171 14.8891 28.3001 14.8768 28.2796 14.8682C28.2596 14.8591 28.2364 14.8545 28.2101 14.8545C28.1569 14.8545 28.1151 14.8698 28.0846 14.9002C28.0541 14.9307 28.0348 14.9734 28.0266 15.0284H28.3723ZM28.0226 15.1184C28.0244 15.158 28.0305 15.1923 28.041 15.2214C28.0514 15.25 28.0653 15.2739 28.0826 15.293C28.1003 15.312 28.1212 15.3264 28.1453 15.3359C28.1698 15.345 28.1971 15.3495 28.2271 15.3495C28.2557 15.3495 28.2805 15.3464 28.3014 15.34C28.3223 15.3332 28.3405 15.3259 28.356 15.3182C28.3714 15.31 28.3846 15.3027 28.3955 15.2964C28.4064 15.2895 28.4164 15.2861 28.4255 15.2861C28.4373 15.2861 28.4464 15.2907 28.4528 15.2998L28.4944 15.3536C28.4771 15.3741 28.4576 15.3914 28.4357 15.4055C28.4139 15.4195 28.3907 15.4311 28.3662 15.4402C28.3416 15.4489 28.3164 15.455 28.2905 15.4586C28.2646 15.4627 28.2394 15.4648 28.2148 15.4648C28.1666 15.4648 28.1219 15.4568 28.0805 15.4409C28.0396 15.4245 28.0039 15.4007 27.9735 15.3693C27.9435 15.338 27.9198 15.2991 27.9026 15.2527C27.8857 15.2064 27.8773 15.153 27.8773 15.0925C27.8773 15.0443 27.8848 14.9993 27.8998 14.9575C27.9153 14.9157 27.9371 14.8793 27.9653 14.8484C27.9939 14.8175 28.0285 14.7932 28.0689 14.7755C28.1098 14.7573 28.156 14.7482 28.2073 14.7482C28.2501 14.7482 28.2896 14.7552 28.326 14.7693C28.3623 14.783 28.3937 14.8032 28.4201 14.83C28.4464 14.8568 28.4669 14.8898 28.4814 14.9289C28.4964 14.9675 28.5039 15.0116 28.5039 15.0611C28.5039 15.0839 28.5014 15.0991 28.4964 15.1068C28.4914 15.1145 28.4823 15.1184 28.4691 15.1184H28.0226ZM28.7777 14.8511C28.7927 14.8357 28.8081 14.8218 28.824 14.8095C28.8404 14.7968 28.8577 14.7859 28.8758 14.7768C28.894 14.7677 28.9133 14.7607 28.9338 14.7557C28.9543 14.7507 28.9765 14.7482 29.0006 14.7482C29.0388 14.7482 29.0722 14.7545 29.1008 14.7673C29.1299 14.78 29.1543 14.798 29.1738 14.8211C29.1938 14.8443 29.2088 14.8723 29.2188 14.905C29.2288 14.9373 29.2338 14.973 29.2338 15.012V15.4545H29.0879V15.012C29.0879 14.9652 29.077 14.9289 29.0552 14.903C29.0338 14.877 29.0011 14.8641 28.957 14.8641C28.9243 14.8641 28.8938 14.8716 28.8656 14.8866C28.8379 14.9016 28.8118 14.922 28.7872 14.948V15.4545H28.6406V14.7591H28.7293C28.7493 14.7591 28.762 14.7684 28.7674 14.787L28.7777 14.8511ZM29.8611 15.0284C29.8611 15.0039 29.8575 14.9811 29.8502 14.9602C29.8434 14.9389 29.8332 14.9205 29.8195 14.905C29.8059 14.8891 29.7889 14.8768 29.7684 14.8682C29.7484 14.8591 29.7252 14.8545 29.6989 14.8545C29.6457 14.8545 29.6039 14.8698 29.5734 14.9002C29.543 14.9307 29.5236 14.9734 29.5155 15.0284H29.8611ZM29.5114 15.1184C29.5132 15.158 29.5193 15.1923 29.5298 15.2214C29.5402 15.25 29.5541 15.2739 29.5714 15.293C29.5891 15.312 29.61 15.3264 29.6341 15.3359C29.6586 15.345 29.6859 15.3495 29.7159 15.3495C29.7445 15.3495 29.7693 15.3464 29.7902 15.34C29.8111 15.3332 29.8293 15.3259 29.8448 15.3182C29.8602 15.31 29.8734 15.3027 29.8843 15.2964C29.8952 15.2895 29.9052 15.2861 29.9143 15.2861C29.9261 15.2861 29.9352 15.2907 29.9416 15.2998L29.9832 15.3536C29.9659 15.3741 29.9464 15.3914 29.9245 15.4055C29.9027 15.4195 29.8795 15.4311 29.855 15.4402C29.8305 15.4489 29.8052 15.455 29.7793 15.4586C29.7534 15.4627 29.7282 15.4648 29.7036 15.4648C29.6555 15.4648 29.6107 15.4568 29.5693 15.4409C29.5284 15.4245 29.4927 15.4007 29.4623 15.3693C29.4323 15.338 29.4086 15.2991 29.3914 15.2527C29.3745 15.2064 29.3661 15.153 29.3661 15.0925C29.3661 15.0443 29.3736 14.9993 29.3886 14.9575C29.4041 14.9157 29.4259 14.8793 29.4541 14.8484C29.4827 14.8175 29.5173 14.7932 29.5577 14.7755C29.5986 14.7573 29.6448 14.7482 29.6961 14.7482C29.7389 14.7482 29.7784 14.7552 29.8148 14.7693C29.8511 14.783 29.8825 14.8032 29.9089 14.83C29.9352 14.8568 29.9557 14.8898 29.9702 14.9289C29.9852 14.9675 29.9927 15.0116 29.9927 15.0611C29.9927 15.0839 29.9902 15.0991 29.9852 15.1068C29.9802 15.1145 29.9711 15.1184 29.958 15.1184H29.5114ZM30.2788 14.4455V15.4545H30.1322V14.4455H30.2788ZM31.0461 14.7591V15.4545H30.9574C30.9379 15.4545 30.9254 15.4452 30.9199 15.4266L30.909 15.3618C30.8945 15.3773 30.879 15.3914 30.8626 15.4041C30.8467 15.4168 30.8297 15.4277 30.8115 15.4368C30.7933 15.4459 30.7738 15.453 30.7529 15.458C30.7324 15.463 30.7104 15.4655 30.6867 15.4655C30.6486 15.4655 30.6149 15.4591 30.5858 15.4464C30.5567 15.4336 30.5322 15.4157 30.5122 15.3925C30.4926 15.3693 30.4779 15.3416 30.4679 15.3093C30.4579 15.2766 30.4529 15.2407 30.4529 15.2016V14.7591H30.5995V15.2016C30.5995 15.2484 30.6101 15.2848 30.6315 15.3107C30.6533 15.3366 30.6863 15.3495 30.7304 15.3495C30.7626 15.3495 30.7926 15.3423 30.8204 15.3277C30.8486 15.3127 30.8749 15.2923 30.8995 15.2664V14.7591H31.0461ZM31.6393 14.8852C31.6357 14.8916 31.6316 14.8961 31.627 14.8989C31.6225 14.9016 31.6168 14.903 31.61 14.903C31.6023 14.903 31.5938 14.9007 31.5848 14.8961C31.5757 14.8911 31.565 14.8857 31.5527 14.8798C31.5404 14.8739 31.5259 14.8686 31.5091 14.8641C31.4927 14.8591 31.4734 14.8566 31.4511 14.8566C31.4329 14.8566 31.4163 14.8589 31.4013 14.8634C31.3868 14.8675 31.3743 14.8736 31.3638 14.8818C31.3538 14.8895 31.3461 14.8989 31.3407 14.9098C31.3352 14.9202 31.3325 14.9316 31.3325 14.9439C31.3325 14.9602 31.3375 14.9739 31.3475 14.9848C31.3575 14.9957 31.3707 15.0052 31.387 15.0134C31.4034 15.0211 31.422 15.0282 31.4429 15.0345C31.4638 15.0409 31.4852 15.0477 31.507 15.055C31.5288 15.0623 31.5502 15.0707 31.5711 15.0802C31.592 15.0898 31.6107 15.1016 31.627 15.1157C31.6434 15.1293 31.6566 15.1461 31.6666 15.1661C31.6766 15.1857 31.6816 15.2095 31.6816 15.2377C31.6816 15.2705 31.6757 15.3007 31.6638 15.3284C31.652 15.3561 31.6348 15.3802 31.612 15.4007C31.5893 15.4211 31.5609 15.437 31.5268 15.4484C31.4932 15.4598 31.4545 15.4655 31.4109 15.4655C31.3868 15.4655 31.3634 15.4632 31.3407 15.4586C31.3184 15.4545 31.297 15.4489 31.2766 15.4416C31.2566 15.4339 31.2377 15.4248 31.22 15.4143C31.2027 15.4039 31.1873 15.3925 31.1736 15.3802L31.2077 15.3243C31.2118 15.3175 31.2168 15.3123 31.2227 15.3086C31.2291 15.3045 31.2368 15.3025 31.2459 15.3025C31.2554 15.3025 31.2648 15.3057 31.2738 15.312C31.2834 15.318 31.2943 15.3245 31.3066 15.3318C31.3193 15.3391 31.3345 15.3459 31.3523 15.3523C31.37 15.3582 31.392 15.3611 31.4184 15.3611C31.4402 15.3611 31.4591 15.3586 31.475 15.3536C31.4909 15.3482 31.5041 15.3409 31.5145 15.3318C31.525 15.3227 31.5327 15.3125 31.5377 15.3011C31.5427 15.2893 31.5452 15.2768 31.5452 15.2636C31.5452 15.2459 31.5402 15.2314 31.5302 15.22C31.5202 15.2086 31.5068 15.1989 31.49 15.1907C31.4736 15.1825 31.4548 15.1752 31.4334 15.1689C31.4125 15.1625 31.3911 15.1557 31.3693 15.1484C31.3475 15.1411 31.3259 15.1327 31.3045 15.1232C31.2836 15.1136 31.2648 15.1016 31.2479 15.087C31.2316 15.072 31.2184 15.0541 31.2084 15.0332C31.1984 15.0118 31.1934 14.9859 31.1934 14.9555C31.1934 14.9277 31.1988 14.9014 31.2098 14.8764C31.2211 14.8514 31.2375 14.8293 31.2588 14.8102C31.2807 14.7911 31.3073 14.7761 31.3386 14.7652C31.3704 14.7539 31.407 14.7482 31.4484 14.7482C31.4952 14.7482 31.5377 14.7557 31.5759 14.7707C31.6141 14.7857 31.6461 14.8061 31.672 14.832L31.6393 14.8852ZM32.4057 14.7591V15.4545H32.3171C32.2975 15.4545 32.285 15.4452 32.2796 15.4266L32.2687 15.3618C32.2541 15.3773 32.2387 15.3914 32.2223 15.4041C32.2064 15.4168 32.1893 15.4277 32.1712 15.4368C32.153 15.4459 32.1334 15.453 32.1125 15.458C32.0921 15.463 32.07 15.4655 32.0464 15.4655C32.0082 15.4655 31.9746 15.4591 31.9455 15.4464C31.9164 15.4336 31.8918 15.4157 31.8718 15.3925C31.8523 15.3693 31.8375 15.3416 31.8275 15.3093C31.8175 15.2766 31.8125 15.2407 31.8125 15.2016V14.7591H31.9591V15.2016C31.9591 15.2484 31.9698 15.2848 31.9912 15.3107C32.013 15.3366 32.0459 15.3495 32.09 15.3495C32.1223 15.3495 32.1523 15.3423 32.18 15.3277C32.2082 15.3127 32.2346 15.2923 32.2591 15.2664V14.7591H32.4057ZM32.7221 14.888C32.7439 14.8439 32.7703 14.8093 32.8012 14.7843C32.8321 14.7589 32.8692 14.7461 32.9124 14.7461C32.9274 14.7461 32.9414 14.748 32.9546 14.7516C32.9678 14.7548 32.9796 14.7598 32.9901 14.7666L32.9799 14.877C32.978 14.8848 32.9751 14.8902 32.971 14.8934C32.9674 14.8961 32.9624 14.8975 32.956 14.8975C32.9492 14.8975 32.9394 14.8964 32.9267 14.8941C32.9139 14.8914 32.9005 14.89 32.8864 14.89C32.866 14.89 32.8478 14.893 32.8319 14.8989C32.8164 14.9048 32.8024 14.9134 32.7896 14.9248C32.7774 14.9361 32.7664 14.95 32.7569 14.9664C32.7474 14.9827 32.7385 15.0014 32.7303 15.0223V15.4545H32.5837V14.7591H32.6689C32.6844 14.7591 32.6951 14.762 32.701 14.768C32.7069 14.7734 32.711 14.7832 32.7133 14.7973L32.7221 14.888ZM33.448 15.1505C33.3958 15.1523 33.3517 15.1566 33.3158 15.1634C33.2798 15.1698 33.2508 15.1782 33.2285 15.1886C33.2062 15.1986 33.1901 15.2107 33.1801 15.2248C33.1705 15.2389 33.1658 15.2543 33.1658 15.2711C33.1658 15.2875 33.1683 15.3016 33.1733 15.3134C33.1787 15.3248 33.186 15.3343 33.1951 15.342C33.2046 15.3493 33.2155 15.3548 33.2278 15.3584C33.2405 15.3616 33.2544 15.3632 33.2694 15.3632C33.3076 15.3632 33.3403 15.3561 33.3676 15.342C33.3953 15.3275 33.4221 15.3066 33.448 15.2793V15.1505ZM33.0594 14.8559C33.138 14.7827 33.2317 14.7461 33.3403 14.7461C33.3803 14.7461 33.4158 14.7527 33.4467 14.7659C33.478 14.7786 33.5042 14.7968 33.5251 14.8205C33.5464 14.8441 33.5626 14.8723 33.5735 14.905C33.5848 14.9373 33.5905 14.9732 33.5905 15.0127V15.4545H33.5251C33.511 15.4545 33.5003 15.4525 33.493 15.4484C33.4858 15.4439 33.4796 15.435 33.4746 15.4218L33.4603 15.3652C33.4426 15.3811 33.4251 15.3955 33.4078 15.4082C33.3905 15.4205 33.3726 15.4309 33.3539 15.4395C33.3358 15.4482 33.316 15.4545 33.2946 15.4586C33.2737 15.4632 33.2505 15.4655 33.2251 15.4655C33.1969 15.4655 33.1705 15.4616 33.146 15.4539C33.1219 15.4461 33.101 15.4345 33.0833 15.4191C33.0655 15.4032 33.0514 15.3836 33.041 15.3605C33.031 15.3373 33.026 15.31 33.026 15.2786C33.026 15.2518 33.033 15.2257 33.0471 15.2002C33.0617 15.1748 33.0853 15.152 33.118 15.132C33.1512 15.1116 33.1946 15.0948 33.2483 15.0816C33.3023 15.0684 33.3689 15.0609 33.448 15.0591V15.0127C33.448 14.9627 33.4373 14.9255 33.416 14.9009C33.3946 14.8764 33.3633 14.8641 33.3219 14.8641C33.2937 14.8641 33.2701 14.8677 33.251 14.875C33.2319 14.8818 33.2153 14.8893 33.2012 14.8975C33.1871 14.9057 33.1746 14.9134 33.1637 14.9207C33.1528 14.9275 33.1412 14.9309 33.1289 14.9309C33.1189 14.9309 33.1103 14.9284 33.103 14.9234C33.0962 14.918 33.0905 14.9114 33.086 14.9036L33.0594 14.8559ZM33.8993 14.8511C33.9143 14.8357 33.9297 14.8218 33.9457 14.8095C33.962 14.7968 33.9793 14.7859 33.9975 14.7768C34.0157 14.7677 34.035 14.7607 34.0554 14.7557C34.0759 14.7507 34.0982 14.7482 34.1222 14.7482C34.1604 14.7482 34.1938 14.7545 34.2225 14.7673C34.2516 14.78 34.2759 14.798 34.2954 14.8211C34.3154 14.8443 34.3304 14.8723 34.3404 14.905C34.3504 14.9373 34.3554 14.973 34.3554 15.012V15.4545H34.2095V15.012C34.2095 14.9652 34.1986 14.9289 34.1768 14.903C34.1554 14.877 34.1227 14.8641 34.0786 14.8641C34.0459 14.8641 34.0154 14.8716 33.9872 14.8866C33.9595 14.9016 33.9334 14.922 33.9088 14.948V15.4545H33.7622V14.7591H33.8509C33.8709 14.7591 33.8836 14.7684 33.8891 14.787L33.8993 14.8511Z" fill="black"/>
<path d="M23.4754 19.2076C23.5248 19.2138 23.5523 19.2146 23.5521 19.2188C23.5519 19.2147 23.5773 19.2139 23.6236 19.2083L23.4754 19.2076Z" fill="#455A64"/>
<path d="M24.3698 17.5649C24.3109 17.484 24.2379 17.4107 24.1532 17.3502C23.9866 17.2252 23.7727 17.155 23.5522 17.1528C23.3316 17.1549 23.1177 17.2251 22.9509 17.3501C22.8663 17.4106 22.7932 17.484 22.7344 17.5649C22.6742 17.6448 22.6266 17.7319 22.5949 17.8222C22.5261 18.0015 22.5202 18.1903 22.548 18.358C22.577 18.5267 22.65 18.6734 22.7364 18.7901C22.7488 18.8067 22.762 18.8211 22.7748 18.8364C22.8503 18.6214 23.0167 18.3816 23.3902 18.3253C23.2175 18.2535 23.0953 18.0753 23.0961 17.8659C23.0972 17.5941 23.3047 17.3748 23.5595 17.3759C23.8144 17.3771 24.02 17.5984 24.0189 17.8701C24.0179 18.0776 23.8965 18.2536 23.7257 18.3253C24.0928 18.3808 24.2563 18.619 24.3303 18.8348C24.3427 18.82 24.3555 18.806 24.3674 18.79C24.4537 18.6732 24.5267 18.5266 24.5557 18.3578C24.5836 18.1902 24.5777 18.0014 24.5088 17.8221C24.4775 17.7318 24.4298 17.6448 24.3698 17.5649Z" fill="#FAFAFA"/>
<path d="M24.5664 17.8014C24.5336 17.7053 24.4838 17.6126 24.4205 17.5273C24.3585 17.441 24.2812 17.3627 24.1917 17.298C24.0151 17.1644 23.787 17.0886 23.5523 17.0867C23.3176 17.0886 23.0894 17.1643 22.9127 17.298C22.823 17.3626 22.7457 17.441 22.6837 17.5273C22.6204 17.6126 22.5706 17.7053 22.5378 17.8014C22.4665 17.9923 22.4623 18.1918 22.4943 18.3681C22.5273 18.5455 22.6067 18.6983 22.6994 18.8185C22.889 19.0611 23.1306 19.1634 23.2928 19.1985C23.375 19.2172 23.4407 19.223 23.4848 19.2222C23.5292 19.2223 23.5521 19.2211 23.5521 19.2189C23.5525 19.2147 23.5248 19.2139 23.4754 19.2077L23.6236 19.2084C23.5773 19.214 23.5519 19.2148 23.5521 19.2189C23.5521 19.2211 23.5752 19.2222 23.6194 19.2222C23.6635 19.223 23.7293 19.2172 23.8114 19.1985C23.9736 19.1634 24.2152 19.0611 24.4048 18.8185C24.4975 18.6983 24.5769 18.5455 24.6098 18.3681C24.6418 18.1918 24.6377 17.9923 24.5664 17.8014ZM24.5561 18.3578C24.5271 18.5266 24.454 18.6732 24.3678 18.79C24.3559 18.806 24.343 18.8199 24.3306 18.8348C24.2567 18.6191 24.0931 18.3808 23.7261 18.3253C23.8968 18.2538 24.0182 18.0776 24.0193 17.8701C24.0204 17.5983 23.8147 17.377 23.5598 17.3759C23.3051 17.3748 23.0976 17.5941 23.0964 17.8659C23.0955 18.0753 23.2178 18.2535 23.3905 18.3253C23.017 18.3816 22.8505 18.6214 22.7752 18.8364C22.7623 18.821 22.7492 18.8066 22.7368 18.7901C22.6505 18.6734 22.5773 18.5267 22.5484 18.358C22.5204 18.1903 22.5264 18.0015 22.5953 17.8222C22.6269 17.7318 22.6746 17.6448 22.7347 17.5649C22.7936 17.484 22.8667 17.4106 22.9513 17.3501C23.118 17.2251 23.332 17.1549 23.5526 17.1528C23.773 17.155 23.987 17.2252 24.1536 17.3502C24.2381 17.4107 24.3112 17.4841 24.3702 17.5649C24.4303 17.6448 24.4779 17.7318 24.5096 17.8222C24.578 18.0015 24.5839 18.1902 24.5561 18.3578Z" fill="#455A64"/>
<path d="M35.8294 20.1652C35.8293 20.1625 35.862 20.1651 35.9236 20.1526C35.9839 20.1399 36.0768 20.1092 36.1655 20.0252C36.2545 19.9435 36.331 19.7994 36.3185 19.619C36.3176 19.4386 36.3166 19.2311 36.3154 18.9976C36.3138 18.5294 36.312 17.9576 36.3099 17.294C36.3094 17.128 36.3091 16.9561 36.3086 16.7789C36.3189 16.606 36.2293 16.4282 36.0712 16.3373C35.9147 16.2383 35.7108 16.2816 35.5136 16.2723C35.3147 16.2726 35.1108 16.2731 34.9018 16.2734C31.5564 16.2759 26.9382 16.2793 21.8374 16.2831C21.6878 16.2825 21.5417 16.358 21.4566 16.4799C21.4127 16.5397 21.3863 16.611 21.3757 16.6837C21.3667 16.7547 21.3721 16.838 21.3705 16.9156C21.3705 17.2306 21.3704 17.5434 21.3704 17.8541C21.3707 18.4748 21.3708 19.0865 21.371 19.6875C21.3757 19.8286 21.4499 19.9634 21.5637 20.0444C21.62 20.0857 21.6855 20.1136 21.7539 20.1253C21.8207 20.1373 21.8959 20.1318 21.9697 20.1332C22.265 20.1333 22.5574 20.1335 22.8467 20.1336C23.4253 20.134 23.9918 20.1344 24.5444 20.1348C26.7547 20.1374 28.7454 20.1399 30.4179 20.1418C32.0885 20.1462 33.4407 20.1499 34.3776 20.1523C34.8436 20.155 35.2059 20.157 35.4542 20.1584C35.5758 20.1599 35.6691 20.1609 35.7342 20.1617C35.7971 20.163 35.8294 20.1652 35.8294 20.1652C35.8294 20.1652 35.7971 20.1675 35.7341 20.1686C35.6689 20.1694 35.5758 20.1705 35.4541 20.1719C35.2059 20.1734 34.8436 20.1755 34.3775 20.1782C33.4405 20.1807 32.0884 20.1842 30.4178 20.1886C28.7454 20.1907 26.7547 20.1931 24.5443 20.1957C23.9916 20.196 23.4251 20.1964 22.8466 20.1968C22.5572 20.1969 22.2649 20.1972 21.9696 20.1973C21.8963 20.1957 21.8224 20.2022 21.7426 20.1886C21.6647 20.1753 21.59 20.1435 21.526 20.0967C21.3964 20.0048 21.3119 19.8511 21.3063 19.6905C21.3058 19.0885 21.3052 18.4758 21.3046 17.8541C21.3046 17.5434 21.3045 17.2306 21.3045 16.9156C21.3063 16.8358 21.3 16.7607 21.3102 16.6747C21.3222 16.5915 21.3527 16.51 21.4026 16.4417C21.4994 16.3026 21.6668 16.2162 21.8372 16.2169C26.938 16.2207 31.5563 16.2241 34.9017 16.2266C35.1107 16.227 35.3146 16.2274 35.5135 16.2277C35.6129 16.228 35.711 16.2281 35.8078 16.2283C35.9068 16.2252 36.0087 16.2505 36.0925 16.3009C36.2639 16.3994 36.3602 16.5967 36.3482 16.7787C36.3477 16.9561 36.3472 17.1278 36.3468 17.2939C36.3446 17.9575 36.3427 18.5293 36.3412 18.9975C36.3401 19.231 36.3391 19.4386 36.3382 19.6189C36.3491 19.8028 36.2675 19.9534 36.1747 20.0348C36.082 20.1194 35.9864 20.1484 35.925 20.1591C35.8621 20.1697 35.8294 20.1652 35.8294 20.1652Z" fill="#455A64"/>
<path d="M29.267 17.2678H25.5767V17.5447H29.267V17.2678Z" fill="#455A64"/>
<path d="M32.0425 18.8319H25.5767V19.1088H32.0425V18.8319Z" fill="#455A64"/>
<path d="M34.9469 18.0308H25.5767V18.3076H34.9469V18.0308Z" fill="#455A64"/>
<path d="M23.4754 28.9992C23.5248 29.0053 23.5523 29.0061 23.5521 29.0102C23.5519 29.0061 23.5773 29.0053 23.6236 28.9999L23.4754 28.9992Z" fill="#455A64"/>
<path d="M24.3698 27.3565C24.3109 27.2756 24.2379 27.2023 24.1532 27.1418C23.9866 27.0168 23.7727 26.9466 23.5522 26.9444C23.3316 26.9465 23.1177 27.0167 22.9509 27.1417C22.8663 27.2022 22.7932 27.2756 22.7344 27.3565C22.6742 27.4364 22.6266 27.5234 22.5949 27.6138C22.5261 27.7932 22.5202 27.9819 22.548 28.1495C22.577 28.3183 22.65 28.465 22.7364 28.5817C22.7488 28.5983 22.762 28.6127 22.7748 28.628C22.8503 28.413 23.0167 28.1732 23.3902 28.1169C23.2175 28.0451 23.0953 27.8669 23.0961 27.6575C23.0972 27.3857 23.3047 27.1664 23.5595 27.1675C23.8144 27.1686 24.02 27.39 24.0189 27.6618C24.0179 27.8693 23.8965 28.0453 23.7257 28.117C24.0928 28.1725 24.2563 28.4107 24.3303 28.6265C24.3427 28.6117 24.3555 28.5977 24.3674 28.5817C24.4537 28.4649 24.5267 28.3183 24.5557 28.1495C24.5836 27.9819 24.5777 27.7931 24.5088 27.6138C24.4775 27.5234 24.4298 27.4364 24.3698 27.3565Z" fill="#FAFAFA"/>
<path d="M24.5664 27.593C24.5336 27.4969 24.4838 27.4042 24.4205 27.3189C24.3585 27.2326 24.2812 27.1543 24.1917 27.0895C24.0151 26.956 23.787 26.8802 23.5523 26.8783C23.3176 26.8802 23.0894 26.9559 22.9127 27.0895C22.823 27.1543 22.7457 27.2326 22.6837 27.3189C22.6204 27.4042 22.5706 27.4969 22.5378 27.593C22.4665 27.7839 22.4623 27.9835 22.4943 28.1597C22.5273 28.337 22.6067 28.4899 22.6994 28.6101C22.889 28.8527 23.1306 28.955 23.2928 28.9901C23.375 29.0088 23.4407 29.0145 23.4848 29.0138C23.5292 29.0139 23.5521 29.0127 23.5521 29.0105C23.5525 29.0063 23.5248 29.0055 23.4754 28.9994L23.6236 29.0001C23.5773 29.0057 23.5519 29.0065 23.5521 29.0105C23.5521 29.0127 23.5752 29.0139 23.6194 29.0138C23.6635 29.0145 23.7293 29.0088 23.8114 28.9901C23.9736 28.955 24.2152 28.8527 24.4048 28.6101C24.4975 28.4899 24.5769 28.337 24.6098 28.1597C24.6418 27.9834 24.6377 27.7839 24.5664 27.593ZM24.5561 28.1494C24.5271 28.3182 24.454 28.4648 24.3678 28.5816C24.3559 28.5976 24.343 28.6115 24.3306 28.6264C24.2567 28.4107 24.0931 28.1724 23.7261 28.1169C23.8968 28.0453 24.0182 27.8692 24.0193 27.6617C24.0204 27.3899 23.8147 27.1686 23.5598 27.1674C23.3051 27.1663 23.0976 27.3856 23.0964 27.6574C23.0955 27.8668 23.2178 28.045 23.3905 28.1168C23.017 28.1731 22.8505 28.4128 22.7752 28.6278C22.7623 28.6125 22.7492 28.5981 22.7368 28.5816C22.6505 28.4649 22.5773 28.3182 22.5484 28.1494C22.5204 27.9818 22.5264 27.793 22.5953 27.6136C22.6269 27.5233 22.6746 27.4363 22.7347 27.3564C22.7936 27.2755 22.8667 27.202 22.9513 27.1416C23.118 27.0166 23.332 26.9464 23.5526 26.9443C23.773 26.9464 23.987 27.0167 24.1536 27.1417C24.2381 27.2022 24.3112 27.2756 24.3702 27.3564C24.4303 27.4363 24.4779 27.5233 24.5096 27.6136C24.578 27.7931 24.5839 27.9818 24.5561 28.1494Z" fill="#455A64"/>
<path d="M35.8294 29.9568C35.8293 29.9541 35.862 29.9567 35.9236 29.9442C35.9839 29.9315 36.0768 29.9008 36.1655 29.8168C36.2545 29.7351 36.331 29.591 36.3185 29.4106C36.3176 29.2302 36.3166 29.0227 36.3154 28.7892C36.3138 28.321 36.312 27.7492 36.3099 27.0856C36.3094 26.9195 36.3091 26.7477 36.3086 26.5705C36.3189 26.3976 36.2293 26.2198 36.0712 26.1289C35.9147 26.0299 35.7108 26.0732 35.5136 26.0639C35.3147 26.0642 35.1108 26.0647 34.9018 26.065C31.5564 26.0675 26.9382 26.0709 21.8374 26.0747C21.6878 26.0741 21.5417 26.1495 21.4566 26.2715C21.4127 26.3313 21.3863 26.4026 21.3757 26.4753C21.3667 26.5463 21.3721 26.6295 21.3705 26.7072C21.3705 27.0222 21.3704 27.335 21.3704 27.6457C21.3707 28.2665 21.3708 28.8781 21.371 29.4791C21.3757 29.6202 21.4499 29.755 21.5637 29.836C21.62 29.8773 21.6855 29.9052 21.7539 29.9169C21.8207 29.9289 21.8959 29.9234 21.9697 29.9248C22.265 29.9249 22.5574 29.9251 22.8467 29.9252C23.4253 29.9256 23.9918 29.926 24.5444 29.9264C26.7547 29.929 28.7454 29.9315 30.4179 29.9334C32.0885 29.9378 33.4407 29.9415 34.3776 29.9439C34.8436 29.9466 35.2059 29.9486 35.4542 29.95C35.5758 29.9515 35.6691 29.9525 35.7342 29.9533C35.7971 29.9545 35.8294 29.9568 35.8294 29.9568C35.8294 29.9568 35.7971 29.9591 35.7341 29.9602C35.6689 29.961 35.5758 29.962 35.4541 29.9635C35.2059 29.965 34.8436 29.967 34.3775 29.9698C33.4405 29.9723 32.0884 29.9758 30.4178 29.9802C28.7454 29.9823 26.7547 29.9847 24.5443 29.9873C23.9916 29.9876 23.4251 29.988 22.8466 29.9884C22.5572 29.9885 22.2649 29.9888 21.9696 29.9889C21.8963 29.9873 21.8224 29.9938 21.7426 29.9802C21.6647 29.9669 21.59 29.9351 21.526 29.8883C21.3964 29.7964 21.3119 29.6427 21.3063 29.482C21.3058 28.8801 21.3052 28.2674 21.3046 27.6457C21.3046 27.3351 21.3045 27.0222 21.3045 26.7072C21.3063 26.6274 21.3 26.5523 21.3102 26.4663C21.3222 26.3831 21.3527 26.3016 21.4026 26.2333C21.4994 26.0942 21.6668 26.0078 21.8372 26.0085C26.938 26.0123 31.5563 26.0157 34.9017 26.0182C35.1107 26.0186 35.3146 26.019 35.5135 26.0193C35.6129 26.0195 35.711 26.0197 35.8078 26.0199C35.9068 26.0168 36.0087 26.042 36.0925 26.0925C36.2639 26.191 36.3602 26.3883 36.3482 26.5703C36.3477 26.7477 36.3472 26.9194 36.3468 27.0855C36.3446 27.7491 36.3427 28.3209 36.3412 28.7891C36.3401 29.0226 36.3391 29.2302 36.3382 29.4105C36.3491 29.5944 36.2675 29.745 36.1747 29.8264C36.082 29.911 35.9864 29.94 35.925 29.9507C35.8621 29.9613 35.8294 29.9568 35.8294 29.9568Z" fill="#455A64"/>
<path d="M29.267 27.0594H25.5767V27.3362H29.267V27.0594Z" fill="#455A64"/>
<path d="M32.0425 28.6235H25.5767V28.9003H32.0425V28.6235Z" fill="#455A64"/>
<path d="M34.9469 27.8224H25.5767V28.0992H34.9469V27.8224Z" fill="#455A64"/>
<path d="M35.9093 24.9785L21.8121 24.9382C21.5653 24.9375 21.3659 24.7369 21.3666 24.4901L21.3752 21.4685C21.3759 21.2218 21.5765 21.0223 21.8233 21.023L35.9204 21.0633C36.1671 21.064 36.3667 21.2645 36.366 21.5114L36.3574 24.533C36.3567 24.7797 36.1561 24.9792 35.9093 24.9785Z" fill="#1565C0"/>
<path d="M29.3025 22.0634L25.6122 22.0527L25.6114 22.3295L29.3017 22.3402L29.3025 22.0634Z" fill="#FAFAFA"/>
<path d="M32.0735 23.6356L25.6077 23.6169L25.6069 23.8937L32.0727 23.9124L32.0735 23.6356Z" fill="#FAFAFA"/>
<path d="M34.9802 22.8429L25.61 22.8158L25.6092 23.0926L34.9794 23.1197L34.9802 22.8429Z" fill="#FAFAFA"/>
<path d="M23.7628 23.0997C23.932 23.0244 24.0496 22.8458 24.0461 22.6383C24.0413 22.3666 23.831 22.1497 23.5762 22.154C23.3215 22.1583 23.1187 22.382 23.1234 22.6537C23.127 22.8631 23.2531 23.0386 23.4273 23.1068C23.0402 23.1736 22.8802 23.4343 22.814 23.6569C22.9796 23.8369 23.2068 23.9581 23.4615 23.9882L23.7458 23.9834C24.0032 23.9439 24.2286 23.8116 24.3883 23.6218C24.314 23.4012 24.1459 23.1491 23.7628 23.0997Z" fill="#FAFAFA"/>
<path d="M23.6082 23.9965C23.6075 23.9891 23.7017 23.9924 23.8606 23.947C24.0165 23.9023 24.2441 23.7916 24.4164 23.5518C24.5005 23.4331 24.5707 23.2845 24.5962 23.1148C24.6207 22.9461 24.6108 22.7569 24.5381 22.5785C24.5044 22.4886 24.4548 22.4024 24.3928 22.3234C24.332 22.2435 24.2573 22.1715 24.1711 22.1126C24.0014 21.9908 23.7852 21.9249 23.564 21.9275C23.3427 21.9343 23.1297 22.0094 22.9651 22.1384C22.8816 22.2009 22.8099 22.2761 22.7526 22.3585C22.6941 22.44 22.6482 22.5284 22.6184 22.6197C22.5533 22.8011 22.5516 22.9906 22.5833 23.1579C22.6161 23.3265 22.6926 23.4718 22.7818 23.5869C22.9642 23.8191 23.1964 23.9199 23.354 23.9578C23.5147 23.9964 23.6085 23.9891 23.6082 23.9965C23.6082 23.9965 23.5148 24.0126 23.3487 23.9803C23.1861 23.9484 22.9431 23.8511 22.749 23.6129C22.6541 23.495 22.5718 23.3442 22.5352 23.1679C22.4998 22.9929 22.4998 22.7939 22.5668 22.602C22.5975 22.5057 22.6452 22.4122 22.7065 22.3258C22.7665 22.2385 22.8418 22.1587 22.9299 22.0924C23.1032 21.9554 23.3289 21.8752 23.5628 21.8683C23.7967 21.8652 24.0257 21.9358 24.2045 22.0651C24.2952 22.1277 24.374 22.2041 24.4376 22.2887C24.5025 22.3724 24.5542 22.4637 24.589 22.5587C24.6642 22.7475 24.6727 22.9464 24.6448 23.1226C24.6158 23.3002 24.54 23.4544 24.4503 23.5764C24.2666 23.8226 24.028 23.9302 23.8668 23.9691C23.7023 24.0086 23.6082 23.9965 23.6082 23.9965Z" fill="#FAFAFA"/>
<path d="M27.9447 42.393C27.9441 42.5167 27.8268 42.6166 27.6827 42.6159C27.5386 42.6152 27.4223 42.5142 27.4227 42.3905C27.4233 42.2667 27.5405 42.1667 27.6847 42.1675C27.8288 42.1682 27.9451 42.2691 27.9447 42.393Z" fill="#455A64"/>
<path d="M28.7533 42.3967C28.7527 42.5205 28.6356 42.6203 28.4914 42.6197C28.3472 42.619 28.2309 42.5181 28.2314 42.3942C28.2318 42.2705 28.3491 42.1706 28.4933 42.1713C28.6374 42.1719 28.7538 42.2728 28.7533 42.3967Z" fill="#455A64"/>
<path d="M29.5618 42.4003C29.5613 42.5241 29.4441 42.6241 29.2999 42.6233C29.1558 42.6227 29.0394 42.5217 29.0399 42.3978C29.0404 42.2741 29.1576 42.1742 29.3018 42.1749C29.4459 42.1756 29.5624 42.2765 29.5618 42.4003Z" fill="#455A64"/>
<path d="M23.4754 34.0775C23.5248 34.0836 23.5523 34.0844 23.5521 34.0886C23.5519 34.0845 23.5773 34.0838 23.6236 34.0782L23.4754 34.0775Z" fill="#455A64"/>
<path d="M24.3698 32.4347C24.3109 32.3537 24.2379 32.2805 24.1532 32.22C23.9866 32.095 23.7727 32.0248 23.5522 32.0226C23.3316 32.0247 23.1177 32.0949 22.9509 32.2199C22.8663 32.2803 22.7932 32.3537 22.7344 32.4347C22.6742 32.5145 22.6266 32.6017 22.5949 32.6919C22.5261 32.8712 22.5202 33.0601 22.548 33.2277C22.577 33.3965 22.65 33.5432 22.7364 33.6599C22.7488 33.6765 22.762 33.6909 22.7748 33.7061C22.8503 33.4911 23.0167 33.2514 23.3902 33.1951C23.2175 33.1233 23.0953 32.9451 23.0961 32.7357C23.0972 32.4639 23.3047 32.2445 23.5595 32.2457C23.8144 32.2468 24.02 32.4682 24.0189 32.7399C24.0179 32.9474 23.8965 33.1234 23.7257 33.1951C24.0928 33.2506 24.2563 33.4888 24.3303 33.7045C24.3427 33.6898 24.3555 33.6758 24.3674 33.6598C24.4537 33.543 24.5267 33.3964 24.5557 33.2276C24.5836 33.06 24.5777 32.8711 24.5088 32.6918C24.4775 32.6016 24.4298 32.5145 24.3698 32.4347Z" fill="#FAFAFA"/>
<path d="M24.5664 32.6711C24.5336 32.5751 24.4838 32.4824 24.4205 32.397C24.3585 32.3108 24.2812 32.2325 24.1917 32.1677C24.0151 32.0342 23.787 31.9584 23.5523 31.9565C23.3176 31.9584 23.0894 32.0341 22.9127 32.1677C22.823 32.2325 22.7457 32.3108 22.6837 32.397C22.6204 32.4824 22.5706 32.5751 22.5378 32.6711C22.4665 32.862 22.4623 33.0616 22.4943 33.2378C22.5273 33.4152 22.6067 33.5681 22.6994 33.6883C22.889 33.9309 23.1306 34.0332 23.2928 34.0683C23.375 34.0869 23.4407 34.0927 23.4848 34.0919C23.5292 34.092 23.5521 34.0909 23.5521 34.0886C23.5525 34.0844 23.5248 34.0836 23.4754 34.0775L23.6236 34.0782C23.5773 34.0837 23.5519 34.0845 23.5521 34.0886C23.5521 34.0909 23.5752 34.0919 23.6194 34.0919C23.6635 34.0927 23.7293 34.0869 23.8114 34.0683C23.9736 34.0332 24.2152 33.9309 24.4048 33.6883C24.4975 33.5681 24.5769 33.4152 24.6098 33.2378C24.6418 33.0616 24.6377 32.862 24.5664 32.6711ZM24.5561 33.2277C24.5271 33.3965 24.454 33.5431 24.3678 33.6599C24.3559 33.6759 24.343 33.6898 24.3306 33.7047C24.2567 33.489 24.0931 33.2507 23.7261 33.1952C23.8968 33.1236 24.0182 32.9475 24.0193 32.74C24.0204 32.4682 23.8147 32.2469 23.5598 32.2458C23.3051 32.2447 23.0976 32.464 23.0964 32.7358C23.0955 32.9452 23.2178 33.1234 23.3905 33.1952C23.017 33.2515 22.8505 33.4911 22.7752 33.7062C22.7623 33.691 22.7492 33.6765 22.7368 33.66C22.6505 33.5433 22.5773 33.3966 22.5484 33.2278C22.5204 33.0602 22.5264 32.8714 22.5953 32.692C22.6269 32.6017 22.6746 32.5147 22.7347 32.4348C22.7936 32.3539 22.8667 32.2805 22.9513 32.22C23.118 32.095 23.332 32.0248 23.5526 32.0227C23.773 32.0248 23.987 32.0951 24.1536 32.2201C24.2381 32.2806 24.3112 32.354 24.3702 32.4348C24.4303 32.5147 24.4779 32.6017 24.5096 32.692C24.578 32.8712 24.5839 33.0601 24.5561 33.2277Z" fill="#455A64"/>
<path d="M35.8294 35.035C35.8293 35.0323 35.862 35.0349 35.9236 35.0224C35.9839 35.0097 36.0768 34.979 36.1655 34.895C36.2545 34.8133 36.331 34.6692 36.3185 34.4889C36.3176 34.3085 36.3166 34.101 36.3154 33.8675C36.3138 33.3993 36.312 32.8275 36.3099 32.1639C36.3094 31.9978 36.3091 31.826 36.3086 31.6486C36.3189 31.4758 36.2293 31.298 36.0712 31.207C35.9147 31.1081 35.7108 31.1514 35.5136 31.142C35.3147 31.1424 35.1108 31.1428 34.9018 31.1432C31.5564 31.1457 26.9382 31.1491 21.8374 31.1528C21.6878 31.1523 21.5417 31.2277 21.4566 31.3497C21.4127 31.4094 21.3863 31.4808 21.3757 31.5535C21.3667 31.6244 21.3721 31.7077 21.3705 31.7853C21.3705 32.1003 21.3704 32.4132 21.3704 32.7239C21.3707 33.3445 21.3708 33.9563 21.371 34.5573C21.3757 34.6984 21.4499 34.8332 21.5637 34.9142C21.62 34.9555 21.6855 34.9834 21.7539 34.9951C21.8207 35.007 21.8959 35.0016 21.9697 35.003C22.265 35.0031 22.5574 35.0033 22.8467 35.0034C23.4253 35.0038 23.9918 35.0042 24.5444 35.0045C26.7547 35.0072 28.7454 35.0097 30.4179 35.0116C32.0885 35.016 33.4407 35.0197 34.3776 35.022C34.8436 35.0248 35.2059 35.0268 35.4542 35.0283C35.5758 35.0297 35.6691 35.0308 35.7342 35.0316C35.7971 35.0327 35.8294 35.035 35.8294 35.035C35.8294 35.035 35.7971 35.0373 35.7341 35.0384C35.6689 35.0392 35.5758 35.0402 35.4541 35.0417C35.2059 35.0432 34.8436 35.0452 34.3775 35.048C33.4405 35.0505 32.0884 35.054 30.4178 35.0584C28.7454 35.0605 26.7547 35.0628 24.5443 35.0655C23.9916 35.0658 23.4251 35.0661 22.8466 35.0666C22.5572 35.0667 22.2649 35.0669 21.9696 35.067C21.8963 35.0655 21.8224 35.0719 21.7426 35.0584C21.6647 35.0451 21.59 35.0133 21.526 34.9665C21.3964 34.8745 21.3119 34.7209 21.3063 34.5602C21.3058 33.9583 21.3052 33.3456 21.3046 32.7239C21.3046 32.4132 21.3045 32.1003 21.3045 31.7853C21.3063 31.7056 21.3 31.6305 21.3102 31.5444C21.3222 31.4612 21.3527 31.3798 21.4026 31.3115C21.4994 31.1724 21.6668 31.086 21.8372 31.0867C26.938 31.0905 31.5563 31.0939 34.9017 31.0964C35.1107 31.0967 35.3146 31.0972 35.5135 31.0975C35.6129 31.0977 35.711 31.0978 35.8078 31.0981C35.9068 31.095 36.0087 31.1202 36.0925 31.1707C36.2639 31.2692 36.3602 31.4665 36.3482 31.6485C36.3477 31.8259 36.3472 31.9976 36.3468 32.1638C36.3446 32.8274 36.3427 33.3992 36.3412 33.8674C36.3401 34.1009 36.3391 34.3084 36.3382 34.4888C36.3491 34.6727 36.2675 34.8233 36.1747 34.9047C36.082 34.9893 35.9864 35.0183 35.925 35.029C35.8621 35.0395 35.8294 35.035 35.8294 35.035Z" fill="#455A64"/>
<path d="M29.267 32.1376H25.5767V32.4144H29.267V32.1376Z" fill="#455A64"/>
<path d="M32.0425 33.7017H25.5767V33.9785H32.0425V33.7017Z" fill="#455A64"/>
<path d="M34.9469 32.9007H25.5767V33.1775H34.9469V32.9007Z" fill="#455A64"/>
<path d="M23.4754 39.0546C23.5248 39.0607 23.5523 39.0615 23.5521 39.0657C23.5519 39.0616 23.5773 39.0608 23.6236 39.0553L23.4754 39.0546Z" fill="#455A64"/>
<path d="M24.3698 37.4117C24.3109 37.3308 24.2379 37.2575 24.1532 37.1971C23.9866 37.0721 23.7727 37.0018 23.5522 36.9997C23.3316 37.0017 23.1177 37.0719 22.9509 37.1969C22.8663 37.2574 22.7932 37.3308 22.7344 37.4117C22.6742 37.4916 22.6266 37.5788 22.5949 37.669C22.5261 37.8483 22.5202 38.0372 22.548 38.2048C22.577 38.3735 22.65 38.5202 22.7364 38.6369C22.7488 38.6534 22.762 38.668 22.7748 38.6832C22.8503 38.4682 23.0167 38.2284 23.3902 38.1722C23.2175 38.1003 23.0953 37.9222 23.0961 37.7127C23.0972 37.4409 23.3047 37.2216 23.5595 37.2227C23.8144 37.2239 24.02 37.4452 24.0189 37.7171C24.0179 37.9246 23.8965 38.1006 23.7257 38.1722C24.0928 38.2276 24.2563 38.4658 24.3303 38.6816C24.3427 38.6668 24.3555 38.6528 24.3674 38.6368C24.4537 38.5201 24.5267 38.3734 24.5557 38.2047C24.5836 38.0371 24.5777 37.8482 24.5088 37.6689C24.4775 37.5786 24.4298 37.4916 24.3698 37.4117Z" fill="#FAFAFA"/>
<path d="M24.5664 37.6482C24.5336 37.5522 24.4838 37.4594 24.4205 37.3741C24.3585 37.2879 24.2812 37.2096 24.1917 37.1448C24.0151 37.0113 23.787 36.9355 23.5523 36.9335C23.3176 36.9355 23.0894 37.0111 22.9127 37.1448C22.823 37.2096 22.7457 37.2879 22.6837 37.3741C22.6204 37.4594 22.5706 37.5522 22.5378 37.6482C22.4665 37.8391 22.4623 38.0386 22.4943 38.2149C22.5273 38.3923 22.6067 38.5451 22.6994 38.6654C22.889 38.908 23.1306 39.0102 23.2928 39.0454C23.375 39.064 23.4407 39.0698 23.4848 39.069C23.5292 39.0691 23.5521 39.068 23.5521 39.0657C23.5525 39.0615 23.5248 39.0607 23.4754 39.0546L23.6236 39.0552C23.5773 39.0608 23.5519 39.0617 23.5521 39.0657C23.5521 39.068 23.5752 39.0689 23.6194 39.0689C23.6635 39.0697 23.7293 39.0639 23.8114 39.0452C23.9736 39.0101 24.2152 38.9079 24.4048 38.6652C24.4975 38.545 24.5769 38.3922 24.6098 38.2148C24.6418 38.0386 24.6377 37.8391 24.5664 37.6482ZM24.5561 38.2048C24.5271 38.3735 24.454 38.5202 24.3678 38.6369C24.3559 38.653 24.343 38.6668 24.3306 38.6817C24.2567 38.466 24.0931 38.2277 23.7261 38.1723C23.8968 38.1007 24.0182 37.9246 24.0193 37.7172C24.0204 37.4454 23.8147 37.2241 23.5598 37.2229C23.3051 37.2217 23.0976 37.441 23.0964 37.7129C23.0955 37.9223 23.2178 38.1005 23.3905 38.1723C23.017 38.2285 22.8505 38.4683 22.7752 38.6833C22.7623 38.6681 22.7492 38.6535 22.7368 38.6371C22.6505 38.5204 22.5773 38.3736 22.5484 38.2049C22.5204 38.0373 22.5264 37.8484 22.5953 37.6691C22.6269 37.5788 22.6746 37.4917 22.7347 37.4118C22.7936 37.3309 22.8667 37.2575 22.9513 37.1971C23.118 37.0721 23.332 37.0018 23.5526 36.9998C23.773 37.0019 23.987 37.0722 24.1536 37.1972C24.2381 37.2576 24.3112 37.331 24.3702 37.4118C24.4303 37.4917 24.4779 37.5788 24.5096 37.6691C24.578 37.8483 24.5839 38.0372 24.5561 38.2048Z" fill="#455A64"/>
<path d="M35.8294 40.012C35.8293 40.0093 35.862 40.0119 35.9236 39.9994C35.9839 39.9867 36.0768 39.956 36.1655 39.8721C36.2545 39.7903 36.331 39.6463 36.3185 39.4659C36.3176 39.2856 36.3166 39.0781 36.3154 38.8446C36.3138 38.3764 36.312 37.8046 36.3099 37.1409C36.3094 36.9749 36.3091 36.8031 36.3086 36.6258C36.3189 36.453 36.2293 36.2751 36.0712 36.1842C35.9147 36.0852 35.7108 36.1285 35.5136 36.1192C35.3147 36.1196 35.1108 36.12 34.9018 36.1203C31.5564 36.1228 26.9382 36.1263 21.8374 36.13C21.6878 36.1294 21.5417 36.2049 21.4566 36.3268C21.4127 36.3866 21.3863 36.458 21.3757 36.5307C21.3667 36.6016 21.3721 36.6849 21.3705 36.7625C21.3705 37.0775 21.3704 37.3905 21.3704 37.701C21.3707 38.3218 21.3708 38.9334 21.371 39.5344C21.3757 39.6756 21.4499 39.8103 21.5637 39.8914C21.62 39.9326 21.6855 39.9606 21.7539 39.9723C21.8207 39.9842 21.8959 39.9788 21.9697 39.9801C22.265 39.9802 22.5574 39.9805 22.8467 39.9806C23.4253 39.9809 23.9918 39.9814 24.5444 39.9817C26.7547 39.9843 28.7454 39.9867 30.4179 39.9888C32.0885 39.9932 33.4407 39.9968 34.3776 39.9992C34.8436 40.0019 35.2059 40.004 35.4542 40.0055C35.5758 40.0069 35.6691 40.008 35.7342 40.0088C35.7971 40.0098 35.8294 40.012 35.8294 40.012C35.8294 40.012 35.7971 40.0143 35.7341 40.0155C35.6689 40.0163 35.5758 40.0173 35.4541 40.0188C35.2059 40.0201 34.8436 40.0223 34.3775 40.025C33.4405 40.0275 32.0884 40.031 30.4178 40.0355C28.7454 40.0375 26.7547 40.0399 24.5443 40.0425C23.9916 40.0428 23.4251 40.0433 22.8466 40.0436C22.5572 40.0438 22.2649 40.044 21.9696 40.0441C21.8963 40.0425 21.8224 40.0491 21.7426 40.0355C21.6647 40.0223 21.59 39.9903 21.526 39.9435C21.3964 39.8516 21.3119 39.698 21.3063 39.5373C21.3058 38.9353 21.3052 38.3227 21.3046 37.7009C21.3046 37.3903 21.3045 37.0774 21.3045 36.7624C21.3063 36.6826 21.3 36.6075 21.3102 36.5215C21.3222 36.4383 21.3527 36.3568 21.4026 36.2885C21.4994 36.1494 21.6668 36.0631 21.8372 36.0638C26.938 36.0675 31.5563 36.0709 34.9017 36.0734C35.1107 36.0739 35.3146 36.0742 35.5135 36.0746C35.6129 36.0748 35.711 36.0749 35.8078 36.0751C35.9068 36.0721 36.0087 36.0973 36.0925 36.1477C36.2639 36.2463 36.3602 36.4435 36.3482 36.6256C36.3477 36.8028 36.3472 36.9747 36.3468 37.1407C36.3446 37.8043 36.3427 38.3761 36.3412 38.8443C36.3401 39.0778 36.3391 39.2853 36.3382 39.4657C36.3491 39.6497 36.2675 39.8002 36.1747 39.8816C36.082 39.9664 35.9864 39.9952 35.925 40.0059C35.8621 40.0166 35.8294 40.012 35.8294 40.012Z" fill="#455A64"/>
<path d="M29.267 37.1147H25.5767V37.3915H29.267V37.1147Z" fill="#455A64"/>
<path d="M32.0425 38.6788H25.5767V38.9556H32.0425V38.6788Z" fill="#455A64"/>
<path d="M34.9469 37.8777H25.5767V38.1545H34.9469V37.8777Z" fill="#455A64"/>
<path d="M35.8736 22.1027C36.2918 22.1027 36.6309 21.7637 36.6309 21.3455C36.6309 20.9272 36.2918 20.5882 35.8736 20.5882C35.4554 20.5882 35.1163 20.9272 35.1163 21.3455C35.1163 21.7637 35.4554 22.1027 35.8736 22.1027Z" fill="#263238"/>
<path d="M35.5028 21.2842L35.8206 21.564L36.2445 21.1269" stroke="#FAFAFA" stroke-width="0.113636" stroke-miterlimit="10" stroke-linecap="round" stroke-linejoin="round"/>
</g>
<defs>
<clipPath id="clip0_6536_87491">
<rect width="37.5" height="37.5" fill="white" transform="translate(9.25 9.25)"/>
</clipPath>
</defs>
</svg>
