<svg width="56" height="56" viewBox="0 0 56 56" fill="none" xmlns="http://www.w3.org/2000/svg">
<rect width="56" height="56" rx="28" fill="#FAFAFA"/>
<g clip-path="url(#clip0_6223_103761)">
<path d="M32.7148 9.78621H12.1871V24.5226H32.7148V9.78621Z" fill="#FAFAFA"/>
<path d="M31.5465 24.5226L26.3253 9.78621H22.407L27.6282 24.5226H31.5465Z" fill="white"/>
<path d="M21.0103 24.5226L15.789 9.78621H14.3598L19.5811 24.5226H21.0103Z" fill="white"/>
<path d="M11.2083 9.27944H33.6935C33.7437 9.27944 33.7847 9.32049 33.7847 9.37067C33.7847 9.42086 33.7437 9.4619 33.6935 9.4619H11.2083C11.1581 9.4619 11.1171 9.42086 11.1171 9.37067C11.1171 9.32049 11.1581 9.27944 11.2083 9.27944Z" fill="#E0E0E0"/>
<path d="M22.5726 9.75452H22.3293V24.5543H22.5726V9.75452Z" fill="#F0F0F0"/>
<path d="M22.3293 9.75452H22.2076V24.5543H22.3293V9.75452Z" fill="#E0E0E0"/>
<path d="M12.0452 17.0327V17.276H32.8566V17.0327H12.0452Z" fill="#F0F0F0"/>
<path d="M12.0452 24.4211V9.88754V9.64426H12.2884H32.6133H32.8566V9.88754V24.4211V24.6644H32.6133H12.2884H12.0452V24.4211ZM32.6133 24.4211V9.88754H12.2884V24.4211H32.6133Z" fill="#F0F0F0"/>
<path d="M12.0452 9.64426H11.9236V24.6644H12.0452V9.64426Z" fill="#E0E0E0"/>
<path opacity="0.5" d="M15.063 9.05647V26.3623H10.6694L11.4752 9.05647H15.063Z" fill="#EBEBEB"/>
<path opacity="0.5" d="M29.7173 9.05647V26.3623H34.1109L33.3051 9.05647H29.7173Z" fill="#EBEBEB"/>
<path d="M9.30558 28.4358H7.62994V42.0278H9.30558V28.4358Z" fill="#F0F0F0"/>
<path d="M26.4132 42.0278H7.95166V42.5361H26.4132V42.0278Z" fill="#F0F0F0"/>
<path d="M9.30562 42.0278H26.735V28.4358H9.30562V42.0278Z" fill="#F5F5F5"/>
<path d="M9.13171 27.9923H7.41907V28.4358H9.13171V27.9923Z" fill="#F0F0F0"/>
<path d="M9.13174 28.4358L26.9458 28.4358V27.9923L9.13174 27.9923V28.4358Z" fill="#FAFAFA"/>
<path d="M26.1325 36.0848H9.90814V29.3668H26.1325V36.0848ZM10.0206 35.9722H26.0199V29.4793H10.0206V35.9722Z" fill="#E0E0E0"/>
<path d="M26.1325 41.0967H9.90814V36.7573H26.1325V41.0967ZM10.0206 40.9842H26.0199V36.8699H10.0206V40.9842Z" fill="#E0E0E0"/>
<path d="M23.7979 29.7838H12.2426C12.1608 29.7838 12.0939 29.717 12.0939 29.6352V29.5716C12.0939 29.4898 12.1608 29.423 12.2426 29.423H23.7979C23.8797 29.423 23.9465 29.4898 23.9465 29.5716V29.6352C23.9465 29.717 23.8797 29.7838 23.7979 29.7838Z" fill="#E0E0E0"/>
<path d="M23.7979 37.1745H12.2426C12.1608 37.1745 12.0939 37.1076 12.0939 37.0258V36.9623C12.0939 36.8806 12.1608 36.8137 12.2426 36.8137H23.7979C23.8797 36.8137 23.9465 36.8806 23.9465 36.9623V37.0258C23.9465 37.1076 23.8797 37.1745 23.7979 37.1745Z" fill="#E0E0E0"/>
<path d="M38.0331 41.8839H47.7811L47.7811 12.1419H38.0331V41.8839Z" fill="#F0F0F0"/>
<path d="M38.0331 12.1418H37.7238V41.8838H38.0331V12.1418Z" fill="#E0E0E0"/>
<path d="M39.6147 40.7493H46.1995V13.2764H39.6147V40.7493Z" fill="#FAFAFA"/>
<path d="M27.6278 47.3381C39.0138 47.3381 48.2439 46.7991 48.2439 46.1342C48.2439 45.4692 39.0138 44.9302 27.6278 44.9302C16.2419 44.9302 7.01178 45.4692 7.01178 46.1342C7.01178 46.7991 16.2419 47.3381 27.6278 47.3381Z" fill="#E0E0E0"/>
<path d="M45.5644 38.5448H16.1876C15.29 38.5448 14.6081 37.8105 14.6725 36.9128L16.2268 15.2286C16.2911 14.331 17.0782 13.5966 17.9758 13.5966H47.3526C48.2502 13.5966 48.9321 14.3309 48.8677 15.2286L47.3134 36.9128C47.249 37.8105 46.462 38.5448 45.5644 38.5448Z" fill="#1565C0"/>
<path d="M38.7309 46.1342H29.1955L27.4959 34.3513H37.0313L38.7309 46.1342Z" fill="#1565C0"/>
<path d="M37.2169 45.4321H26.902L26.6971 46.1342H37.012L37.2169 45.4321Z" fill="#1565C0"/>
<path d="M37.5347 40.0237L28.2408 39.5158L27.4959 34.3513H36.7165L37.5347 40.0237Z" fill="#263238"/>
<path d="M45.2328 38.5448H15.856C14.9584 38.5448 14.2765 37.8105 14.3409 36.9128L15.8952 15.2286C15.9595 14.331 16.7466 13.5966 17.6442 13.5966H47.021C47.9186 13.5966 48.6005 14.3309 48.5361 15.2286L46.9818 36.9128C46.9174 37.8105 46.1304 38.5448 45.2328 38.5448Z" fill="#263238"/>
<path d="M48.4643 15.4417L47.5714 27.8808L47.6857 27.889L48.5787 15.45L48.4643 15.4417Z" fill="white"/>
<path d="M47.4941 28.9624L47.1854 33.2695L47.2997 33.2777L47.6085 28.9706L47.4941 28.9624Z" fill="white"/>
<path d="M45.1707 38.1391H15.9763C15.2775 38.1391 14.747 37.5675 14.797 36.8687L16.345 15.2728C16.3951 14.574 17.0077 14.0024 17.7064 14.0024H46.9008C47.5995 14.0024 48.1301 14.574 48.0801 15.2728L46.5321 36.8687C46.4819 37.5674 45.8693 38.1391 45.1707 38.1391Z" fill="white"/>
<path opacity="0.2" d="M45.1707 38.1391H15.9763C15.2775 38.1391 14.747 37.5675 14.797 36.8687L16.345 15.2728C16.3951 14.574 17.0077 14.0024 17.7064 14.0024H46.9008C47.5995 14.0024 48.1301 14.574 48.0801 15.2728L46.5321 36.8687C46.4819 37.5674 45.8693 38.1391 45.1707 38.1391Z" fill="#B9C3D3"/>
<path d="M23.4649 37.1819H16.6467C16.3092 37.1819 16.0528 36.9057 16.077 36.5682L17.5819 15.5735C17.6061 15.236 17.902 14.9597 18.2396 14.9597H25.0576C25.3951 14.9597 25.6515 15.236 25.6274 15.5735L24.1226 36.5682C24.0984 36.9057 23.8024 37.1819 23.4649 37.1819Z" fill="white"/>
<path d="M23.2009 17.9193H19.6721C19.3681 17.9193 19.1371 17.6705 19.1589 17.3664L19.1976 16.8254C19.2195 16.5213 19.4861 16.2726 19.7901 16.2726H23.3189C23.6229 16.2726 23.8539 16.5213 23.8321 16.8254L23.7934 17.3664C23.7715 17.6705 23.5049 17.9193 23.2009 17.9193Z" fill="#1565C0"/>
<path d="M20.9572 26.4119H15.5701C15.0396 26.4119 14.6366 25.9778 14.6747 25.4473L15.0609 20.0602C15.099 19.5297 15.5641 19.0956 16.0945 19.0956H21.4817C22.0122 19.0956 22.4152 19.5297 22.377 20.0602L21.9908 25.4473C21.9528 25.9778 21.4877 26.4119 20.9572 26.4119Z" fill="#1565C0"/>
<path d="M21.7296 21.995C21.5274 21.995 21.3502 22.1604 21.3356 22.3626L21.2796 23.1448C21.2651 23.347 21.4188 23.5124 21.6209 23.5124H22.1678C22.2181 23.5124 22.2619 23.4716 22.2655 23.4212L22.3612 22.0862C22.3648 22.0359 22.3269 21.9951 22.2765 21.9951H21.7296V21.995Z" fill="#FFD026"/>
<path d="M19.651 20.4665H16.2553C16.1742 20.4665 16.1127 20.4002 16.1184 20.3191C16.1242 20.238 16.1953 20.1717 16.2764 20.1717H19.6721C19.7532 20.1717 19.8147 20.238 19.809 20.3191C19.8031 20.4003 19.732 20.4665 19.651 20.4665Z" fill="white"/>
<path d="M19.5972 21.2167H16.2014C16.1204 21.2167 16.0588 21.1504 16.0646 21.0693C16.0703 20.9882 16.1415 20.9219 16.2225 20.9219H19.6183C19.6994 20.9219 19.7609 20.9882 19.7551 21.0693C19.7494 21.1505 19.6783 21.2167 19.5972 21.2167Z" fill="white"/>
<path d="M18.3701 21.967H16.1477C16.0666 21.967 16.0051 21.9007 16.0108 21.8196C16.0166 21.7385 16.0877 21.6722 16.1688 21.6722H18.3912C18.4723 21.6722 18.5338 21.7385 18.528 21.8196C18.5222 21.9007 18.4512 21.967 18.3701 21.967Z" fill="white"/>
<path d="M19.6598 25.5414H16.3745C16.0278 25.5414 15.7644 25.2577 15.7892 24.9109L15.9129 23.1849C15.9377 22.8381 16.2417 22.5544 16.5886 22.5544H19.8739C20.2206 22.5544 20.484 22.8381 20.4592 23.1849L20.3355 24.9109C20.3107 25.2577 20.0067 25.5414 19.6598 25.5414Z" fill="#FFD026"/>
<path opacity="0.4" d="M22.727 28.4295H18.6393C18.4889 28.4295 18.3747 28.3065 18.3855 28.1562C18.3963 28.0058 18.5281 27.8829 18.6785 27.8829H22.7662C22.9166 27.8829 23.0308 28.0059 23.02 28.1562C23.0092 28.3065 22.8774 28.4295 22.727 28.4295Z" fill="#1565C0"/>
<path opacity="0.8" d="M21.9032 29.5025H19.3093C19.1589 29.5025 19.0447 29.3794 19.0555 29.2292C19.0663 29.0788 19.1981 28.9558 19.3485 28.9558H21.9424C22.0928 28.9558 22.207 29.0789 22.1962 29.2292C22.1854 29.3796 22.0536 29.5025 21.9032 29.5025Z" fill="white"/>
<path opacity="0.4" d="M22.5147 31.3904H18.427C18.2766 31.3904 18.1625 31.2674 18.1733 31.1171C18.184 30.9667 18.3159 30.8437 18.4663 30.8437H22.5539C22.7043 30.8437 22.8185 30.9668 22.8077 31.1171C22.7969 31.2675 22.6651 31.3904 22.5147 31.3904Z" fill="#1565C0"/>
<path opacity="0.8" d="M21.691 32.4634H19.0971C18.9467 32.4634 18.8326 32.3403 18.8434 32.19C18.8542 32.0396 18.986 31.9167 19.1364 31.9167H21.7302C21.8806 31.9167 21.9948 32.0397 21.984 32.19C21.9731 32.3404 21.8413 32.4634 21.691 32.4634Z" fill="white"/>
<path opacity="0.4" d="M22.3025 34.3513H18.2149C18.0645 34.3513 17.9503 34.2282 17.9611 34.0779C17.9719 33.9275 18.1037 33.8046 18.2541 33.8046H22.3418C22.4922 33.8046 22.6063 33.9277 22.5956 34.0779C22.5848 34.2283 22.4529 34.3513 22.3025 34.3513Z" fill="#1565C0"/>
<path opacity="0.8" d="M21.4787 35.4242H18.8848C18.7344 35.4242 18.6202 35.3012 18.631 35.1509C18.6418 35.0005 18.7736 34.8776 18.924 34.8776H21.5179C21.6683 34.8776 21.7825 35.0006 21.7717 35.1509C21.7609 35.3013 21.6291 35.4242 21.4787 35.4242Z" fill="white"/>
<path opacity="0.5" d="M45.4875 31.0256C45.6647 30.7552 46.0708 30.8695 46.0484 31.1826L45.6551 36.6698C45.6349 36.9524 45.4215 37.1821 45.1791 37.1821H25.4093C25.1669 37.1821 24.9864 36.9524 25.0067 36.6698L25.2403 33.4097C25.2719 32.97 25.7192 32.6533 26.1306 32.7816C27.2449 33.1289 28.1996 32.9249 29.0869 32.4849C30.9848 31.5427 32.5726 29.5208 34.7545 29.5208C34.8381 29.5208 34.9205 29.523 35.0006 29.5283C38.2461 29.7241 39.2348 33.7553 41.7492 33.7553C42.4923 33.7553 43.1707 33.4346 43.7612 32.9773C44.4848 32.4177 45.0755 31.6539 45.4875 31.0256Z" fill="#1565C0"/>
<path opacity="0.5" d="M45.8976 33.2862L45.6551 36.6696C45.6349 36.9523 45.4215 37.182 45.1791 37.182H25.4093C25.1669 37.182 24.9864 36.9523 25.0067 36.6696L25.4886 29.9463C25.5216 29.4857 26.1251 29.292 26.3694 29.6646C27.0001 30.6269 27.9708 31.8698 29.0869 32.4848C29.5147 32.7199 29.9628 32.8627 30.4223 32.8627C32.0197 32.8627 33.3782 30.9679 35.0006 29.528C35.9955 28.6452 37.0893 27.9326 38.3978 27.9326C41.1291 27.9326 41.5319 32.3704 43.7612 32.977C44.1911 33.0946 44.6883 33.0692 45.2837 32.8415C45.6027 32.7199 45.9216 32.9528 45.8976 33.2862Z" fill="#1565C0"/>
<g opacity="0.8">
<path d="M45.9946 31.9747C45.9837 31.9747 45.9742 31.9699 45.9658 31.9627C45.9622 31.9591 45.9586 31.9543 45.9574 31.9496C45.955 31.9448 45.9538 31.9388 45.9538 31.934C45.9538 31.922 45.9586 31.9124 45.9659 31.9052C45.9803 31.8896 46.0079 31.8884 46.0235 31.9052C46.0319 31.9125 46.0356 31.9232 46.0356 31.934C46.0356 31.9388 46.0344 31.9448 46.0331 31.9496C46.0307 31.9543 46.0271 31.9591 46.0235 31.9627C46.0162 31.9699 46.0054 31.9747 45.9946 31.9747Z" fill="white"/>
<path d="M26.7724 34.7847C26.7497 34.7847 26.7316 34.7669 26.7316 34.7439C26.7316 34.7224 26.7496 34.7044 26.7724 34.7044V34.7032C26.7953 34.7032 26.8132 34.7224 26.8132 34.7439C26.8132 34.7667 26.7953 34.786 26.7724 34.786C26.7724 34.786 26.7724 34.786 26.7724 34.7847ZM26.361 34.7621C26.361 34.7621 26.361 34.7621 26.3622 34.7621C26.3396 34.7609 26.3226 34.7405 26.325 34.7177C26.3274 34.6949 26.3477 34.6793 26.3706 34.6817C26.3933 34.6841 26.4089 34.7045 26.4066 34.7261C26.4041 34.7477 26.3862 34.7633 26.3658 34.7633C26.3646 34.7633 26.3633 34.7633 26.361 34.7621ZM27.137 34.7261C27.1346 34.7033 27.1502 34.6829 27.173 34.6805C27.1958 34.678 27.2162 34.6936 27.2186 34.7165C27.2211 34.7391 27.2055 34.7595 27.1826 34.7621C27.1814 34.7621 27.1791 34.7621 27.1778 34.7621C27.1574 34.7621 27.1394 34.7465 27.137 34.7261ZM25.9556 34.6996C25.9339 34.6948 25.9197 34.6732 25.9231 34.6505C25.9279 34.6288 25.9496 34.6144 25.9723 34.618C25.9939 34.6228 26.0083 34.6444 26.0048 34.6672C26 34.6864 25.9831 34.6996 25.9639 34.6996C25.9616 34.6996 25.958 34.6996 25.9556 34.6996ZM27.5376 34.6589C27.5316 34.6361 27.5449 34.6145 27.5676 34.6085C27.5893 34.6037 27.6108 34.6169 27.6168 34.6385C27.6228 34.6601 27.6084 34.6829 27.5868 34.6889C27.5868 34.6889 27.5868 34.6889 27.5868 34.6877C27.5832 34.6889 27.5796 34.6889 27.5772 34.6889C27.558 34.6889 27.5412 34.6769 27.5376 34.6589ZM40.655 34.6757C40.6324 34.6757 40.6142 34.6577 40.6142 34.6348C40.6142 34.612 40.6334 34.594 40.655 34.594C40.6779 34.594 40.6958 34.612 40.6958 34.6348C40.6957 34.6577 40.6778 34.6757 40.655 34.6757ZM41.0208 34.6181C41.0184 34.5953 41.0352 34.575 41.0569 34.5738C41.0796 34.5702 41.1 34.5869 41.1025 34.6097C41.1049 34.6325 41.0881 34.6529 41.0653 34.6553C41.0641 34.6553 41.0629 34.6553 41.0618 34.6553C41.0411 34.6552 41.0232 34.6396 41.0208 34.6181ZM40.2448 34.6505C40.2233 34.648 40.2065 34.6277 40.2101 34.6048C40.2126 34.582 40.2328 34.5666 40.2556 34.5688C40.2784 34.5724 40.294 34.5928 40.2916 34.6144C40.2881 34.6361 40.2712 34.6516 40.2508 34.6516C40.2484 34.6517 40.2472 34.6517 40.2448 34.6505ZM25.5575 34.6013C25.5359 34.5952 25.5227 34.5726 25.5287 34.551C25.536 34.5293 25.5575 34.5162 25.5804 34.5222C25.602 34.5294 25.6138 34.551 25.6079 34.5738C25.6032 34.5917 25.5864 34.6025 25.5684 34.6025C25.5645 34.6025 25.5611 34.6025 25.5575 34.6013ZM41.4238 34.5618C41.419 34.539 41.4334 34.5174 41.4562 34.5138C41.4779 34.509 41.4994 34.5234 41.5042 34.5462C41.509 34.5678 41.4946 34.5892 41.4718 34.594C41.4693 34.594 41.467 34.5952 41.4645 34.5952C41.4453 34.5952 41.4274 34.5809 41.4238 34.5618ZM39.8417 34.5762C39.8189 34.5714 39.8058 34.5496 39.8118 34.527C39.8166 34.5053 39.8383 34.4922 39.8609 34.497C39.8826 34.5018 39.8957 34.5246 39.8909 34.5462C39.8861 34.5652 39.8693 34.5774 39.8513 34.5774C39.8479 34.5774 39.8443 34.5773 39.8417 34.5762ZM27.9262 34.5426C27.9178 34.521 27.9287 34.497 27.9502 34.4898C27.9706 34.4815 27.9946 34.4922 28.0028 34.5126C28.0101 34.5342 28.0004 34.5582 27.979 34.5652C27.9742 34.5678 27.9694 34.5688 27.9646 34.5688C27.9478 34.569 27.9322 34.5582 27.9262 34.5426ZM41.8207 34.4718C41.8147 34.449 41.8268 34.4262 41.8495 34.4201C41.8712 34.4141 41.8938 34.4274 41.8998 34.4489C41.9058 34.4706 41.8926 34.4933 41.8712 34.4993C41.8676 34.5006 41.8639 34.5018 41.8603 34.5018C41.8424 34.5018 41.8255 34.4897 41.8207 34.4718ZM39.4485 34.4574C39.4268 34.4501 39.416 34.4262 39.4233 34.4058C39.4316 34.3841 39.4545 34.3733 39.476 34.3807C39.4978 34.3889 39.5086 34.4118 39.5012 34.4333C39.4952 34.4501 39.4786 34.4597 39.4617 34.4597C39.4567 34.4597 39.4519 34.4597 39.4485 34.4574ZM28.2992 34.3807C28.2884 34.3615 28.2968 34.3363 28.3171 34.3254C28.3375 34.3159 28.3614 34.3242 28.3722 34.3446C28.3818 34.3637 28.3748 34.3889 28.3544 34.3985C28.3484 34.4021 28.3423 34.4033 28.3352 34.4033C28.3208 34.4034 28.3064 34.3949 28.2992 34.3807ZM42.2105 34.3519C42.2022 34.3302 42.2141 34.3075 42.2345 34.3002L42.2357 34.299C42.2562 34.2918 42.28 34.3038 42.2874 34.3242C42.2945 34.3459 42.2838 34.3697 42.2622 34.3769C42.2574 34.3781 42.2538 34.3793 42.249 34.3793C42.2322 34.3793 42.2166 34.3687 42.2105 34.3519ZM39.0695 34.3015C39.0491 34.2931 39.0395 34.2679 39.0491 34.2475C39.0587 34.2271 39.0827 34.2187 39.1031 34.2271C39.1246 34.2367 39.133 34.2607 39.1234 34.2823C39.1162 34.2967 39.1017 34.3063 39.0863 34.3063C39.0803 34.3063 39.0743 34.305 39.0695 34.3015ZM42.5908 34.2079C42.5824 34.1876 42.592 34.1636 42.6135 34.1552C42.6339 34.1456 42.6578 34.1552 42.6662 34.1769C42.6758 34.1973 42.6662 34.2213 42.6445 34.2309C42.6397 34.2333 42.6337 34.2333 42.6289 34.2333C42.6124 34.2331 42.598 34.2235 42.5908 34.2079ZM28.6542 34.184C28.6421 34.1648 28.6482 34.1384 28.6673 34.1264C28.6865 34.1143 28.7117 34.1203 28.7238 34.1395C28.7358 34.1587 28.7298 34.1838 28.7106 34.196C28.7046 34.2008 28.6962 34.2032 28.689 34.2032C28.6758 34.2032 28.6625 34.196 28.6542 34.184ZM38.7037 34.118C38.6833 34.1072 38.6761 34.082 38.6868 34.0616C38.6975 34.0424 38.7229 34.0351 38.7432 34.046C38.7623 34.0568 38.7696 34.0808 38.7588 34.1012C38.7515 34.1143 38.7371 34.1228 38.7229 34.1228C38.7167 34.1228 38.7097 34.1203 38.7037 34.118ZM42.9638 34.0436C42.9542 34.0232 42.9626 33.9993 42.983 33.9897C43.0034 33.9801 43.0286 33.9885 43.0382 34.0089C43.0478 34.0292 43.0382 34.0532 43.0178 34.0628C43.0178 34.0628 43.0178 34.0628 43.019 34.064C43.013 34.0664 43.007 34.0676 43.0011 34.0676C42.9853 34.0676 42.971 34.0592 42.9638 34.0436ZM28.9923 33.9585C28.9792 33.9393 28.984 33.9141 29.0019 33.901C29.0199 33.8878 29.0463 33.8914 29.0595 33.9093C29.0725 33.9273 29.0679 33.9537 29.0499 33.9669C29.0426 33.9717 29.0343 33.9752 29.0259 33.9752C29.0127 33.9752 29.0008 33.9693 28.9923 33.9585ZM38.3499 33.9129C38.3499 33.9129 38.3499 33.9129 38.3499 33.9117C38.3307 33.9009 38.3247 33.8756 38.3367 33.8565C38.3475 33.8361 38.3726 33.83 38.3918 33.8421C38.4122 33.8541 38.4183 33.8793 38.4062 33.8985C38.3978 33.9117 38.3846 33.9189 38.3714 33.9189C38.3642 33.9189 38.3558 33.9165 38.3499 33.9129ZM43.3284 33.8613C43.3176 33.8421 43.3248 33.817 43.3452 33.8062C43.3644 33.7952 43.3896 33.8036 43.4005 33.823C43.4113 33.8433 43.404 33.8673 43.3836 33.8793C43.3776 33.8818 43.3705 33.8841 43.3644 33.8841C43.3499 33.8841 43.3356 33.8756 43.3284 33.8613ZM29.3187 33.7126C29.3043 33.6946 29.3065 33.6694 29.3247 33.655C29.3425 33.6406 29.3678 33.6442 29.3822 33.6612C29.3966 33.679 29.3931 33.7054 29.3762 33.7198C29.3679 33.7258 29.3594 33.7282 29.3498 33.7282C29.3378 33.7282 29.3259 33.7234 29.3187 33.7126ZM38.0044 33.6946C38.0044 33.6946 38.0044 33.6946 38.0044 33.6934C37.9852 33.6814 37.9804 33.6562 37.9924 33.6371C38.0056 33.6179 38.0308 33.6131 38.05 33.6251C38.0679 33.6371 38.074 33.6634 38.062 33.6815C38.0537 33.6946 38.0404 33.7006 38.0272 33.7006C38.0188 33.7005 38.0116 33.6982 38.0044 33.6946ZM43.6845 33.6646C43.6725 33.6442 43.6797 33.6203 43.6989 33.6083C43.7181 33.5975 43.7433 33.6035 43.7554 33.6227C43.7662 33.6418 43.7602 33.667 43.741 33.679C43.7338 33.6826 43.7266 33.685 43.7193 33.685C43.7062 33.685 43.6918 33.6778 43.6845 33.6646ZM37.665 33.4679C37.647 33.4547 37.641 33.4296 37.6542 33.4104C37.6673 33.3925 37.6925 33.3877 37.7118 33.3996C37.7298 33.4128 37.7346 33.438 37.7226 33.4571C37.7143 33.4691 37.701 33.4751 37.6878 33.4751C37.6806 33.4751 37.6722 33.4727 37.665 33.4679ZM44.0324 33.4535C44.0204 33.4344 44.0264 33.4092 44.0456 33.396C44.0647 33.384 44.09 33.39 44.102 33.4092C44.114 33.4284 44.108 33.4535 44.0888 33.4655C44.0828 33.4703 44.0757 33.4727 44.0672 33.4727C44.0539 33.4727 44.0408 33.4654 44.0324 33.4535ZM29.6341 33.4558C29.6197 33.439 29.622 33.4128 29.6389 33.3984C29.6569 33.384 29.6833 33.3864 29.6977 33.4032C29.7119 33.4212 29.7096 33.4464 29.6915 33.4606C29.6843 33.4679 29.6747 33.4702 29.6652 33.4702C29.6545 33.4702 29.6424 33.4654 29.6341 33.4558ZM44.3741 33.2303C44.361 33.2113 44.3658 33.186 44.3837 33.1728C44.4029 33.1596 44.4281 33.1644 44.4413 33.1836C44.4533 33.2016 44.4497 33.2279 44.4305 33.2399C44.4233 33.2447 44.4149 33.2473 44.4077 33.2473C44.3945 33.2473 44.3814 33.2413 44.3741 33.2303ZM37.3279 33.2399C37.3088 33.2269 37.304 33.2017 37.3171 33.1836C37.3292 33.1644 37.3543 33.1596 37.3736 33.1716C37.3926 33.1847 37.3974 33.2098 37.3844 33.229C37.3772 33.2411 37.364 33.247 37.3508 33.247C37.3436 33.2473 37.3352 33.2449 37.3279 33.2399ZM29.947 33.1945C29.9314 33.1777 29.9339 33.1514 29.9518 33.1369C29.9687 33.1225 29.995 33.1248 30.0094 33.1417C30.0238 33.1596 30.0214 33.1848 30.0046 33.1992C29.9962 33.2065 29.9878 33.2088 29.9782 33.2088C29.9663 33.2089 29.9543 33.2041 29.947 33.1945ZM36.9898 33.0146C36.9706 33.0015 36.9646 32.9762 36.9777 32.9582C36.9898 32.939 37.016 32.933 37.0342 32.9461C37.0532 32.9582 37.058 32.9834 37.0461 33.0026C37.0389 33.0146 37.0258 33.0205 37.0126 33.0205C37.0042 33.0205 36.997 33.0194 36.9898 33.0146ZM44.7077 32.9954C44.6933 32.9774 44.6981 32.9523 44.7161 32.939C44.7339 32.9258 44.7604 32.9294 44.7735 32.9474C44.7867 32.9654 44.7819 32.9918 44.7639 33.0049C44.7567 33.0097 44.7483 33.0122 44.7401 33.0122C44.7281 33.0122 44.7149 33.0074 44.7077 32.9954ZM30.2602 32.9342C30.2458 32.9174 30.2482 32.891 30.2661 32.8768C30.2841 32.8624 30.3093 32.8659 30.3237 32.8828C30.3381 32.9006 30.3357 32.9271 30.3177 32.9402C30.3104 32.9475 30.3008 32.9498 30.2912 32.9498C30.2805 32.9498 30.2685 32.945 30.2602 32.9342ZM36.6478 32.7951C36.6286 32.7831 36.6226 32.7579 36.6348 32.7387C36.6468 32.7195 36.6719 32.7135 36.6911 32.7255C36.7103 32.7375 36.7163 32.7627 36.7043 32.782C36.6959 32.7951 36.6826 32.8024 36.6695 32.8024C36.6623 32.8023 36.654 32.7999 36.6478 32.7951ZM45.0338 32.7519C45.0195 32.7339 45.023 32.7075 45.0411 32.6944C45.059 32.68 45.0841 32.6836 45.0987 32.7017C45.1119 32.7195 45.1083 32.7447 45.0915 32.7591C45.0915 32.7591 45.0915 32.7591 45.0903 32.7591C45.0831 32.7651 45.0747 32.7675 45.0663 32.7675C45.0531 32.7675 45.0411 32.7615 45.0338 32.7519ZM30.5792 32.6824C30.566 32.6644 30.5696 32.638 30.5876 32.6248C30.6055 32.6117 30.6306 32.6152 30.645 32.6332C30.6582 32.6511 30.6546 32.6762 30.6366 32.6908C30.6294 32.6956 30.621 32.6991 30.6128 32.6991C30.5996 32.6991 30.5876 32.6932 30.5792 32.6824ZM36.2988 32.5876C36.2798 32.5768 36.2724 32.5516 36.2845 32.5311C36.2953 32.512 36.3205 32.5047 36.3397 32.5168C36.3601 32.5276 36.3672 32.5528 36.3553 32.572C36.348 32.5851 36.3336 32.5936 36.3193 32.5936C36.3133 32.5936 36.3061 32.5911 36.2988 32.5876ZM45.3517 32.4977C45.3373 32.4807 45.3397 32.4545 45.3577 32.4401C45.3757 32.4257 45.4009 32.4281 45.4153 32.4461C45.4297 32.463 45.4273 32.4893 45.4105 32.5037C45.4021 32.5096 45.3925 32.5133 45.384 32.5133C45.3721 32.5133 45.3601 32.5085 45.3517 32.4977ZM30.9102 32.4449C30.8971 32.4257 30.9018 32.4005 30.921 32.3873C30.9402 32.3752 30.9654 32.3801 30.9786 32.3993C30.9906 32.4173 30.9858 32.4437 30.9665 32.4557C30.9593 32.4605 30.9522 32.4629 30.9437 32.4629C30.9306 32.4629 30.9174 32.4557 30.9102 32.4449ZM35.9427 32.3945C35.9235 32.3849 35.9151 32.3597 35.9259 32.3393C35.9355 32.319 35.9607 32.3119 35.9811 32.3214C36.0003 32.3323 36.0087 32.3574 35.999 32.3778C35.9918 32.3909 35.9763 32.3994 35.9618 32.3994C35.9559 32.3993 35.9486 32.3981 35.9427 32.3945ZM45.6634 32.235C45.6492 32.2182 45.6504 32.1919 45.667 32.1774H45.6682C45.6851 32.163 45.7102 32.1642 45.7258 32.1809C45.7402 32.1978 45.7378 32.2241 45.721 32.2385C45.7137 32.2457 45.7042 32.2493 45.6946 32.2493C45.6827 32.2494 45.672 32.2446 45.6634 32.235ZM31.2544 32.2278C31.2424 32.2086 31.2496 32.1834 31.27 32.1713C31.2892 32.1605 31.3144 32.1678 31.3252 32.187C31.336 32.2074 31.33 32.2313 31.3096 32.2434C31.3096 32.2434 31.3096 32.2434 31.3108 32.2434C31.3036 32.247 31.2964 32.2482 31.2904 32.2482C31.276 32.2482 31.2615 32.2409 31.2544 32.2278ZM35.5781 32.2205C35.5577 32.2109 35.5481 32.187 35.5577 32.1665C35.5661 32.1461 35.5913 32.1365 35.6117 32.1461C35.6321 32.1545 35.6417 32.1786 35.6321 32.2001C35.6261 32.2145 35.6105 32.2241 35.5949 32.2241C35.5888 32.2242 35.584 32.223 35.5781 32.2205ZM35.2039 32.0683C35.1823 32.061 35.1715 32.0371 35.1801 32.0155C35.1873 31.9951 35.2112 31.9843 35.2327 31.9915C35.2531 31.9999 35.2639 32.0228 35.2567 32.0443C35.2507 32.0611 35.2351 32.0707 35.2183 32.0707C35.2135 32.0706 35.2086 32.0706 35.2039 32.0683ZM31.6142 32.0395C31.6058 32.0191 31.6142 31.9939 31.6346 31.9855C31.655 31.9759 31.6802 31.9843 31.6898 32.0059C31.6982 32.0263 31.6898 32.0503 31.6682 32.0599C31.6634 32.0624 31.6574 32.0635 31.6513 32.0635C31.6358 32.0635 31.6213 32.0551 31.6142 32.0395ZM34.8201 31.9424C34.7984 31.935 34.7865 31.9136 34.7925 31.8907C34.7985 31.8691 34.8225 31.8572 34.8441 31.8632C34.8658 31.8692 34.8777 31.892 34.8717 31.9148C34.8657 31.9316 34.8501 31.9436 34.8321 31.9436C34.8285 31.9436 34.8249 31.9436 34.8201 31.9424ZM31.9907 31.886C31.9835 31.8644 31.9955 31.8416 32.0172 31.8344C32.0388 31.8272 32.0616 31.8392 32.0688 31.8608C32.076 31.8825 32.064 31.9052 32.0424 31.9125C32.0388 31.9137 32.034 31.9149 32.0292 31.9149C32.0124 31.9148 31.9968 31.904 31.9907 31.886ZM34.429 31.8428C34.4074 31.838 34.393 31.8163 34.3978 31.7948C34.4026 31.7722 34.4242 31.7577 34.447 31.7636C34.4686 31.7672 34.483 31.7888 34.4782 31.8115C34.4746 31.8307 34.4566 31.844 34.4374 31.844C34.4351 31.844 34.4327 31.844 34.429 31.8428ZM32.3805 31.7744C32.3757 31.7517 32.3901 31.7301 32.4129 31.7253C32.4345 31.7205 32.4561 31.7349 32.4607 31.7564C32.4655 31.7792 32.4525 31.8008 32.4296 31.8056C32.4272 31.8056 32.4236 31.8068 32.4213 31.8068C32.4022 31.8067 32.3854 31.7936 32.3805 31.7744ZM34.0321 31.7732C34.0106 31.7696 33.9938 31.7493 33.9974 31.7263C33.9998 31.7036 34.0214 31.6881 34.0429 31.6916H34.0441C34.0658 31.6941 34.0814 31.7156 34.0789 31.7385C34.0754 31.7576 34.0585 31.7732 34.0381 31.7732C34.0357 31.7732 34.0345 31.7732 34.0321 31.7732ZM32.7812 31.7049C32.7787 31.6822 32.7955 31.6629 32.8172 31.6605C32.8399 31.6569 32.8603 31.6737 32.8628 31.6965C32.8652 31.7193 32.8484 31.7386 32.8256 31.7422C32.8244 31.7422 32.8232 31.7422 32.8221 31.7422C32.8016 31.7421 32.7836 31.7263 32.7812 31.7049ZM33.6302 31.7311C33.6302 31.7311 33.6302 31.7311 33.6316 31.7311C33.6087 31.7299 33.5908 31.7108 33.5932 31.6881C33.5944 31.6653 33.6136 31.6485 33.6364 31.6497C33.6591 31.6509 33.6759 31.6713 33.6746 31.6941C33.6734 31.7157 33.6555 31.7325 33.6338 31.7325C33.6328 31.7325 33.6316 31.7311 33.6302 31.7311ZM33.1866 31.6785C33.1853 31.6557 33.2045 31.6377 33.2274 31.6377C33.249 31.6364 33.2682 31.6556 33.2682 31.6785C33.2682 31.7012 33.2502 31.7193 33.2274 31.7193C33.2046 31.7193 33.1866 31.7012 33.1866 31.6785Z" fill="white"/>
<path d="M25.1665 34.473C25.1617 34.473 25.1557 34.4718 25.1509 34.4694C25.1461 34.467 25.1413 34.4646 25.1377 34.4598C25.1341 34.4563 25.1305 34.4526 25.1293 34.4467C25.1269 34.4419 25.1258 34.4371 25.1258 34.4312C25.1258 34.4202 25.1306 34.4108 25.1378 34.4024C25.1414 34.3988 25.1462 34.3952 25.151 34.394C25.1606 34.3892 25.1726 34.3892 25.1822 34.394C25.1882 34.3952 25.1918 34.3988 25.1954 34.4024C25.2036 34.4108 25.2074 34.4202 25.2074 34.4312C25.2074 34.4371 25.2074 34.4419 25.205 34.4467C25.2026 34.4527 25.2003 34.4563 25.1955 34.4598C25.1919 34.4646 25.1871 34.4671 25.1823 34.4694C25.1772 34.4718 25.1724 34.473 25.1665 34.473Z" fill="white"/>
</g>
<path d="M31.7431 22.1912L31.463 21.8894C30.9659 22.3533 30.3043 22.64 29.5963 22.64C28.4103 22.64 27.4701 21.8343 27.256 20.7402L26.836 20.8505L26.4522 20.9514C26.5651 21.5249 26.829 22.0474 27.2184 22.4668C28.4357 23.7781 30.5935 23.7781 31.9988 22.4668L31.7431 22.1912Z" fill="#FFD026"/>
<path d="M32.3416 17.6864L31.9751 18.0284L31.722 18.2646C32.1527 18.7277 32.3943 19.3687 32.3435 20.0766C32.2928 20.7845 31.9602 21.4256 31.4631 21.8894L31.6824 22.1257L31.9991 22.4668C32.6784 21.8328 33.0962 20.9731 33.1605 20.0766C33.2246 19.1809 32.9301 18.3202 32.3416 17.6864Z" fill="#16A75C"/>
<path d="M32.3416 17.6864C31.1242 16.376 28.9663 16.376 27.5612 17.6864C26.6479 18.5395 26.224 19.7866 26.4522 20.9514L26.9269 20.8267L27.2559 20.7402C27.215 20.5287 27.201 20.3055 27.2174 20.0766C27.3189 18.6616 28.5487 17.5139 29.9637 17.5139C30.6716 17.5139 31.2913 17.8006 31.722 18.2645L32.0463 17.9619L32.3416 17.6864Z" fill="#1565C0"/>
<path d="M35.7863 22.1913L36.1096 21.8895C35.679 21.4256 35.4382 20.7846 35.4889 20.0767C35.574 18.8907 36.4512 17.8928 37.5662 17.6003L37.4854 17.1882L37.4115 16.8117C36.8269 16.9657 36.2829 17.2671 35.8334 17.6865C34.4281 18.9979 34.2734 21.1557 35.4907 22.4669L35.7863 22.1913Z" fill="#FFD026"/>
<path d="M40.2714 22.4668L39.9539 22.1247L39.7347 21.8886C39.2384 22.3525 38.5767 22.64 37.8688 22.64C37.161 22.64 36.5404 22.3533 36.1097 21.8894L35.8565 22.1257L35.4911 22.4668C36.0796 23.1008 36.9138 23.4569 37.8103 23.4569C38.7057 23.457 39.5919 23.1008 40.2714 22.4668Z" fill="#16A75C"/>
<path d="M40.2714 22.4668C41.6757 21.1554 41.8304 18.9976 40.614 17.6864C39.822 16.8342 38.5989 16.4997 37.4116 16.8116L37.5029 17.2774L37.5662 17.6003C37.7817 17.5443 38.007 17.5141 38.2361 17.5141C39.6511 17.5141 40.7165 18.6617 40.615 20.0767C40.5643 20.7847 40.2317 21.4249 39.7345 21.8887L40.0154 22.1913L40.2714 22.4668Z" fill="#1565C0"/>
<path opacity="0.3" d="M45.936 16.9977C46.0046 16.9977 46.0671 17.0242 46.112 17.0724C46.1571 17.1209 46.1792 17.1856 46.1742 17.2547L46.026 19.3235C46.0154 19.471 45.8819 19.5956 45.7346 19.5956H43.6659C43.5973 19.5956 43.5348 19.569 43.4899 19.5209C43.4448 19.4725 43.4227 19.4077 43.4277 19.3386L43.5759 17.2698C43.5865 17.1223 43.72 16.9977 43.8672 16.9977H45.936ZM45.936 16.8919H43.8672C43.6636 16.8919 43.4849 17.0586 43.4702 17.2623L43.322 19.3311C43.3074 19.5348 43.4621 19.7014 43.6659 19.7014H45.7346C45.9384 19.7014 46.117 19.5347 46.1316 19.3311L46.2799 17.2623C46.2945 17.0586 46.1398 16.8919 45.936 16.8919Z" fill="#1565C0"/>
<path opacity="0.3" d="M45.6809 20.5575C45.7495 20.5575 45.812 20.5842 45.8568 20.6323C45.9019 20.6807 45.924 20.7454 45.9191 20.8144L45.7708 22.8832C45.7603 23.0307 45.6268 23.1554 45.4795 23.1554H43.4107C43.3421 23.1554 43.2796 23.1288 43.2348 23.0806C43.1897 23.0322 43.1676 22.9675 43.1725 22.8984L43.3208 20.8297C43.3313 20.6821 43.4648 20.5575 43.6121 20.5575H45.6809ZM45.6809 20.4516H43.6121C43.4085 20.4516 43.2297 20.6183 43.2152 20.822L43.0669 22.8908C43.0522 23.0945 43.207 23.2611 43.4107 23.2611H45.4795C45.6832 23.2611 45.8619 23.0944 45.8765 22.8908L46.0247 20.822C46.0394 20.6183 45.8845 20.4516 45.6809 20.4516Z" fill="#1565C0"/>
<path d="M42.6521 32.0046C42.7102 32.0046 42.7628 32.0268 42.8004 32.0671C42.838 32.1075 42.8565 32.1621 42.8523 32.2206C42.8432 32.348 42.7322 32.4517 42.6049 32.4517C42.5468 32.4517 42.4942 32.4295 42.4566 32.3894C42.419 32.3488 42.4005 32.2944 42.4047 32.2358C42.4139 32.1082 42.5249 32.0046 42.6521 32.0046ZM42.6521 31.8987C42.4702 31.8987 42.3122 32.0461 42.2991 32.228C42.2861 32.41 42.423 32.5574 42.6049 32.5574C42.7867 32.5574 42.9448 32.41 42.9578 32.228C42.9709 32.0462 42.8341 31.8987 42.6521 31.8987Z" fill="#1565C0"/>
<path d="M42.6785 31.9005L42.6257 31.8968L42.6334 31.7912L42.6861 31.7951L42.6785 31.9005Z" fill="#1565C0"/>
<path d="M42.7015 31.5784L42.6487 31.5746L42.6643 31.358L42.7171 31.3617L42.7015 31.5784ZM42.7326 31.1453L42.6799 31.1415L42.6955 30.9248L42.7483 30.9285L42.7326 31.1453ZM42.7636 30.7119L42.7109 30.7082L42.7265 30.4916L42.7791 30.4953L42.7636 30.7119ZM42.7946 30.2788L42.7418 30.2751L42.7574 30.0584L42.8102 30.0621L42.7946 30.2788ZM42.8256 29.8456L42.773 29.8419L42.7886 29.6253L42.8412 29.629L42.8256 29.8456ZM42.8568 29.4124L42.8042 29.4087L42.8197 29.192L42.8723 29.1957L42.8568 29.4124ZM42.8879 28.9792L42.8352 28.9755L42.8507 28.7589L42.9034 28.7626L42.8879 28.9792ZM42.919 28.5461L42.8662 28.5424L42.8817 28.3257L42.9343 28.3294L42.919 28.5461ZM42.9499 28.1128L42.8972 28.1091L42.9128 27.8925L42.9656 27.8962L42.9499 28.1128ZM42.981 27.6797L42.9282 27.676L42.9438 27.4593L42.9964 27.463L42.981 27.6797ZM43.012 27.2465L42.9593 27.2428L42.9748 27.0262L43.0276 27.0299L43.012 27.2465Z" fill="#1565C0"/>
<path d="M42.9971 26.7027L42.9896 26.8082L43.0423 26.812L43.0498 26.7065L42.9971 26.7027Z" fill="#1565C0"/>
<path d="M45.2598 26.7634H26.2681C26.161 26.7634 26.0627 26.7212 25.9913 26.6445C25.9197 26.5677 25.8847 26.4663 25.8925 26.3587L25.9862 25.0513C26.0018 24.8328 26.1923 24.6548 26.411 24.6548H45.4028C45.5099 24.6548 45.6082 24.6969 45.6794 24.7734C45.751 24.8503 45.7862 24.9518 45.7784 25.0595L45.6847 26.3669C45.669 26.5854 45.4783 26.7634 45.2598 26.7634ZM26.4111 24.7696C26.2513 24.7696 26.1121 24.8996 26.1006 25.0595L26.0069 26.3669C26.0015 26.4423 26.0259 26.5132 26.0754 26.5663C26.1247 26.6193 26.1932 26.6486 26.2681 26.6486H45.2598C45.4195 26.6486 45.5588 26.5186 45.5704 26.3587L45.6641 25.0513C45.6695 24.9759 45.6451 24.9049 45.5955 24.8517C45.5462 24.7988 45.4778 24.7696 45.4029 24.7696H26.4111Z" fill="#1565C0"/>
<path opacity="0.8" fill-rule="evenodd" clip-rule="evenodd" d="M44.852 25.4977H26.8493C26.7514 25.4977 26.6772 25.4177 26.6841 25.3198C26.6911 25.222 26.7769 25.142 26.8748 25.142H44.8777C44.9756 25.142 45.0498 25.222 45.0429 25.3198C45.0358 25.4176 44.9499 25.4977 44.852 25.4977Z" fill="#16A75C"/>
<path opacity="0.8" fill-rule="evenodd" clip-rule="evenodd" d="M41.8518 26.2479H26.7954C26.6975 26.2479 26.6233 26.1678 26.6302 26.07C26.6372 25.9722 26.723 25.8922 26.8209 25.8922H41.8772C41.9751 25.8922 42.0493 25.9723 42.0424 26.07C42.0354 26.1678 41.9497 26.2479 41.8518 26.2479Z" fill="#16A75C"/>
</g>
<defs>
<clipPath id="clip0_6223_103761">
<rect width="42" height="38.3848" fill="white" transform="translate(7 9)"/>
</clipPath>
</defs>
</svg>
