<svg width="94" height="94" viewBox="0 0 94 94" fill="none" xmlns="http://www.w3.org/2000/svg">
    <defs>
        <clipPath id="clip0_6683_160296">
            <rect width="93.3333" height="93.3333" fill="white" />
        </clipPath>
        <clipPath id="clip1_6683_160296">
            <rect width="93.3333" height="93.3333" rx="46.6667" fill="white" />
        </clipPath>
        <clipPath id="clip2_6683_160296">
            <rect width="26.5823" height="26.5823" fill="white" transform="translate(66 66.4177)" />
        </clipPath>
        <clipPath id="clip3_6683_160296">
            <rect width="13.2911" height="13.2911" fill="white" transform="translate(72.6455 73.0632)" />
        </clipPath>
    </defs>
    <g clip-path="url(#clip0_6683_160296)">
        <g clip-path="url(#clip1_6683_160296)">
            <rect width="93.3333" height="93.3333" rx="46.6667" fill="#FAFAFA" />
            <rect y="77.7778" width="96.4444" height="18.6667" fill="#D9D9D9" />
            <path
                d="M63.6906 44.5158L63.6087 44.3312C63.0712 43.1184 61.8693 42.3364 60.5427 42.3364H57.4046C56.42 42.3364 55.4734 42.7167 54.7625 43.3979C54.0107 44.1182 53.5856 45.1143 53.5856 46.1555V48.6605H60.9941C62.0626 48.6605 63.0475 48.0826 63.5688 47.1499C64.0215 46.3399 64.0666 45.3641 63.6906 44.5158Z"
                fill="#FF9500" />
            <path
                d="M-46.878 70.8244H80.0002C81.9987 70.8244 83.6189 69.2043 83.6189 67.2058V60.2985C83.6189 52.8041 77.5434 46.7287 70.049 46.7287H57.2488L40.6593 29.6897C38.5306 27.5033 35.6086 26.27 32.5571 26.27H-34.1233C-37.5825 26.27 -40.9062 27.6156 -43.3912 30.0221C-45.0184 31.5979 -46.3292 33.4704 -47.253 35.5387L-51.1855 44.3437C-52.2224 46.6653 -52.7583 49.1794 -52.7583 51.7221V64.9441C-52.7583 68.1917 -50.1256 70.8244 -46.878 70.8244Z"
                fill="#FFB900" />
            <path
                d="M22.7746 24.3477H-26.4413C-27.9111 24.3477 -29.2945 25.0693 -30.1421 26.2701H26.5121L26.1664 25.8782C25.3077 24.9051 24.0724 24.3477 22.7746 24.3477Z"
                fill="#FF9500" />
            <path fill-rule="evenodd" clip-rule="evenodd"
                d="M48.0803 70.8245C48.1259 70.944 48.1732 71.063 48.2222 71.1814C48.8928 72.8004 49.8757 74.2714 51.1147 75.5104C52.3538 76.7495 53.8248 77.7324 55.4438 78.403C57.0627 79.0736 58.7978 79.4187 60.5502 79.4187C62.3025 79.4187 64.0376 79.0736 65.6566 78.403C67.2755 77.7324 68.7465 76.7495 69.9856 75.5104C71.2247 74.2714 72.2076 72.8004 72.8781 71.1814C72.9272 71.063 72.9745 70.944 73.02 70.8245H48.0803Z"
                fill="#424242" />
            <path
                d="M69.3703 68.2234C69.3703 71.1925 68.1908 74.0401 66.0913 76.1395C63.9918 78.239 61.1443 79.4185 58.1751 79.4185C55.206 79.4185 52.3585 78.239 50.259 76.1395C48.1595 74.0401 46.98 71.1925 46.98 68.2234L58.1751 68.2234H69.3703Z"
                fill="#212121" />
            <path fill-rule="evenodd" clip-rule="evenodd"
                d="M-13.2104 70.8245C-13.1649 70.9441 -13.1176 71.0632 -13.0685 71.1816C-12.3979 72.8006 -11.415 74.2716 -10.1759 75.5106C-8.93687 76.7497 -7.46587 77.7326 -5.84694 78.4032C-4.22801 79.0738 -2.49285 79.4189 -0.740529 79.4189C1.01179 79.4189 2.74695 79.0738 4.36588 78.4032C5.98482 77.7326 7.45581 76.7497 8.69489 75.5106C9.93397 74.2716 10.9169 72.8006 11.5874 71.1816C11.6365 71.0632 11.6838 70.9441 11.7294 70.8245H-13.2104Z"
                fill="#424242" />
            <path
                d="M8.07997 68.2234C8.07997 71.1925 6.90049 74.0401 4.80099 76.1395C2.7015 78.239 -0.146029 79.4185 -3.11516 79.4185C-6.0843 79.4185 -8.93183 78.239 -11.0313 76.1395C-13.1308 74.0401 -14.3103 71.1925 -14.3103 68.2234L-3.11516 68.2234H8.07997Z"
                fill="#212121" />
            <path
                d="M-52.7583 64.944V64.4917L16.2218 67.2057H83.6189C83.6189 69.2042 81.9987 70.8243 80.0002 70.8243H-46.878C-50.1256 70.8243 -52.7583 68.1916 -52.7583 64.944Z"
                fill="#FF9500" />
            <path
                d="M83.6189 67.2059H49.2419V65.9538C49.2419 64.5647 50.1193 63.327 51.4301 62.8671C51.7781 62.745 52.1443 62.6826 52.5132 62.6826H81.8382C82.2579 62.6826 82.6642 62.8309 82.9852 63.1012C83.387 63.4396 83.6189 63.9381 83.6189 64.4633V67.2059Z"
                fill="white" />
            <path d="M55.1221 67.2059V62.6826H79.5478V67.2059H55.1221Z" fill="#FF7500" />
            <path
                d="M47.2566 55.8628L47.2964 55.8077C47.6659 55.2962 48.2585 54.9932 48.8895 54.9932H82.4879C82.4879 54.9932 82.9036 55.62 83.1664 56.8025C83.4291 57.9849 83.5056 58.838 83.5056 58.838H48.7779C48.2128 58.838 47.6778 58.5833 47.3215 58.1448C46.7864 57.4863 46.7599 56.5506 47.2566 55.8628Z"
                fill="white" />
            <path d="M55.009 58.838L57.0445 54.9932H61.3416L59.3062 58.838H55.009Z" fill="#FFE483" />
            <path d="M79.5479 58.838H75.3639L73.3284 54.9932H77.6255L79.5479 58.838Z" fill="#FFE483" />
            <path d="M59.3062 58.838L61.3416 54.9932H73.3283L75.3638 58.838H59.3062Z" fill="#FF7500" />
            <path
                d="M43.1355 68.4499C43.1355 66.6828 42.7874 64.9329 42.1112 63.3003C41.4349 61.6676 40.4437 60.1841 39.1941 58.9346C37.9445 57.685 36.461 56.6938 34.8284 56.0175C33.1957 55.3412 31.4459 54.9932 29.6787 54.9932C27.9115 54.9932 26.1617 55.3412 24.529 56.0175C22.8964 56.6938 21.4129 57.685 20.1633 58.9346C18.9137 60.1841 17.9225 61.6676 17.2463 63.3003C16.57 64.9329 16.2219 66.6828 16.2219 68.4499L29.6787 68.4499H43.1355Z"
                fill="#FF9500" />
            <path fill-rule="evenodd" clip-rule="evenodd"
                d="M19.3574 70.8245C19.403 70.944 19.4503 71.063 19.4993 71.1814C20.1699 72.8004 21.1528 74.2714 22.3918 75.5104C23.6309 76.7495 25.1019 77.7324 26.7209 78.403C28.3398 79.0736 30.0749 79.4187 31.8273 79.4187C33.5796 79.4187 35.3147 79.0736 36.9337 78.403C38.5526 77.7324 40.0236 76.7495 41.2627 75.5104C42.5018 74.2714 43.4847 72.8004 44.1552 71.1814C44.2043 71.063 44.2516 70.944 44.2971 70.8245H19.3574Z"
                fill="#424242" />
            <path
                d="M41.0998 68.1105C41.0998 74.3558 36.037 79.4187 29.7916 79.4187C23.5463 79.4187 18.4834 74.3558 18.4834 68.1105C18.4834 61.8651 23.5463 56.8022 29.7916 56.8022C36.037 56.8022 41.0998 61.8651 41.0998 68.1105Z"
                fill="#212121" />
            <path
                d="M37.2552 68.1104C37.2552 72.2323 33.9137 75.5738 29.7918 75.5738C25.6699 75.5738 22.3284 72.2323 22.3284 68.1104C22.3284 63.9885 25.6699 60.647 29.7918 60.647C33.9137 60.647 37.2552 63.9885 37.2552 68.1104Z"
                fill="#CEC3C0" />
            <path
                d="M34.9934 68.1102C34.9934 70.9831 32.6645 73.312 29.7916 73.312C26.9188 73.312 24.5898 70.9831 24.5898 68.1102C24.5898 65.2374 26.9188 62.9084 29.7916 62.9084C32.6645 62.9084 34.9934 65.2374 34.9934 68.1102Z"
                fill="white" />
            <path
                d="M-13.711 42.7745L-12.0488 30.4541H2.10133C3.69761 30.4541 5.24172 31.0226 6.45689 32.0578C7.22736 32.7141 7.83954 33.5361 8.24769 34.4622L13.5078 46.3987L-12.0294 44.8223C-13.0783 44.7576 -13.8515 43.8159 -13.711 42.7745Z"
                fill="#FFF9E1" />
            <path
                d="M14.2838 30.3411H38.4939C38.8587 30.3411 39.2082 30.488 39.4634 30.7486L54.3691 45.9692C54.6494 46.2555 54.4466 46.738 54.0459 46.738H21.6716C20.8851 46.738 20.1551 46.3294 19.7438 45.6589L12.4056 33.6966C12.2377 33.423 12.1317 33.116 12.0949 32.797C11.9439 31.4887 12.9668 30.3411 14.2838 30.3411Z"
                fill="#FFF9E1" />
            <path
                d="M5.18421 44.3809L5.26717 44.1958C5.80748 42.9905 7.00523 42.2148 8.32611 42.2148H11.5566C12.5395 42.2148 13.485 42.5916 14.1986 43.2676C14.9643 43.993 15.3981 45.0014 15.3981 46.0563V48.5389H7.87696C6.81304 48.5389 5.83149 47.9662 5.30799 47.04C4.84657 46.2237 4.80062 45.2366 5.18421 44.3809Z"
                fill="#FF9500" />
            <path
                d="M30.5191 71.8279C30.5191 72.7834 30.3576 73.7295 30.0437 74.6123C29.7298 75.4951 29.2698 76.2972 28.6899 76.9728C28.11 77.6485 27.4215 78.1844 26.6638 78.5501C25.9061 78.9157 25.094 79.1039 24.2738 79.1039C23.4537 79.1039 22.2373 79.1039 21.3548 79.1039C20.4724 79.1039 20.3366 77.6891 19.8578 76.9728C19.2778 76.2972 18.8178 75.4951 18.504 74.6123C18.1901 73.7295 18.0286 72.7834 18.0286 71.8279L24.2738 71.8279H30.5191Z"
                fill="#424242" />
            <path
                d="M27.1234 71.8279C27.1234 72.7834 26.9634 73.7295 26.6526 74.6123C26.3418 75.4951 25.8863 76.2972 25.312 76.9728C24.7377 77.6485 24.0559 78.1844 23.3055 78.5501C22.5552 78.9157 21.751 79.1039 20.9388 79.1039C20.1266 79.1039 19.3224 78.9157 18.572 78.5501C17.8217 78.1844 17.1399 77.6485 16.5656 76.9728C15.9913 76.2972 15.5357 75.4951 15.2249 74.6123C14.9141 73.7295 14.7542 72.7834 14.7542 71.8279L20.9388 71.8279H27.1234Z"
                fill="#212121" />
            <path
                d="M24.698 71.8279C24.698 72.3693 24.6054 72.9055 24.4257 73.4057C24.2459 73.906 23.9824 74.3605 23.6502 74.7433C23.318 75.1262 22.9236 75.4299 22.4896 75.6371C22.0556 75.8443 21.5904 75.951 21.1206 75.951C20.6508 75.951 20.1856 75.8443 19.7516 75.6371C19.3176 75.4299 18.9232 75.1262 18.591 74.7433C18.2588 74.3605 17.9953 73.906 17.8155 73.4057C17.6357 72.9055 17.5432 72.3693 17.5432 71.8279L21.1206 71.8279H24.698Z"
                fill="#757575" />
            <path
                d="M-8.28662 63.3214V71.8279H11.4799V57.1545H-3.11514L-5.43591 58.4554C-7.19645 59.4423 -8.28662 61.3031 -8.28662 63.3214Z"
                fill="#008444" />
            <path d="M7.11475 63.5816C7.11475 61.1036 9.12359 59.0947 11.6016 59.0947V71.8278H7.11475V63.5816Z"
                fill="#006430" />
            <path
                d="M-2.10205 71.8281V60.0652H-0.161774C-0.161774 60.0652 1.99505 60.0652 3.29434 61.581C4.43721 62.9144 4.50779 64.3885 4.50821 64.7241C4.50827 64.7715 4.50702 64.8183 4.50702 64.8657V71.8281H-2.10205Z"
                fill="#069550" />
            <path
                d="M0.687233 71.8281H-12.771V69.5847C-12.771 69.5847 -12.8957 67.0634 -11.3703 64.4915C-10.0953 62.3417 -7.71653 60.0652 -5.95052 60.0652H-2.23582C0.687233 60.0652 0.687233 62.9756 0.687233 62.9756V71.8281Z"
                fill="#1FB767" />
            <rect x="-12.7734" y="69.6453" width="13.4607" height="2.18281" fill="#006430" />
            <path
                d="M-5.74023 56.366C-5.74023 55.5958 -5.11586 54.9714 -4.34566 54.9714H9.35755C10.1277 54.9714 10.7521 55.5958 10.7521 56.366V57.8818H-5.74023V56.366Z"
                fill="#3B0F03" />
            <path
                d="M6.67472 71.8279C6.67472 72.7834 6.51446 73.7295 6.20308 74.6123C5.8917 75.4951 5.43531 76.2972 4.85995 76.9728C4.2846 77.6485 3.60156 78.1844 2.84983 78.5501C2.09809 78.9157 1.29239 79.1039 0.478718 79.1039C-0.334953 79.1039 -1.54172 79.1039 -2.41724 79.1039C-3.29276 79.1039 -3.42746 77.6891 -3.90252 76.9728C-4.47787 76.2972 -4.93426 75.4951 -5.24564 74.6123C-5.55702 73.7295 -5.71729 72.7834 -5.71729 71.8279L0.478718 71.8279H6.67472Z"
                fill="#424242" />
            <path
                d="M3.37785 71.8279C3.37785 72.7834 3.21758 73.7295 2.9062 74.6123C2.59483 75.4951 2.13843 76.2972 1.56308 76.9728C0.987726 77.6485 0.304685 78.1844 -0.447049 78.5501C-1.19878 78.9157 -2.00449 79.1039 -2.81816 79.1039C-3.63183 79.1039 -4.43753 78.9157 -5.18926 78.5501C-5.941 78.1844 -6.62404 77.6485 -7.19939 76.9728C-7.77475 76.2972 -8.23114 75.4951 -8.54252 74.6123C-8.8539 73.7295 -9.01416 72.7834 -9.01416 71.8279L-2.81816 71.8279H3.37785Z"
                fill="#212121" />
            <path
                d="M0.762775 71.8279C0.762775 72.3654 0.671615 72.8976 0.494501 73.3941C0.317387 73.8907 0.057786 74.3419 -0.269478 74.7219C-0.596743 75.102 -0.985262 75.4034 -1.41285 75.6091C-1.84045 75.8148 -2.29874 75.9207 -2.76156 75.9207C-3.22438 75.9207 -3.68267 75.8148 -4.11026 75.6091C-4.53785 75.4034 -4.92637 75.102 -5.25364 74.7219C-5.5809 74.3419 -5.8405 73.8907 -6.01761 73.3941C-6.19473 72.8976 -6.28589 72.3654 -6.28589 71.8279L-2.76156 71.8279H0.762775Z"
                fill="#757575" />
            <path
                d="M3.05225 72.1919V71.8281H9.96447L10.4894 70.8731C11.0024 69.9398 11.2375 68.8791 11.1669 67.8164L10.0909 51.6178C9.99814 50.2215 10.5321 48.8566 11.5477 47.8939C12.4211 47.066 13.5787 46.6045 14.7822 46.6045H19.0054C20.6602 46.6045 22.2296 47.3392 23.2894 48.61L23.3403 48.6711C24.1063 49.5895 24.5568 50.7299 24.6254 51.9239L25.7899 72.1919H3.05225Z"
                fill="#008444" />
            <path fill-rule="evenodd" clip-rule="evenodd"
                d="M11.5074 47.7998C12.4105 46.954 13.6027 46.4832 14.8414 46.4832H19.4597C20.9442 46.4832 22.353 47.137 23.3092 48.2699L23.7272 48.765C24.4268 49.594 24.8389 50.6265 24.9018 51.7083L26.0929 72.1918H2.19238V71.8289H9.60796L10.41 70.4953C10.9001 69.6804 11.1286 68.7354 11.0648 67.7872L9.98112 51.6681C9.88348 50.2157 10.4436 48.7961 11.5074 47.7998ZM10.0322 71.8289H25.7074L24.5386 51.7293C24.4803 50.7257 24.098 49.7678 23.4489 48.9988L23.0309 48.5036C22.1438 47.4527 20.8369 46.8461 19.4597 46.8461H14.8414C13.6952 46.8461 12.592 47.2817 11.7564 48.0644C10.772 48.9863 10.2538 50.2999 10.3441 51.6438L11.4278 67.7629C11.4965 68.785 11.2502 69.8036 10.7219 70.6821L10.0322 71.8289Z"
                fill="#1FB767" />
            <rect x="11.6016" y="50.052" width="2.06154" height="0.725891" rx="0.362946" fill="#069550" />
            <rect x="20.0903" y="50.052" width="2.06154" height="0.725891" rx="0.362946" fill="#069550" />
            <path
                d="M15.1932 46.4832H14.1479L15.9311 66.0072H18.5136V60.464C18.5136 59.7537 18.2425 59.0701 17.7557 58.5527L16.8882 57.6308C16.4669 57.183 16.2054 56.6086 16.1442 55.9969L15.1932 46.4832Z"
                fill="#006430" />
            <path
                d="M18.8773 46.4832H15.1948L16.1761 55.9718C16.2371 56.5617 16.4846 57.1169 16.8827 57.5567L17.7921 58.5612C18.2564 59.0741 18.5135 59.7412 18.5135 60.433V66.0072H22.2727L22.0665 60.2502C22.0431 59.5958 21.7901 58.9706 21.3521 58.4839L20.5204 57.56C20.1226 57.1182 19.8764 56.5608 19.8177 55.9691L18.8773 46.4832Z"
                fill="#1FB767" />
            <rect x="16.4519" y="49.7576" width="2.06154" height="0.727603" rx="0.363802" fill="#FF7733" />
            <rect x="16.5735" y="51.3337" width="2.06154" height="0.727603" rx="0.363802" fill="#FF7733" />
            <path
                d="M22.2728 66.0074L16.0275 66.4318L15.9366 65.492L15.9062 64.9766L16.8068 64.3902C17.9282 63.66 19.2085 63.2093 20.5401 63.0762L22.1515 62.915L22.18 63.6426L22.2728 66.0074Z"
                fill="#3A0F00" />
            <path
                d="M19.5442 61.7918V60.7319H22.0908L22.1514 62.6722H20.4246C20.209 62.6722 20.0009 62.5931 19.8397 62.4498C19.6517 62.2827 19.5442 62.0433 19.5442 61.7918Z"
                fill="#006430" />
            <rect x="19.4836" y="59.7014" width="3.75929" height="1.94028" rx="0.970138" fill="#D88B19" />
            <rect x="20.8174" y="60.0652" width="1.81901" height="0.727603" rx="0.363802" fill="#FEB536" />
            <path
                d="M27.2447 72.2521H14.2085C14.2085 72.2521 14.2085 63.8847 20.6357 64.0059C27.0628 64.1272 27.2447 72.2521 27.2447 72.2521Z"
                fill="#006430" />
            <path
                d="M31.1251 72.2521H27.2446C27.2446 72.2521 27.0627 69.6449 26.2744 68.0684C24.8767 64.5983 22.1382 64.078 21.0735 64.0106C20.6902 64.006 20.6355 64.006 20.6355 64.006C20.6355 64.006 20.7988 63.9932 21.0735 64.0106C21.5929 64.0169 22.7154 64.0317 25.1224 64.0666C31.0039 64.7942 31.1251 72.2521 31.1251 72.2521Z"
                fill="#1FB767" />
            <path
                d="M18.8168 39.4495L18.8774 45.149H14.148C14.1138 44.7042 13.7429 44.3608 13.2968 44.3608H11.6554C11.0981 44.3608 10.5847 44.0587 10.314 43.5715L10.2619 43.4777C10.0061 43.0171 10.0381 42.4505 10.3444 42.0218C10.6005 41.6632 11.0141 41.4504 11.4548 41.4504H13.7236L14.0202 41.1444C15.0709 40.061 16.5157 39.4495 18.0249 39.4495H18.8168Z"
                fill="#006430" />
            <rect x="14.1479" y="45.1489" width="4.72942" height="1.33394" fill="#006430" />
            <path
                d="M22.7858 42.1593L22.7303 42.076C22.5202 41.7609 22.1665 41.5715 21.7876 41.5715C21.9445 42.395 21.8121 43.2475 21.4128 43.9846L21.2419 44.3H21.5867C22.0866 44.3 22.5489 44.0345 22.8008 43.6027L22.8277 43.5565C23.0818 43.121 23.0655 42.5788 22.7858 42.1593Z"
                fill="#006430" />
            <path
                d="M22.3624 42.5336L22.3276 42.485C22.217 42.3302 22.0385 42.2383 21.8482 42.2383C21.8482 42.7202 21.7706 43.199 21.6182 43.6561L21.6057 43.6935H21.7366C21.9947 43.6935 22.2345 43.5606 22.3712 43.3418L22.3865 43.3173C22.5378 43.0753 22.5283 42.7659 22.3624 42.5336Z"
                fill="#4D1303" />
            <path
                d="M24.0339 42.4202H22.9398L22.9487 42.4602C23.022 42.7902 22.9979 43.1344 22.8792 43.4509H24.0645C24.2331 43.4509 24.3905 43.3667 24.484 43.2264C24.6104 43.0369 24.594 42.7862 24.444 42.6147L24.4317 42.6007C24.3313 42.486 24.1863 42.4202 24.0339 42.4202Z"
                fill="#4D1303" />
            <path
                d="M18.4898 39.4495H19.5432C19.1865 39.4495 18.8329 39.5413 18.561 39.7722C18.03 40.2229 17.2048 41.1396 17.2048 42.4837C17.2048 43.5421 17.8279 44.3466 18.3134 44.8129C18.6563 45.1421 19.1294 45.2703 19.6048 45.2703H18.3309C16.9115 45.2703 15.7116 44.2189 15.5252 42.8118C15.4963 42.5938 15.4931 42.3712 15.5153 42.1525C15.67 40.6267 16.9563 39.4495 18.4898 39.4495Z"
                fill="#AE9F8F" />
            <ellipse cx="19.5444" cy="42.3599" rx="2.36471" ry="2.91041" fill="#E9E0CE" />
            <ellipse cx="19.6658" cy="42.3597" rx="1.87964" ry="2.30408" fill="#FEB434" />
            <ellipse cx="10.8737" cy="42.8449" rx="1.45521" ry="1.45521" fill="#006430" />
            <ellipse cx="10.7521" cy="42.8447" rx="0.970138" ry="0.970138" fill="#4D1303" />
            <rect x="6.99292" y="42.3596" width="4.12309" height="1.09141" rx="0.545703" fill="#3F0F02" />
            <rect x="15.3333" y="15.5554" width="63.7778" height="21.3889" rx="2.33333" fill="#212121" />
            <path
                d="M21.7173 25.7949L20.2116 21.5389H21.6551L22.576 24.3513H22.6009L23.5467 21.5389H24.8409L23.3351 25.7949L24.9156 30.25H23.472L22.4764 27.2136H22.4516L21.4311 30.25H20.1369L21.7173 25.7949ZM26.7729 25.7949L25.2671 21.5389H26.7107L27.6316 24.3513H27.6564L28.6022 21.5389H29.8964L28.3907 25.7949L29.9711 30.25H28.5276L27.532 27.2136H27.5071L26.4867 30.25H25.1924L26.7729 25.7949Z"
                fill="#616161" />
            <path
                d="M39.8655 25.7949L38.3597 21.5389H39.8033L40.7242 24.3513H40.7491L41.6949 21.5389H42.9891L41.4833 25.7949L43.0637 30.25H41.6202L40.6246 27.2136H40.5997L39.5793 30.25H38.2851L39.8655 25.7949ZM44.9211 25.7949L43.4153 21.5389H44.8589L45.7797 24.3513H45.8046L46.7504 21.5389H48.0446L46.5389 25.7949L48.1193 30.25H46.6757L45.6802 27.2136H45.6553L44.6349 30.25H43.3406L44.9211 25.7949ZM49.9766 25.7949L48.4709 21.5389H49.9144L50.8353 24.3513H50.8602L51.806 21.5389H53.1002L51.5944 25.7949L53.1749 30.25H51.7313L50.7357 27.2136H50.7109L49.6904 30.25H48.3962L49.9766 25.7949ZM39.8655 25.7949L38.3597 21.5389H39.8033L40.7242 24.3513H40.7491L41.6949 21.5389H42.9891L41.4833 25.7949L43.0637 30.25H41.6202L40.6246 27.2136H40.5997L39.5793 30.25H38.2851L39.8655 25.7949Z"
                fill="#616161" />
            <path
                d="M60.9952 25.7949L59.4894 21.5389H60.933L61.8539 24.3513H61.8788L62.8245 21.5389H64.1188L62.613 25.7949L64.1934 30.25H62.7499L61.7543 27.2136H61.7294L60.709 30.25H59.4148L60.9952 25.7949ZM66.0508 25.7949L64.545 21.5389H65.9885L66.9094 24.3513H66.9343L67.8801 21.5389H69.1743L67.6685 25.7949L69.249 30.25H67.8054L66.8099 27.2136H66.785L65.7645 30.25H64.4703L66.0508 25.7949ZM71.1063 25.7949L69.6005 21.5389H71.0441L71.965 24.3513H71.9899L72.9356 21.5389H74.2299L72.7241 25.7949L74.3045 30.25H72.861L71.8654 27.2136H71.8405L70.8201 30.25H69.5259L71.1063 25.7949Z"
                fill="#616161" />
            <rect x="16.9861" y="17.2083" width="60.4722" height="18.0833" rx="1.45833" stroke="white"
                stroke-width="0.194444" />
        </g>
        <g clip-path="url(#clip2_6683_160296)">
            <circle cx="79.2911" cy="79.7089" r="13.2911" fill="#1976D2" />
            <g clip-path="url(#clip3_6683_160296)">
                <path fill-rule="evenodd" clip-rule="evenodd"
                    d="M81.8047 82.0535C82.1185 81.7397 82.6653 81.7778 83.0261 82.1386L85.6392 84.7517C85.9999 85.1125 86.0381 85.6593 85.7243 85.9731C85.4106 86.2868 84.8637 86.2487 84.503 85.8879L81.8899 83.2748C81.5291 82.914 81.4909 82.3672 81.8047 82.0535Z"
                    fill="white" />
                <circle cx="78.5527" cy="78.9704" r="5.27426" stroke="white" stroke-width="1.26582" />
            </g>
        </g>
    </g>
</svg>