<svg width="56" height="56" viewBox="0 0 56 56" fill="none" xmlns="http://www.w3.org/2000/svg">
<rect width="56" height="56" rx="28" fill="#FAFAFA"/>
<ellipse cx="28.7453" cy="43.9807" rx="13.52" ry="1.64508" fill="#D9D9D9"/>
<path d="M25.2506 19.8964L23.3901 19.8537L23.3463 21.6646L25.2067 21.7073L25.2506 19.8964Z" fill="white" stroke="#1976D2" stroke-width="0.134751" stroke-miterlimit="10"/>
<path d="M23.6937 20.3291C23.7511 20.5432 23.8571 21.4399 24.3186 21.1891C24.425 21.1321 24.5151 20.9785 24.5947 20.8905L25.0244 20.4164L25.8825 19.4678C25.9559 19.3868 25.6321 19.1836 25.5401 19.2853L24.7773 20.1284L24.3959 20.55C24.3077 20.6475 24.103 20.9619 23.9727 20.9899L24.1862 21.057C24.2366 21.0971 24.143 20.8123 24.1409 20.8045C24.1056 20.6724 24.0701 20.5401 24.0344 20.4078C24.0051 20.2987 23.6511 20.1673 23.6944 20.3291H23.6937Z" fill="#16A75C"/>
<path d="M25.1709 23.1888L23.3105 23.1461L23.2666 24.9571L25.1271 24.9998L25.1709 23.1888Z" fill="white" stroke="#1976D2" stroke-width="0.134751" stroke-miterlimit="10"/>
<path d="M23.613 23.6726C23.6704 23.8867 23.7765 24.7834 24.238 24.5327C24.3444 24.4756 24.4344 24.322 24.5141 24.234L24.9437 23.7597L25.8019 22.8113C25.8753 22.7303 25.5515 22.5261 25.4595 22.6288L24.6967 23.4719L24.3153 23.8933C24.227 23.9909 24.0224 24.3055 23.8921 24.3334L24.1056 24.4005C24.1559 24.4406 24.0624 24.1559 24.0604 24.1481C24.0249 24.0159 23.9894 23.8837 23.954 23.7513C23.9245 23.6422 23.5705 23.5109 23.6138 23.6726H23.613Z" fill="#16A75C"/>
<path d="M25.0912 26.4811L23.2308 26.4384L23.187 28.2494L25.0474 28.2921L25.0912 26.4811Z" fill="white" stroke="#1976D2" stroke-width="0.134751" stroke-miterlimit="10"/>
<path d="M23.5587 26.9884C23.6161 27.2024 23.7222 28.0991 24.1837 27.8484C24.2901 27.7913 24.3801 27.6377 24.4596 27.5497L24.8892 27.0756L25.7474 26.127C25.8208 26.046 25.497 25.8428 25.405 25.9445L24.642 26.7876L24.26 27.2093C24.1717 27.3068 23.9671 27.6212 23.8368 27.6492L24.0505 27.7163C24.1007 27.7564 24.0073 27.4716 24.0052 27.4638C23.9699 27.3317 23.9344 27.1995 23.8987 27.0671C23.8694 26.9579 23.5152 26.8266 23.5587 26.9884Z" fill="#16A75C"/>
<path d="M25.0114 29.7733L23.1509 29.7307L23.1071 31.5416L24.9675 31.5843L25.0114 29.7733Z" fill="white" stroke="#1976D2" stroke-width="0.134751" stroke-miterlimit="10"/>
<path d="M23.4788 30.2592C23.5363 30.4733 23.6423 31.3698 24.1038 31.1191C24.2102 31.062 24.3002 30.9084 24.3797 30.8206L24.8094 30.3454L25.6675 29.3969C25.7409 29.316 25.4171 29.1118 25.3251 29.2145L24.5621 30.0575L24.1819 30.48C24.0936 30.5775 23.889 30.8921 23.7587 30.9198L23.9723 30.987C24.0227 31.0273 23.9292 30.7425 23.927 30.7347C23.8916 30.6024 23.8561 30.4701 23.8206 30.3379C23.7913 30.2286 23.4371 30.0973 23.4806 30.2592H23.4788Z" fill="#16A75C"/>
<path d="M24.9584 33.0415L23.098 32.9988L23.0542 34.8098L24.9146 34.8525L24.9584 33.0415Z" fill="white" stroke="#1976D2" stroke-width="0.134751" stroke-miterlimit="10"/>
<path d="M23.4007 33.5014C23.4593 33.7155 23.5644 34.612 24.0257 34.3612C24.1319 34.3042 24.2221 34.1506 24.3016 34.0628L24.7313 33.5875L25.5905 32.6391C25.6638 32.5579 25.3402 32.354 25.248 32.4564L24.4852 33.2995L24.1038 33.7212C24.0155 33.8187 23.8108 34.1331 23.6806 34.161L23.8942 34.2282C23.9444 34.2685 23.8511 33.9835 23.8489 33.9759C23.8134 33.8436 23.7779 33.7113 23.7425 33.5791C23.7132 33.4698 23.3589 33.3385 23.4023 33.5004L23.4007 33.5014Z" fill="#16A75C"/>
<path d="M29.6307 12.5593C29.9962 12.5593 30.2924 12.2853 30.2924 11.9472C30.2924 11.6091 29.9962 11.3351 29.6307 11.3351C29.2653 11.3351 28.9691 11.6091 28.9691 11.9472C28.9691 12.2853 29.2653 12.5593 29.6307 12.5593Z" fill="white"/>
<path d="M34.4209 45.3588L21.7479 45.3017C20.2237 45.295 18.9935 44.0869 19 42.6032L19.1343 11.6759C19.1408 10.1915 20.3826 8.99328 21.9076 9.00003L34.5807 9.057C36.1049 9.06385 37.3349 10.2719 37.3286 11.7556L37.1942 42.6829C37.1878 44.1675 35.9461 45.3657 34.4209 45.3588Z" fill="#263238"/>
<path d="M34.5626 10.1244L32.1056 10.1134C31.7762 10.1119 31.5078 10.3826 31.5064 10.7179L31.5044 11.1517C31.503 11.487 31.2346 11.7577 30.9051 11.7562L26.1157 11.7347C25.7863 11.7332 25.5203 11.4601 25.5217 11.1249L25.5237 10.691C25.525 10.3557 25.2591 10.0826 24.9296 10.0812L24.0655 10.0773L21.9149 10.0677C20.8469 10.0629 19.9772 10.9021 19.9726 11.9418L19.8415 42.1289C19.837 43.1682 20.6984 44.0141 21.7659 44.019L34.4137 44.0758C35.4816 44.0806 36.3513 43.2415 36.3559 42.2018L36.4871 12.0145C36.4916 10.9753 35.6301 10.1293 34.5626 10.1244Z" fill="#FAFAFA"/>
<path d="M22.7481 14.5049C22.7845 14.5049 22.8163 14.5006 22.8436 14.492C22.8708 14.4829 22.8936 14.4704 22.9118 14.4545C22.9299 14.4386 22.9436 14.4197 22.9527 14.3979C22.9618 14.3756 22.9663 14.3511 22.9663 14.3242C22.9663 14.2706 22.9486 14.2297 22.9131 14.2015C22.8777 14.1733 22.824 14.1592 22.7522 14.1592H22.6227V14.5049H22.7481ZM23.2104 15.0163H23.0679C23.0397 15.0163 23.0193 15.0054 23.0065 14.9836L22.7774 14.6529C22.7697 14.6415 22.7613 14.6333 22.7522 14.6283C22.7431 14.6233 22.7295 14.6208 22.7113 14.6208H22.6227V15.0163H22.4631V14.0345H22.7522C22.8168 14.0345 22.8722 14.0411 22.9186 14.0542C22.9654 14.0674 23.0038 14.0863 23.0338 14.1108C23.0638 14.1349 23.0858 14.164 23.0999 14.1981C23.1145 14.2322 23.1218 14.2701 23.1218 14.312C23.1218 14.3461 23.1165 14.3779 23.1061 14.4074C23.0961 14.437 23.0813 14.4638 23.0618 14.4879C23.0427 14.512 23.019 14.5329 22.9908 14.5506C22.9627 14.5683 22.9306 14.5822 22.8947 14.5922C22.9143 14.604 22.9311 14.6206 22.9452 14.642L23.2104 15.0163ZM23.4448 14.3208V15.0163H23.2982V14.3208H23.4448ZM23.4694 14.1108C23.4694 14.124 23.4667 14.1365 23.4612 14.1483C23.4562 14.1601 23.4492 14.1706 23.4401 14.1797C23.431 14.1883 23.4203 14.1954 23.408 14.2008C23.3962 14.2058 23.3835 14.2083 23.3698 14.2083C23.3567 14.2083 23.3442 14.2058 23.3323 14.2008C23.321 14.1954 23.311 14.1883 23.3023 14.1797C23.2937 14.1706 23.2867 14.1601 23.2812 14.1483C23.2762 14.1365 23.2737 14.124 23.2737 14.1108C23.2737 14.0972 23.2762 14.0845 23.2812 14.0726C23.2867 14.0608 23.2937 14.0506 23.3023 14.042C23.311 14.0329 23.321 14.0258 23.3323 14.0208C23.3442 14.0154 23.3567 14.0126 23.3698 14.0126C23.3835 14.0126 23.3962 14.0154 23.408 14.0208C23.4203 14.0258 23.431 14.0329 23.4401 14.042C23.4492 14.0506 23.4562 14.0608 23.4612 14.0726C23.4667 14.0845 23.4694 14.0972 23.4694 14.1108ZM24.6061 14.3208L24.3831 15.0163H24.2665C24.2529 15.0163 24.2433 15.0074 24.2379 14.9897L24.0995 14.5567C24.0958 14.5445 24.0924 14.5322 24.0893 14.5199C24.0865 14.5076 24.084 14.4956 24.0818 14.4838C24.0768 14.5083 24.0706 14.5329 24.0633 14.5574L23.9229 14.9897C23.9179 15.0074 23.9072 15.0163 23.8908 15.0163H23.7797L23.5568 14.3208H23.6727C23.684 14.3208 23.6933 14.3238 23.7006 14.3297C23.7083 14.3351 23.7133 14.3417 23.7156 14.3495L23.8315 14.7545C23.8361 14.7731 23.8399 14.7913 23.8431 14.809C23.8468 14.8263 23.8499 14.8436 23.8527 14.8608C23.8572 14.8436 23.862 14.8263 23.867 14.809C23.872 14.7913 23.8772 14.7731 23.8827 14.7545L24.0129 14.3474C24.0152 14.3392 24.0197 14.3326 24.0265 14.3276C24.0338 14.3222 24.0424 14.3195 24.0524 14.3195H24.1165C24.127 14.3195 24.1358 14.3222 24.1431 14.3276C24.1504 14.3326 24.1552 14.3392 24.1574 14.3474L24.2843 14.7545C24.2897 14.7731 24.2947 14.7913 24.2993 14.809C24.3043 14.8267 24.3088 14.8445 24.3129 14.8622C24.3161 14.8449 24.3195 14.8274 24.3231 14.8097C24.3268 14.792 24.3311 14.7736 24.3361 14.7545L24.454 14.3495C24.4568 14.3413 24.4618 14.3345 24.469 14.329C24.4763 14.3236 24.4852 14.3208 24.4956 14.3208H24.6061ZM25.0753 14.7122C25.023 14.714 24.9789 14.7183 24.943 14.7251C24.9071 14.7315 24.878 14.7399 24.8557 14.7504C24.8335 14.7604 24.8173 14.7724 24.8073 14.7865C24.7978 14.8006 24.793 14.8161 24.793 14.8329C24.793 14.8492 24.7955 14.8633 24.8005 14.8751C24.806 14.8865 24.8132 14.8961 24.8223 14.9038C24.8319 14.9111 24.8428 14.9165 24.8551 14.9201C24.8678 14.9233 24.8816 14.9249 24.8966 14.9249C24.9348 14.9249 24.9676 14.9179 24.9948 14.9038C25.0226 14.8892 25.0494 14.8683 25.0753 14.8411V14.7122ZM24.6866 14.4176C24.7653 14.3445 24.8589 14.3079 24.9676 14.3079C25.0076 14.3079 25.043 14.3145 25.0739 14.3276C25.1053 14.3404 25.1314 14.3586 25.1523 14.3822C25.1737 14.4058 25.1898 14.434 25.2007 14.4667C25.2121 14.499 25.2178 14.5349 25.2178 14.5745V15.0163H25.1523C25.1382 15.0163 25.1276 15.0142 25.1203 15.0101C25.113 15.0056 25.1069 14.9967 25.1019 14.9836L25.0876 14.927C25.0698 14.9429 25.0523 14.9572 25.0351 14.9699C25.0178 14.9822 24.9998 14.9926 24.9812 15.0013C24.963 15.0099 24.9432 15.0163 24.9219 15.0204C24.901 15.0249 24.8778 15.0272 24.8523 15.0272C24.8241 15.0272 24.7978 15.0233 24.7732 15.0156C24.7491 15.0079 24.7282 14.9963 24.7105 14.9808C24.6928 14.9649 24.6787 14.9454 24.6682 14.9222C24.6582 14.899 24.6532 14.8717 24.6532 14.8404C24.6532 14.8136 24.6603 14.7874 24.6744 14.762C24.6889 14.7365 24.7126 14.7138 24.7453 14.6938C24.7785 14.6733 24.8219 14.6565 24.8755 14.6433C24.9296 14.6301 24.9962 14.6226 25.0753 14.6208V14.5745C25.0753 14.5245 25.0646 14.4872 25.0432 14.4626C25.0219 14.4381 24.9905 14.4258 24.9491 14.4258C24.921 14.4258 24.8973 14.4295 24.8782 14.4367C24.8591 14.4436 24.8426 14.4511 24.8285 14.4592C24.8144 14.4674 24.8019 14.4751 24.791 14.4824C24.7801 14.4892 24.7685 14.4926 24.7562 14.4926C24.7462 14.4926 24.7376 14.4901 24.7303 14.4851C24.7235 14.4797 24.7178 14.4731 24.7132 14.4654L24.6866 14.4176ZM25.9879 14.3208L25.6047 15.214C25.5997 15.2245 25.5936 15.2326 25.5863 15.2386C25.5795 15.2445 25.5688 15.2474 25.5543 15.2474H25.4459L25.574 14.9692L25.2904 14.3208H25.4179C25.4302 14.3208 25.4395 14.3238 25.4459 14.3297C25.4527 14.3351 25.4577 14.3417 25.4609 14.3495L25.6265 14.7442C25.6306 14.7556 25.6343 14.767 25.6375 14.7783C25.6411 14.7892 25.6445 14.8006 25.6477 14.8124C25.6513 14.8006 25.655 14.789 25.6586 14.7776C25.6622 14.7663 25.6663 14.7549 25.6709 14.7436L25.8297 14.3495C25.8329 14.3413 25.8381 14.3345 25.8454 14.329C25.8531 14.3236 25.8615 14.3208 25.8706 14.3208H25.9879ZM26.4402 14.7122C26.388 14.714 26.3439 14.7183 26.308 14.7251C26.2721 14.7315 26.243 14.7399 26.2207 14.7504C26.1984 14.7604 26.1823 14.7724 26.1723 14.7865C26.1627 14.8006 26.158 14.8161 26.158 14.8329C26.158 14.8492 26.1605 14.8633 26.1655 14.8751C26.1709 14.8865 26.1782 14.8961 26.1873 14.9038C26.1968 14.9111 26.2077 14.9165 26.22 14.9201C26.2327 14.9233 26.2466 14.9249 26.2616 14.9249C26.2998 14.9249 26.3325 14.9179 26.3598 14.9038C26.3875 14.8892 26.4143 14.8683 26.4402 14.8411V14.7122ZM26.0516 14.4176C26.1302 14.3445 26.2239 14.3079 26.3325 14.3079C26.3725 14.3079 26.408 14.3145 26.4389 14.3276C26.4702 14.3404 26.4964 14.3586 26.5173 14.3822C26.5387 14.4058 26.5548 14.434 26.5657 14.4667C26.5771 14.499 26.5827 14.5349 26.5827 14.5745V15.0163H26.5173C26.5032 15.0163 26.4925 15.0142 26.4852 15.0101C26.478 15.0056 26.4718 14.9967 26.4668 14.9836L26.4525 14.927C26.4348 14.9429 26.4173 14.9572 26.4 14.9699C26.3827 14.9822 26.3648 14.9926 26.3462 15.0013C26.328 15.0099 26.3082 15.0163 26.2868 15.0204C26.2659 15.0249 26.2427 15.0272 26.2173 15.0272C26.1891 15.0272 26.1627 15.0233 26.1382 15.0156C26.1141 15.0079 26.0932 14.9963 26.0755 14.9808C26.0577 14.9649 26.0437 14.9454 26.0332 14.9222C26.0232 14.899 26.0182 14.8717 26.0182 14.8404C26.0182 14.8136 26.0252 14.7874 26.0393 14.762C26.0539 14.7365 26.0775 14.7138 26.1102 14.6938C26.1434 14.6733 26.1868 14.6565 26.2405 14.6433C26.2946 14.6301 26.3612 14.6226 26.4402 14.6208V14.5745C26.4402 14.5245 26.4296 14.4872 26.4082 14.4626C26.3868 14.4381 26.3555 14.4258 26.3141 14.4258C26.2859 14.4258 26.2623 14.4295 26.2432 14.4367C26.2241 14.4436 26.2075 14.4511 26.1934 14.4592C26.1793 14.4674 26.1668 14.4751 26.1559 14.4824C26.145 14.4892 26.1334 14.4926 26.1212 14.4926C26.1112 14.4926 26.1025 14.4901 26.0952 14.4851C26.0884 14.4797 26.0827 14.4731 26.0782 14.4654L26.0516 14.4176ZM26.9681 15.0272C26.9104 15.0272 26.8658 15.0111 26.8345 14.9788C26.8036 14.9461 26.7881 14.9001 26.7881 14.8411V14.4361H26.7117C26.7036 14.4361 26.6965 14.4336 26.6906 14.4286C26.6847 14.4231 26.6817 14.4151 26.6817 14.4047V14.3454L26.7942 14.329L26.8263 14.1279C26.8286 14.1201 26.8324 14.114 26.8379 14.1095C26.8433 14.1045 26.8506 14.102 26.8597 14.102H26.9347V14.3304H27.1276V14.4361H26.9347V14.8308C26.9347 14.8558 26.9408 14.8749 26.9531 14.8881C26.9654 14.9013 26.9817 14.9079 27.0022 14.9079C27.0136 14.9079 27.0233 14.9065 27.0315 14.9038C27.0397 14.9006 27.0467 14.8974 27.0526 14.8942C27.0586 14.8906 27.0636 14.8874 27.0676 14.8847C27.0722 14.8815 27.0765 14.8799 27.0806 14.8799C27.0888 14.8799 27.0954 14.8845 27.1004 14.8936L27.144 14.9651C27.1213 14.9851 27.0945 15.0006 27.0636 15.0115C27.0326 15.022 27.0008 15.0272 26.9681 15.0272ZM28.381 14.0345L27.9829 15.0163H27.839L27.4408 14.0345H27.5683C27.5824 14.0345 27.5938 14.0381 27.6024 14.0454C27.611 14.0522 27.6176 14.0608 27.6222 14.0713L27.8751 14.7115C27.8888 14.7474 27.9013 14.7888 27.9126 14.8356C27.9176 14.8124 27.9229 14.7904 27.9283 14.7695C27.9342 14.7486 27.9406 14.7292 27.9474 14.7115L28.1997 14.0713C28.2033 14.0622 28.2097 14.0538 28.2188 14.0461C28.2279 14.0383 28.2392 14.0345 28.2529 14.0345H28.381ZM28.8193 14.5901C28.8193 14.5656 28.8156 14.5429 28.8084 14.522C28.8015 14.5006 28.7913 14.4822 28.7777 14.4667C28.764 14.4508 28.747 14.4386 28.7265 14.4299C28.7065 14.4208 28.6834 14.4163 28.657 14.4163C28.6038 14.4163 28.562 14.4315 28.5315 14.462C28.5011 14.4924 28.4818 14.5351 28.4736 14.5901H28.8193ZM28.4695 14.6801C28.4713 14.7197 28.4775 14.754 28.4879 14.7831C28.4984 14.8117 28.5122 14.8356 28.5295 14.8547C28.5472 14.8738 28.5681 14.8881 28.5922 14.8976C28.6168 14.9067 28.644 14.9113 28.674 14.9113C28.7027 14.9113 28.7275 14.9081 28.7484 14.9017C28.7693 14.8949 28.7875 14.8876 28.8029 14.8799C28.8184 14.8717 28.8315 14.8645 28.8425 14.8581C28.8534 14.8513 28.8634 14.8479 28.8725 14.8479C28.8843 14.8479 28.8934 14.8524 28.8997 14.8615L28.9413 14.9154C28.924 14.9358 28.9045 14.9531 28.8827 14.9672C28.8609 14.9813 28.8377 14.9929 28.8131 15.002C28.7886 15.0106 28.7634 15.0167 28.7375 15.0204C28.7115 15.0245 28.6863 15.0265 28.6618 15.0265C28.6136 15.0265 28.5688 15.0186 28.5275 15.0026C28.4865 14.9863 28.4509 14.9624 28.4204 14.9311C28.3904 14.8997 28.3668 14.8608 28.3495 14.8145C28.3327 14.7681 28.3243 14.7147 28.3243 14.6542C28.3243 14.6061 28.3318 14.5611 28.3468 14.5192C28.3622 14.4774 28.384 14.4411 28.4122 14.4101C28.4409 14.3792 28.4754 14.3549 28.5159 14.3372C28.5568 14.319 28.6029 14.3099 28.6543 14.3099C28.697 14.3099 28.7365 14.317 28.7729 14.3311C28.8093 14.3447 28.8406 14.3649 28.867 14.3917C28.8934 14.4186 28.9138 14.4515 28.9284 14.4906C28.9434 14.5292 28.9509 14.5733 28.9509 14.6229C28.9509 14.6456 28.9484 14.6608 28.9434 14.6686C28.9384 14.6763 28.9293 14.6801 28.9161 14.6801H28.4695ZM29.226 14.4497C29.2478 14.4056 29.2742 14.3711 29.3051 14.3461C29.336 14.3206 29.373 14.3079 29.4162 14.3079C29.4312 14.3079 29.4453 14.3097 29.4585 14.3133C29.4717 14.3165 29.4835 14.3215 29.4939 14.3283L29.4837 14.4388C29.4819 14.4465 29.4789 14.452 29.4748 14.4551C29.4712 14.4579 29.4662 14.4592 29.4598 14.4592C29.453 14.4592 29.4432 14.4581 29.4305 14.4558C29.4178 14.4531 29.4044 14.4517 29.3903 14.4517C29.3698 14.4517 29.3517 14.4547 29.3357 14.4606C29.3203 14.4665 29.3062 14.4751 29.2935 14.4865C29.2812 14.4979 29.2703 14.5117 29.2607 14.5281C29.2512 14.5445 29.2423 14.5631 29.2342 14.584V15.0163H29.0876V14.3208H29.1728C29.1882 14.3208 29.1989 14.3238 29.2048 14.3297C29.2107 14.3351 29.2148 14.3449 29.2171 14.359L29.226 14.4497ZM29.7437 14.3208V15.0163H29.5971V14.3208H29.7437ZM29.7682 14.1108C29.7682 14.124 29.7655 14.1365 29.76 14.1483C29.755 14.1601 29.748 14.1706 29.7389 14.1797C29.7298 14.1883 29.7191 14.1954 29.7069 14.2008C29.695 14.2058 29.6823 14.2083 29.6687 14.2083C29.6555 14.2083 29.643 14.2058 29.6312 14.2008C29.6198 14.1954 29.6098 14.1883 29.6012 14.1797C29.5925 14.1706 29.5855 14.1601 29.58 14.1483C29.575 14.1365 29.5725 14.124 29.5725 14.1108C29.5725 14.0972 29.575 14.0845 29.58 14.0726C29.5855 14.0608 29.5925 14.0506 29.6012 14.042C29.6098 14.0329 29.6198 14.0258 29.6312 14.0208C29.643 14.0154 29.6555 14.0126 29.6687 14.0126C29.6823 14.0126 29.695 14.0154 29.7069 14.0208C29.7191 14.0258 29.7298 14.0329 29.7389 14.042C29.748 14.0506 29.755 14.0608 29.76 14.0726C29.7655 14.0845 29.7682 14.0972 29.7682 14.1108ZM29.9756 15.0163V14.4374L29.9074 14.4279C29.896 14.4256 29.8867 14.4215 29.8794 14.4156C29.8726 14.4097 29.8692 14.4013 29.8692 14.3904V14.3304H29.9756V14.3011C29.9756 14.2583 29.9824 14.219 29.996 14.1831C30.0097 14.1472 30.0304 14.1161 30.0581 14.0897C30.0858 14.0633 30.1204 14.0429 30.1617 14.0283C30.2035 14.0133 30.2524 14.0058 30.3083 14.0058C30.3265 14.0058 30.3451 14.007 30.3642 14.0092C30.3838 14.0115 30.4004 14.0149 30.414 14.0195L30.4092 14.0958C30.4083 14.1054 30.4026 14.1108 30.3922 14.1122C30.3817 14.1131 30.3679 14.1136 30.3506 14.1136C30.3083 14.1136 30.2724 14.1176 30.2429 14.1258C30.2133 14.1336 30.1892 14.1456 30.1706 14.162C30.1519 14.1779 30.1383 14.1979 30.1297 14.222C30.1215 14.2456 30.1174 14.2733 30.1174 14.3051V14.3304H30.5435V15.0163H30.3969V14.4361H30.1222V15.0163H29.9756ZM30.8761 14.0072V14.5922H30.9075C30.9175 14.5922 30.9257 14.5908 30.932 14.5881C30.9384 14.5854 30.945 14.5797 30.9518 14.5711L31.1468 14.3481C31.1536 14.339 31.1611 14.3322 31.1693 14.3276C31.1775 14.3231 31.1879 14.3208 31.2007 14.3208H31.3336L31.0991 14.5854C31.0854 14.6031 31.0704 14.6172 31.0541 14.6276C31.0632 14.634 31.0711 14.6413 31.0779 14.6495C31.0848 14.6572 31.0913 14.6661 31.0977 14.6761L31.3479 15.0163H31.217C31.2052 15.0163 31.195 15.0145 31.1863 15.0108C31.1782 15.0067 31.1709 14.9995 31.1645 14.989L30.9634 14.7163C30.9566 14.7058 30.9498 14.6992 30.9429 14.6965C30.9361 14.6933 30.9259 14.6917 30.9123 14.6917H30.8761V15.0163H30.7295V14.0072H30.8761ZM31.8136 14.7122C31.7613 14.714 31.7172 14.7183 31.6813 14.7251C31.6454 14.7315 31.6163 14.7399 31.594 14.7504C31.5717 14.7604 31.5556 14.7724 31.5456 14.7865C31.5361 14.8006 31.5313 14.8161 31.5313 14.8329C31.5313 14.8492 31.5338 14.8633 31.5388 14.8751C31.5442 14.8865 31.5515 14.8961 31.5606 14.9038C31.5702 14.9111 31.5811 14.9165 31.5933 14.9201C31.6061 14.9233 31.6199 14.9249 31.6349 14.9249C31.6731 14.9249 31.7058 14.9179 31.7331 14.9038C31.7608 14.8892 31.7877 14.8683 31.8136 14.8411V14.7122ZM31.4249 14.4176C31.5036 14.3445 31.5972 14.3079 31.7058 14.3079C31.7458 14.3079 31.7813 14.3145 31.8122 14.3276C31.8436 14.3404 31.8697 14.3586 31.8906 14.3822C31.912 14.4058 31.9281 14.434 31.939 14.4667C31.9504 14.499 31.9561 14.5349 31.9561 14.5745V15.0163H31.8906C31.8765 15.0163 31.8658 15.0142 31.8586 15.0101C31.8513 15.0056 31.8452 14.9967 31.8402 14.9836L31.8258 14.927C31.8081 14.9429 31.7906 14.9572 31.7733 14.9699C31.7561 14.9822 31.7381 14.9926 31.7195 15.0013C31.7013 15.0099 31.6815 15.0163 31.6602 15.0204C31.6392 15.0249 31.6161 15.0272 31.5906 15.0272C31.5624 15.0272 31.5361 15.0233 31.5115 15.0156C31.4874 15.0079 31.4665 14.9963 31.4488 14.9808C31.4311 14.9649 31.417 14.9454 31.4065 14.9222C31.3965 14.899 31.3915 14.8717 31.3915 14.8404C31.3915 14.8136 31.3986 14.7874 31.4127 14.762C31.4272 14.7365 31.4508 14.7138 31.4836 14.6938C31.5167 14.6733 31.5602 14.6565 31.6138 14.6433C31.6679 14.6301 31.7345 14.6226 31.8136 14.6208V14.5745C31.8136 14.5245 31.8029 14.4872 31.7815 14.4626C31.7602 14.4381 31.7288 14.4258 31.6874 14.4258C31.6592 14.4258 31.6356 14.4295 31.6165 14.4367C31.5974 14.4436 31.5808 14.4511 31.5667 14.4592C31.5527 14.4674 31.5402 14.4751 31.5292 14.4824C31.5183 14.4892 31.5067 14.4926 31.4945 14.4926C31.4845 14.4926 31.4758 14.4901 31.4686 14.4851C31.4617 14.4797 31.4561 14.4731 31.4515 14.4654L31.4249 14.4176ZM32.543 14.447C32.5394 14.4533 32.5353 14.4579 32.5307 14.4606C32.5262 14.4633 32.5205 14.4647 32.5137 14.4647C32.506 14.4647 32.4976 14.4624 32.4885 14.4579C32.4794 14.4529 32.4687 14.4474 32.4564 14.4415C32.4441 14.4356 32.4296 14.4304 32.4128 14.4258C32.3964 14.4208 32.3771 14.4183 32.3548 14.4183C32.3366 14.4183 32.3201 14.4206 32.3051 14.4251C32.2905 14.4292 32.278 14.4354 32.2676 14.4436C32.2576 14.4513 32.2498 14.4606 32.2444 14.4715C32.2389 14.482 32.2362 14.4933 32.2362 14.5056C32.2362 14.522 32.2412 14.5356 32.2512 14.5465C32.2612 14.5574 32.2744 14.567 32.2907 14.5751C32.3071 14.5829 32.3257 14.5899 32.3466 14.5963C32.3676 14.6026 32.3889 14.6095 32.4107 14.6167C32.4326 14.624 32.4539 14.6324 32.4748 14.642C32.4957 14.6515 32.5144 14.6633 32.5307 14.6774C32.5471 14.6911 32.5603 14.7079 32.5703 14.7279C32.5803 14.7474 32.5853 14.7713 32.5853 14.7995C32.5853 14.8322 32.5794 14.8624 32.5676 14.8901C32.5557 14.9179 32.5385 14.942 32.5157 14.9624C32.493 14.9829 32.4646 14.9988 32.4305 15.0101C32.3969 15.0215 32.3582 15.0272 32.3146 15.0272C32.2905 15.0272 32.2671 15.0249 32.2444 15.0204C32.2221 15.0163 32.2007 15.0106 32.1803 15.0033C32.1603 14.9956 32.1414 14.9865 32.1237 14.9761C32.1064 14.9656 32.091 14.9542 32.0773 14.942L32.1114 14.8861C32.1155 14.8792 32.1205 14.874 32.1264 14.8704C32.1328 14.8663 32.1405 14.8642 32.1496 14.8642C32.1591 14.8642 32.1685 14.8674 32.1776 14.8738C32.1871 14.8797 32.198 14.8863 32.2103 14.8936C32.223 14.9008 32.2382 14.9076 32.256 14.914C32.2737 14.9199 32.2957 14.9229 32.3221 14.9229C32.3439 14.9229 32.3628 14.9204 32.3787 14.9154C32.3946 14.9099 32.4078 14.9026 32.4182 14.8936C32.4287 14.8845 32.4364 14.8742 32.4414 14.8629C32.4464 14.8511 32.4489 14.8386 32.4489 14.8254C32.4489 14.8076 32.4439 14.7931 32.4339 14.7817C32.4239 14.7704 32.4105 14.7606 32.3937 14.7524C32.3773 14.7442 32.3585 14.737 32.3371 14.7306C32.3162 14.7242 32.2948 14.7174 32.273 14.7101C32.2512 14.7029 32.2296 14.6945 32.2082 14.6849C32.1873 14.6754 32.1685 14.6633 32.1516 14.6488C32.1353 14.6338 32.1221 14.6158 32.1121 14.5949C32.1021 14.5736 32.0971 14.5476 32.0971 14.5172C32.0971 14.4895 32.1026 14.4631 32.1135 14.4381C32.1248 14.4131 32.1412 14.3911 32.1626 14.372C32.1844 14.3529 32.211 14.3379 32.2423 14.327C32.2741 14.3156 32.3107 14.3099 32.3521 14.3099C32.3989 14.3099 32.4414 14.3174 32.4796 14.3324C32.5178 14.3474 32.5498 14.3679 32.5757 14.3938L32.543 14.447ZM32.8758 14.3208V15.0163H32.7292V14.3208H32.8758ZM32.9003 14.1108C32.9003 14.124 32.8976 14.1365 32.8921 14.1483C32.8871 14.1601 32.8801 14.1706 32.871 14.1797C32.8619 14.1883 32.8512 14.1954 32.839 14.2008C32.8271 14.2058 32.8144 14.2083 32.8008 14.2083C32.7876 14.2083 32.7751 14.2058 32.7633 14.2008C32.7519 14.1954 32.7419 14.1883 32.7333 14.1797C32.7246 14.1706 32.7176 14.1601 32.7121 14.1483C32.7071 14.1365 32.7046 14.124 32.7046 14.1108C32.7046 14.0972 32.7071 14.0845 32.7121 14.0726C32.7176 14.0608 32.7246 14.0506 32.7333 14.042C32.7419 14.0329 32.7519 14.0258 32.7633 14.0208C32.7751 14.0154 32.7876 14.0126 32.8008 14.0126C32.8144 14.0126 32.8271 14.0154 32.839 14.0208C32.8512 14.0258 32.8619 14.0329 32.871 14.042C32.8801 14.0506 32.8871 14.0608 32.8921 14.0726C32.8976 14.0845 32.9003 14.0972 32.9003 14.1108Z" fill="black"/>
<path d="M22.9356 18.6164C22.9851 18.6226 23.0126 18.6234 23.0123 18.6276C23.0121 18.6235 23.0376 18.6227 23.0838 18.6171L22.9356 18.6164Z" fill="#455A64"/>
<rect x="21.05" y="16.8374" width="13.9" height="2.82027" rx="0.206763" stroke="#455A64" stroke-width="0.1"/>
<rect x="22.0107" y="17.2582" width="11.9786" height="1.9786" rx="0.160477" stroke="white" stroke-width="0.0213969"/>
<path d="M22.6203 17.7889H22.8504C22.9253 17.7889 22.9814 17.809 23.0188 17.8492C23.0563 17.8894 23.075 17.9482 23.075 18.0258V18.5106C23.075 18.5882 23.0563 18.6471 23.0188 18.6873C22.9814 18.7274 22.9253 18.7475 22.8504 18.7475H22.6203V17.7889ZM22.8477 18.6106C22.8723 18.6106 22.891 18.6033 22.9038 18.5887C22.9175 18.5741 22.9243 18.5503 22.9243 18.5175V18.019C22.9243 17.9861 22.9175 17.9624 22.9038 17.9478C22.891 17.9332 22.8723 17.9259 22.8477 17.9259H22.771V18.6106H22.8477Z" fill="#455A64"/>
<path d="M26.6704 18.0163H26.513V17.9094C26.5559 17.9094 26.5901 17.9058 26.6157 17.8985C26.6421 17.8912 26.6631 17.8793 26.6787 17.8629C26.6942 17.8455 26.7079 17.8209 26.7197 17.7889H26.8211V18.7475H26.6704V18.0163ZM27.0051 18.6434C27.0051 18.575 27.0161 18.5165 27.038 18.4682C27.0599 18.4189 27.0991 18.3645 27.1557 18.3052C27.2114 18.2459 27.2498 18.1952 27.2708 18.1532C27.2927 18.1112 27.3036 18.0674 27.3036 18.0217C27.3036 17.9807 27.2968 17.9524 27.2831 17.9368C27.2703 17.9204 27.2511 17.9122 27.2256 17.9122C27.1735 17.9122 27.1475 17.9437 27.1475 18.0067V18.1094H27.0051V18.0163C27.0051 17.9387 27.0243 17.8793 27.0626 17.8382C27.101 17.7962 27.1567 17.7752 27.2297 17.7752C27.3027 17.7752 27.3584 17.7962 27.3968 17.8382C27.4351 17.8793 27.4543 17.9387 27.4543 18.0163C27.4543 18.0747 27.4401 18.1317 27.4118 18.1874C27.3844 18.2431 27.3365 18.307 27.268 18.3792C27.2233 18.4266 27.1932 18.4654 27.1777 18.4956C27.1621 18.5248 27.1544 18.5563 27.1544 18.59V18.6106H27.4406V18.7475H27.0051V18.6434ZM27.7698 18.7612C27.6958 18.7612 27.6397 18.7407 27.6013 18.6996C27.5639 18.6585 27.5452 18.5996 27.5452 18.5229V18.4449H27.6876V18.5298C27.6876 18.5928 27.7136 18.6243 27.7657 18.6243C27.7912 18.6243 27.8104 18.6165 27.8232 18.601C27.8369 18.5846 27.8437 18.5563 27.8437 18.5161V18.438C27.8437 18.3942 27.836 18.3632 27.8204 18.3449C27.8049 18.3257 27.7798 18.3162 27.7451 18.3162H27.6945V18.1792H27.7492C27.7794 18.1792 27.8017 18.1715 27.8163 18.1559C27.8319 18.1404 27.8396 18.1144 27.8396 18.0779V18.008C27.8396 17.9752 27.8328 17.951 27.8191 17.9355C27.8054 17.9199 27.7871 17.9122 27.7643 17.9122C27.7159 17.9122 27.6917 17.9419 27.6917 18.0012V18.0642H27.5493V18.0135C27.5493 17.9368 27.568 17.878 27.6054 17.8369C27.6438 17.7958 27.6986 17.7752 27.7698 17.7752C27.8419 17.7752 27.8967 17.7958 27.9341 17.8369C27.9715 17.877 27.9902 17.9355 27.9902 18.0122V18.0464C27.9902 18.0984 27.9816 18.1404 27.9642 18.1724C27.9469 18.2034 27.9199 18.2258 27.8834 18.2395V18.2422C27.9227 18.2568 27.951 18.2806 27.9683 18.3134C27.9857 18.3463 27.9944 18.3883 27.9944 18.4394V18.5243C27.9944 18.601 27.9752 18.6599 27.9368 18.701C27.8994 18.7411 27.8437 18.7612 27.7698 18.7612ZM28.3564 18.5736H28.0688V18.4367L28.3427 17.7889H28.507V18.4367H28.5783V18.5736H28.507V18.7475H28.3564V18.5736ZM28.3564 18.4367V18.0628H28.3537L28.2058 18.4367H28.3564Z" fill="#455A64"/>
<path d="M32.0122 18.2573L31.8465 17.7889H32.0053L32.1066 18.0984H32.1094L32.2135 17.7889H32.3559L32.1902 18.2573L32.3641 18.7475H32.2052L32.0957 18.4134H32.0929L31.9807 18.7475H31.8382L32.0122 18.2573ZM32.5685 18.2573L32.4028 17.7889H32.5616L32.663 18.0984H32.6657L32.7698 17.7889H32.9122L32.7465 18.2573L32.9204 18.7475H32.7616L32.652 18.4134H32.6493L32.537 18.7475H32.3946L32.5685 18.2573ZM33.1248 18.2573L32.9591 17.7889H33.1179L33.2193 18.0984H33.222L33.3261 17.7889H33.4685L33.3028 18.2573L33.4767 18.7475H33.3179L33.2083 18.4134H33.2056L33.0933 18.7475H32.9509L33.1248 18.2573Z" fill="#455A64"/>
<path d="M22.9355 21.9407C22.985 21.9445 23.0125 21.945 23.0123 21.9477C23.012 21.9451 23.0375 21.9446 23.0837 21.9411L22.9355 21.9407Z" fill="#455A64"/>
<path d="M35.2896 30.3507C35.2895 30.3481 35.3222 30.3506 35.3838 30.3384C35.4442 30.326 35.537 30.2962 35.6257 30.2144C35.7147 30.1349 35.7912 29.9946 35.7787 29.819C35.7778 29.6434 35.7768 29.4414 35.7756 29.2141C35.774 28.7584 35.7722 28.2018 35.7701 27.5558C35.7696 27.3942 35.7693 27.2269 35.7688 27.0543C35.7792 26.8861 35.6895 26.713 35.5314 26.6245C35.375 26.5281 35.171 26.5703 34.9738 26.5612C34.7749 26.5616 34.571 26.562 34.362 26.5623C31.0167 26.5648 26.3984 26.5681 21.2976 26.5717C21.148 26.5712 21.0019 26.6446 20.9168 26.7633C20.8729 26.8215 20.8465 26.891 20.8359 26.9618C20.8269 27.0308 20.8323 27.1119 20.8307 27.1874C20.8307 27.494 20.8306 27.7986 20.8306 28.101C20.8309 28.7053 20.831 29.3006 20.8312 29.8857C20.8359 30.0231 20.9101 30.1543 21.0239 30.2331C21.0802 30.2733 21.1457 30.3005 21.2142 30.3119C21.2809 30.3235 21.3561 30.3182 21.4299 30.3195C21.7252 30.3196 22.0176 30.3198 22.3069 30.32C22.8855 30.3203 23.452 30.3207 24.0046 30.3211C26.2149 30.3236 28.2056 30.326 29.8781 30.3279C31.5487 30.3322 32.9009 30.3358 33.8378 30.3381C34.3038 30.3408 34.6661 30.3427 34.9144 30.3441C35.036 30.3455 35.1293 30.3465 35.1944 30.3473C35.2573 30.3485 35.2896 30.3507 35.2896 30.3507C35.2896 30.3507 35.2573 30.3529 35.1943 30.354C35.1292 30.3548 35.036 30.3558 34.9143 30.3572C34.6661 30.3587 34.3038 30.3607 33.8377 30.3633C32.9007 30.3658 31.5486 30.3692 29.878 30.3735C28.2056 30.3755 26.2149 30.3778 24.0045 30.3804C23.4518 30.3807 22.8853 30.381 22.3068 30.3815C22.0174 30.3816 21.7251 30.3818 21.4298 30.3819C21.3565 30.3804 21.2826 30.3867 21.2028 30.3735C21.1249 30.3606 21.0502 30.3296 20.9862 30.284C20.8567 30.1945 20.7721 30.045 20.7665 29.8886C20.766 29.3026 20.7654 28.7062 20.7648 28.101C20.7648 27.7987 20.7647 27.494 20.7647 27.1874C20.7665 27.1098 20.7602 27.0366 20.7704 26.9529C20.7824 26.8719 20.8129 26.7926 20.8628 26.7261C20.9596 26.5908 21.127 26.5067 21.2974 26.5074C26.3982 26.511 31.0165 26.5143 34.3619 26.5168C34.5709 26.5172 34.7748 26.5175 34.9737 26.5179C35.0731 26.5181 35.1712 26.5182 35.268 26.5184C35.367 26.5154 35.4689 26.54 35.5527 26.5891C35.7242 26.685 35.8204 26.877 35.8084 27.0542C35.8079 27.2269 35.8074 27.394 35.807 27.5557C35.8048 28.2017 35.8029 28.7583 35.8014 29.214C35.8003 29.4413 35.7993 29.6434 35.7984 29.8189C35.8093 29.998 35.7277 30.1445 35.6349 30.2237C35.5422 30.3061 35.4467 30.3343 35.3852 30.3447C35.3223 30.355 35.2896 30.3507 35.2896 30.3507Z" fill="#455A64"/>
<path d="M24.2695 27.8434L22.0525 27.7926L22.0002 29.9506L24.2172 30.0015L24.2695 27.8434Z" fill="white" stroke="#455A64" stroke-width="0.2" stroke-miterlimit="10"/>
<path d="M24.9725 29.1651L24.0624 28.2793L24.9725 27.3934C24.9899 27.3763 24.9997 27.3531 24.9997 27.3289C24.9997 27.3048 24.9899 27.2816 24.9725 27.2644L24.5426 26.8459C24.5339 26.8374 24.5236 26.8307 24.5122 26.8261C24.5008 26.8215 24.4886 26.8191 24.4763 26.8191C24.464 26.8191 24.4518 26.8215 24.4404 26.8261C24.4291 26.8307 24.4187 26.8374 24.41 26.8459L23.5 27.7318L22.59 26.8459C22.5724 26.8288 22.5485 26.8192 22.5237 26.8192C22.4988 26.8192 22.475 26.8288 22.4574 26.8459L22.0275 27.2644C22.0188 27.2729 22.0119 27.2829 22.0072 27.294C22.0024 27.3051 22 27.3169 22 27.3289C22 27.3409 22.0024 27.3528 22.0072 27.3638C22.0119 27.3749 22.0188 27.385 22.0275 27.3934L22.9376 28.2793L22.0275 29.1651C22.01 29.1822 22.0001 29.2054 22.0001 29.2296C22.0001 29.2538 22.01 29.277 22.0275 29.2942L22.4574 29.7126C22.4661 29.7211 22.4764 29.7279 22.4878 29.7324C22.4992 29.737 22.5114 29.7394 22.5237 29.7394C22.536 29.7394 22.5482 29.737 22.5596 29.7324C22.5709 29.7279 22.5813 29.7211 22.59 29.7126L23.5 28.8268L24.41 29.7126C24.4276 29.7297 24.4515 29.7393 24.4763 29.7393C24.5012 29.7393 24.525 29.7297 24.5426 29.7126L24.9725 29.2942C24.9812 29.2857 24.9881 29.2756 24.9928 29.2646C24.9976 29.2535 25 29.2416 25 29.2296C25 29.2177 24.9976 29.2058 24.9928 29.1947C24.9881 29.1836 24.9812 29.1736 24.9725 29.1651Z" fill="#D32F2F"/>
<path d="M28.7272 27.5302H25.0369V27.7997H28.7272V27.5302Z" fill="#455A64"/>
<path d="M31.5027 29.0528H25.0369V29.3223H31.5027V29.0528Z" fill="#455A64"/>
<path d="M34.4071 28.273H25.0369V28.5425H34.4071V28.273Z" fill="#455A64"/>
<path d="M35.3694 25.5049L21.2722 25.4657C21.0254 25.465 20.826 25.2698 20.8267 25.0295L20.8353 22.0882C20.836 21.8481 21.0365 21.6538 21.2834 21.6545L35.3805 21.6938C35.6272 21.6944 35.8268 21.8897 35.8261 22.1299L35.8175 25.0712C35.8168 25.3114 35.6162 25.5056 35.3694 25.5049Z" fill="#1565C0"/>
<path d="M28.7626 22.6673L25.0722 22.6568L25.0714 22.9263L28.7618 22.9367L28.7626 22.6673Z" fill="#FAFAFA"/>
<path d="M31.5335 24.1977L25.0677 24.1795L25.0669 24.4489L31.5327 24.4672L31.5335 24.1977Z" fill="#FAFAFA"/>
<path d="M34.4403 23.4261L25.0701 23.3996L25.0693 23.6691L34.4395 23.6956L34.4403 23.4261Z" fill="#FAFAFA"/>
<path d="M24.2692 22.7139L22.0522 22.6631L22 24.8211L24.217 24.872L24.2692 22.7139Z" fill="white" stroke="#455A64" stroke-width="0.2" stroke-miterlimit="10"/>
<path d="M22.0039 23.5358C22.0821 23.8522 22.2265 25.1773 22.855 24.8068C22.9999 24.7225 23.1225 24.4955 23.231 24.3654L23.8161 23.6648L24.9847 22.2629C25.0847 22.1433 24.6437 21.8429 24.5185 21.9932L23.4797 23.2392L22.9603 23.8623C22.8401 24.0064 22.5614 24.4711 22.384 24.5124L22.6747 24.6115C22.7433 24.6708 22.6159 24.25 22.613 24.2385C22.5649 24.0431 22.5166 23.8477 22.468 23.6522C22.4281 23.4909 21.946 23.2968 22.005 23.5358H22.0039Z" fill="#16A75C"/>
<path d="M18.1906 42.0491C18.1906 42.0491 18.7824 40.7579 18.1063 39.4851C17.4302 38.2123 17.2341 37.9124 17.6652 37.6517C18.0962 37.3909 18.2939 38.6699 18.2939 38.6699C18.2939 38.6699 18.6572 37.79 18.3572 36.8692C18.0572 35.9483 17.8691 34.4485 18.2787 34.2877C18.6884 34.1268 18.3569 36.1587 18.7124 36.8513C18.7124 36.8513 19.011 36.0802 19.0601 35.3406C19.1091 34.601 19.0324 33.42 19.3559 33.117C19.6795 32.814 19.8868 33.0237 19.5688 34.6559C19.2509 36.2882 19.2533 37.6149 19.2533 37.6149C19.2533 37.6149 19.9555 35.4739 20.4268 35.4114C20.8981 35.349 20.8975 36.0422 20.4941 36.6437C20.0907 37.2451 19.3127 38.3225 19.1851 38.8769C19.1851 38.8769 19.9559 37.2656 20.6493 37.7594C21.3427 38.2533 20.0459 39.2265 19.4678 39.5782C18.8898 39.9299 18.4884 42.1343 18.4884 42.1343L18.1906 42.0491Z" fill="#1976D2"/>
<path opacity="0.2" d="M18.1906 42.0491C18.1906 42.0491 18.7824 40.7579 18.1063 39.4851C17.4302 38.2123 17.2341 37.9124 17.6652 37.6517C18.0962 37.3909 18.2939 38.6699 18.2939 38.6699C18.2939 38.6699 18.6572 37.79 18.3572 36.8692C18.0572 35.9483 17.8691 34.4485 18.2787 34.2877C18.6884 34.1268 18.3569 36.1587 18.7124 36.8513C18.7124 36.8513 19.011 36.0802 19.0601 35.3406C19.1091 34.601 19.0324 33.42 19.3559 33.117C19.6795 32.814 19.8868 33.0237 19.5688 34.6559C19.2509 36.2882 19.2533 37.6149 19.2533 37.6149C19.2533 37.6149 19.9555 35.4739 20.4268 35.4114C20.8981 35.349 20.8975 36.0422 20.4941 36.6437C20.0907 37.2451 19.3127 38.3225 19.1851 38.8769C19.1851 38.8769 19.9559 37.2656 20.6493 37.7594C21.3427 38.2533 20.0459 39.2265 19.4678 39.5782C18.8898 39.9299 18.4884 42.1343 18.4884 42.1343L18.1906 42.0491Z" fill="black"/>
<path d="M18.6576 42.5787C18.6576 42.5787 18.0815 41.2788 18.7727 40.0162C19.4642 38.7536 19.6636 38.4567 19.2358 38.1895C18.808 37.9223 18.5948 39.1982 18.5948 39.1982C18.5948 39.1982 18.2422 38.313 18.5531 37.3967C18.8642 36.4804 19.0702 34.9834 18.6625 34.8165C18.2547 34.6496 18.5618 36.6862 18.1981 37.3735C18.1981 37.3735 17.9088 36.5981 17.8685 35.8577C17.8283 35.1175 17.9192 33.9377 17.5993 33.6299C17.2794 33.3222 17.0697 33.5286 17.3681 35.1655C17.6665 36.8023 17.6482 38.1289 17.6482 38.1289C17.6482 38.1289 16.9717 35.9776 16.5012 35.9081C16.0306 35.8386 16.0229 36.532 16.4191 37.1393C16.8152 37.7466 17.5803 38.8356 17.7011 39.3918C17.7011 39.3918 16.9498 37.7692 16.2505 38.2527C15.5512 38.7361 16.8364 39.7285 17.4101 40.0888C17.9839 40.4491 18.3588 42.6593 18.3588 42.6593L18.6576 42.5787Z" fill="#1976D2"/>
<path d="M16 41.652H20.7603L20.375 45.0585H16.3852L16 41.652Z" fill="#263238"/>
</svg>
