<svg width="56" height="56" viewBox="0 0 56 56" fill="none" xmlns="http://www.w3.org/2000/svg">
<rect width="56" height="56" rx="28" fill="#FAFAFA"/>
<ellipse cx="28.7454" cy="43.9358" rx="13.52" ry="1.69" fill="#D9D9D9"/>
<path d="M38.24 12.6168H21.0214C20.2198 12.6168 19.5699 13.2666 19.5699 14.0682V38.767C19.5699 39.5686 20.2198 40.2184 21.0214 40.2184H38.24C39.0416 40.2184 39.6914 39.5686 39.6914 38.767V14.0682C39.6914 13.2666 39.0416 12.6168 38.24 12.6168Z" fill="#1565C0"/>
<path d="M37.95 13.7292H21.3885V37.7867H37.95V13.7292Z" fill="#F6F5F5"/>
<path d="M37.95 13.7293C37.9551 23.1103 38.258 34.4245 37.2042 36.9299C32.5629 37.3822 27.1281 37.5273 21.3883 37.5548L23.5701 13.8018L37.95 13.7293Z" fill="#E4E4E4"/>
<path d="M36.4625 36.1714C29.2281 37.3293 24.3935 37.3904 20.4714 37.0992C20.9792 31.6897 21.1835 22.7028 21.3893 13.7303L30.1069 13.7498L37.9967 14.2707C38.1105 23.5829 38.1232 32.1849 36.4625 36.1714Z" fill="white"/>
<path d="M23.0921 16.5353L23.4692 16.5419C23.5503 16.5433 23.6191 16.5568 23.6758 16.5822C23.7325 16.6076 23.7756 16.6445 23.805 16.6928C23.835 16.7407 23.8493 16.7996 23.8481 16.8694C23.8472 16.9226 23.8366 16.9693 23.8163 17.0095C23.7961 17.0497 23.7679 17.0834 23.7318 17.1106C23.6957 17.1373 23.6528 17.1578 23.6033 17.172L23.5471 17.1982L23.2081 17.1923L23.2092 17.0465L23.4633 17.0509C23.5072 17.0517 23.544 17.0445 23.5735 17.0294C23.6031 17.0143 23.6254 16.9935 23.6405 16.9669C23.6562 16.9398 23.6643 16.9092 23.6649 16.875C23.6655 16.8379 23.6587 16.8055 23.6446 16.7779C23.6309 16.7499 23.6093 16.7282 23.5798 16.7131C23.5503 16.6974 23.5126 16.6892 23.4667 16.6884L23.2733 16.685L23.2573 17.6048L23.0735 17.6016L23.0921 16.5353ZM23.682 17.6122L23.4399 17.1289L23.6325 17.1315L23.8785 17.6061L23.8783 17.6156L23.682 17.6122ZM24.2033 16.8287L24.1895 17.6211L24.0123 17.618L24.0261 16.8256L24.2033 16.8287ZM24.018 16.6174C24.0185 16.5906 24.0277 16.5685 24.0456 16.5513C24.0639 16.5335 24.089 16.5249 24.1207 16.5255C24.152 16.526 24.1765 16.5355 24.1942 16.5538C24.212 16.5717 24.2206 16.5941 24.2202 16.621C24.2197 16.6473 24.2103 16.6691 24.1919 16.6864C24.1735 16.7037 24.1487 16.712 24.1175 16.7115C24.0858 16.7109 24.061 16.7017 24.0433 16.6838C24.026 16.6659 24.0176 16.6438 24.018 16.6174ZM24.6012 17.4524L24.7951 16.839L24.9078 16.841L24.8739 17.025L24.6787 17.6296L24.5776 17.6278L24.6012 17.4524ZM24.5043 16.834L24.6363 17.456L24.645 17.629L24.5322 17.627L24.3315 16.8309L24.5043 16.834ZM25.0685 17.4562L25.2176 16.8464L25.3897 16.8494L25.162 17.638L25.0493 17.6361L25.0685 17.4562ZM24.9269 16.8413L25.0971 17.4538L25.1166 17.6372L25.0156 17.6355L24.8394 17.0237L24.8119 16.8393L24.9269 16.8413ZM25.9454 17.4928L25.952 17.1149C25.9525 17.0866 25.9478 17.0621 25.9379 17.0414C25.928 17.0207 25.9127 17.0046 25.8919 16.993C25.8716 16.9814 25.8458 16.9753 25.8146 16.9748C25.7858 16.9743 25.7608 16.9787 25.7396 16.9881C25.7185 16.9975 25.7019 17.0104 25.6899 17.0268C25.6779 17.0432 25.6717 17.0619 25.6713 17.0829L25.4955 17.0798C25.4961 17.0486 25.5042 17.0184 25.5198 16.9894C25.5355 16.9604 25.5579 16.9346 25.5871 16.9122C25.6163 16.8898 25.6511 16.8723 25.6913 16.8598C25.7316 16.8473 25.7766 16.8415 25.8264 16.8424C25.886 16.8434 25.9385 16.8544 25.9841 16.8752C26.0301 16.896 26.0659 16.9269 26.0916 16.9679C26.1177 17.0084 26.1303 17.0589 26.1292 17.1194L26.1231 17.4717C26.1225 17.5078 26.1243 17.5403 26.1287 17.5692C26.1336 17.5976 26.1407 17.6224 26.1501 17.6436L26.1499 17.6553L25.969 17.6521C25.9611 17.6329 25.9549 17.6087 25.9505 17.5793C25.9467 17.5494 25.945 17.5206 25.9454 17.4928ZM25.9767 17.1703L25.9763 17.2794L25.8496 17.2772C25.8169 17.2766 25.788 17.2793 25.763 17.2852C25.738 17.2906 25.7171 17.299 25.7003 17.3105C25.6835 17.3219 25.6708 17.3358 25.6622 17.3523C25.6536 17.3687 25.6491 17.3875 25.6488 17.4085C25.6484 17.4295 25.653 17.4488 25.6624 17.4666C25.6719 17.4838 25.6858 17.4975 25.7042 17.5076C25.723 17.5177 25.7459 17.523 25.7728 17.5234C25.8089 17.5241 25.8405 17.5173 25.8676 17.5031C25.8952 17.4885 25.917 17.4705 25.933 17.4493C25.949 17.4276 25.9577 17.407 25.959 17.3875L26.0148 17.4669C26.0085 17.4868 25.9982 17.5081 25.9836 17.5308C25.969 17.5535 25.9501 17.5751 25.9268 17.5957C25.904 17.6158 25.8766 17.6322 25.8446 17.6448C25.8132 17.6575 25.7769 17.6634 25.7359 17.6627C25.6842 17.6618 25.6382 17.6507 25.598 17.6295C25.5579 17.6078 25.5266 17.5792 25.5043 17.5437C25.482 17.5076 25.4712 17.4671 25.472 17.4222C25.4727 17.3802 25.4812 17.3433 25.4974 17.3113C25.5141 17.2789 25.538 17.252 25.5691 17.2305C25.6007 17.2091 25.6391 17.1932 25.6842 17.1827C25.7293 17.1718 25.7807 17.1668 25.8383 17.1678L25.9767 17.1703ZM26.5242 17.5754L26.7518 16.8732L26.9407 16.8765L26.607 17.7841C26.5993 17.8035 26.5894 17.8246 26.5773 17.8473C26.5652 17.8701 26.5494 17.8915 26.53 17.9117C26.5111 17.9324 26.4876 17.9488 26.4596 17.961C26.4315 17.9737 26.3977 17.9797 26.3582 17.979C26.3425 17.9788 26.3274 17.977 26.3128 17.9739C26.2987 17.9712 26.2853 17.9682 26.2727 17.9651L26.2743 17.8303C26.2792 17.8309 26.285 17.8315 26.2919 17.8321C26.2992 17.8327 26.305 17.8331 26.3094 17.8331C26.3387 17.8337 26.3632 17.8304 26.3829 17.8234C26.4025 17.8169 26.4186 17.806 26.431 17.7906C26.444 17.7752 26.4551 17.7544 26.4644 17.7282L26.5242 17.5754ZM26.4149 16.8673L26.5928 17.4638L26.621 17.6503L26.4982 17.6797L26.2245 16.864L26.4149 16.8673ZM27.4657 17.5193L27.4723 17.1414C27.4728 17.1131 27.4681 17.0886 27.4582 17.0679C27.4483 17.0472 27.433 17.0311 27.4122 17.0195C27.3919 17.0079 27.3661 17.0019 27.3348 17.0013C27.306 17.0008 27.2811 17.0052 27.2599 17.0146C27.2387 17.024 27.2221 17.0369 27.2101 17.0533C27.1981 17.0697 27.1919 17.0884 27.1916 17.1094L27.0158 17.1063C27.0164 17.0751 27.0245 17.045 27.0401 17.0159C27.0558 16.9869 27.0782 16.9612 27.1074 16.9387C27.1366 16.9163 27.1713 16.8988 27.2116 16.8863C27.2519 16.8739 27.2969 16.8681 27.3467 16.8689C27.4062 16.87 27.4588 16.8809 27.5043 16.9017C27.5504 16.9225 27.5862 16.9534 27.6119 16.9944C27.638 17.0349 27.6506 17.0854 27.6495 17.146L27.6434 17.4982C27.6427 17.5343 27.6446 17.5669 27.649 17.5957C27.6539 17.6242 27.661 17.6489 27.6704 17.6701L27.6702 17.6818L27.4893 17.6787C27.4813 17.6595 27.4752 17.6352 27.4708 17.6058C27.4669 17.576 27.4652 17.5471 27.4657 17.5193ZM27.497 17.1968L27.4965 17.3059L27.3699 17.3037C27.3371 17.3031 27.3083 17.3058 27.2833 17.3117C27.2583 17.3172 27.2374 17.3256 27.2206 17.337C27.2038 17.3484 27.1911 17.3624 27.1825 17.3788C27.1739 17.3953 27.1694 17.414 27.169 17.435C27.1687 17.456 27.1732 17.4754 27.1827 17.4931C27.1922 17.5104 27.2061 17.524 27.2245 17.5341C27.2433 17.5442 27.2662 17.5495 27.293 17.55C27.3292 17.5506 27.3608 17.5438 27.3879 17.5297C27.4155 17.515 27.4373 17.4971 27.4533 17.4759C27.4693 17.4542 27.478 17.4336 27.4793 17.414L27.535 17.4934C27.5288 17.5133 27.5184 17.5346 27.5039 17.5573C27.4893 17.58 27.4704 17.6017 27.4471 17.6223C27.4243 17.6424 27.3969 17.6587 27.3649 17.6714C27.3334 17.684 27.2972 17.69 27.2562 17.6892C27.2044 17.6883 27.1585 17.6773 27.1183 17.6561C27.0782 17.6344 27.0469 17.6057 27.0246 17.5702C27.0023 17.5342 26.9915 17.4937 26.9923 17.4488C26.993 17.4068 27.0015 17.3698 27.0176 17.3379C27.0343 17.3054 27.0582 17.2785 27.0894 17.2571C27.121 17.2356 27.1594 17.2197 27.2045 17.2093C27.2496 17.1983 27.301 17.1934 27.3586 17.1944L27.497 17.1968ZM28.2018 16.8985L28.1995 17.0274L27.7528 17.0196L27.7551 16.8907L28.2018 16.8985ZM27.8873 16.6989L28.0638 16.702L28.0504 17.4694C28.05 17.4938 28.0531 17.5127 28.0597 17.526C28.0668 17.5388 28.0766 17.5475 28.0893 17.5522C28.1019 17.5568 28.1167 17.5592 28.1338 17.5595C28.146 17.5597 28.1578 17.5592 28.169 17.5579C28.1803 17.5567 28.1893 17.5554 28.1962 17.554L28.1946 17.6888C28.1798 17.6929 28.1627 17.6965 28.1431 17.6996C28.124 17.7027 28.102 17.704 28.0771 17.7036C28.0366 17.7029 28.0008 17.6952 27.9698 17.6805C27.9388 17.6653 27.9148 17.6412 27.8978 17.6081C27.8808 17.5751 27.8728 17.5315 27.8737 17.4773L27.8873 16.6989ZM29.1271 17.3095L28.8496 17.3046L28.8521 17.1589L29.1296 17.1638C29.178 17.1646 29.2172 17.1575 29.2472 17.1424C29.2773 17.1273 29.2994 17.1062 29.3135 17.0791C29.3282 17.0515 29.3358 17.0199 29.3364 16.9842C29.337 16.9505 29.3305 16.9189 29.3168 16.8894C29.3037 16.8594 29.2824 16.8351 29.2529 16.8165C29.2234 16.7979 29.1846 16.7882 29.1362 16.7873L28.9151 16.7835L28.899 17.7033L28.7152 17.7001L28.7338 16.6338L29.1388 16.6409C29.2213 16.6423 29.2911 16.6582 29.3482 16.6885C29.4058 16.7183 29.4493 16.7591 29.4786 16.8109C29.508 16.8622 29.5221 16.9206 29.521 16.986C29.5198 17.0548 29.5036 17.1136 29.4725 17.1624C29.4414 17.2112 29.3965 17.2483 29.338 17.2736C29.2799 17.299 29.2096 17.3109 29.1271 17.3095ZM29.9943 17.737C29.9357 17.736 29.8829 17.7256 29.8359 17.7057C29.7893 17.6854 29.7498 17.6576 29.7172 17.6223C29.6851 17.5871 29.6607 17.5459 29.6439 17.4987C29.6271 17.4515 29.6192 17.4009 29.6202 17.3467L29.6207 17.3174C29.6218 17.2554 29.6318 17.1994 29.6507 17.1494C29.6697 17.0994 29.6956 17.0569 29.7284 17.0218C29.7613 16.9863 29.7998 16.9594 29.8441 16.9411C29.8884 16.9228 29.9361 16.9141 29.9874 16.915C30.044 16.916 30.0934 16.9264 30.1356 16.9462C30.1777 16.966 30.2124 16.9934 30.2396 17.0286C30.2673 17.0632 30.2876 17.1044 30.3004 17.152C30.3138 17.1996 30.3199 17.2519 30.3189 17.309L30.3176 17.3845L29.7054 17.3738L29.7076 17.2471L30.1455 17.2547L30.1458 17.2408C30.1454 17.2091 30.1395 17.1792 30.1283 17.1512C30.1176 17.1231 30.1006 17.1004 30.0775 17.0829C30.0544 17.0654 30.0233 17.0563 29.9842 17.0556C29.9549 17.0551 29.9287 17.061 29.9055 17.0733C29.8828 17.0851 29.8637 17.1026 29.8482 17.1258C29.8327 17.1489 29.8204 17.177 29.8116 17.2101C29.8032 17.2427 29.7986 17.2795 29.7979 17.3205L29.7974 17.3498C29.7968 17.3844 29.8009 17.4167 29.8096 17.4467C29.8189 17.4761 29.8326 17.502 29.8508 17.5243C29.8689 17.5466 29.8911 17.5643 29.9172 17.5775C29.9434 17.5901 29.9733 17.5968 30.007 17.5973C30.0495 17.5981 30.0874 17.5902 30.1209 17.5737C30.1544 17.5572 30.1837 17.5335 30.2086 17.5027L30.3 17.5944C30.2825 17.619 30.2599 17.6425 30.2322 17.665C30.2044 17.687 30.1707 17.7047 30.1309 17.7182C30.0916 17.7317 30.046 17.7379 29.9943 17.737ZM30.6352 17.1102L30.6243 17.7334L30.4478 17.7303L30.4617 16.9379L30.6279 16.9408L30.6352 17.1102ZM30.6003 17.3074L30.5432 17.3056C30.5446 17.2495 30.5533 17.1981 30.5693 17.1515C30.5857 17.1049 30.6079 17.065 30.6358 17.0318C30.6643 16.9986 30.6979 16.9733 30.7368 16.9559C30.7757 16.9381 30.8188 16.9295 30.8662 16.9304C30.9042 16.931 30.9386 16.937 30.9691 16.9483C31.0002 16.9591 31.0265 16.9764 31.0481 17.0002C31.0701 17.024 31.0867 17.0548 31.0977 17.0926C31.1088 17.1299 31.1139 17.1757 31.1129 17.2299L31.104 17.7418L30.9268 17.7387L30.9357 17.226C30.9364 17.188 30.9313 17.1578 30.9204 17.1357C30.9101 17.113 30.8945 17.0969 30.8737 17.0872C30.8533 17.0771 30.8278 17.0718 30.797 17.0713C30.7668 17.0707 30.7396 17.0766 30.7154 17.0889C30.6913 17.1012 30.6707 17.1181 30.6537 17.1398C30.6372 17.1615 30.6243 17.1867 30.6151 17.2153C30.6058 17.244 30.6008 17.2747 30.6003 17.3074ZM31.6332 17.7656C31.5746 17.7646 31.5218 17.7542 31.4748 17.7343C31.4283 17.714 31.3887 17.6862 31.3561 17.6509C31.324 17.6157 31.2996 17.5745 31.2828 17.5273C31.2661 17.4801 31.2581 17.4295 31.2591 17.3753L31.2596 17.346C31.2607 17.284 31.2707 17.228 31.2896 17.178C31.3086 17.128 31.3345 17.0855 31.3673 17.0504C31.4002 17.0149 31.4387 16.988 31.483 16.9697C31.5273 16.9514 31.575 16.9427 31.6263 16.9436C31.6829 16.9446 31.7323 16.955 31.7745 16.9748C31.8166 16.9946 31.8513 17.022 31.8785 17.0572C31.9062 17.0918 31.9265 17.133 31.9394 17.1806C31.9527 17.2282 31.9589 17.2805 31.9579 17.3377L31.9565 17.4131L31.3443 17.4024L31.3465 17.2757L31.7845 17.2833L31.7847 17.2694C31.7843 17.2377 31.7785 17.2078 31.7672 17.1798C31.7565 17.1517 31.7395 17.129 31.7164 17.1115C31.6933 17.094 31.6622 17.0849 31.6231 17.0842C31.5938 17.0837 31.5676 17.0896 31.5444 17.1019C31.5218 17.1137 31.5026 17.1312 31.4871 17.1544C31.4716 17.1775 31.4594 17.2056 31.4505 17.2387C31.4421 17.2713 31.4375 17.3081 31.4368 17.3491L31.4363 17.3784C31.4357 17.413 31.4398 17.4453 31.4485 17.4753C31.4578 17.5047 31.4715 17.5306 31.4897 17.5529C31.5078 17.5752 31.53 17.5929 31.5561 17.6061C31.5823 17.6187 31.6122 17.6254 31.6459 17.626C31.6884 17.6267 31.7263 17.6188 31.7598 17.6023C31.7933 17.5858 31.8226 17.5621 31.8475 17.5313L31.939 17.623C31.9214 17.6476 31.8988 17.6711 31.8711 17.6936C31.8433 17.7156 31.8096 17.7333 31.7698 17.7468C31.7305 17.7603 31.6849 17.7665 31.6332 17.7656ZM32.2968 16.6374L32.2772 17.7622L32.0999 17.7591L32.1196 16.6343L32.2968 16.6374ZM32.9505 17.5872L32.961 16.9816L33.1383 16.9847L33.1244 17.777L32.9575 17.7741L32.9505 17.5872ZM32.9783 17.4229L33.0376 17.4224C33.0367 17.4756 33.03 17.5246 33.0174 17.5693C33.005 17.6135 32.9862 17.652 32.9612 17.6848C32.9362 17.7171 32.9046 17.7422 32.8661 17.7601C32.8278 17.7775 32.7819 17.7857 32.7287 17.7848C32.6902 17.7841 32.6549 17.7779 32.6228 17.7661C32.5908 17.7543 32.5633 17.7365 32.5403 17.7126C32.5177 17.6888 32.5004 17.658 32.4884 17.6201C32.4764 17.5823 32.4708 17.5373 32.4717 17.4851L32.4807 16.9732L32.6571 16.9763L32.6482 17.4896C32.6477 17.5184 32.6507 17.5426 32.6572 17.5623C32.6637 17.5815 32.6727 17.597 32.6842 17.6089C32.6957 17.6208 32.7092 17.6294 32.7248 17.6345C32.7403 17.6397 32.7569 17.6424 32.7744 17.6427C32.8247 17.6436 32.8644 17.6345 32.8936 17.6155C32.9232 17.596 32.9444 17.5695 32.9572 17.536C32.9705 17.5026 32.9775 17.4648 32.9783 17.4229ZM33.7536 17.5734C33.7539 17.5558 33.7498 17.5399 33.7412 17.5255C33.7327 17.5107 33.7161 17.4973 33.6914 17.4851C33.6672 17.473 33.6312 17.4616 33.5836 17.451C33.5417 17.441 33.5034 17.4293 33.4684 17.416C33.434 17.4022 33.4045 17.3859 33.3799 17.3669C33.3553 17.3479 33.3364 17.3256 33.3232 17.3C33.31 17.2743 33.3037 17.2449 33.3043 17.2117C33.3048 17.1795 33.3124 17.1491 33.3271 17.1206C33.3417 17.092 33.3625 17.067 33.3892 17.0455C33.4159 17.0239 33.4482 17.0072 33.486 16.9951C33.5243 16.9831 33.5669 16.9775 33.6138 16.9783C33.6802 16.9795 33.7369 16.9917 33.7838 17.015C33.8313 17.0378 33.8674 17.0684 33.8921 17.107C33.9168 17.145 33.9288 17.1877 33.928 17.2351L33.7515 17.232C33.7518 17.211 33.7468 17.1914 33.7364 17.1731C33.7265 17.1544 33.7111 17.1392 33.6903 17.1276C33.6695 17.1155 33.6433 17.1092 33.6115 17.1087C33.5812 17.1081 33.556 17.1126 33.5358 17.122C33.5161 17.1309 33.5013 17.1429 33.4913 17.1578C33.4817 17.1728 33.4768 17.1893 33.4765 17.2074C33.4762 17.2206 33.4785 17.2326 33.4832 17.2434C33.4884 17.2538 33.497 17.2634 33.509 17.2724C33.5211 17.2809 33.5376 17.289 33.5584 17.2967C33.5798 17.3044 33.6065 17.312 33.6386 17.3194C33.6989 17.3331 33.7506 17.3504 33.7937 17.3712C33.8373 17.3915 33.8706 17.4174 33.8935 17.4491C33.9164 17.4803 33.9274 17.5195 33.9266 17.5669C33.926 17.602 33.9178 17.6341 33.9022 17.6631C33.887 17.6917 33.8651 17.7165 33.8364 17.7374C33.8077 17.7579 33.7735 17.7737 33.7338 17.7847C33.6945 17.7958 33.6505 17.8009 33.6016 17.8C33.5299 17.7988 33.4693 17.785 33.42 17.7587C33.3706 17.732 33.3334 17.6984 33.3082 17.6579C33.2835 17.6169 33.2715 17.5747 33.2723 17.5313L33.4429 17.5343C33.4443 17.567 33.4529 17.5933 33.4687 17.6131C33.4849 17.6324 33.5052 17.6467 33.5294 17.6559C33.5542 17.6646 33.5798 17.6692 33.6061 17.6697C33.6379 17.6702 33.6645 17.6666 33.6862 17.6586C33.7078 17.6502 33.7244 17.6388 33.7358 17.6243C33.7473 17.6094 33.7532 17.5924 33.7536 17.5734ZM34.5572 17.6152L34.5677 17.0096L34.745 17.0127L34.7311 17.8051L34.5642 17.8022L34.5572 17.6152ZM34.5849 17.4509L34.6443 17.4505C34.6434 17.5037 34.6366 17.5527 34.6241 17.5974C34.6116 17.6416 34.5929 17.6801 34.5679 17.7129C34.5429 17.7451 34.5112 17.7702 34.4728 17.7881C34.4344 17.8055 34.3886 17.8137 34.3354 17.8128C34.2969 17.8121 34.2616 17.8059 34.2295 17.7941C34.1975 17.7823 34.17 17.7645 34.147 17.7407C34.1244 17.7168 34.1071 17.686 34.0951 17.6482C34.0831 17.6104 34.0775 17.5654 34.0784 17.5131L34.0873 17.0012L34.2638 17.0043L34.2549 17.5177C34.2544 17.5465 34.2574 17.5707 34.2639 17.5903C34.2704 17.6095 34.2794 17.625 34.2909 17.637C34.3024 17.6489 34.3159 17.6574 34.3315 17.6626C34.347 17.6677 34.3635 17.6705 34.3811 17.6708C34.4314 17.6716 34.4711 17.6626 34.5003 17.6435C34.5299 17.624 34.5511 17.5976 34.5639 17.5641C34.5772 17.5306 34.5842 17.4929 34.5849 17.4509ZM35.1004 17.1698L35.0892 17.8113L34.9127 17.8082L34.9266 17.0159L35.095 17.0188L35.1004 17.1698ZM35.3455 17.0181L35.3412 17.1821C35.3305 17.1799 35.3188 17.1783 35.3061 17.1771C35.2939 17.1759 35.2818 17.1752 35.2695 17.175C35.2393 17.1744 35.2126 17.1784 35.1895 17.1868C35.1664 17.1947 35.1469 17.2065 35.131 17.2224C35.1156 17.2377 35.1035 17.2566 35.0949 17.2789C35.0862 17.3012 35.0808 17.3262 35.0789 17.354L35.0386 17.3563C35.0394 17.3065 35.0451 17.2604 35.0556 17.2181C35.0661 17.1758 35.0814 17.1387 35.1015 17.1068C35.1221 17.075 35.1474 17.0503 35.1775 17.0327C35.2081 17.0152 35.2432 17.0068 35.2827 17.0074C35.2935 17.0076 35.3049 17.0088 35.3171 17.011C35.3298 17.0132 35.3392 17.0155 35.3455 17.0181ZM35.8653 17.6659L35.8719 17.288C35.8724 17.2597 35.8677 17.2352 35.8578 17.2145C35.8479 17.1939 35.8326 17.1777 35.8118 17.1661C35.7915 17.1545 35.7657 17.1485 35.7344 17.1479C35.7056 17.1474 35.6807 17.1519 35.6595 17.1613C35.6383 17.1707 35.6217 17.1836 35.6097 17.2C35.5977 17.2163 35.5915 17.235 35.5912 17.256L35.4154 17.253C35.416 17.2217 35.4241 17.1916 35.4397 17.1626C35.4554 17.1335 35.4778 17.1078 35.507 17.0853C35.5362 17.0629 35.5709 17.0454 35.6112 17.033C35.6515 17.0205 35.6965 17.0147 35.7463 17.0155C35.8058 17.0166 35.8584 17.0275 35.9039 17.0483C35.95 17.0691 35.9858 17.1001 36.0115 17.141C36.0376 17.1815 36.0502 17.2321 36.0491 17.2926L36.043 17.6448C36.0423 17.681 36.0442 17.7135 36.0486 17.7424C36.0535 17.7708 36.0606 17.7956 36.07 17.8167L36.0698 17.8284L35.8889 17.8253C35.8809 17.8061 35.8748 17.7818 35.8704 17.7524C35.8665 17.7226 35.8648 17.6937 35.8653 17.6659ZM35.8966 17.3434L35.8961 17.4525L35.7695 17.4503C35.7367 17.4498 35.7079 17.4524 35.6829 17.4583C35.6579 17.4638 35.637 17.4722 35.6202 17.4836C35.6034 17.4951 35.5907 17.509 35.5821 17.5254C35.5735 17.5419 35.569 17.5606 35.5686 17.5816C35.5683 17.6026 35.5728 17.622 35.5823 17.6397C35.5918 17.657 35.6057 17.6707 35.6241 17.6807C35.6429 17.6908 35.6658 17.6961 35.6926 17.6966C35.7288 17.6972 35.7604 17.6904 35.7875 17.6763C35.8151 17.6616 35.8369 17.6437 35.8529 17.6225C35.8689 17.6008 35.8776 17.5802 35.8789 17.5607L35.9346 17.64C35.9284 17.6599 35.918 17.6812 35.9035 17.7039C35.8889 17.7266 35.87 17.7483 35.8467 17.7689C35.8239 17.789 35.7965 17.8054 35.7645 17.818C35.733 17.8306 35.6968 17.8366 35.6558 17.8359C35.604 17.835 35.5581 17.8239 35.5179 17.8027C35.4778 17.781 35.4465 17.7524 35.4242 17.7168C35.4019 17.6808 35.3911 17.6403 35.3919 17.5954C35.3926 17.5534 35.4011 17.5164 35.4172 17.4845C35.4339 17.452 35.4578 17.4251 35.489 17.4037C35.5206 17.3823 35.559 17.3663 35.6041 17.3559C35.6492 17.3449 35.7006 17.34 35.7582 17.341L35.8966 17.3434ZM36.4102 17.211L36.3993 17.8342L36.2228 17.8311L36.2367 17.0387L36.4029 17.0417L36.4102 17.211ZM36.3753 17.4082L36.3182 17.4064C36.3196 17.3503 36.3283 17.2989 36.3443 17.2523C36.3607 17.2057 36.3829 17.1658 36.4108 17.1326C36.4393 17.0994 36.4729 17.0741 36.5118 17.0567C36.5507 17.0389 36.5938 17.0303 36.6412 17.0312C36.6792 17.0318 36.7136 17.0378 36.7441 17.0491C36.7752 17.0599 36.8015 17.0772 36.8231 17.101C36.8451 17.1248 36.8617 17.1556 36.8727 17.1934C36.8838 17.2307 36.8889 17.2765 36.8879 17.3307L36.879 17.8426L36.7018 17.8395L36.7107 17.3269C36.7114 17.2888 36.7063 17.2586 36.6954 17.2365C36.6851 17.2138 36.6695 17.1977 36.6487 17.1881C36.6283 17.1779 36.6028 17.1726 36.572 17.1721C36.5418 17.1715 36.5146 17.1774 36.4904 17.1897C36.4663 17.202 36.4457 17.2189 36.4287 17.2406C36.4122 17.2623 36.3993 17.2875 36.3901 17.3161C36.3808 17.3448 36.3758 17.3755 36.3753 17.4082Z" fill="#0D47A1"/>
<path d="M35.5854 19.4017L27.7269 19.2165L27.7126 19.8239L35.571 20.0091L35.5854 19.4017Z" fill="#1976D2"/>
<path d="M33.0371 20.6668L27.6956 20.5409L27.6813 21.1483L33.0228 21.2742L33.0371 20.6668Z" fill="#D3DFFF"/>
<path d="M25.2506 19.1939L23.3902 19.15L23.3464 21.0104L25.2068 21.0543L25.2506 19.1939Z" fill="white" stroke="#1976D2" stroke-width="0.134751" stroke-miterlimit="10"/>
<path d="M23.6937 19.6384C23.7511 19.8583 23.8571 20.7795 24.3186 20.5219C24.4251 20.4633 24.5151 20.3055 24.5948 20.2151L25.0244 19.7281L25.8825 18.7536C25.9559 18.6704 25.6322 18.4616 25.5402 18.5661L24.7774 19.4322L24.396 19.8654C24.3077 19.9655 24.103 20.2885 23.9728 20.3173L24.1862 20.3862C24.2366 20.4274 24.1431 20.1349 24.1409 20.1268C24.1056 19.9911 24.0701 19.8552 24.0345 19.7193C24.0052 19.6072 23.6511 19.4722 23.6945 19.6384H23.6937Z" fill="#16A75C"/>
<path d="M34.1185 22.7512L27.6472 22.5987L27.6329 23.2061L34.1042 23.3586L34.1185 22.7512Z" fill="#1976D2"/>
<path d="M35.554 23.9565L27.6933 23.7993L27.6811 24.4069L35.5418 24.5641L35.554 23.9565Z" fill="#D3DFFF"/>
<path d="M25.171 22.5762L23.3105 22.5324L23.2667 24.3928L25.1271 24.4366L25.171 22.5762Z" fill="white" stroke="#1976D2" stroke-width="0.134751" stroke-miterlimit="10"/>
<path d="M23.6131 23.0732C23.6705 23.2931 23.7765 24.2143 24.238 23.9567C24.3444 23.8982 24.4345 23.7404 24.5141 23.6499L24.9438 23.1627L25.8019 22.1884C25.8753 22.1052 25.5515 21.8954 25.4595 22.0009L24.6967 22.867L24.3153 23.3C24.2271 23.4002 24.0224 23.7234 23.8921 23.7521L24.1056 23.821C24.156 23.8622 24.0624 23.5697 24.0605 23.5617C24.0249 23.4259 23.9895 23.29 23.954 23.1541C23.9245 23.042 23.5705 22.9071 23.6138 23.0732H23.6131Z" fill="#16A75C"/>
<path d="M35.4259 26.1663L27.5674 25.9811L27.5531 26.5885L35.4116 26.7737L35.4259 26.1663Z" fill="#1976D2"/>
<path d="M31.0507 27.3882L27.5362 27.3054L27.5219 27.9128L31.0363 27.9956L31.0507 27.3882Z" fill="#D3DFFF"/>
<path d="M25.0913 25.9584L23.2308 25.9146L23.187 27.775L25.0474 27.8188L25.0913 25.9584Z" fill="white" stroke="#1976D2" stroke-width="0.134751" stroke-miterlimit="10"/>
<path d="M23.5588 26.4795C23.6162 26.6994 23.7222 27.6206 24.1837 27.363C24.2901 27.3044 24.3802 27.1466 24.4596 27.0562L24.8893 26.5691L25.7474 25.5946C25.8208 25.5114 25.497 25.3027 25.405 25.4072L24.642 26.2733L24.26 26.7064C24.1718 26.8066 23.9671 27.1296 23.8369 27.1583L24.0505 27.2273C24.1007 27.2685 24.0073 26.9759 24.0052 26.9679C23.9699 26.8323 23.9344 26.6964 23.8988 26.5603C23.8695 26.4483 23.5152 26.3133 23.5588 26.4795Z" fill="#16A75C"/>
<path d="M35.445 29.3987L27.5844 29.2415L27.5722 29.849L35.4329 30.0062L35.445 29.3987Z" fill="#1976D2"/>
<path d="M33.6646 30.8339L27.4566 30.6876L27.4423 31.295L33.6502 31.4413L33.6646 30.8339Z" fill="#D3DFFF"/>
<path d="M25.0114 29.3405L23.151 29.2967L23.1072 31.1571L24.9676 31.2009L25.0114 29.3405Z" fill="white" stroke="#1976D2" stroke-width="0.134751" stroke-miterlimit="10"/>
<path d="M23.4789 29.8397C23.5363 30.0596 23.6423 30.9806 24.1038 30.723C24.2102 30.6644 24.3003 30.5066 24.3798 30.4164L24.8094 29.9282L25.6675 28.9539C25.7409 28.8707 25.4171 28.6609 25.3252 28.7664L24.5622 29.6325L24.1819 30.0664C24.0937 30.1666 23.889 30.4898 23.7587 30.5183L23.9724 30.5873C24.0228 30.6287 23.9292 30.3361 23.9271 30.3281C23.8917 30.1922 23.8562 30.0563 23.8206 29.9205C23.7913 29.8082 23.4371 29.6733 23.4806 29.8397H23.4789Z" fill="#16A75C"/>
<path d="M30.5236 32.7933L27.4086 32.7198L27.3943 33.3272L30.5093 33.4006L30.5236 32.7933Z" fill="#1976D2"/>
<path d="M35.2368 34.2293L27.3783 34.0443L27.364 34.6517C30.4045 34.723 34.2756 34.8653 35.0655 34.7442C35.1854 34.607 35.2501 34.4396 35.2368 34.2293Z" fill="#D3DFFF"/>
<path d="M24.9585 32.6979L23.0981 32.6541L23.0542 34.5145L24.9147 34.5583L24.9585 32.6979Z" fill="white" stroke="#1976D2" stroke-width="0.134751" stroke-miterlimit="10"/>
<path d="M23.4008 33.1704C23.4594 33.3903 23.5644 34.3113 24.0257 34.0537C24.132 33.9951 24.2222 33.8373 24.3017 33.7471L24.7313 33.2588L25.5906 32.2845C25.6638 32.2011 25.3402 31.9916 25.2481 32.0968L24.4852 32.963L24.1038 33.3961C24.0156 33.4963 23.8109 33.8193 23.6806 33.848L23.8943 33.917C23.9445 33.9584 23.8511 33.6656 23.849 33.6578C23.8134 33.5219 23.778 33.386 23.7426 33.2502C23.7133 33.1379 23.359 33.003 23.4024 33.1694L23.4008 33.1704Z" fill="#16A75C"/>
<path d="M33.3606 12.7839V14.6415H25.9005V12.7839C25.9003 12.6429 25.928 12.5033 25.9819 12.373C26.0358 12.2427 26.1148 12.1243 26.2145 12.0246C26.2385 12.0005 26.2638 11.9779 26.2903 11.9567C26.4823 11.7971 26.7242 11.71 26.9738 11.7106C27.1637 11.7107 27.3511 11.668 27.5222 11.5856C27.5946 11.5506 27.6636 11.509 27.7284 11.4614C27.9463 11.3002 28.1066 11.0732 28.1854 10.8138C28.2646 10.5539 28.4251 10.3264 28.6434 10.1646C28.8617 10.0029 29.1261 9.91555 29.3978 9.91549H29.8634C30.135 9.91555 30.3995 10.0029 30.6178 10.1646C30.8361 10.3264 30.9966 10.5539 31.0757 10.8138C31.1545 11.0738 31.315 11.3015 31.5335 11.463C31.5983 11.5106 31.6673 11.5522 31.7397 11.5872C31.9108 11.6695 32.0982 11.7122 32.2881 11.7122C32.5723 11.7126 32.8447 11.8256 33.0458 12.0265C33.2468 12.2274 33.36 12.4997 33.3606 12.7839Z" fill="#FFB900"/>
<path d="M33.966 13.7292V15.1095H25.2951V13.7292H25.9005V14.6408H33.3606V13.7292H33.966Z" fill="#E4E4E4"/>
<path d="M29.6308 11.6565C29.9962 11.6565 30.2925 11.375 30.2925 11.0277C30.2925 10.6804 29.9962 10.3988 29.6308 10.3988C29.2654 10.3988 28.9692 10.6804 28.9692 11.0277C28.9692 11.375 29.2654 11.6565 29.6308 11.6565Z" fill="white"/>
<path d="M34.9614 36.2108H31.5383C31.0215 36.2108 30.6025 36.6297 30.6025 37.1465V40.5697C30.6025 41.0865 31.0215 41.5054 31.5383 41.5054H34.9614C35.4782 41.5054 35.8972 41.0865 35.8972 40.5697V37.1465C35.8972 36.6297 35.4782 36.2108 34.9614 36.2108Z" fill="#E0E0E0"/>
<path d="M34.0103 36.2108H30.5871C30.0703 36.2108 29.6514 36.6297 29.6514 37.1465V40.5697C29.6514 41.0865 30.0703 41.5054 30.5871 41.5054H34.0103C34.5271 41.5054 34.946 41.0865 34.946 40.5697V37.1465C34.946 36.6297 34.5271 36.2108 34.0103 36.2108Z" fill="#EBEBEB"/>
<path d="M30.4711 38.9344L31.004 38.4007L32.0326 39.3154L33.7509 37.5908L34.2458 38.1237L31.9567 40.344L30.4711 38.9344Z" fill="white"/>
<path d="M22.7355 37.3469H20.4991C19.9822 37.3469 19.5633 37.7658 19.5633 38.2826V40.519C19.5633 41.0358 19.9822 41.4548 20.4991 41.4548H22.7355C23.2523 41.4548 23.6712 41.0358 23.6712 40.519V38.2826C23.6712 37.7658 23.2523 37.3469 22.7355 37.3469Z" fill="#E0E0E0"/>
<path d="M21.998 37.3469H19.7616C19.2448 37.3469 18.8258 37.7658 18.8258 38.2826V40.519C18.8258 41.0358 19.2448 41.4548 19.7616 41.4548H21.998C22.5148 41.4548 22.9337 41.0358 22.9337 40.519V38.2826C22.9337 37.7658 22.5148 37.3469 21.998 37.3469Z" fill="#EBEBEB"/>
<path d="M19.4614 39.4602L19.8755 39.0461L20.6734 39.7555L22.0057 38.4176L22.3903 38.8317L20.6144 40.5535L19.4614 39.4602Z" fill="white"/>
<path d="M26.5087 36.5749H23.622C23.1052 36.5749 22.6862 36.9939 22.6862 37.5107V40.3974C22.6862 40.9142 23.1052 41.3332 23.622 41.3332H26.5087C27.0255 41.3332 27.4445 40.9142 27.4445 40.3974V37.5107C27.4445 36.9939 27.0255 36.5749 26.5087 36.5749Z" fill="#00893E"/>
<path d="M25.6545 36.5749H22.7678C22.251 36.5749 21.832 36.9939 21.832 37.5107V40.3974C21.832 40.9142 22.251 41.3332 22.7678 41.3332H25.6545C26.1713 41.3332 26.5903 40.9142 26.5903 40.3974V37.5107C26.5903 36.9939 26.1713 36.5749 25.6545 36.5749Z" fill="#16A75C"/>
<path d="M22.5681 39.0229L23.0476 38.5435L23.9721 39.3653L25.5153 37.8158L25.9603 38.2946L23.9032 40.2898L22.5681 39.0229Z" fill="white"/>
<path d="M29.0073 38.2897H27.121C26.8015 38.2897 26.5424 38.5487 26.5424 38.8683V40.7546C26.5424 41.0741 26.8015 41.3332 27.121 41.3332H29.0073C29.3269 41.3332 29.5859 41.0741 29.5859 40.7546V38.8683C29.5859 38.5487 29.3269 38.2897 29.0073 38.2897Z" fill="#263238"/>
<path d="M28.4611 38.2897H26.5748C26.2553 38.2897 25.9962 38.5487 25.9962 38.8683V40.7546C25.9962 41.0741 26.2553 41.3332 26.5748 41.3332H28.4611C28.7807 41.3332 29.0397 41.0741 29.0397 40.7546V38.8683C29.0397 38.5487 28.7807 38.2897 28.4611 38.2897Z" fill="#455A64"/>
<path d="M26.4672 39.8554L26.7738 39.5489L27.365 40.0747L28.3528 39.0834L28.6375 39.39L27.3214 40.666L26.4672 39.8554Z" fill="white"/>
</svg>
