<svg width="56" height="56" viewBox="0 0 56 56" fill="none" xmlns="http://www.w3.org/2000/svg">
<rect width="56" height="56" rx="28" fill="#FAFAFA"/>
<g clip-path="url(#clip0_7291_79367)">
<path d="M43.8956 8.02778H12V34.3643H43.8956V8.02778Z" fill="#EEEEEE"/>
<path d="M43.8956 8.58614H12.5119V33.8281H43.8956V8.58614Z" fill="#FAFAFA"/>
<path d="M12.7435 26.6471V17.7289H13.6701V16.551L15.7548 15.5758V14.3701H16.1023V17.7289H16.4498V26.6471H16.913V22.0143H17.9555V19.5821H18.303V26.6471H19.1137V23.9833H19.6928V23.2884H20.9668V20.8561H21.6617V19.2345H22.4725V16.8024H22.82V19.2345H23.6307V20.8561H24.3256V23.2884H25.5997V23.9833H26.1787V26.6471H26.8738V23.2884H28.1477V15.8758H28.4952V15.065H31.2749V15.8758H31.8541V21.2035H34.1705V21.7827H34.9812V22.1301H34.1705V24.215H36.6028V17.2657H37.0659V15.8758H38.2242V10.548H38.5716V15.8758H39.3824V17.2657H43.8956V33.8281H12.5119V26.6471H12.7435Z" fill="#F5F5F5"/>
<path d="M41.484 17.6287H41.1559V17.9569H41.484V17.6287Z" fill="#EEEEEE"/>
<path d="M41.484 18.179H41.1559V18.5071H41.484V18.179Z" fill="#EEEEEE"/>
<path d="M41.484 20.3796H41.1559V20.7077H41.484V20.3796Z" fill="#EEEEEE"/>
<path d="M41.484 20.9297H41.1559V21.2578H41.484V20.9297Z" fill="#EEEEEE"/>
<path d="M41.484 21.4798H41.1559V21.808H41.484V21.4798Z" fill="#EEEEEE"/>
<path d="M41.484 23.1303H41.1559V23.4584H41.484V23.1303Z" fill="#EEEEEE"/>
<path d="M41.484 23.6804H41.1559V24.0085H41.484V23.6804Z" fill="#EEEEEE"/>
<path d="M40.9628 19.8294H40.6346V20.1576H40.9628V19.8294Z" fill="#EEEEEE"/>
<path d="M40.9628 20.3796H40.6346V20.7077H40.9628V20.3796Z" fill="#EEEEEE"/>
<path d="M40.9628 20.9297H40.6346V21.2578H40.9628V20.9297Z" fill="#EEEEEE"/>
<path d="M40.9628 21.4798H40.6346V21.808H40.9628V21.4798Z" fill="#EEEEEE"/>
<path d="M40.9628 22.03H40.6346V22.3581H40.9628V22.03Z" fill="#EEEEEE"/>
<path d="M40.9628 23.1303H40.6346V23.4584H40.9628V23.1303Z" fill="#EEEEEE"/>
<path d="M40.9628 23.6804H40.6346V24.0085H40.9628V23.6804Z" fill="#EEEEEE"/>
<path d="M40.4415 17.6287H40.1134V17.9569H40.4415V17.6287Z" fill="#EEEEEE"/>
<path d="M40.4415 18.179H40.1134V18.5071H40.4415V18.179Z" fill="#EEEEEE"/>
<path d="M40.4415 18.7291H40.1134V19.0573H40.4415V18.7291Z" fill="#EEEEEE"/>
<path d="M40.4415 19.2793H40.1134V19.6074H40.4415V19.2793Z" fill="#EEEEEE"/>
<path d="M40.4415 19.8294H40.1134V20.1576H40.4415V19.8294Z" fill="#EEEEEE"/>
<path d="M40.4415 20.3796H40.1134V20.7077H40.4415V20.3796Z" fill="#EEEEEE"/>
<path d="M40.4415 20.9297H40.1134V21.2578H40.4415V20.9297Z" fill="#EEEEEE"/>
<path d="M40.4415 21.4798H40.1134V21.808H40.4415V21.4798Z" fill="#EEEEEE"/>
<path d="M40.4415 22.03H40.1134V22.3581H40.4415V22.03Z" fill="#EEEEEE"/>
<path d="M40.4415 22.5801H40.1134V22.9083H40.4415V22.5801Z" fill="#EEEEEE"/>
<path d="M40.4415 23.6804H40.1134V24.0085H40.4415V23.6804Z" fill="#EEEEEE"/>
<path d="M39.9204 17.6287H39.5923V17.9569H39.9204V17.6287Z" fill="#EEEEEE"/>
<path d="M39.9204 18.179H39.5923V18.5071H39.9204V18.179Z" fill="#EEEEEE"/>
<path d="M39.9204 18.7291H39.5923V19.0573H39.9204V18.7291Z" fill="#EEEEEE"/>
<path d="M39.9204 19.2793H39.5923V19.6074H39.9204V19.2793Z" fill="#EEEEEE"/>
<path d="M39.9204 19.8294H39.5923V20.1576H39.9204V19.8294Z" fill="#EEEEEE"/>
<path d="M39.9204 20.3796H39.5923V20.7077H39.9204V20.3796Z" fill="#EEEEEE"/>
<path d="M39.9204 20.9297H39.5923V21.2578H39.9204V20.9297Z" fill="#EEEEEE"/>
<path d="M39.9204 25.8811H39.5923V26.2092H39.9204V25.8811Z" fill="#EEEEEE"/>
<path d="M39.3992 17.6287H39.071V17.9569H39.3992V17.6287Z" fill="#EEEEEE"/>
<path d="M39.3992 18.179H39.071V18.5071H39.3992V18.179Z" fill="#EEEEEE"/>
<path d="M39.3992 18.7291H39.071V19.0573H39.3992V18.7291Z" fill="#EEEEEE"/>
<path d="M39.3992 19.2793H39.071V19.6074H39.3992V19.2793Z" fill="#EEEEEE"/>
<path d="M39.3992 19.8294H39.071V20.1576H39.3992V19.8294Z" fill="#EEEEEE"/>
<path d="M39.3992 20.3796H39.071V20.7077H39.3992V20.3796Z" fill="#EEEEEE"/>
<path d="M39.3992 20.9297H39.071V21.2578H39.3992V20.9297Z" fill="#EEEEEE"/>
<path d="M39.3992 21.4798H39.071V21.808H39.3992V21.4798Z" fill="#EEEEEE"/>
<path d="M39.3992 24.7807H39.071V25.1088H39.3992V24.7807Z" fill="#EEEEEE"/>
<path d="M39.3992 25.331H39.071V25.6591H39.3992V25.331Z" fill="#EEEEEE"/>
<path d="M39.3992 25.8811H39.071V26.2092H39.3992V25.8811Z" fill="#EEEEEE"/>
<path d="M39.3992 26.4312H39.071V26.7594H39.3992V26.4312Z" fill="#EEEEEE"/>
<path d="M39.3992 28.6318H39.071V28.9599H39.3992V28.6318Z" fill="#EEEEEE"/>
<path d="M38.878 17.6287H38.5499V17.9569H38.878V17.6287Z" fill="#EEEEEE"/>
<path d="M38.878 18.179H38.5499V18.5071H38.878V18.179Z" fill="#EEEEEE"/>
<path d="M38.878 18.7291H38.5499V19.0573H38.878V18.7291Z" fill="#EEEEEE"/>
<path d="M38.878 19.2793H38.5499V19.6074H38.878V19.2793Z" fill="#EEEEEE"/>
<path d="M38.878 19.8294H38.5499V20.1576H38.878V19.8294Z" fill="#EEEEEE"/>
<path d="M38.878 20.3796H38.5499V20.7077H38.878V20.3796Z" fill="#EEEEEE"/>
<path d="M38.878 20.9297H38.5499V21.2578H38.878V20.9297Z" fill="#EEEEEE"/>
<path d="M38.878 21.4798H38.5499V21.808H38.878V21.4798Z" fill="#EEEEEE"/>
<path d="M38.878 22.03H38.5499V22.3581H38.878V22.03Z" fill="#EEEEEE"/>
<path d="M38.878 22.5801H38.5499V22.9083H38.878V22.5801Z" fill="#EEEEEE"/>
<path d="M38.878 24.2305H38.5499V24.5587H38.878V24.2305Z" fill="#EEEEEE"/>
<path d="M38.878 24.7807H38.5499V25.1088H38.878V24.7807Z" fill="#EEEEEE"/>
<path d="M38.878 25.331H38.5499V25.6591H38.878V25.331Z" fill="#EEEEEE"/>
<path d="M38.878 25.8811H38.5499V26.2092H38.878V25.8811Z" fill="#EEEEEE"/>
<path d="M38.878 26.4312H38.5499V26.7594H38.878V26.4312Z" fill="#EEEEEE"/>
<path d="M38.878 28.6318H38.5499V28.9599H38.878V28.6318Z" fill="#EEEEEE"/>
<path d="M38.3569 17.6287H38.0287V17.9569H38.3569V17.6287Z" fill="#EEEEEE"/>
<path d="M38.3569 18.179H38.0287V18.5071H38.3569V18.179Z" fill="#EEEEEE"/>
<path d="M38.3569 18.7291H38.0287V19.0573H38.3569V18.7291Z" fill="#EEEEEE"/>
<path d="M38.3569 19.2793H38.0287V19.6074H38.3569V19.2793Z" fill="#EEEEEE"/>
<path d="M38.3569 19.8294H38.0287V20.1576H38.3569V19.8294Z" fill="#EEEEEE"/>
<path d="M38.3569 20.3796H38.0287V20.7077H38.3569V20.3796Z" fill="#EEEEEE"/>
<path d="M38.3569 20.9297H38.0287V21.2578H38.3569V20.9297Z" fill="#EEEEEE"/>
<path d="M38.3569 21.4798H38.0287V21.808H38.3569V21.4798Z" fill="#EEEEEE"/>
<path d="M38.3569 22.03H38.0287V22.3581H38.3569V22.03Z" fill="#EEEEEE"/>
<path d="M38.3569 22.5801H38.0287V22.9083H38.3569V22.5801Z" fill="#EEEEEE"/>
<path d="M38.3569 23.1303H38.0287V23.4584H38.3569V23.1303Z" fill="#EEEEEE"/>
<path d="M38.3569 23.6804H38.0287V24.0085H38.3569V23.6804Z" fill="#EEEEEE"/>
<path d="M38.3569 24.2305H38.0287V24.5587H38.3569V24.2305Z" fill="#EEEEEE"/>
<path d="M38.3569 24.7807H38.0287V25.1088H38.3569V24.7807Z" fill="#EEEEEE"/>
<path d="M38.3569 25.331H38.0287V25.6591H38.3569V25.331Z" fill="#EEEEEE"/>
<path d="M38.3569 25.8811H38.0287V26.2092H38.3569V25.8811Z" fill="#EEEEEE"/>
<path d="M38.3569 26.4312H38.0287V26.7594H38.3569V26.4312Z" fill="#EEEEEE"/>
<path d="M38.3569 26.9814H38.0287V27.3095H38.3569V26.9814Z" fill="#EEEEEE"/>
<path d="M37.8356 17.6287H37.5075V17.9569H37.8356V17.6287Z" fill="#EEEEEE"/>
<path d="M37.8356 18.179H37.5075V18.5071H37.8356V18.179Z" fill="#EEEEEE"/>
<path d="M37.8356 18.7291H37.5075V19.0573H37.8356V18.7291Z" fill="#EEEEEE"/>
<path d="M37.8356 19.2793H37.5075V19.6074H37.8356V19.2793Z" fill="#EEEEEE"/>
<path d="M37.8356 19.8294H37.5075V20.1576H37.8356V19.8294Z" fill="#EEEEEE"/>
<path d="M37.8356 20.3796H37.5075V20.7077H37.8356V20.3796Z" fill="#EEEEEE"/>
<path d="M37.8356 20.9297H37.5075V21.2578H37.8356V20.9297Z" fill="#EEEEEE"/>
<path d="M37.8356 21.4798H37.5075V21.808H37.8356V21.4798Z" fill="#EEEEEE"/>
<path d="M37.8356 22.03H37.5075V22.3581H37.8356V22.03Z" fill="#EEEEEE"/>
<path d="M37.8356 22.5801H37.5075V22.9083H37.8356V22.5801Z" fill="#EEEEEE"/>
<path d="M37.8356 24.2305H37.5075V24.5587H37.8356V24.2305Z" fill="#EEEEEE"/>
<path d="M37.8356 24.7807H37.5075V25.1088H37.8356V24.7807Z" fill="#EEEEEE"/>
<path d="M37.8356 25.331H37.5075V25.6591H37.8356V25.331Z" fill="#EEEEEE"/>
<path d="M37.8356 25.8811H37.5075V26.2092H37.8356V25.8811Z" fill="#EEEEEE"/>
<path d="M37.3144 17.6287H36.9863V17.9569H37.3144V17.6287Z" fill="#EEEEEE"/>
<path d="M37.3144 18.179H36.9863V18.5071H37.3144V18.179Z" fill="#EEEEEE"/>
<path d="M37.3144 18.7291H36.9863V19.0573H37.3144V18.7291Z" fill="#EEEEEE"/>
<path d="M37.3144 19.2793H36.9863V19.6074H37.3144V19.2793Z" fill="#EEEEEE"/>
<path d="M37.3144 19.8294H36.9863V20.1576H37.3144V19.8294Z" fill="#EEEEEE"/>
<path d="M37.3144 20.3796H36.9863V20.7077H37.3144V20.3796Z" fill="#EEEEEE"/>
<path d="M37.3144 20.9297H36.9863V21.2578H37.3144V20.9297Z" fill="#EEEEEE"/>
<path d="M37.3144 21.4798H36.9863V21.808H37.3144V21.4798Z" fill="#EEEEEE"/>
<path d="M37.3144 22.03H36.9863V22.3581H37.3144V22.03Z" fill="#EEEEEE"/>
<path d="M37.3144 22.5801H36.9863V22.9083H37.3144V22.5801Z" fill="#EEEEEE"/>
<path d="M37.3144 24.2305H36.9863V24.5587H37.3144V24.2305Z" fill="#EEEEEE"/>
<path d="M37.3144 24.7807H36.9863V25.1088H37.3144V24.7807Z" fill="#EEEEEE"/>
<path d="M37.3144 25.331H36.9863V25.6591H37.3144V25.331Z" fill="#EEEEEE"/>
<path d="M31.4462 16.2003H31.118V16.5284H31.4462V16.2003Z" fill="#EEEEEE"/>
<path d="M31.4462 16.7504H31.118V17.0786H31.4462V16.7504Z" fill="#EEEEEE"/>
<path d="M31.4462 17.3006H31.118V17.6287H31.4462V17.3006Z" fill="#EEEEEE"/>
<path d="M31.4462 17.8507H31.118V18.1789H31.4462V17.8507Z" fill="#EEEEEE"/>
<path d="M31.4462 18.4009H31.118V18.729H31.4462V18.4009Z" fill="#EEEEEE"/>
<path d="M31.4462 18.9511H31.118V19.2793H31.4462V18.9511Z" fill="#EEEEEE"/>
<path d="M31.4462 19.5013H31.118V19.8294H31.4462V19.5013Z" fill="#EEEEEE"/>
<path d="M31.4462 20.0514H31.118V20.3796H31.4462V20.0514Z" fill="#EEEEEE"/>
<path d="M31.4462 21.7018H31.118V22.03H31.4462V21.7018Z" fill="#EEEEEE"/>
<path d="M31.4462 22.252H31.118V22.5801H31.4462V22.252Z" fill="#EEEEEE"/>
<path d="M30.9249 16.2003H30.5968V16.5284H30.9249V16.2003Z" fill="#EEEEEE"/>
<path d="M30.9249 16.7504H30.5968V17.0786H30.9249V16.7504Z" fill="#EEEEEE"/>
<path d="M30.9249 17.3006H30.5968V17.6287H30.9249V17.3006Z" fill="#EEEEEE"/>
<path d="M30.9249 17.8507H30.5968V18.1789H30.9249V17.8507Z" fill="#EEEEEE"/>
<path d="M30.9249 18.4009H30.5968V18.729H30.9249V18.4009Z" fill="#EEEEEE"/>
<path d="M30.9249 18.9511H30.5968V19.2793H30.9249V18.9511Z" fill="#EEEEEE"/>
<path d="M30.9249 19.5013H30.5968V19.8294H30.9249V19.5013Z" fill="#EEEEEE"/>
<path d="M30.9249 20.0514H30.5968V20.3796H30.9249V20.0514Z" fill="#EEEEEE"/>
<path d="M30.9249 22.252H30.5968V22.5801H30.9249V22.252Z" fill="#EEEEEE"/>
<path d="M30.4037 16.2003H30.0756V16.5284H30.4037V16.2003Z" fill="#EEEEEE"/>
<path d="M30.4037 16.7504H30.0756V17.0786H30.4037V16.7504Z" fill="#EEEEEE"/>
<path d="M30.4037 17.3006H30.0756V17.6287H30.4037V17.3006Z" fill="#EEEEEE"/>
<path d="M30.4037 17.8507H30.0756V18.1789H30.4037V17.8507Z" fill="#EEEEEE"/>
<path d="M30.4037 18.4009H30.0756V18.729H30.4037V18.4009Z" fill="#EEEEEE"/>
<path d="M30.4037 18.9511H30.0756V19.2793H30.4037V18.9511Z" fill="#EEEEEE"/>
<path d="M30.4037 19.5013H30.0756V19.8294H30.4037V19.5013Z" fill="#EEEEEE"/>
<path d="M30.4037 20.0514H30.0756V20.3796H30.4037V20.0514Z" fill="#EEEEEE"/>
<path d="M29.8826 16.2003H29.5545V16.5284H29.8826V16.2003Z" fill="#EEEEEE"/>
<path d="M29.8826 16.7504H29.5545V17.0786H29.8826V16.7504Z" fill="#EEEEEE"/>
<path d="M29.8826 17.3006H29.5545V17.6287H29.8826V17.3006Z" fill="#EEEEEE"/>
<path d="M29.8826 17.8507H29.5545V18.1789H29.8826V17.8507Z" fill="#EEEEEE"/>
<path d="M29.8826 18.4009H29.5545V18.729H29.8826V18.4009Z" fill="#EEEEEE"/>
<path d="M29.8826 18.9511H29.5545V19.2793H29.8826V18.9511Z" fill="#EEEEEE"/>
<path d="M29.8826 20.0514H29.5545V20.3796H29.8826V20.0514Z" fill="#EEEEEE"/>
<path d="M29.8826 20.6016H29.5545V20.9297H29.8826V20.6016Z" fill="#EEEEEE"/>
<path d="M29.8826 22.252H29.5545V22.5801H29.8826V22.252Z" fill="#EEEEEE"/>
<path d="M29.8826 22.8021H29.5545V23.1303H29.8826V22.8021Z" fill="#EEEEEE"/>
<path d="M29.8826 23.3523H29.5545V23.6804H29.8826V23.3523Z" fill="#EEEEEE"/>
<path d="M29.8826 23.9024H29.5545V24.2305H29.8826V23.9024Z" fill="#EEEEEE"/>
<path d="M29.8826 24.4525H29.5545V24.7807H29.8826V24.4525Z" fill="#EEEEEE"/>
<path d="M29.8826 25.0028H29.5545V25.3309H29.8826V25.0028Z" fill="#EEEEEE"/>
<path d="M29.8826 25.553H29.5545V25.8811H29.8826V25.553Z" fill="#EEEEEE"/>
<path d="M29.3614 16.2003H29.0333V16.5284H29.3614V16.2003Z" fill="#EEEEEE"/>
<path d="M29.3614 16.7504H29.0333V17.0786H29.3614V16.7504Z" fill="#EEEEEE"/>
<path d="M29.3614 17.3006H29.0333V17.6287H29.3614V17.3006Z" fill="#EEEEEE"/>
<path d="M29.3614 17.8507H29.0333V18.1789H29.3614V17.8507Z" fill="#EEEEEE"/>
<path d="M29.3614 18.4009H29.0333V18.729H29.3614V18.4009Z" fill="#EEEEEE"/>
<path d="M29.3614 18.9511H29.0333V19.2793H29.3614V18.9511Z" fill="#EEEEEE"/>
<path d="M29.3614 20.6016H29.0333V20.9297H29.3614V20.6016Z" fill="#EEEEEE"/>
<path d="M29.3614 21.1517H29.0333V21.4798H29.3614V21.1517Z" fill="#EEEEEE"/>
<path d="M29.3614 21.7018H29.0333V22.03H29.3614V21.7018Z" fill="#EEEEEE"/>
<path d="M29.3614 22.252H29.0333V22.5801H29.3614V22.252Z" fill="#EEEEEE"/>
<path d="M29.3614 22.8021H29.0333V23.1303H29.3614V22.8021Z" fill="#EEEEEE"/>
<path d="M29.3614 23.3523H29.0333V23.6804H29.3614V23.3523Z" fill="#EEEEEE"/>
<path d="M29.3614 23.9024H29.0333V24.2305H29.3614V23.9024Z" fill="#EEEEEE"/>
<path d="M29.3614 24.4525H29.0333V24.7807H29.3614V24.4525Z" fill="#EEEEEE"/>
<path d="M29.3614 25.0028H29.0333V25.3309H29.3614V25.0028Z" fill="#EEEEEE"/>
<path d="M29.3614 25.553H29.0333V25.8811H29.3614V25.553Z" fill="#EEEEEE"/>
<path d="M29.3614 26.1031H29.0333V26.4312H29.3614V26.1031Z" fill="#EEEEEE"/>
<path d="M29.3614 27.2034H29.0333V27.5315H29.3614V27.2034Z" fill="#EEEEEE"/>
<path d="M28.8402 16.2003H28.512V16.5284H28.8402V16.2003Z" fill="#EEEEEE"/>
<path d="M28.8402 16.7504H28.512V17.0786H28.8402V16.7504Z" fill="#EEEEEE"/>
<path d="M28.8402 17.3006H28.512V17.6287H28.8402V17.3006Z" fill="#EEEEEE"/>
<path d="M28.8402 17.8507H28.512V18.1789H28.8402V17.8507Z" fill="#EEEEEE"/>
<path d="M28.8402 18.4009H28.512V18.729H28.8402V18.4009Z" fill="#EEEEEE"/>
<path d="M28.8402 18.9511H28.512V19.2793H28.8402V18.9511Z" fill="#EEEEEE"/>
<path d="M28.8402 20.6016H28.512V20.9297H28.8402V20.6016Z" fill="#EEEEEE"/>
<path d="M28.8402 21.1517H28.512V21.4798H28.8402V21.1517Z" fill="#EEEEEE"/>
<path d="M28.8402 21.7018H28.512V22.03H28.8402V21.7018Z" fill="#EEEEEE"/>
<path d="M28.8402 22.252H28.512V22.5801H28.8402V22.252Z" fill="#EEEEEE"/>
<path d="M28.8402 23.9024H28.512V24.2305H28.8402V23.9024Z" fill="#EEEEEE"/>
<path d="M28.8402 24.4525H28.512V24.7807H28.8402V24.4525Z" fill="#EEEEEE"/>
<path d="M28.8402 25.0028H28.512V25.3309H28.8402V25.0028Z" fill="#EEEEEE"/>
<path d="M28.8402 25.553H28.512V25.8811H28.8402V25.553Z" fill="#EEEEEE"/>
<path d="M28.8402 26.1031H28.512V26.4312H28.8402V26.1031Z" fill="#EEEEEE"/>
<path d="M28.8402 27.2034H28.512V27.5315H28.8402V27.2034Z" fill="#EEEEEE"/>
<path d="M28.8402 27.7535H28.512V28.0817H28.8402V27.7535Z" fill="#EEEEEE"/>
<path d="M24.1109 21.3158H23.7827V21.6439H24.1109V21.3158Z" fill="#EEEEEE"/>
<path d="M24.1109 21.8659H23.7827V22.1941H24.1109V21.8659Z" fill="#EEEEEE"/>
<path d="M24.1109 22.4161H23.7827V22.7442H24.1109V22.4161Z" fill="#EEEEEE"/>
<path d="M24.1109 22.9662H23.7827V23.2943H24.1109V22.9662Z" fill="#EEEEEE"/>
<path d="M24.1109 23.5163H23.7827V23.8445H24.1109V23.5163Z" fill="#EEEEEE"/>
<path d="M24.1109 24.0665H23.7827V24.3946H24.1109V24.0665Z" fill="#EEEEEE"/>
<path d="M24.1109 24.6167H23.7827V24.9449H24.1109V24.6167Z" fill="#EEEEEE"/>
<path d="M24.1109 26.2672H23.7827V26.5953H24.1109V26.2672Z" fill="#EEEEEE"/>
<path d="M24.1109 26.8173H23.7827V27.1454H24.1109V26.8173Z" fill="#EEEEEE"/>
<path d="M24.1109 27.3674H23.7827V27.6956H24.1109V27.3674Z" fill="#EEEEEE"/>
<path d="M23.5896 21.3158H23.2615V21.6439H23.5896V21.3158Z" fill="#EEEEEE"/>
<path d="M23.5896 21.8659H23.2615V22.1941H23.5896V21.8659Z" fill="#EEEEEE"/>
<path d="M23.5896 22.4161H23.2615V22.7442H23.5896V22.4161Z" fill="#EEEEEE"/>
<path d="M23.5896 22.9662H23.2615V23.2943H23.5896V22.9662Z" fill="#EEEEEE"/>
<path d="M23.5896 23.5163H23.2615V23.8445H23.5896V23.5163Z" fill="#EEEEEE"/>
<path d="M23.5896 24.0665H23.2615V24.3946H23.5896V24.0665Z" fill="#EEEEEE"/>
<path d="M23.5896 24.6167H23.2615V24.9449H23.5896V24.6167Z" fill="#EEEEEE"/>
<path d="M23.0684 21.3158H22.7402V21.6439H23.0684V21.3158Z" fill="#EEEEEE"/>
<path d="M23.0684 21.8659H22.7402V22.1941H23.0684V21.8659Z" fill="#EEEEEE"/>
<path d="M23.0684 22.4161H22.7402V22.7442H23.0684V22.4161Z" fill="#EEEEEE"/>
<path d="M23.0684 22.9662H22.7402V23.2943H23.0684V22.9662Z" fill="#EEEEEE"/>
<path d="M23.0684 23.5163H22.7402V23.8445H23.0684V23.5163Z" fill="#EEEEEE"/>
<path d="M23.0684 24.0665H22.7402V24.3946H23.0684V24.0665Z" fill="#EEEEEE"/>
<path d="M23.0684 24.6167H22.7402V24.9449H23.0684V24.6167Z" fill="#EEEEEE"/>
<path d="M22.5473 21.3158H22.2191V21.6439H22.5473V21.3158Z" fill="#EEEEEE"/>
<path d="M22.5473 21.8659H22.2191V22.1941H22.5473V21.8659Z" fill="#EEEEEE"/>
<path d="M22.5473 22.4161H22.2191V22.7442H22.5473V22.4161Z" fill="#EEEEEE"/>
<path d="M22.5473 22.9662H22.2191V23.2943H22.5473V22.9662Z" fill="#EEEEEE"/>
<path d="M22.5473 23.5163H22.2191V23.8445H22.5473V23.5163Z" fill="#EEEEEE"/>
<path d="M22.5473 24.0665H22.2191V24.3946H22.5473V24.0665Z" fill="#EEEEEE"/>
<path d="M22.5473 24.6167H22.2191V24.9449H22.5473V24.6167Z" fill="#EEEEEE"/>
<path d="M22.5473 25.1669H22.2191V25.495H22.5473V25.1669Z" fill="#EEEEEE"/>
<path d="M22.5473 25.717H22.2191V26.0452H22.5473V25.717Z" fill="#EEEEEE"/>
<path d="M22.5473 26.2672H22.2191V26.5953H22.5473V26.2672Z" fill="#EEEEEE"/>
<path d="M22.5473 26.8173H22.2191V27.1454H22.5473V26.8173Z" fill="#EEEEEE"/>
<path d="M22.026 21.3158H21.6979V21.6439H22.026V21.3158Z" fill="#EEEEEE"/>
<path d="M22.026 21.8659H21.6979V22.1941H22.026V21.8659Z" fill="#EEEEEE"/>
<path d="M22.026 22.4161H21.6979V22.7442H22.026V22.4161Z" fill="#EEEEEE"/>
<path d="M22.026 22.9662H21.6979V23.2943H22.026V22.9662Z" fill="#EEEEEE"/>
<path d="M22.026 23.5163H21.6979V23.8445H22.026V23.5163Z" fill="#EEEEEE"/>
<path d="M22.026 24.0665H21.6979V24.3946H22.026V24.0665Z" fill="#EEEEEE"/>
<path d="M22.026 24.6167H21.6979V24.9449H22.026V24.6167Z" fill="#EEEEEE"/>
<path d="M22.026 25.1669H21.6979V25.495H22.026V25.1669Z" fill="#EEEEEE"/>
<path d="M22.026 25.717H21.6979V26.0452H22.026V25.717Z" fill="#EEEEEE"/>
<path d="M22.026 26.2672H21.6979V26.5953H22.026V26.2672Z" fill="#EEEEEE"/>
<path d="M22.026 26.8173H21.6979V27.1454H22.026V26.8173Z" fill="#EEEEEE"/>
<path d="M22.026 27.3674H21.6979V27.6956H22.026V27.3674Z" fill="#EEEEEE"/>
<path d="M22.026 29.0179H21.6979V29.346H22.026V29.0179Z" fill="#EEEEEE"/>
<path d="M22.026 29.568H21.6979V29.8962H22.026V29.568Z" fill="#EEEEEE"/>
<path d="M21.5048 21.3158H21.1766V21.6439H21.5048V21.3158Z" fill="#EEEEEE"/>
<path d="M21.5048 21.8659H21.1766V22.1941H21.5048V21.8659Z" fill="#EEEEEE"/>
<path d="M21.5048 22.4161H21.1766V22.7442H21.5048V22.4161Z" fill="#EEEEEE"/>
<path d="M21.5048 24.0665H21.1766V24.3946H21.5048V24.0665Z" fill="#EEEEEE"/>
<path d="M21.5048 24.6167H21.1766V24.9449H21.5048V24.6167Z" fill="#EEEEEE"/>
<path d="M21.5048 25.1669H21.1766V25.495H21.5048V25.1669Z" fill="#EEEEEE"/>
<path d="M21.5048 25.717H21.1766V26.0452H21.5048V25.717Z" fill="#EEEEEE"/>
<path d="M21.5048 26.2672H21.1766V26.5953H21.5048V26.2672Z" fill="#EEEEEE"/>
<path d="M21.5048 26.8173H21.1766V27.1454H21.5048V26.8173Z" fill="#EEEEEE"/>
<path d="M21.5048 27.3674H21.1766V27.6956H21.5048V27.3674Z" fill="#EEEEEE"/>
<path d="M21.5048 29.0179H21.1766V29.346H21.5048V29.0179Z" fill="#EEEEEE"/>
<path d="M21.5048 29.568H21.1766V29.8962H21.5048V29.568Z" fill="#EEEEEE"/>
<path d="M21.5048 30.1182H21.1766V30.4463H21.5048V30.1182Z" fill="#EEEEEE"/>
<path d="M16.0419 18.0148H15.7137V18.3429H16.0419V18.0148Z" fill="#EEEEEE"/>
<path d="M16.0419 18.5651H15.7137V18.8932H16.0419V18.5651Z" fill="#EEEEEE"/>
<path d="M16.0419 19.1152H15.7137V19.4433H16.0419V19.1152Z" fill="#EEEEEE"/>
<path d="M16.0419 19.6653H15.7137V19.9935H16.0419V19.6653Z" fill="#EEEEEE"/>
<path d="M16.0419 20.2155H15.7137V20.5436H16.0419V20.2155Z" fill="#EEEEEE"/>
<path d="M16.0419 20.7656H15.7137V21.0938H16.0419V20.7656Z" fill="#EEEEEE"/>
<path d="M16.0419 21.3158H15.7137V21.6439H16.0419V21.3158Z" fill="#EEEEEE"/>
<path d="M16.0419 21.8659H15.7137V22.1941H16.0419V21.8659Z" fill="#EEEEEE"/>
<path d="M16.0419 22.4161H15.7137V22.7442H16.0419V22.4161Z" fill="#EEEEEE"/>
<path d="M16.0419 22.9662H15.7137V23.2943H16.0419V22.9662Z" fill="#EEEEEE"/>
<path d="M16.0419 23.5163H15.7137V23.8445H16.0419V23.5163Z" fill="#EEEEEE"/>
<path d="M16.0419 24.0665H15.7137V24.3946H16.0419V24.0665Z" fill="#EEEEEE"/>
<path d="M16.0419 24.6167H15.7137V24.9449H16.0419V24.6167Z" fill="#EEEEEE"/>
<path d="M16.0419 25.1669H15.7137V25.495H16.0419V25.1669Z" fill="#EEEEEE"/>
<path d="M16.0419 25.717H15.7137V26.0452H16.0419V25.717Z" fill="#EEEEEE"/>
<path d="M16.0419 26.2672H15.7137V26.5953H16.0419V26.2672Z" fill="#EEEEEE"/>
<path d="M16.0419 26.8173H15.7137V27.1454H16.0419V26.8173Z" fill="#EEEEEE"/>
<path d="M16.0419 27.3674H15.7137V27.6956H16.0419V27.3674Z" fill="#EEEEEE"/>
<path d="M16.0419 27.9176H15.7137V28.2457H16.0419V27.9176Z" fill="#EEEEEE"/>
<path d="M16.0419 28.4677H15.7137V28.7959H16.0419V28.4677Z" fill="#EEEEEE"/>
<path d="M16.0419 29.0179H15.7137V29.346H16.0419V29.0179Z" fill="#EEEEEE"/>
<path d="M16.0419 29.568H15.7137V29.8962H16.0419V29.568Z" fill="#EEEEEE"/>
<path d="M16.0419 30.1182H15.7137V30.4463H16.0419V30.1182Z" fill="#EEEEEE"/>
<path d="M15.5208 18.0148H15.1926V18.3429H15.5208V18.0148Z" fill="#EEEEEE"/>
<path d="M15.5208 18.5651H15.1926V18.8932H15.5208V18.5651Z" fill="#EEEEEE"/>
<path d="M15.5208 19.1152H15.1926V19.4433H15.5208V19.1152Z" fill="#EEEEEE"/>
<path d="M15.5208 19.6653H15.1926V19.9935H15.5208V19.6653Z" fill="#EEEEEE"/>
<path d="M15.5208 20.2155H15.1926V20.5436H15.5208V20.2155Z" fill="#EEEEEE"/>
<path d="M15.5208 20.7656H15.1926V21.0938H15.5208V20.7656Z" fill="#EEEEEE"/>
<path d="M15.5208 21.3158H15.1926V21.6439H15.5208V21.3158Z" fill="#EEEEEE"/>
<path d="M15.5208 21.8659H15.1926V22.1941H15.5208V21.8659Z" fill="#EEEEEE"/>
<path d="M15.5208 22.4161H15.1926V22.7442H15.5208V22.4161Z" fill="#EEEEEE"/>
<path d="M15.5208 22.9662H15.1926V23.2943H15.5208V22.9662Z" fill="#EEEEEE"/>
<path d="M15.5208 23.5163H15.1926V23.8445H15.5208V23.5163Z" fill="#EEEEEE"/>
<path d="M15.5208 24.0665H15.1926V24.3946H15.5208V24.0665Z" fill="#EEEEEE"/>
<path d="M15.5208 24.6167H15.1926V24.9449H15.5208V24.6167Z" fill="#EEEEEE"/>
<path d="M15.5208 25.1669H15.1926V25.495H15.5208V25.1669Z" fill="#EEEEEE"/>
<path d="M15.5208 25.717H15.1926V26.0452H15.5208V25.717Z" fill="#EEEEEE"/>
<path d="M15.5208 26.2672H15.1926V26.5953H15.5208V26.2672Z" fill="#EEEEEE"/>
<path d="M15.5208 26.8173H15.1926V27.1454H15.5208V26.8173Z" fill="#EEEEEE"/>
<path d="M15.5208 27.3674H15.1926V27.6956H15.5208V27.3674Z" fill="#EEEEEE"/>
<path d="M15.5208 27.9176H15.1926V28.2457H15.5208V27.9176Z" fill="#EEEEEE"/>
<path d="M14.9995 18.0148H14.6714V18.3429H14.9995V18.0148Z" fill="#EEEEEE"/>
<path d="M14.9995 18.5651H14.6714V18.8932H14.9995V18.5651Z" fill="#EEEEEE"/>
<path d="M14.9995 19.1152H14.6714V19.4433H14.9995V19.1152Z" fill="#EEEEEE"/>
<path d="M14.9995 19.6653H14.6714V19.9935H14.9995V19.6653Z" fill="#EEEEEE"/>
<path d="M14.9995 20.2155H14.6714V20.5436H14.9995V20.2155Z" fill="#EEEEEE"/>
<path d="M14.9995 20.7656H14.6714V21.0938H14.9995V20.7656Z" fill="#EEEEEE"/>
<path d="M14.9995 21.3158H14.6714V21.6439H14.9995V21.3158Z" fill="#EEEEEE"/>
<path d="M14.9995 21.8659H14.6714V22.1941H14.9995V21.8659Z" fill="#EEEEEE"/>
<path d="M14.9995 22.4161H14.6714V22.7442H14.9995V22.4161Z" fill="#EEEEEE"/>
<path d="M14.9995 22.9662H14.6714V23.2943H14.9995V22.9662Z" fill="#EEEEEE"/>
<path d="M14.9995 23.5163H14.6714V23.8445H14.9995V23.5163Z" fill="#EEEEEE"/>
<path d="M14.9995 24.0665H14.6714V24.3946H14.9995V24.0665Z" fill="#EEEEEE"/>
<path d="M14.9995 24.6167H14.6714V24.9449H14.9995V24.6167Z" fill="#EEEEEE"/>
<path d="M14.9995 25.1669H14.6714V25.495H14.9995V25.1669Z" fill="#EEEEEE"/>
<path d="M14.9995 25.717H14.6714V26.0452H14.9995V25.717Z" fill="#EEEEEE"/>
<path d="M14.9995 26.2672H14.6714V26.5953H14.9995V26.2672Z" fill="#EEEEEE"/>
<path d="M14.9995 26.8173H14.6714V27.1454H14.9995V26.8173Z" fill="#EEEEEE"/>
<path d="M14.9995 27.3674H14.6714V27.6956H14.9995V27.3674Z" fill="#EEEEEE"/>
<path d="M14.9995 27.9176H14.6714V28.2457H14.9995V27.9176Z" fill="#EEEEEE"/>
<path d="M14.4783 18.0148H14.1501V18.3429H14.4783V18.0148Z" fill="#EEEEEE"/>
<path d="M14.4783 18.5651H14.1501V18.8932H14.4783V18.5651Z" fill="#EEEEEE"/>
<path d="M14.4783 19.1152H14.1501V19.4433H14.4783V19.1152Z" fill="#EEEEEE"/>
<path d="M14.4783 19.6653H14.1501V19.9935H14.4783V19.6653Z" fill="#EEEEEE"/>
<path d="M14.4783 20.2155H14.1501V20.5436H14.4783V20.2155Z" fill="#EEEEEE"/>
<path d="M14.4783 20.7656H14.1501V21.0938H14.4783V20.7656Z" fill="#EEEEEE"/>
<path d="M14.4783 21.3158H14.1501V21.6439H14.4783V21.3158Z" fill="#EEEEEE"/>
<path d="M14.4783 21.8659H14.1501V22.1941H14.4783V21.8659Z" fill="#EEEEEE"/>
<path d="M14.4783 22.4161H14.1501V22.7442H14.4783V22.4161Z" fill="#EEEEEE"/>
<path d="M14.4783 22.9662H14.1501V23.2943H14.4783V22.9662Z" fill="#EEEEEE"/>
<path d="M14.4783 23.5163H14.1501V23.8445H14.4783V23.5163Z" fill="#EEEEEE"/>
<path d="M14.4783 24.0665H14.1501V24.3946H14.4783V24.0665Z" fill="#EEEEEE"/>
<path d="M14.4783 24.6167H14.1501V24.9449H14.4783V24.6167Z" fill="#EEEEEE"/>
<path d="M14.4783 25.1669H14.1501V25.495H14.4783V25.1669Z" fill="#EEEEEE"/>
<path d="M14.4783 25.717H14.1501V26.0452H14.4783V25.717Z" fill="#EEEEEE"/>
<path d="M13.9572 18.0148H13.629V18.3429H13.9572V18.0148Z" fill="#EEEEEE"/>
<path d="M13.9572 18.5651H13.629V18.8932H13.9572V18.5651Z" fill="#EEEEEE"/>
<path d="M13.9572 19.1152H13.629V19.4433H13.9572V19.1152Z" fill="#EEEEEE"/>
<path d="M13.9572 19.6653H13.629V19.9935H13.9572V19.6653Z" fill="#EEEEEE"/>
<path d="M13.9572 20.2155H13.629V20.5436H13.9572V20.2155Z" fill="#EEEEEE"/>
<path d="M13.9572 20.7656H13.629V21.0938H13.9572V20.7656Z" fill="#EEEEEE"/>
<path d="M13.9572 21.3158H13.629V21.6439H13.9572V21.3158Z" fill="#EEEEEE"/>
<path d="M13.9572 21.8659H13.629V22.1941H13.9572V21.8659Z" fill="#EEEEEE"/>
<path d="M13.9572 22.4161H13.629V22.7442H13.9572V22.4161Z" fill="#EEEEEE"/>
<path d="M13.9572 22.9662H13.629V23.2943H13.9572V22.9662Z" fill="#EEEEEE"/>
<path d="M13.9572 23.5163H13.629V23.8445H13.9572V23.5163Z" fill="#EEEEEE"/>
<path d="M13.9572 24.0665H13.629V24.3946H13.9572V24.0665Z" fill="#EEEEEE"/>
<path d="M13.9572 24.6167H13.629V24.9449H13.9572V24.6167Z" fill="#EEEEEE"/>
<path d="M13.4359 18.0148H13.1078V18.3429H13.4359V18.0148Z" fill="#EEEEEE"/>
<path d="M13.4359 18.5651H13.1078V18.8932H13.4359V18.5651Z" fill="#EEEEEE"/>
<path d="M13.4359 19.1152H13.1078V19.4433H13.4359V19.1152Z" fill="#EEEEEE"/>
<path d="M13.4359 19.6653H13.1078V19.9935H13.4359V19.6653Z" fill="#EEEEEE"/>
<path d="M13.4359 20.2155H13.1078V20.5436H13.4359V20.2155Z" fill="#EEEEEE"/>
<path d="M13.4359 20.7656H13.1078V21.0938H13.4359V20.7656Z" fill="#EEEEEE"/>
<path d="M13.4359 21.3158H13.1078V21.6439H13.4359V21.3158Z" fill="#EEEEEE"/>
<path d="M13.4359 21.8659H13.1078V22.1941H13.4359V21.8659Z" fill="#EEEEEE"/>
<path d="M13.4359 22.4161H13.1078V22.7442H13.4359V22.4161Z" fill="#EEEEEE"/>
<path d="M13.4359 22.9662H13.1078V23.2943H13.4359V22.9662Z" fill="#EEEEEE"/>
<path d="M13.4359 23.5163H13.1078V23.8445H13.4359V23.5163Z" fill="#EEEEEE"/>
<path d="M13.4359 24.0665H13.1078V24.3946H13.4359V24.0665Z" fill="#EEEEEE"/>
<path d="M43.8584 17.8507H43.5303V18.1789H43.8584V17.8507Z" fill="#EEEEEE"/>
<path d="M43.8584 18.4009H43.5303V18.729H43.8584V18.4009Z" fill="#EEEEEE"/>
<path d="M43.8584 18.9511H43.5303V19.2793H43.8584V18.9511Z" fill="#EEEEEE"/>
<path d="M43.8584 19.5013H43.5303V19.8294H43.8584V19.5013Z" fill="#EEEEEE"/>
<path d="M43.8584 20.0514H43.5303V20.3796H43.8584V20.0514Z" fill="#EEEEEE"/>
<path d="M43.8584 20.6016H43.5303V20.9297H43.8584V20.6016Z" fill="#EEEEEE"/>
<path d="M43.8584 21.1517H43.5303V21.4798H43.8584V21.1517Z" fill="#EEEEEE"/>
<path d="M43.8584 21.7018H43.5303V22.03H43.8584V21.7018Z" fill="#EEEEEE"/>
<path d="M43.8584 22.252H43.5303V22.5801H43.8584V22.252Z" fill="#EEEEEE"/>
<path d="M43.8584 22.8021H43.5303V23.1303H43.8584V22.8021Z" fill="#EEEEEE"/>
<path d="M43.8584 23.3523H43.5303V23.6804H43.8584V23.3523Z" fill="#EEEEEE"/>
<path d="M43.8584 23.9024H43.5303V24.2305H43.8584V23.9024Z" fill="#EEEEEE"/>
<path d="M43.8584 24.4525H43.5303V24.7807H43.8584V24.4525Z" fill="#EEEEEE"/>
<path d="M43.8584 25.0028H43.5303V25.3309H43.8584V25.0028Z" fill="#EEEEEE"/>
<path d="M43.8584 25.553H43.5303V25.8811H43.8584V25.553Z" fill="#EEEEEE"/>
<path d="M43.8584 26.1031H43.5303V26.4312H43.8584V26.1031Z" fill="#EEEEEE"/>
<path d="M43.8584 26.6532H43.5303V26.9814H43.8584V26.6532Z" fill="#EEEEEE"/>
<path d="M43.8584 27.7535H43.5303V28.0817H43.8584V27.7535Z" fill="#EEEEEE"/>
<path d="M43.8584 28.3037H43.5303V28.6318H43.8584V28.3037Z" fill="#EEEEEE"/>
<path d="M43.8584 28.8538H43.5303V29.1819H43.8584V28.8538Z" fill="#EEEEEE"/>
<path d="M43.8584 29.4039H43.5303V29.7321H43.8584V29.4039Z" fill="#EEEEEE"/>
<path d="M43.8584 29.9541H43.5303V30.2822H43.8584V29.9541Z" fill="#EEEEEE"/>
<path d="M43.3372 17.8507H43.009V18.1789H43.3372V17.8507Z" fill="#EEEEEE"/>
<path d="M43.3372 18.4009H43.009V18.729H43.3372V18.4009Z" fill="#EEEEEE"/>
<path d="M43.3372 18.9511H43.009V19.2793H43.3372V18.9511Z" fill="#EEEEEE"/>
<path d="M43.3372 19.5013H43.009V19.8294H43.3372V19.5013Z" fill="#EEEEEE"/>
<path d="M43.3372 20.0514H43.009V20.3796H43.3372V20.0514Z" fill="#EEEEEE"/>
<path d="M43.3372 20.6016H43.009V20.9297H43.3372V20.6016Z" fill="#EEEEEE"/>
<path d="M43.3372 21.1517H43.009V21.4798H43.3372V21.1517Z" fill="#EEEEEE"/>
<path d="M43.3372 21.7018H43.009V22.03H43.3372V21.7018Z" fill="#EEEEEE"/>
<path d="M43.3372 22.252H43.009V22.5801H43.3372V22.252Z" fill="#EEEEEE"/>
<path d="M43.3372 22.8021H43.009V23.1303H43.3372V22.8021Z" fill="#EEEEEE"/>
<path d="M43.3372 23.3523H43.009V23.6804H43.3372V23.3523Z" fill="#EEEEEE"/>
<path d="M43.3372 23.9024H43.009V24.2305H43.3372V23.9024Z" fill="#EEEEEE"/>
<path d="M43.3372 24.4525H43.009V24.7807H43.3372V24.4525Z" fill="#EEEEEE"/>
<path d="M43.3372 25.0028H43.009V25.3309H43.3372V25.0028Z" fill="#EEEEEE"/>
<path d="M43.3372 25.553H43.009V25.8811H43.3372V25.553Z" fill="#EEEEEE"/>
<path d="M43.3372 26.1031H43.009V26.4312H43.3372V26.1031Z" fill="#EEEEEE"/>
<path d="M43.3372 29.4039H43.009V29.7321H43.3372V29.4039Z" fill="#EEEEEE"/>
<path d="M43.3372 29.9541H43.009V30.2822H43.3372V29.9541Z" fill="#EEEEEE"/>
<path d="M42.8159 17.8507H42.4878V18.1789H42.8159V17.8507Z" fill="#EEEEEE"/>
<path d="M42.8159 18.4009H42.4878V18.729H42.8159V18.4009Z" fill="#EEEEEE"/>
<path d="M42.8159 18.9511H42.4878V19.2793H42.8159V18.9511Z" fill="#EEEEEE"/>
<path d="M42.8159 19.5013H42.4878V19.8294H42.8159V19.5013Z" fill="#EEEEEE"/>
<path d="M42.8159 20.0514H42.4878V20.3796H42.8159V20.0514Z" fill="#EEEEEE"/>
<path d="M42.8159 20.6016H42.4878V20.9297H42.8159V20.6016Z" fill="#EEEEEE"/>
<path d="M42.8159 21.1517H42.4878V21.4798H42.8159V21.1517Z" fill="#EEEEEE"/>
<path d="M42.8159 21.7018H42.4878V22.03H42.8159V21.7018Z" fill="#EEEEEE"/>
<path d="M42.8159 22.252H42.4878V22.5801H42.8159V22.252Z" fill="#EEEEEE"/>
<path d="M42.8159 22.8021H42.4878V23.1303H42.8159V22.8021Z" fill="#EEEEEE"/>
<path d="M42.8159 23.3523H42.4878V23.6804H42.8159V23.3523Z" fill="#EEEEEE"/>
<path d="M42.8159 23.9024H42.4878V24.2305H42.8159V23.9024Z" fill="#EEEEEE"/>
<path d="M42.8159 24.4525H42.4878V24.7807H42.8159V24.4525Z" fill="#EEEEEE"/>
<path d="M42.8159 25.0028H42.4878V25.3309H42.8159V25.0028Z" fill="#EEEEEE"/>
<path d="M42.8159 25.553H42.4878V25.8811H42.8159V25.553Z" fill="#EEEEEE"/>
<path d="M42.8159 26.1031H42.4878V26.4312H42.8159V26.1031Z" fill="#EEEEEE"/>
<path d="M42.8159 27.2034H42.4878V27.5315H42.8159V27.2034Z" fill="#EEEEEE"/>
<path d="M42.8159 27.7535H42.4878V28.0817H42.8159V27.7535Z" fill="#EEEEEE"/>
<path d="M42.8159 28.3037H42.4878V28.6318H42.8159V28.3037Z" fill="#EEEEEE"/>
<path d="M42.8159 28.8538H42.4878V29.1819H42.8159V28.8538Z" fill="#EEEEEE"/>
<path d="M42.8159 29.9541H42.4878V30.2822H42.8159V29.9541Z" fill="#EEEEEE"/>
<path d="M33.724 21.7018H33.3959V22.03H33.724V21.7018Z" fill="#EEEEEE"/>
<path d="M33.724 22.252H33.3959V22.5801H33.724V22.252Z" fill="#EEEEEE"/>
<path d="M33.724 22.8021H33.3959V23.1303H33.724V22.8021Z" fill="#EEEEEE"/>
<path d="M33.724 23.3523H33.3959V23.6804H33.724V23.3523Z" fill="#EEEEEE"/>
<path d="M33.724 23.9024H33.3959V24.2305H33.724V23.9024Z" fill="#EEEEEE"/>
<path d="M33.724 24.4525H33.3959V24.7807H33.724V24.4525Z" fill="#EEEEEE"/>
<path d="M33.724 25.0028H33.3959V25.3309H33.724V25.0028Z" fill="#EEEEEE"/>
<path d="M33.724 25.553H33.3959V25.8811H33.724V25.553Z" fill="#EEEEEE"/>
<path d="M33.724 26.1031H33.3959V26.4312H33.724V26.1031Z" fill="#EEEEEE"/>
<path d="M33.724 26.6532H33.3959V26.9814H33.724V26.6532Z" fill="#EEEEEE"/>
<path d="M33.724 27.2034H33.3959V27.5315H33.724V27.2034Z" fill="#EEEEEE"/>
<path d="M33.724 27.7535H33.3959V28.0817H33.724V27.7535Z" fill="#EEEEEE"/>
<path d="M33.724 28.3037H33.3959V28.6318H33.724V28.3037Z" fill="#EEEEEE"/>
<path d="M33.724 29.4039H33.3959V29.7321H33.724V29.4039Z" fill="#EEEEEE"/>
<path d="M33.724 29.9541H33.3959V30.2822H33.724V29.9541Z" fill="#EEEEEE"/>
<path d="M33.724 30.5042H33.3959V30.8324H33.724V30.5042Z" fill="#EEEEEE"/>
<path d="M33.724 31.0544H33.3959V31.3825H33.724V31.0544Z" fill="#EEEEEE"/>
<path d="M33.724 32.1548H33.3959V32.4829H33.724V32.1548Z" fill="#EEEEEE"/>
<path d="M33.724 32.7049H33.3959V33.0331H33.724V32.7049Z" fill="#EEEEEE"/>
<path d="M33.724 33.2551H33.3959V33.5832H33.724V33.2551Z" fill="#EEEEEE"/>
<path d="M33.2028 21.7018H32.8746V22.03H33.2028V21.7018Z" fill="#EEEEEE"/>
<path d="M33.2028 22.252H32.8746V22.5801H33.2028V22.252Z" fill="#EEEEEE"/>
<path d="M33.2028 22.8021H32.8746V23.1303H33.2028V22.8021Z" fill="#EEEEEE"/>
<path d="M33.2028 23.3523H32.8746V23.6804H33.2028V23.3523Z" fill="#EEEEEE"/>
<path d="M33.2028 23.9024H32.8746V24.2305H33.2028V23.9024Z" fill="#EEEEEE"/>
<path d="M33.2028 24.4525H32.8746V24.7807H33.2028V24.4525Z" fill="#EEEEEE"/>
<path d="M33.2028 25.0028H32.8746V25.3309H33.2028V25.0028Z" fill="#EEEEEE"/>
<path d="M33.2028 25.553H32.8746V25.8811H33.2028V25.553Z" fill="#EEEEEE"/>
<path d="M33.2028 26.1031H32.8746V26.4312H33.2028V26.1031Z" fill="#EEEEEE"/>
<path d="M33.2028 26.6532H32.8746V26.9814H33.2028V26.6532Z" fill="#EEEEEE"/>
<path d="M33.2028 27.2034H32.8746V27.5315H33.2028V27.2034Z" fill="#EEEEEE"/>
<path d="M33.2028 27.7535H32.8746V28.0817H33.2028V27.7535Z" fill="#EEEEEE"/>
<path d="M33.2028 28.3037H32.8746V28.6318H33.2028V28.3037Z" fill="#EEEEEE"/>
<path d="M33.2028 29.9541H32.8746V30.2822H33.2028V29.9541Z" fill="#EEEEEE"/>
<path d="M33.2028 30.5042H32.8746V30.8324H33.2028V30.5042Z" fill="#EEEEEE"/>
<path d="M33.2028 31.6045H32.8746V31.9326H33.2028V31.6045Z" fill="#EEEEEE"/>
<path d="M33.2028 32.1548H32.8746V32.4829H33.2028V32.1548Z" fill="#EEEEEE"/>
<path d="M33.2028 32.7049H32.8746V33.0331H33.2028V32.7049Z" fill="#EEEEEE"/>
<path d="M33.2028 33.2551H32.8746V33.5832H33.2028V33.2551Z" fill="#EEEEEE"/>
<path d="M32.6815 21.7018H32.3534V22.03H32.6815V21.7018Z" fill="#EEEEEE"/>
<path d="M32.6815 22.252H32.3534V22.5801H32.6815V22.252Z" fill="#EEEEEE"/>
<path d="M32.6815 22.8021H32.3534V23.1303H32.6815V22.8021Z" fill="#EEEEEE"/>
<path d="M32.6815 23.3523H32.3534V23.6804H32.6815V23.3523Z" fill="#EEEEEE"/>
<path d="M32.6815 23.9024H32.3534V24.2305H32.6815V23.9024Z" fill="#EEEEEE"/>
<path d="M32.6815 24.4525H32.3534V24.7807H32.6815V24.4525Z" fill="#EEEEEE"/>
<path d="M32.6815 25.0028H32.3534V25.3309H32.6815V25.0028Z" fill="#EEEEEE"/>
<path d="M32.6815 25.553H32.3534V25.8811H32.6815V25.553Z" fill="#EEEEEE"/>
<path d="M32.6815 26.1031H32.3534V26.4312H32.6815V26.1031Z" fill="#EEEEEE"/>
<path d="M32.6815 26.6532H32.3534V26.9814H32.6815V26.6532Z" fill="#EEEEEE"/>
<path d="M32.6815 27.2034H32.3534V27.5315H32.6815V27.2034Z" fill="#EEEEEE"/>
<path d="M32.6815 27.7535H32.3534V28.0817H32.6815V27.7535Z" fill="#EEEEEE"/>
<path d="M32.6815 28.3037H32.3534V28.6318H32.6815V28.3037Z" fill="#EEEEEE"/>
<path d="M32.6815 28.8538H32.3534V29.1819H32.6815V28.8538Z" fill="#EEEEEE"/>
<path d="M32.6815 29.9541H32.3534V30.2822H32.6815V29.9541Z" fill="#EEEEEE"/>
<path d="M32.6815 31.0544H32.3534V31.3825H32.6815V31.0544Z" fill="#EEEEEE"/>
<path d="M32.6815 31.6045H32.3534V31.9326H32.6815V31.6045Z" fill="#EEEEEE"/>
<path d="M32.6815 32.1548H32.3534V32.4829H32.6815V32.1548Z" fill="#EEEEEE"/>
<path d="M32.6815 32.7049H32.3534V33.0331H32.6815V32.7049Z" fill="#EEEEEE"/>
<path d="M32.6815 33.2551H32.3534V33.5832H32.6815V33.2551Z" fill="#EEEEEE"/>
<path d="M35.8474 24.8387H35.5192V25.1669H35.8474V24.8387Z" fill="#EEEEEE"/>
<path d="M35.8474 25.3889H35.5192V25.717H35.8474V25.3889Z" fill="#EEEEEE"/>
<path d="M35.8474 25.939H35.5192V26.2672H35.8474V25.939Z" fill="#EEEEEE"/>
<path d="M35.8474 26.4892H35.5192V26.8173H35.8474V26.4892Z" fill="#EEEEEE"/>
<path d="M35.8474 27.0393H35.5192V27.3674H35.8474V27.0393Z" fill="#EEEEEE"/>
<path d="M35.8474 27.5894H35.5192V27.9176H35.8474V27.5894Z" fill="#EEEEEE"/>
<path d="M35.8474 29.2399H35.5192V29.568H35.8474V29.2399Z" fill="#EEEEEE"/>
<path d="M35.8474 29.79H35.5192V30.1182H35.8474V29.79Z" fill="#EEEEEE"/>
<path d="M35.8474 30.3402H35.5192V30.6683H35.8474V30.3402Z" fill="#EEEEEE"/>
<path d="M35.8474 30.8903H35.5192V31.2184H35.8474V30.8903Z" fill="#EEEEEE"/>
<path d="M35.8474 31.4404H35.5192V31.7686H35.8474V31.4404Z" fill="#EEEEEE"/>
<path d="M35.8474 31.9906H35.5192V32.3187H35.8474V31.9906Z" fill="#EEEEEE"/>
<path d="M35.8474 32.5408H35.5192V32.869H35.8474V32.5408Z" fill="#EEEEEE"/>
<path d="M35.3262 24.8387H34.9981V25.1669H35.3262V24.8387Z" fill="#EEEEEE"/>
<path d="M35.3262 25.3889H34.9981V25.717H35.3262V25.3889Z" fill="#EEEEEE"/>
<path d="M35.3262 25.939H34.9981V26.2672H35.3262V25.939Z" fill="#EEEEEE"/>
<path d="M35.3262 26.4892H34.9981V26.8173H35.3262V26.4892Z" fill="#EEEEEE"/>
<path d="M35.3262 27.0393H34.9981V27.3674H35.3262V27.0393Z" fill="#EEEEEE"/>
<path d="M35.3262 27.5894H34.9981V27.9176H35.3262V27.5894Z" fill="#EEEEEE"/>
<path d="M35.3262 29.2399H34.9981V29.568H35.3262V29.2399Z" fill="#EEEEEE"/>
<path d="M35.3262 29.79H34.9981V30.1182H35.3262V29.79Z" fill="#EEEEEE"/>
<path d="M35.3262 30.3402H34.9981V30.6683H35.3262V30.3402Z" fill="#EEEEEE"/>
<path d="M35.3262 30.8903H34.9981V31.2184H35.3262V30.8903Z" fill="#EEEEEE"/>
<path d="M35.3262 31.4404H34.9981V31.7686H35.3262V31.4404Z" fill="#EEEEEE"/>
<path d="M35.3262 31.9906H34.9981V32.3187H35.3262V31.9906Z" fill="#EEEEEE"/>
<path d="M35.3262 33.091H34.9981V33.4191H35.3262V33.091Z" fill="#EEEEEE"/>
<path d="M18.0108 22.4161H17.6827V22.7442H18.0108V22.4161Z" fill="#EEEEEE"/>
<path d="M18.0108 22.9662H17.6827V23.2943H18.0108V22.9662Z" fill="#EEEEEE"/>
<path d="M18.0108 23.5163H17.6827V23.8445H18.0108V23.5163Z" fill="#EEEEEE"/>
<path d="M18.0108 24.0665H17.6827V24.3946H18.0108V24.0665Z" fill="#EEEEEE"/>
<path d="M18.0108 24.6167H17.6827V24.9449H18.0108V24.6167Z" fill="#EEEEEE"/>
<path d="M18.0108 25.1669H17.6827V25.495H18.0108V25.1669Z" fill="#EEEEEE"/>
<path d="M18.0108 25.717H17.6827V26.0452H18.0108V25.717Z" fill="#EEEEEE"/>
<path d="M18.0108 26.2672H17.6827V26.5953H18.0108V26.2672Z" fill="#EEEEEE"/>
<path d="M18.0108 26.8173H17.6827V27.1454H18.0108V26.8173Z" fill="#EEEEEE"/>
<path d="M18.0108 27.3674H17.6827V27.6956H18.0108V27.3674Z" fill="#EEEEEE"/>
<path d="M18.0108 27.9176H17.6827V28.2457H18.0108V27.9176Z" fill="#EEEEEE"/>
<path d="M18.0108 29.0179H17.6827V29.346H18.0108V29.0179Z" fill="#EEEEEE"/>
<path d="M18.0108 29.568H17.6827V29.8962H18.0108V29.568Z" fill="#EEEEEE"/>
<path d="M18.0108 30.1182H17.6827V30.4463H18.0108V30.1182Z" fill="#EEEEEE"/>
<path d="M18.0108 30.6683H17.6827V30.9964H18.0108V30.6683Z" fill="#EEEEEE"/>
<path d="M18.0108 31.2184H17.6827V31.5466H18.0108V31.2184Z" fill="#EEEEEE"/>
<path d="M18.0108 31.7687H17.6827V32.0968H18.0108V31.7687Z" fill="#EEEEEE"/>
<path d="M18.0108 32.3188H17.6827V32.647H18.0108V32.3188Z" fill="#EEEEEE"/>
<path d="M18.0108 32.869H17.6827V33.1971H18.0108V32.869Z" fill="#EEEEEE"/>
<path d="M17.4898 22.4161H17.1616V22.7442H17.4898V22.4161Z" fill="#EEEEEE"/>
<path d="M17.4898 22.9662H17.1616V23.2943H17.4898V22.9662Z" fill="#EEEEEE"/>
<path d="M17.4898 23.5163H17.1616V23.8445H17.4898V23.5163Z" fill="#EEEEEE"/>
<path d="M17.4898 24.0665H17.1616V24.3946H17.4898V24.0665Z" fill="#EEEEEE"/>
<path d="M17.4898 24.6167H17.1616V24.9449H17.4898V24.6167Z" fill="#EEEEEE"/>
<path d="M17.4898 25.1669H17.1616V25.495H17.4898V25.1669Z" fill="#EEEEEE"/>
<path d="M17.4898 25.717H17.1616V26.0452H17.4898V25.717Z" fill="#EEEEEE"/>
<path d="M17.4898 26.2672H17.1616V26.5953H17.4898V26.2672Z" fill="#EEEEEE"/>
<path d="M17.4898 26.8173H17.1616V27.1454H17.4898V26.8173Z" fill="#EEEEEE"/>
<path d="M17.4898 27.3674H17.1616V27.6956H17.4898V27.3674Z" fill="#EEEEEE"/>
<path d="M17.4898 27.9176H17.1616V28.2457H17.4898V27.9176Z" fill="#EEEEEE"/>
<path d="M17.4898 28.4677H17.1616V28.7959H17.4898V28.4677Z" fill="#EEEEEE"/>
<path d="M17.4898 29.0179H17.1616V29.346H17.4898V29.0179Z" fill="#EEEEEE"/>
<path d="M17.4898 29.568H17.1616V29.8962H17.4898V29.568Z" fill="#EEEEEE"/>
<path d="M17.4898 30.1182H17.1616V30.4463H17.4898V30.1182Z" fill="#EEEEEE"/>
<path d="M17.4898 30.6683H17.1616V30.9964H17.4898V30.6683Z" fill="#EEEEEE"/>
<path d="M17.4898 31.2184H17.1616V31.5466H17.4898V31.2184Z" fill="#EEEEEE"/>
<path d="M17.4898 31.7687H17.1616V32.0968H17.4898V31.7687Z" fill="#EEEEEE"/>
<path d="M17.4898 32.3188H17.1616V32.647H17.4898V32.3188Z" fill="#EEEEEE"/>
<path d="M17.4898 32.869H17.1616V33.1971H17.4898V32.869Z" fill="#EEEEEE"/>
<path d="M20.5783 24.5588H20.2502V24.887H20.5783V24.5588Z" fill="#EEEEEE"/>
<path d="M20.5783 25.109H20.2502V25.4371H20.5783V25.109Z" fill="#EEEEEE"/>
<path d="M20.5783 25.6591H20.2502V25.9872H20.5783V25.6591Z" fill="#EEEEEE"/>
<path d="M20.5783 26.2092H20.2502V26.5374H20.5783V26.2092Z" fill="#EEEEEE"/>
<path d="M20.5783 26.7594H20.2502V27.0875H20.5783V26.7594Z" fill="#EEEEEE"/>
<path d="M20.5783 27.3095H20.2502V27.6377H20.5783V27.3095Z" fill="#EEEEEE"/>
<path d="M20.5783 27.8597H20.2502V28.1878H20.5783V27.8597Z" fill="#EEEEEE"/>
<path d="M20.5783 28.4098H20.2502V28.7379H20.5783V28.4098Z" fill="#EEEEEE"/>
<path d="M20.5783 28.9599H20.2502V29.2881H20.5783V28.9599Z" fill="#EEEEEE"/>
<path d="M20.5783 29.5101H20.2502V29.8382H20.5783V29.5101Z" fill="#EEEEEE"/>
<path d="M20.0571 24.5588H19.7289V24.887H20.0571V24.5588Z" fill="#EEEEEE"/>
<path d="M20.0571 25.109H19.7289V25.4371H20.0571V25.109Z" fill="#EEEEEE"/>
<path d="M20.0571 25.6591H19.7289V25.9872H20.0571V25.6591Z" fill="#EEEEEE"/>
<path d="M20.0571 26.2092H19.7289V26.5374H20.0571V26.2092Z" fill="#EEEEEE"/>
<path d="M20.0571 26.7594H19.7289V27.0875H20.0571V26.7594Z" fill="#EEEEEE"/>
<path d="M20.0571 27.3095H19.7289V27.6377H20.0571V27.3095Z" fill="#EEEEEE"/>
<path d="M20.0571 27.8597H19.7289V28.1878H20.0571V27.8597Z" fill="#EEEEEE"/>
<path d="M20.0571 28.4098H19.7289V28.7379H20.0571V28.4098Z" fill="#EEEEEE"/>
<path d="M20.0571 28.9599H19.7289V29.2881H20.0571V28.9599Z" fill="#EEEEEE"/>
<path d="M23.1583 8.08882H22.6074V34.3643H23.1583V8.08882Z" fill="#EEEEEE"/>
<path d="M33.5193 8.08882H32.9684V34.3643H33.5193V8.08882Z" fill="#EEEEEE"/>
<path d="M43.8804 8.08882H43.3295V34.3643H43.8804V8.08882Z" fill="#EEEEEE"/>
<path d="M27.5 48.1145C37.7173 48.1145 46 47.473 46 46.6818C46 45.8906 37.7173 45.2491 27.5 45.2491C17.2827 45.2491 9 45.8906 9 46.6818C9 47.473 17.2827 48.1145 27.5 48.1145Z" fill="#EEEEEE"/>
<path d="M35.3812 42.8834H17.5719C17.0732 42.8834 16.6689 42.4791 16.6689 41.9804V15.3479C16.6689 14.8492 17.0732 14.445 17.5719 14.445H35.3811C35.8798 14.445 36.2841 14.8492 36.2841 15.3479V41.9804C36.2841 42.4793 35.8798 42.8834 35.3812 42.8834Z" fill="#263238"/>
<path opacity="0.4" d="M35.3812 42.8834H17.5719C17.0732 42.8834 16.6689 42.4791 16.6689 41.9804V15.3479C16.6689 14.8492 17.0732 14.445 17.5719 14.445H35.3811C35.8798 14.445 36.2841 14.8492 36.2841 15.3479V41.9804C36.2841 42.4793 35.8798 42.8834 35.3812 42.8834Z" fill="white"/>
<path opacity="0.2" d="M35.3495 16.5271H18.3515V41.7763H35.3495V16.5271Z" fill="black"/>
<path d="M26.9979 14.0731C26.9979 13.7853 26.7649 13.5511 26.4759 13.5511C26.1881 13.5511 25.9539 13.7853 25.9539 14.0731H22.2212C22.0762 14.0731 21.9587 14.1906 21.9587 14.3356V17.0555H30.9944V14.3356C30.9944 14.1906 30.8769 14.0731 30.7319 14.0731H26.9979ZM26.4759 13.8003C26.6267 13.8003 26.7487 13.9224 26.7487 14.0731C26.7487 14.2238 26.6267 14.3459 26.4759 14.3459C26.3252 14.3459 26.2031 14.2238 26.2031 14.0731C26.2031 13.9224 26.3252 13.8003 26.4759 13.8003Z" fill="#263238"/>
<path d="M34.9755 16.1531H17.9775V41.4023H34.9755V16.1531Z" fill="white"/>
<path opacity="0.7" d="M34.9755 16.1531H17.9775V41.4023H34.9755V16.1531Z" fill="white"/>
<g opacity="0.4">
<path d="M32.292 18.9475H20.6609V19.5704H32.292V18.9475Z" fill="black"/>
</g>
<g opacity="0.4">
<path d="M32.292 21.1605H21.9076V21.4097H32.292V21.1605Z" fill="black"/>
</g>
<g opacity="0.4">
<path d="M32.292 22.1264H20.6609V22.3756H32.292V22.1264Z" fill="black"/>
</g>
<g opacity="0.4">
<path d="M32.292 23.0921H20.6609V23.3413H32.292V23.0921Z" fill="black"/>
</g>
<g opacity="0.4">
<path d="M32.292 24.058H20.6609V24.3071H32.292V24.058Z" fill="black"/>
</g>
<g opacity="0.4">
<path d="M32.292 25.0236H20.6609V25.2728H32.292V25.0236Z" fill="black"/>
</g>
<g opacity="0.4">
<path d="M32.292 25.9893H20.6609V26.2385H32.292V25.9893Z" fill="black"/>
</g>
<g opacity="0.4">
<path d="M26.0592 26.9552H20.6609V27.2044H26.0592V26.9552Z" fill="black"/>
</g>
<g opacity="0.4">
<path d="M22.6973 30.8831H20.6611V28.8467H22.6973V30.8831ZM20.9102 30.6339H22.4482V29.0958H20.9102V30.6339Z" fill="black"/>
</g>
<g opacity="0.4">
<path d="M32.2921 29.3624H23.3601V29.6116H32.2921V29.3624Z" fill="black"/>
<path d="M29.4464 30.118H23.3601V30.3672H29.4464V30.118Z" fill="black"/>
</g>
<g opacity="0.4">
<path d="M22.6973 34.6227H20.6611V32.5863H22.6973V34.6227ZM20.9102 34.3735H22.4482V32.8355H20.9102V34.3735Z" fill="black"/>
</g>
<g opacity="0.4">
<path d="M32.2921 33.1021H23.3601V33.3512H32.2921V33.1021Z" fill="black"/>
<path d="M29.4464 33.8578H23.3601V34.1069H29.4464V33.8578Z" fill="black"/>
</g>
<g opacity="0.4">
<path d="M22.6973 38.3624H20.6611V36.326H22.6973V38.3624ZM20.9102 38.1133H22.4482V36.5752H20.9102V38.1133Z" fill="black"/>
</g>
<g opacity="0.4">
<path d="M32.2921 36.8419H23.3601V37.0911H32.2921V36.8419Z" fill="black"/>
<path d="M29.4464 37.5975H23.3601V37.8467H29.4464V37.5975Z" fill="black"/>
</g>
<path d="M21.4612 30.4398L21.0978 29.938L21.2997 29.7917L21.4832 30.0454L22.0676 29.4032L22.2519 29.5707L21.4612 30.4398Z" fill="#1976D2"/>
<path d="M21.4612 34.1797L21.0978 33.6775L21.2997 33.5315L21.4832 33.7851L22.0676 33.1428L22.2519 33.3105L21.4612 34.1797Z" fill="#1976D2"/>
<path d="M21.4612 37.9193L21.0978 37.4172L21.2997 37.2712L21.4832 37.5249L22.0676 36.8827L22.2519 37.0503L21.4612 37.9193Z" fill="#1976D2"/>
<g opacity="0.2">
<path d="M29.6239 17.8023H23.5785C23.3512 17.8023 23.1852 17.6174 23.2083 17.3901L23.374 15.7659C23.3972 15.5387 23.6009 15.3538 23.8281 15.3538H29.8736C30.1008 15.3538 30.2667 15.5387 30.2436 15.7659L30.078 17.3901C30.0548 17.6174 29.8511 17.8023 29.6239 17.8023ZM23.8027 15.6031C23.7129 15.6031 23.6323 15.6761 23.6232 15.766L23.4575 17.3903C23.4484 17.4801 23.5141 17.5532 23.6039 17.5532H29.6493C29.7391 17.5532 29.8196 17.4802 29.8288 17.3903L29.9944 15.766C30.0036 15.6762 29.938 15.6031 29.8482 15.6031H23.8027Z" fill="black"/>
</g>
<path d="M29.4994 17.6777H23.4539C23.2267 17.6777 23.0418 17.4928 23.0418 17.2656V15.6413C23.0418 15.4141 23.2267 15.2292 23.4539 15.2292H29.4994C29.7266 15.2292 29.9115 15.4141 29.9115 15.6413V17.2656C29.9114 17.4928 29.7265 17.6777 29.4994 17.6777ZM23.4538 15.4785C23.364 15.4785 23.2908 15.5515 23.2908 15.6414V17.2657C23.2908 17.3555 23.364 17.4286 23.4538 17.4286H29.4992C29.5891 17.4286 29.6622 17.3556 29.6622 17.2657V15.6414C29.6622 15.5516 29.5892 15.4785 29.4992 15.4785H23.4538Z" fill="white"/>
<path d="M28.8539 15.8632H24.0991C23.9967 15.8632 23.9137 15.7802 23.9137 15.6778V15.03C23.9137 14.9276 23.9967 14.8446 24.0991 14.8446H28.8539C28.9563 14.8446 29.0393 14.9276 29.0393 15.03V15.6778C29.0393 15.7802 28.9563 15.8632 28.8539 15.8632Z" fill="#263238"/>
<path opacity="0.1" d="M28.8539 15.8632H24.0991C23.9967 15.8632 23.9137 15.7802 23.9137 15.6778V15.03C23.9137 14.9276 23.9967 14.8446 24.0991 14.8446H28.8539C28.9563 14.8446 29.0393 14.9276 29.0393 15.03V15.6778C29.0393 15.7802 28.9563 15.8632 28.8539 15.8632Z" fill="white"/>
<path d="M14.9514 44.0117C14.9514 44.0117 15.5432 42.7206 14.8671 41.4477C14.191 40.1749 13.9949 39.8751 14.426 39.6143C14.857 39.3536 15.0547 40.6325 15.0547 40.6325C15.0547 40.6325 15.418 39.7526 15.118 38.8318C14.818 37.9109 14.6299 36.4111 15.0395 36.2503C15.4492 36.0895 15.1177 38.1214 15.4732 38.8139C15.4732 38.8139 15.7718 38.0429 15.8209 37.3032C15.8699 36.5636 15.7932 35.3826 16.1167 35.0796C16.4403 34.7767 16.6476 34.9863 16.3296 36.6186C16.0117 38.2508 16.0141 39.5776 16.0141 39.5776C16.0141 39.5776 16.7163 37.4365 17.1876 37.374C17.6589 37.3116 17.6583 38.0049 17.2549 38.6063C16.8515 39.2077 16.0735 40.2852 15.9459 40.8395C15.9459 40.8395 16.7167 39.2282 17.4101 39.7221C18.1035 40.2159 16.8067 41.1891 16.2286 41.5408C15.6506 41.8925 15.2492 44.0969 15.2492 44.0969L14.9514 44.0117Z" fill="#1976D2"/>
<path opacity="0.2" d="M14.9514 44.0117C14.9514 44.0117 15.5432 42.7206 14.8671 41.4477C14.191 40.1749 13.9949 39.8751 14.426 39.6143C14.857 39.3536 15.0547 40.6325 15.0547 40.6325C15.0547 40.6325 15.418 39.7526 15.118 38.8318C14.818 37.9109 14.6299 36.4111 15.0395 36.2503C15.4492 36.0895 15.1177 38.1214 15.4732 38.8139C15.4732 38.8139 15.7718 38.0429 15.8209 37.3032C15.8699 36.5636 15.7932 35.3826 16.1167 35.0796C16.4403 34.7767 16.6476 34.9863 16.3296 36.6186C16.0117 38.2508 16.0141 39.5776 16.0141 39.5776C16.0141 39.5776 16.7163 37.4365 17.1876 37.374C17.6589 37.3116 17.6583 38.0049 17.2549 38.6063C16.8515 39.2077 16.0735 40.2852 15.9459 40.8395C15.9459 40.8395 16.7167 39.2282 17.4101 39.7221C18.1035 40.2159 16.8067 41.1891 16.2286 41.5408C15.6506 41.8925 15.2492 44.0969 15.2492 44.0969L14.9514 44.0117Z" fill="black"/>
<path d="M15.4184 44.5413C15.4184 44.5413 14.8423 43.2414 15.5335 41.9788C16.225 40.7162 16.4244 40.4193 15.9966 40.1521C15.5688 39.8849 15.3556 41.1608 15.3556 41.1608C15.3556 41.1608 15.003 40.2756 15.3139 39.3593C15.625 38.443 15.831 36.9461 15.4233 36.7791C15.0155 36.6122 15.3226 38.6488 14.9589 39.3361C14.9589 39.3361 14.6696 38.5608 14.6293 37.8204C14.5891 37.0801 14.6801 35.9004 14.3601 35.5925C14.0402 35.2848 13.8305 35.4912 14.1289 37.1281C14.4273 38.7649 14.409 40.0916 14.409 40.0916C14.409 40.0916 13.7325 37.9402 13.262 37.8707C12.7914 37.8012 12.7837 38.4946 13.1799 39.1019C13.576 39.7092 14.3411 40.7982 14.4619 41.3544C14.4619 41.3544 13.7106 39.7318 13.0113 40.2153C12.3121 40.6988 13.5972 41.6912 14.1709 42.0515C14.7447 42.4117 15.1196 44.6219 15.1196 44.6219L15.4184 44.5413Z" fill="#1976D2"/>
<path d="M12.7608 43.6147H17.5211L17.1358 47.0212H13.146L12.7608 43.6147Z" fill="#263238"/>
<path d="M41.2669 41.9185H33.9626V47.0212H41.2669V41.9185Z" fill="#1565C0"/>
<path opacity="0.2" d="M35.7964 41.9185H33.9626V47.0212H41.267L35.7964 46.8627V41.9185Z" fill="black"/>
<path opacity="0.7" d="M35.0481 41.9185H34.6046V42.2017H35.0481V41.9185Z" fill="white"/>
<path opacity="0.7" d="M35.0481 46.738H34.6046V47.0212H35.0481V46.738Z" fill="white"/>
<path d="M40.5689 43.398L40.5672 43.4026L40.3351 43.9904L40.2479 44.2115L40.0842 43.9153L39.7623 44.0199L40.0836 43.2064L40.2875 43.287L40.5566 43.3933L40.5689 43.398Z" fill="#022B55"/>
<g opacity="0.2">
<path d="M40.25 44.1033L40.11 43.8497L39.8347 43.9392L40.1126 43.2352L40.5279 43.3991L40.25 44.1033ZM40.1152 43.8368L40.2484 44.078L40.514 43.4051L40.1187 43.249L39.8531 43.9219L40.1152 43.8368Z" fill="white"/>
</g>
<path opacity="0.2" d="M40.5672 43.4026L40.3351 43.9905C40.1943 43.6697 40.1835 43.3443 40.1835 43.3443L40.2875 43.287L40.5566 43.3934L40.5672 43.4026Z" fill="black"/>
<path d="M40.5143 44.2115L40.678 43.9153L40.9998 44.0199L40.6787 43.2064L40.1932 43.398L40.5143 44.2115Z" fill="#022B55"/>
<g opacity="0.2">
<path d="M40.2342 43.3991L40.6495 43.2352L40.9275 43.9392L40.6522 43.8497L40.5121 44.1033L40.2342 43.3991ZM40.9092 43.922L40.6436 43.2492L40.2483 43.4052L40.5139 44.0781L40.647 43.8369L40.9092 43.922Z" fill="white"/>
</g>
<path d="M40.3811 42.2465L40.4385 42.2017L40.4869 42.2561L40.5515 42.2222L40.5895 42.2844L40.6591 42.2626L40.6854 42.3305L40.7577 42.3215L40.7715 42.393L40.8442 42.397L40.845 42.4699L40.9159 42.4869L40.9035 42.5587L40.9703 42.588L40.9454 42.6565L41.0058 42.6973L40.9691 42.7602L41.0211 42.8111L40.9738 42.8664L41.016 42.9259L40.9595 42.9718L40.9905 43.0379L40.9266 43.073L40.9453 43.1435L40.8763 43.1667L40.882 43.2393L40.8099 43.2499L40.8026 43.3224L40.7298 43.3198L40.7097 43.3899L40.6384 43.3744L40.6062 43.4398L40.5389 43.4117L40.4955 43.4703L40.4342 43.4308L40.3811 43.4806L40.3279 43.4308L40.2667 43.4703L40.2232 43.4117L40.1559 43.4398L40.1237 43.3744L40.0524 43.3899L40.0324 43.3198L39.9595 43.3224L39.9523 43.2499L39.8801 43.2393L39.886 43.1667L39.8168 43.1435L39.8355 43.073L39.7716 43.0379L39.8026 42.9718L39.7461 42.9259L39.7883 42.8664L39.741 42.8111L39.7932 42.7602L39.7564 42.6973L39.8168 42.6565L39.7919 42.588L39.8586 42.5587L39.8464 42.4869L39.9172 42.4699L39.9179 42.397L39.9907 42.393L40.0045 42.3215L40.0767 42.3305L40.103 42.2626L40.1726 42.2844L40.2106 42.2222L40.2752 42.2561L40.3236 42.2017L40.3811 42.2465Z" fill="#1565C0"/>
<path opacity="0.2" d="M40.9323 42.8412C40.9323 43.1456 40.6855 43.3923 40.381 43.3923C40.0766 43.3923 39.8299 43.1455 39.8299 42.8412C39.8299 42.5368 40.0767 42.29 40.381 42.29C40.6855 42.2899 40.9323 42.5367 40.9323 42.8412Z" fill="black"/>
<path d="M40.1243 42.8618L40.2542 42.8505C40.2542 42.8505 40.278 42.7569 40.2633 42.5553C40.2633 42.5553 40.3081 42.547 40.3304 42.5519C40.3527 42.5567 40.3762 42.7809 40.3762 42.7809C40.3762 42.7809 40.6094 42.7487 40.6227 42.7578C40.6312 42.7637 40.6355 42.7982 40.6377 42.8227C40.6389 42.8371 40.6297 42.8501 40.6157 42.8539L40.6078 42.856L40.6121 43.0804C40.6125 43.0977 40.5993 43.1122 40.582 43.1136L40.3636 43.1309C40.3419 43.1327 40.3204 43.1278 40.3015 43.117L40.2766 43.1025L40.1426 43.1217L40.1243 42.8618Z" fill="#1565C0"/>
<path opacity="0.7" d="M40.1243 42.8618L40.2542 42.8505C40.2542 42.8505 40.278 42.7569 40.2633 42.5553C40.2633 42.5553 40.3081 42.547 40.3304 42.5519C40.3527 42.5567 40.3762 42.7809 40.3762 42.7809C40.3762 42.7809 40.6094 42.7487 40.6227 42.7578C40.6312 42.7637 40.6355 42.7982 40.6377 42.8227C40.6389 42.8371 40.6297 42.8501 40.6157 42.8539L40.6078 42.856L40.6121 43.0804C40.6125 43.0977 40.5993 43.1122 40.582 43.1136L40.3636 43.1309C40.3419 43.1327 40.3204 43.1278 40.3015 43.117L40.2766 43.1025L40.1426 43.1217L40.1243 42.8618Z" fill="white"/>
<path d="M40.6066 43.4033L40.6049 43.4077L40.3728 43.9956L40.2856 44.2168L40.1219 43.9204L39.8 44.025L40.1213 43.2117L40.3252 43.2921L40.5943 43.3985L40.6066 43.4033Z" fill="#022B55"/>
<g opacity="0.2">
<path d="M40.2877 44.1084L40.1477 43.855L39.8724 43.9444L40.1503 43.2403L40.5657 43.4043L40.2877 44.1084ZM40.1529 43.8419L40.2861 44.0831L40.5517 43.4103L40.1564 43.2542L39.8908 43.9269L40.1529 43.8419Z" fill="white"/>
</g>
<path opacity="0.2" d="M40.6049 43.4078L40.3728 43.9956C40.232 43.6749 40.2212 43.3495 40.2212 43.3495L40.3252 43.2921L40.5943 43.3985L40.6049 43.4078Z" fill="black"/>
<path d="M40.5522 44.2167L40.7158 43.9205L41.0375 44.025L40.7164 43.2115L40.2309 43.4031L40.5522 44.2167Z" fill="#022B55"/>
<g opacity="0.2">
<path d="M40.2719 43.4044L40.6872 43.2404L40.9651 43.9446L40.6898 43.8551L40.5498 44.1085L40.2719 43.4044ZM40.9468 43.9271L40.6812 43.2544L40.2859 43.4105L40.5515 44.0833L40.6847 43.8422L40.9468 43.9271Z" fill="white"/>
</g>
<path d="M40.4188 42.2518L40.4762 42.2068L40.5247 42.2613L40.5893 42.2274L40.6273 42.2895L40.6968 42.2677L40.7231 42.3358L40.7954 42.3267L40.8092 42.3983L40.882 42.4023L40.8827 42.4752L40.9536 42.492L40.9413 42.5639L41.008 42.5933L40.983 42.6617L41.0435 42.7024L41.0067 42.7654L41.0589 42.8163L41.0115 42.8717L41.0538 42.931L40.9972 42.9771L41.0282 43.043L40.9643 43.0782L40.983 43.1486L40.914 43.1719L40.9197 43.2446L40.8476 43.255L40.8404 43.3275L40.7676 43.325L40.7474 43.3951L40.6763 43.3796L40.6439 43.4449L40.5766 43.417L40.5333 43.4755L40.472 43.4359L40.4188 43.4857L40.3656 43.4359L40.3044 43.4755L40.2609 43.417L40.1937 43.4449L40.1614 43.3796L40.0901 43.3951L40.0701 43.325L39.9972 43.3275L39.99 43.255L39.9178 43.2446L39.9237 43.1719L39.8546 43.1486L39.8732 43.0782L39.8093 43.043L39.8404 42.9771L39.7838 42.931L39.826 42.8717L39.7787 42.8163L39.8309 42.7654L39.7941 42.7024L39.8546 42.6617L39.8296 42.5933L39.8963 42.5639L39.8841 42.492L39.955 42.4752L39.9557 42.4023L40.0285 42.3983L40.0422 42.3267L40.1145 42.3358L40.1407 42.2677L40.2104 42.2895L40.2483 42.2274L40.3129 42.2613L40.3613 42.2068L40.4188 42.2518Z" fill="#069550"/>
<path opacity="0.2" d="M40.97 42.8463C40.97 43.1507 40.7232 43.3974 40.4189 43.3974C40.1144 43.3974 39.8676 43.1506 39.8676 42.8463C39.8676 42.5419 40.1144 42.2951 40.4189 42.2951C40.7232 42.2951 40.97 42.5419 40.97 42.8463Z" fill="black"/>
<rect x="39.8583" y="42.2966" width="1.12121" height="1.12121" rx="0.560606" fill="#16A75C"/>
<g clip-path="url(#clip1_7291_79367)">
<path d="M40.5602 42.713C40.567 42.7066 40.5759 42.7031 40.5851 42.7032C40.5944 42.7032 40.6033 42.7069 40.6099 42.7134C40.6165 42.7199 40.6203 42.7287 40.6205 42.7379C40.6208 42.7472 40.6174 42.7562 40.6112 42.763L40.4213 43.0005C40.418 43.004 40.4141 43.0068 40.4097 43.0088C40.4053 43.0108 40.4006 43.0118 40.3958 43.0119C40.391 43.012 40.3862 43.0111 40.3817 43.0093C40.3773 43.0075 40.3732 43.0049 40.3699 43.0015L40.2439 42.8755C40.2404 42.8722 40.2376 42.8683 40.2356 42.8639C40.2337 42.8595 40.2326 42.8548 40.2325 42.85C40.2325 42.8452 40.2333 42.8405 40.2351 42.836C40.2369 42.8316 40.2396 42.8275 40.243 42.8242C40.2464 42.8208 40.2504 42.8181 40.2549 42.8163C40.2593 42.8145 40.2641 42.8136 40.2689 42.8137C40.2737 42.8138 40.2784 42.8148 40.2828 42.8168C40.2872 42.8187 40.2911 42.8216 40.2944 42.8251L40.394 42.9247L40.5593 42.7141C40.5596 42.7137 40.56 42.7133 40.5603 42.713H40.5602Z" fill="white"/>
</g>
<path opacity="0.2" d="M35.7964 41.9185L33.9026 43.9904V41.9185H35.7964Z" fill="black"/>
<path d="M38.6885 36.8159H31.3842V41.9185H38.6885V36.8159Z" fill="#1565C0"/>
<path opacity="0.2" d="M33.218 36.8159H31.3842V41.9185H38.6886L33.218 41.7601V36.8159Z" fill="black"/>
<path opacity="0.7" d="M32.4696 36.8159H32.0261V37.0991H32.4696V36.8159Z" fill="white"/>
<path opacity="0.7" d="M32.4696 41.6354H32.0261V41.9185H32.4696V41.6354Z" fill="white"/>
<path d="M37.9905 38.2955L37.9887 38.3L37.7567 38.8879L37.6694 39.109L37.5058 38.8126L37.1838 38.9173L37.5051 38.1039L37.7091 38.1844L37.9782 38.2908L37.9905 38.2955Z" fill="#022B55"/>
<g opacity="0.2">
<path d="M37.6716 39.0006L37.5315 38.7473L37.2562 38.8367L37.5342 38.1326L37.9495 38.2965L37.6716 39.0006ZM37.5368 38.7342L37.67 38.9754L37.9356 38.3025L37.5403 38.1464L37.2747 38.8191L37.5368 38.7342Z" fill="white"/>
</g>
<path opacity="0.2" d="M37.9887 38.3L37.7567 38.8879C37.6159 38.5671 37.605 38.2417 37.605 38.2417L37.7091 38.1844L37.9782 38.2908L37.9887 38.3Z" fill="black"/>
<path d="M37.936 39.1089L38.0996 38.8128L38.4214 38.9173L38.1002 38.1038L37.6147 38.2954L37.936 39.1089Z" fill="#022B55"/>
<g opacity="0.2">
<path d="M37.6557 38.2966L38.071 38.1327L38.349 38.8368L38.0737 38.7474L37.9336 39.0008L37.6557 38.2966ZM38.3307 38.8194L38.0651 38.1467L37.6698 38.3028L37.9354 38.9756L38.0686 38.7344L38.3307 38.8194Z" fill="white"/>
</g>
<path d="M37.8026 37.144L37.8601 37.0991L37.9085 37.1535L37.9732 37.1196L38.0112 37.1818L38.0807 37.16L38.107 37.228L38.1792 37.2189L38.1931 37.2906L38.2658 37.2945L38.2666 37.3674L38.3374 37.3842L38.3251 37.4561L38.3919 37.4855L38.3668 37.5539L38.4274 37.5947L38.3905 37.6577L38.4427 37.7085L38.3954 37.764L38.4376 37.8233L38.381 37.8693L38.4121 37.9352L38.3482 37.9705L38.3668 38.0409L38.2978 38.0642L38.3036 38.1368L38.2314 38.1473L38.2242 38.2198L38.1514 38.2173L38.1313 38.2873L38.0601 38.2719L38.0277 38.3371L37.9605 38.3092L37.9171 38.3678L37.8558 38.3282L37.8026 38.378L37.7494 38.3282L37.6883 38.3678L37.6448 38.3092L37.5775 38.3371L37.5452 38.2719L37.474 38.2873L37.4539 38.2173L37.381 38.2198L37.3738 38.1473L37.3017 38.1368L37.3075 38.0642L37.2384 38.0409L37.2571 37.9705L37.1932 37.9352L37.2242 37.8693L37.1676 37.8233L37.2099 37.764L37.1625 37.7085L37.2147 37.6577L37.178 37.5947L37.2384 37.5539L37.2135 37.4855L37.2801 37.4561L37.2679 37.3842L37.3388 37.3674L37.3396 37.2945L37.4123 37.2906L37.426 37.2189L37.4984 37.228L37.5246 37.16L37.5942 37.1818L37.6322 37.1196L37.6967 37.1535L37.7452 37.0991L37.8026 37.144Z" fill="#E53935"/>
<path opacity="0.2" d="M38.3539 37.7385C38.3539 38.043 38.1071 38.2897 37.8027 38.2897C37.4983 38.2897 37.2515 38.0429 37.2515 37.7385C37.2515 37.4342 37.4983 37.1874 37.8027 37.1874C38.1071 37.1874 38.3539 37.4342 38.3539 37.7385Z" fill="black"/>
<g clip-path="url(#clip2_7291_79367)">
<circle cx="37.8027" cy="37.737" r="0.560606" fill="#EF5350"/>
<g clip-path="url(#clip3_7291_79367)">
<g clip-path="url(#clip4_7291_79367)">
<path fill-rule="evenodd" clip-rule="evenodd" d="M37.5976 37.5415C37.6128 37.5263 37.6399 37.5287 37.6582 37.547L37.9885 37.8773C38.0068 37.8956 38.0092 37.9227 37.994 37.9379C37.9788 37.9531 37.9517 37.9506 37.9335 37.9324L37.6031 37.602C37.5849 37.5838 37.5824 37.5567 37.5976 37.5415Z" fill="white"/>
<path fill-rule="evenodd" clip-rule="evenodd" d="M37.994 37.5415C38.0092 37.5567 38.0068 37.5838 37.9885 37.602L37.6582 37.9324C37.6399 37.9506 37.6128 37.9531 37.5976 37.9379C37.5824 37.9227 37.5849 37.8956 37.6031 37.8773L37.9335 37.547C37.9517 37.5287 37.9788 37.5263 37.994 37.5415Z" fill="white"/>
</g>
</g>
</g>
<path d="M34.47 41.9185H27.1656V47.0212H34.47V41.9185Z" fill="#1565C0"/>
<path opacity="0.2" d="M28.9995 41.9185H27.1656V47.0212H34.47L28.9995 46.8627V41.9185Z" fill="black"/>
<path opacity="0.7" d="M28.251 41.9185H27.8075V42.2017H28.251V41.9185Z" fill="white"/>
<path opacity="0.7" d="M28.251 46.738H27.8075V47.0212H28.251V46.738Z" fill="white"/>
<path d="M33.7719 43.398L33.7701 43.4026L33.538 43.9904L33.4508 44.2115L33.2871 43.9153L32.9652 44.0199L33.2865 43.2064L33.4904 43.287L33.7595 43.3933L33.7719 43.398Z" fill="#022B55"/>
<g opacity="0.2">
<path d="M33.4529 44.1033L33.3129 43.8498L33.0376 43.9392L33.3155 43.2352L33.7309 43.3992L33.4529 44.1033ZM33.3181 43.8368L33.4513 44.078L33.7169 43.4051L33.3216 43.249L33.056 43.9219L33.3181 43.8368Z" fill="white"/>
</g>
<path opacity="0.2" d="M33.7701 43.4026L33.538 43.9905C33.3973 43.6697 33.3864 43.3443 33.3864 43.3443L33.4904 43.287L33.7597 43.3934L33.7701 43.4026Z" fill="black"/>
<path d="M33.7174 44.2115L33.881 43.9153L34.2028 44.0199L33.8816 43.2064L33.3962 43.398L33.7174 44.2115Z" fill="#022B55"/>
<g opacity="0.2">
<path d="M33.4373 43.3992L33.8526 43.2352L34.1305 43.9392L33.8552 43.8498L33.7152 44.1033L33.4373 43.3992ZM34.1121 43.922L33.8465 43.2492L33.4512 43.4053L33.7168 44.0781L33.85 43.8369L34.1121 43.922Z" fill="white"/>
</g>
<path d="M33.584 42.2466L33.6414 42.2017L33.69 42.2561L33.7545 42.2223L33.7925 42.2844L33.8621 42.2626L33.8883 42.3305L33.9607 42.3216L33.9744 42.3931L34.0472 42.397L34.0479 42.4699L34.1188 42.4869L34.1065 42.5587L34.1733 42.588L34.1483 42.6565L34.2088 42.6973L34.172 42.7602L34.2242 42.8111L34.1767 42.8665L34.219 42.9259L34.1624 42.9719L34.1934 43.0379L34.1297 43.073L34.1483 43.1435L34.0792 43.1667L34.0851 43.2393L34.0129 43.2499L34.0056 43.3224L33.9328 43.3198L33.9126 43.3899L33.8415 43.3744L33.8092 43.4398L33.7418 43.4117L33.6985 43.4703L33.6372 43.4308L33.584 43.4806L33.5308 43.4308L33.4696 43.4703L33.4262 43.4117L33.3589 43.4398L33.3266 43.3744L33.2554 43.3899L33.2353 43.3198L33.1624 43.3224L33.1552 43.2499L33.0831 43.2393L33.0889 43.1667L33.0198 43.1435L33.0385 43.073L32.9747 43.0379L33.0056 42.9719L32.9491 42.9259L32.9914 42.8665L32.9439 42.8111L32.9961 42.7602L32.9594 42.6973L33.0198 42.6565L32.9949 42.588L33.0616 42.5587L33.0493 42.4869L33.1202 42.4699L33.1209 42.397L33.1937 42.3931L33.2074 42.3216L33.2798 42.3305L33.3061 42.2626L33.3756 42.2844L33.4136 42.2223L33.4781 42.2561L33.5266 42.2017L33.584 42.2466Z" fill="#1565C0"/>
<path opacity="0.2" d="M34.1352 42.8412C34.1352 43.1456 33.8884 43.3923 33.584 43.3923C33.2795 43.3923 33.0328 43.1455 33.0328 42.8412C33.0328 42.5368 33.2796 42.29 33.584 42.29C33.8883 42.29 34.1352 42.5367 34.1352 42.8412Z" fill="black"/>
<path d="M33.3274 42.8619L33.4573 42.8505C33.4573 42.8505 33.4811 42.757 33.4664 42.5553C33.4664 42.5553 33.5113 42.547 33.5336 42.5519C33.5559 42.5568 33.5793 42.7809 33.5793 42.7809C33.5793 42.7809 33.8125 42.7487 33.8258 42.7578C33.8343 42.7637 33.8387 42.7982 33.8407 42.8227C33.8419 42.8371 33.8327 42.8501 33.8189 42.8539L33.8109 42.856L33.8152 43.0804C33.8156 43.0977 33.8024 43.1123 33.7851 43.1136L33.5667 43.1309C33.5452 43.1327 33.5235 43.1278 33.5047 43.117L33.4798 43.1025L33.3457 43.1217L33.3274 42.8619Z" fill="#1565C0"/>
<path opacity="0.7" d="M33.3274 42.8619L33.4573 42.8505C33.4573 42.8505 33.4811 42.757 33.4664 42.5553C33.4664 42.5553 33.5113 42.547 33.5336 42.5519C33.5559 42.5568 33.5793 42.7809 33.5793 42.7809C33.5793 42.7809 33.8125 42.7487 33.8258 42.7578C33.8343 42.7637 33.8387 42.7982 33.8407 42.8227C33.8419 42.8371 33.8327 42.8501 33.8189 42.8539L33.8109 42.856L33.8152 43.0804C33.8156 43.0977 33.8024 43.1123 33.7851 43.1136L33.5667 43.1309C33.5452 43.1327 33.5235 43.1278 33.5047 43.117L33.4798 43.1025L33.3457 43.1217L33.3274 42.8619Z" fill="white"/>
<path d="M33.7548 43.4033L33.753 43.4077L33.5209 43.9956L33.4337 44.2168L33.27 43.9204L32.9481 44.025L33.2694 43.2117L33.4733 43.2921L33.7424 43.3985L33.7548 43.4033Z" fill="#022B55"/>
<g opacity="0.2">
<path d="M33.4359 44.1084L33.2958 43.855L33.0205 43.9444L33.2984 43.2403L33.7138 43.4043L33.4359 44.1084ZM33.3011 43.8419L33.4342 44.0831L33.6998 43.4103L33.3045 43.2542L33.0389 43.9269L33.3011 43.8419Z" fill="white"/>
</g>
<path opacity="0.2" d="M33.753 43.4078L33.5209 43.9956C33.3802 43.6749 33.3693 43.3495 33.3693 43.3495L33.4733 43.2921L33.7424 43.3985L33.753 43.4078Z" fill="black"/>
<path d="M33.7003 44.2167L33.8639 43.9205L34.1857 44.025L33.8645 43.2115L33.379 43.4031L33.7003 44.2167Z" fill="#022B55"/>
<g opacity="0.2">
<path d="M33.42 43.4044L33.8353 43.2404L34.1133 43.9446L33.8379 43.8551L33.6979 44.1085L33.42 43.4044ZM34.095 43.9271L33.8294 43.2544L33.4341 43.4105L33.6997 44.0833L33.8328 43.8422L34.095 43.9271Z" fill="white"/>
</g>
<path d="M33.5669 42.2518L33.6243 42.2068L33.6728 42.2613L33.7375 42.2274L33.7754 42.2895L33.845 42.2677L33.8713 42.3358L33.9435 42.3267L33.9573 42.3983L34.0301 42.4023L34.0308 42.4752L34.1017 42.492L34.0894 42.5639L34.1562 42.5933L34.1311 42.6617L34.1917 42.7024L34.1548 42.7654L34.207 42.8163L34.1597 42.8717L34.2019 42.931L34.1453 42.9771L34.1763 43.043L34.1124 43.0782L34.1311 43.1486L34.0621 43.1719L34.0678 43.2446L33.9957 43.255L33.9885 43.3275L33.9157 43.325L33.8955 43.3951L33.8244 43.3796L33.792 43.4449L33.7247 43.417L33.6814 43.4755L33.6201 43.4359L33.5669 43.4857L33.5137 43.4359L33.4525 43.4755L33.4091 43.417L33.3418 43.4449L33.3095 43.3796L33.2383 43.3951L33.2182 43.325L33.1453 43.3275L33.1381 43.255L33.066 43.2446L33.0718 43.1719L33.0027 43.1486L33.0214 43.0782L32.9575 43.043L32.9885 42.9771L32.9319 42.931L32.9742 42.8717L32.9268 42.8163L32.979 42.7654L32.9423 42.7024L33.0027 42.6617L32.9778 42.5933L33.0444 42.5639L33.0322 42.492L33.1031 42.4752L33.1038 42.4023L33.1766 42.3983L33.1903 42.3267L33.2627 42.3358L33.2888 42.2677L33.3585 42.2895L33.3965 42.2274L33.461 42.2613L33.5095 42.2068L33.5669 42.2518Z" fill="#069550"/>
<path opacity="0.2" d="M34.1181 42.8463C34.1181 43.1507 33.8714 43.3974 33.567 43.3974C33.2625 43.3974 33.0157 43.1506 33.0157 42.8463C33.0157 42.5419 33.2625 42.2951 33.567 42.2951C33.8714 42.2951 34.1181 42.5419 34.1181 42.8463Z" fill="black"/>
<rect x="33.0064" y="42.2966" width="1.12121" height="1.12121" rx="0.560606" fill="#16A75C"/>
<g clip-path="url(#clip5_7291_79367)">
<path d="M33.7084 42.713C33.7151 42.7066 33.724 42.7031 33.7333 42.7032C33.7425 42.7032 33.7514 42.7069 33.758 42.7134C33.7646 42.7199 33.7684 42.7287 33.7687 42.7379C33.7689 42.7472 33.7656 42.7562 33.7593 42.763L33.5694 43.0005C33.5661 43.004 33.5622 43.0068 33.5578 43.0088C33.5534 43.0108 33.5487 43.0118 33.5439 43.0119C33.5391 43.012 33.5343 43.0111 33.5299 43.0093C33.5254 43.0075 33.5214 43.0049 33.518 43.0015L33.392 42.8755C33.3885 42.8722 33.3857 42.8683 33.3838 42.8639C33.3818 42.8595 33.3808 42.8548 33.3807 42.85C33.3806 42.8452 33.3815 42.8405 33.3833 42.836C33.3851 42.8316 33.3877 42.8275 33.3911 42.8242C33.3945 42.8208 33.3986 42.8181 33.403 42.8163C33.4075 42.8145 33.4122 42.8136 33.417 42.8137C33.4218 42.8138 33.4265 42.8148 33.4309 42.8168C33.4353 42.8187 33.4392 42.8216 33.4425 42.8251L33.5422 42.9247L33.7075 42.7141C33.7078 42.7137 33.7081 42.7133 33.7084 42.713H33.7084Z" fill="white"/>
</g>
<path d="M36.4802 19.9087L36.4702 19.9349L35.1273 23.3359L34.6227 24.6153L33.6759 22.9011L31.8135 23.5065L33.6722 18.7999L34.8521 19.2659L36.4093 19.8813L36.4802 19.9087Z" fill="#263238"/>
<g opacity="0.2">
<path d="M34.6353 23.9887L33.8254 22.5223L32.2323 23.0401L33.8405 18.9666L36.2435 19.9152L34.6353 23.9887ZM33.8551 22.4471L34.6258 23.8427L36.1625 19.9501L33.8754 19.0472L32.3386 22.9398L33.8551 22.4471Z" fill="white"/>
</g>
<path opacity="0.2" d="M36.4702 19.9349L35.1273 23.3359C34.3125 21.4797 34.2502 19.5973 34.2502 19.5973L34.852 19.2659L36.4092 19.8814L36.4702 19.9349Z" fill="black"/>
<path d="M36.165 24.6151L37.1116 22.9012L38.9737 23.5062L37.1156 18.7995L34.3069 19.9084L36.165 24.6151Z" fill="#263238"/>
<g opacity="0.2">
<path d="M34.544 19.9151L36.9471 18.9664L38.5553 23.0399L36.9621 22.5222L36.1522 23.9886L34.544 19.9151ZM38.4487 22.9399L36.912 19.0473L34.6249 19.9502L36.1617 23.8428L36.9326 22.4472L38.4487 22.9399Z" fill="white"/>
</g>
<path d="M35.3936 13.2464L35.7259 12.9868L36.0065 13.3016L36.3799 13.1054L36.5998 13.4653L37.0022 13.339L37.1542 13.7324L37.5726 13.6798L37.6521 14.094L38.0732 14.1171L38.0774 14.5389L38.4875 14.6367L38.4164 15.0524L38.8026 15.222L38.6582 15.6184L39.0079 15.8542L38.7952 16.2184L39.0971 16.5127L38.8228 16.8332L39.0673 17.1767L38.7402 17.443L38.9195 17.8247L38.5501 18.0282L38.6582 18.4359L38.2584 18.5702L38.2921 18.9905L37.8747 19.0513L37.8328 19.4709L37.4113 19.4562L37.2951 19.8616L36.883 19.7719L36.6962 20.15L36.3068 19.988L36.0555 20.3267L35.7013 20.098L35.3936 20.3864L35.0859 20.098L34.7316 20.3267L34.4803 19.988L34.0909 20.15L33.9043 19.7719L33.4922 19.8616L33.3759 19.4562L32.9545 19.4709L32.9125 19.0513L32.4952 18.9905L32.5288 18.5702L32.129 18.4359L32.2372 18.0282L31.8678 17.8247L32.047 17.443L31.7199 17.1767L31.9643 16.8332L31.69 16.5127L31.992 16.2184L31.7793 15.8542L32.1289 15.6184L31.9846 15.222L32.3708 15.0524L32.2996 14.6367L32.7098 14.5389L32.714 14.1171L33.1351 14.094L33.2145 13.6798L33.6329 13.7324L33.785 13.339L34.1874 13.4653L34.4073 13.1054L34.7807 13.3016L35.0612 12.9868L35.3936 13.2464Z" fill="#069550"/>
<path opacity="0.2" d="M37.6482 18.9416C38.8936 17.6962 38.8936 15.677 37.6482 14.4316C36.4028 13.1862 34.3836 13.1862 33.1382 14.4316C31.8928 15.677 31.8928 17.6962 33.1382 18.9416C34.3836 20.187 36.4028 20.187 37.6482 18.9416Z" fill="black"/>
<rect x="32.1718" y="13.3569" width="6.60269" height="6.60269" rx="3.30135" fill="#16A75C"/>
<path d="M36.3055 15.8089C36.345 15.7713 36.3976 15.7505 36.4521 15.751C36.5066 15.7514 36.5588 15.7729 36.5977 15.8111C36.6366 15.8493 36.6592 15.9011 36.6606 15.9556C36.6621 16.0101 36.6423 16.0631 36.6055 16.1032L35.4871 17.5019C35.4678 17.5227 35.4446 17.5393 35.4188 17.5508C35.393 17.5624 35.3651 17.5686 35.3369 17.5691C35.3086 17.5696 35.2805 17.5644 35.2543 17.5539C35.2281 17.5433 35.2043 17.5275 35.1843 17.5076L34.4426 16.7659C34.422 16.7466 34.4054 16.7234 34.3939 16.6976C34.3824 16.6718 34.3763 16.644 34.3758 16.6158C34.3753 16.5876 34.3805 16.5595 34.391 16.5333C34.4016 16.5072 34.4173 16.4834 34.4373 16.4634C34.4573 16.4435 34.481 16.4277 34.5072 16.4171C34.5334 16.4066 34.5614 16.4014 34.5897 16.4019C34.6179 16.4024 34.6457 16.4086 34.6715 16.42C34.6973 16.4315 34.7205 16.4481 34.7398 16.4688L35.3267 17.0554L36.3002 15.8151C36.302 15.8129 36.3038 15.8109 36.3058 15.8089H36.3055Z" fill="white"/>
</g>
<defs>
<clipPath id="clip0_7291_79367">
<rect width="37" height="40.1145" fill="white" transform="translate(9 8)"/>
</clipPath>
<clipPath id="clip1_7291_79367">
<rect width="0.761577" height="0.761577" fill="white" transform="translate(40.0381 42.4765)"/>
</clipPath>
<clipPath id="clip2_7291_79367">
<rect width="1.12121" height="1.12121" fill="white" transform="translate(37.2421 37.1764)"/>
</clipPath>
<clipPath id="clip3_7291_79367">
<rect width="0.747475" height="0.747475" fill="white" transform="translate(37.4166 37.3758)"/>
</clipPath>
<clipPath id="clip4_7291_79367">
<rect width="0.616635" height="0.616635" fill="white" transform="translate(37.3542 37.7495) rotate(-45)"/>
</clipPath>
<clipPath id="clip5_7291_79367">
<rect width="0.761577" height="0.761577" fill="white" transform="translate(33.1862 42.4765)"/>
</clipPath>
</defs>
</svg>
